<svg xmlns="http://www.w3.org/2000/svg" version="1.0" viewBox="0 0 1754 325"><path fill="#FFBF80" fill-opacity=".1" d="M275.3 64.7c.9.2 2.5.2 3.5 0 .9-.3.1-.5-1.8-.5s-2.7.2-1.7.5m137 1c3.1.2 8.3.2 11.5 0 3.1-.2.5-.3-5.8-.3s-8.9.1-5.7.3m-120.5 51c2.3.2 5.9.2 8 0 2-.2.1-.4-4.3-.4s-6.1.2-3.7.4m143 1c.6.2 1.8.2 2.5 0 .6-.3.1-.5-1.3-.5s-1.9.2-1.2.5m6.5 0c1.5.2 3.7.2 5 0 1.2-.2 0-.4-2.8-.4-2.7 0-3.8.2-2.2.4m-68 20c3.2.2 8.1.2 11 0s.3-.3-5.8-.3c-6 0-8.4.1-5.2.3m18.5 55c3.4.2 9 .2 12.5 0 3.4-.2.6-.3-6.3-.3s-9.7.1-6.2.3m-145.5 20c3.1.2 8.3.2 11.5 0 3.1-.2.5-.3-5.8-.3s-8.9.1-5.7.3m154 1c1.5.2 3.9.2 5.5 0 1.5-.2.2-.4-2.8-.4s-4.3.2-2.7.4m-126 51c3.2.2 8.1.2 11 0s.3-.3-5.8-.3c-6 0-8.4.1-5.2.3"/><path fill="#FFBFBF" fill-opacity=".1" d="M283.3 64.7c.9.2 2.5.2 3.5 0 .9-.3.1-.5-1.8-.5s-2.7.2-1.7.5m149.5 1c1.2.2 3 .2 4 0 .9-.3-.1-.5-2.3-.4-2.2 0-3 .2-1.7.4m-152 51c1.2.2 3 .2 4 0 .9-.3-.1-.5-2.3-.4-2.2 0-3 .2-1.7.4m147 1c1.2.2 3.2.2 4.5 0 1.2-.2.2-.4-2.3-.4s-3.5.2-2.2.4m-37 20c1.2.2 3 .2 4 0 .9-.3-.1-.5-2.3-.4-2.2 0-3 .2-1.7.4m-11 55c1.2.2 3.2.2 4.5 0 1.2-.2.2-.4-2.3-.4s-3.5.2-2.2.4m-113 20c1.2.2 3 .2 4 0 .9-.3-.1-.5-2.3-.4-2.2 0-3 .2-1.7.4m-4.5 52c.9.2 2.5.2 3.5 0 .9-.3.1-.5-1.8-.5s-2.7.2-1.7.5"/><path fill="#FFBF40" fill-opacity=".3" d="M337.8 137.7c.7.3 1.6.2 1.9-.1.4-.3-.2-.6-1.3-.5-1.1 0-1.4.3-.6.6m4 0c.7.3 1.6.2 1.9-.1.4-.3-.2-.6-1.3-.5-1.1 0-1.4.3-.6.6m165 1c.7.3 1.6.2 1.9-.1.4-.3-.2-.6-1.3-.5-1.1 0-1.4.3-.6.6m-295.5 54c.9.2 2.5.2 3.5 0 .9-.3.1-.5-1.8-.5s-2.7.2-1.7.5m226.5 0c.6.2 1.8.2 2.5 0 .6-.3.1-.5-1.3-.5s-1.9.2-1.2.5m9 0c.6.2 1.8.2 2.5 0 .6-.3.1-.5-1.3-.5s-1.9.2-1.2.5m-69.5 21c.9.2 2.5.2 3.5 0 .9-.3.1-.5-1.8-.5s-2.7.2-1.7.5"/><path fill="#FFBF00" fill-opacity=".6" d="M277.3 65.7c2 .2 5.4.2 7.5 0 2-.2.3-.4-3.8-.4s-5.8.2-3.7.4m137.5 1c4.5.2 11.9.2 16.5 0 4.5-.1.8-.3-8.3-.3s-12.8.2-8.2.3m-130.5 49c3.7.2 9.7.2 13.5 0 3.7-.2.6-.3-6.8-.3s-10.5.1-6.7.3m146.5 1c3.4.2 8.8.2 12 0 3.1-.2.3-.3-6.3-.3s-9.2.1-5.7.3m-56.5 22c4.2.2 11.2.2 15.5 0 4.2-.1.7-.3-7.8-.3s-12 .2-7.7.3m11 53c4.8.2 12.5.2 17 0 4.5-.1.6-.3-8.8-.3-9.3 0-13 .2-8.2.3m-136.5 22c4.6.2 11.8.2 16 0 4.2-.1.5-.3-8.3-.3s-12.3.2-7.7.3m151 1c1.8.2 4.5.2 6 0s0-.4-3.3-.4-4.5.2-2.7.4m-132.5 49c4.2.2 11.2.2 15.5 0 4.2-.1.7-.3-7.8-.3s-12 .2-7.7.3"/><path fill="#FFBF00" fill-opacity=".5" d="M304.3 65.7c9.2.2 24.2.2 33.5 0 9.2-.1 1.6-.3-16.8-.3s-26 .2-16.7.3m142 1c4.2.2 11.2.2 15.5 0 4.2-.1.7-.3-7.8-.3s-12 .2-7.7.3m-187 49c3.7.2 9.6.2 13 0s.4-.3-6.8-.3c-7.1 0-9.9.1-6.2.3m109.5 1c10.6.2 27.7.2 38 0 10.3-.1 1.6-.2-19.3-.2s-29.3.1-18.7.2m-136 22c3.9.2 10.5.2 14.5 0 3.9-.1.7-.3-7.3-.3s-11.2.2-7.2.3m183.4 0c10.8.2 28.8.2 40 0 11.2-.1 2.3-.2-19.7-.2s-31.1.1-20.3.2m-100.9 53c11.4.2 30 .2 41.5 0 11.4-.1 2-.2-20.8-.2s-32.2.1-20.7.2m-49.5 1c1.2.2 3 .2 4 0 .9-.3-.1-.5-2.3-.4-2.2 0-3 .2-1.7.4m219.5 0c.9.2 2.5.2 3.5 0 .9-.3.1-.5-1.8-.5s-2.7.2-1.7.5m-194.6 21c10.5.2 28.1.2 39 0 10.9-.1 2.3-.2-19.2-.2-21.4 0-30.4.1-19.8.2m-99.8 49.6c.4.4 16.2.6 35.2.5l34.4-.3-35.2-.5c-19.4-.3-34.9-.2-34.4.3m167.4 1.4c5.4.2 13.9.2 19 0 5.1-.1.7-.3-9.8-.3-10.4 0-14.6.2-9.2.3"/><path fill="#FFBF00" fill-opacity=".4" d="M354.8 65.7c.6.2 1.8.2 2.5 0 .6-.3.1-.5-1.3-.5s-1.9.2-1.2.5m129 73c.7.3 1.6.2 1.9-.1.4-.3-.2-.6-1.3-.5-1.1 0-1.4.3-.6.6m-245.5 54c.9.2 2.5.2 3.5 0 .9-.3.1-.5-1.8-.5s-2.7.2-1.7.5m243.5 0c.7.3 1.6.2 1.9-.1.4-.3-.2-.6-1.3-.5-1.1 0-1.4.3-.6.6m-132 21c.7.3 1.6.2 1.9-.1.4-.3-.2-.6-1.3-.5-1.1 0-1.4.3-.6.6m4 0c.6.2 1.8.2 2.5 0 .6-.3.1-.5-1.3-.5s-1.9.2-1.2.5m-8 51c.6.2 1.8.2 2.5 0 .6-.3.1-.5-1.3-.5s-1.9.2-1.2.5"/><path fill="#BFBF00" fill-opacity=".4" d="M358.8 65.7c.7.3 1.6.2 1.9-.1.4-.3-.2-.6-1.3-.5-1.1 0-1.4.3-.6.6m-14 51c.6.2 1.8.2 2.5 0 .6-.3.1-.5-1.3-.5s-1.9.2-1.2.5m-110 76c.7.3 1.6.2 1.9-.1.4-.3-.2-.6-1.3-.5-1.1 0-1.4.3-.6.6m226 0c.7.3 1.6.2 1.9-.1.4-.3-.2-.6-1.3-.5-1.1 0-1.4.3-.6.6"/><path fill="#BFBF00" fill-opacity=".3" d="M230.3 192.7c.9.2 2.3.2 3 0 .6-.3-.1-.5-1.8-.5-1.6 0-2.2.2-1.2.5m225.5 0c.6.2 1.8.2 2.5 0 .6-.3.1-.5-1.3-.5s-1.9.2-1.2.5"/><path fill="#BFBF40" fill-opacity=".3" d="M325.8 116.7c.7.3 1.6.2 1.9-.1.4-.3-.2-.6-1.3-.5-1.1 0-1.4.3-.6.6m-107.1 76c1.8.2 5 .2 7 0 2.1-.2.7-.4-3.2-.4-3.8 0-5.5.2-3.8.4m223.6 0c.9.2 2.3.2 3 0 .6-.3-.1-.5-1.8-.5-1.6 0-2.2.2-1.2.5m8.5 0c.6.2 1.8.2 2.5 0 .6-.3.1-.5-1.3-.5s-1.9.2-1.2.5m-68 21c.7.3 1.6.2 1.9-.1.4-.3-.2-.6-1.3-.5-1.1 0-1.4.3-.6.6"/><path fill="#BFBF40" fill-opacity=".2" d="M319.8 116.7c.7.3 1.6.2 1.9-.1.4-.3-.2-.6-1.3-.5-1.1 0-1.4.3-.6.6m30.5 21c.9.2 2.3.2 3 0 .6-.3-.1-.5-1.8-.5-1.6 0-2.2.2-1.2.5m-145.5 55c.6.2 1.8.2 2.5 0 .6-.3.1-.5-1.3-.5s-1.9.2-1.2.5m223 0c1.7.2 4.7.2 6.5 0 1.7-.2.3-.4-3.3-.4s-5 .2-3.2.4m-209.5 20c.9.2 2.3.2 3 0 .6-.3-.1-.5-1.8-.5-1.6 0-2.2.2-1.2.5m6.5 0c.6.2 1.8.2 2.5 0 .6-.3.1-.5-1.3-.5s-1.9.2-1.2.5m78 52c.7.3 1.6.2 1.9-.1.4-.3-.2-.6-1.3-.5-1.1 0-1.4.3-.6.6"/><path fill="#FFBF40" fill-opacity=".2" d="M388.3 65.7c.9.2 2.3.2 3 0 .6-.3-.1-.5-1.8-.5-1.6 0-2.2.2-1.2.5m-82.5 199c.7.3 1.6.2 1.9-.1.4-.3-.2-.6-1.3-.5-1.1 0-1.4.3-.6.6"/><path fill="#FFBF80" fill-opacity=".2" d="M396.7 65.7c1.8.2 5 .2 7 0 2.1-.2.7-.4-3.2-.4-3.8 0-5.5.2-3.8.4m-90.9 51c1.7.2 4.7.2 6.5 0 1.7-.2.3-.4-3.3-.4s-5 .2-3.2.4m51.5 21c2 .2 5.4.2 7.5 0 2-.2.3-.4-3.8-.4s-5.8.2-3.7.4m56.5 55c2.3.2 5.9.2 8 0 2-.2.1-.4-4.3-.4s-6.1.2-3.7.4m-183.1 20c1.8.2 5 .2 7 0 2.1-.2.7-.4-3.2-.4-3.8 0-5.5.2-3.8.4m161.1 1c1.2.2 3.2.2 4.5 0 1.2-.2.2-.4-2.3-.4s-3.5.2-2.2.4m-99 51c1.7.2 4.7.2 6.5 0 1.7-.2.3-.4-3.3-.4s-5 .2-3.2.4"/><path fill="#BFBF00" fill-opacity=".7" d="M388.3 66.7c.9.2 2.3.2 3 0 .6-.3-.1-.5-1.8-.5-1.6 0-2.2.2-1.2.5m-82.5 197c.7.3 1.6.2 1.9-.1.4-.3-.2-.6-1.3-.5-1.1 0-1.4.3-.6.6"/><path fill="#FFBF00" d="m263.9 90.3-10.5 24.4 72.5.6c39.9.4 83.6.7 97.1.7h24.6l10.6-24.3c5.8-13.3 10.5-24.3 10.4-24.3 0-.1-43.7-.4-97.1-.8l-97-.7zm-48 74.6L205.3 191h27.6c15.2 0 29.9.3 32.6.6l5 .6 10.6-25.8c5.8-14.3 10.6-26 10.5-26-.1-.1-14.7-.5-32.6-.8l-32.5-.7zm90.1-.1-10.6 25.7 97.1.5c53.3.3 97.1.5 97.2.5 0 0 4.9-11.5 10.6-25.5l10.5-25.5-19.6-.6c-10.8-.4-54.6-.7-97.2-.8l-77.5-.1zm-94.8 53.3c-1.1 2.4-5.8 13.3-10.6 24.3-4.8 10.9-8.6 20-8.4 20.1s43.9.4 97.2.6l96.8.4 10.5-23.9c5.7-13.1 10.2-24 10-24.3-.3-.2-43.9-.7-97-1l-96.6-.6z"/><path fill="#FFBF00" fill-opacity=".9" d="M358.8 66.7c.7.3 1.6.2 1.9-.1.4-.3-.2-.6-1.3-.5-1.1 0-1.4.3-.6.6m-14 49c.6.2 1.8.2 2.5 0 .6-.3.1-.5-1.3-.5s-1.9.2-1.2.5m-84 24c.7.3 1.6.2 1.9-.1.4-.3-.2-.6-1.3-.5-1.1 0-1.4.3-.6.6m216 0c.7.3 1.6.2 1.9-.1.4-.3-.2-.6-1.3-.5-1.1 0-1.4.3-.6.6m10 0c.7.3 1.6.2 1.9-.1.4-.3-.2-.6-1.3-.5-1.1 0-1.4.3-.6.6m-26 52c.7.3 1.6.2 1.9-.1.4-.3-.2-.6-1.3-.5-1.1 0-1.4.3-.6.6"/><path fill="#BFBF00" fill-opacity=".9" d="M355.8 66.7c.7.3 1.6.2 1.9-.1.4-.3-.2-.6-1.3-.5-1.1 0-1.4.3-.6.6m128 73c.7.3 1.6.2 1.9-.1.4-.3-.2-.6-1.3-.5-1.1 0-1.4.3-.6.6m-245.5 52c.9.2 2.5.2 3.5 0 .9-.3.1-.5-1.8-.5s-2.7.2-1.7.5m115.5 23c.6.2 1.8.2 2.5 0 .6-.3.1-.5-1.3-.5s-1.9.2-1.2.5m-8 49c.7.3 1.6.2 1.9-.1.4-.3-.2-.6-1.3-.5-1.1 0-1.4.3-.6.6"/><path fill="#FFBF00" fill-opacity=".8" d="M326.3 115.7c.9.2 2.3.2 3 0 .6-.3-.1-.5-1.8-.5-1.6 0-2.2.2-1.2.5m8.5 0c.7.3 1.6.2 1.9-.1.4-.3-.2-.6-1.3-.5-1.1 0-1.4.3-.6.6m166 24c.7.3 1.6.2 1.9-.1.4-.3-.2-.6-1.3-.5-1.1 0-1.4.3-.6.6m4 0c.7.3 1.6.2 1.9-.1.4-.3-.2-.6-1.3-.5-1.1 0-1.4.3-.6.6m-284 52c2.9.2 7.4.2 10 0s.2-.3-5.3-.3-7.6.1-4.7.3m220 0c1.2.2 3 .2 4 0 .9-.3-.1-.5-2.3-.4-2.2 0-3 .2-1.7.4m10 0c.6.2 1.8.2 2.5 0 .6-.3.1-.5-1.3-.5s-1.9.2-1.2.5m5 0c.6.2 1.8.2 2.5 0 .6-.3.1-.5-1.3-.5s-1.9.2-1.2.5m-73 23c.7.3 1.6.2 1.9-.1.4-.3-.2-.6-1.3-.5-1.1 0-1.4.3-.6.6m-67 49c.7.3 1.6.2 1.9-.1.4-.3-.2-.6-1.3-.5-1.1 0-1.4.3-.6.6"/><path fill="#BFBF00" fill-opacity=".8" d="M288.8 139.7c.7.3 1.6.2 1.9-.1.4-.3-.2-.6-1.3-.5-1.1 0-1.4.3-.6.6m219 0c.7.3 1.6.2 1.9-.1.4-.3-.2-.6-1.3-.5-1.1 0-1.4.3-.6.6m-294 52c.7.3 1.6.2 1.9-.1.4-.3-.2-.6-1.3-.5-1.1 0-1.4.3-.6.6m233 0c.6.2 1.8.2 2.5 0 .6-.3.1-.5-1.3-.5s-1.9.2-1.2.5m-67 23c.7.3 1.6.2 1.9-.1.4-.3-.2-.6-1.3-.5-1.1 0-1.4.3-.6.6"/><path fill="#FFBF00" fill-opacity=".7" d="M395.8 66.7c2.3.2 5.9.2 8 0 2-.2.1-.4-4.3-.4s-6.1.2-3.7.4m-89.5 49c1.5.2 3.9.2 5.5 0 1.5-.2.2-.4-2.8-.4s-4.3.2-2.7.4m13.5 0c.7.3 1.6.2 1.9-.1.4-.3-.2-.6-1.3-.5-1.1 0-1.4.3-.6.6m33.5 23c2.6.2 6.8.2 9.5 0 2.6-.2.4-.3-4.8-.3s-7.4.1-4.7.3m-147.5 53c.7.3 1.6.2 1.9-.1.4-.3-.2-.6-1.3-.5-1.1 0-1.4.3-.6.6m207.5 0c2 .2 5.4.2 7.5 0 2-.2.3-.4-3.8-.4s-5.8.2-3.7.4m14.5 0c1.7.2 4.7.2 6.5 0 1.7-.2.3-.4-3.3-.4s-5 .2-3.2.4m-209.5 22c.9.2 2.3.2 3 0 .6-.3-.1-.5-1.8-.5-1.6 0-2.2.2-1.2.5m10 0c2.6.2 6.7.2 9 0s.2-.3-4.8-.3c-4.9 0-6.8.1-4.2.3m163.5 1c1.2.2 3 .2 4 0 .9-.3-.1-.5-2.3-.4-2.2 0-3 .2-1.7.4m-98 49c2.3.2 5.9.2 8 0 2-.2.1-.4-4.3-.4s-6.1.2-3.7.4"/><path fill="gray" fill-opacity=".1" d="M644.4 151.5c0 7.1.1 9.9.3 6.2s.2-9.6 0-13-.3-.4-.3 6.8m36 0c0 7.1.1 9.9.3 6.2s.2-9.6 0-13-.3-.4-.3 6.8m50.4-4c-.2 4.7 0 8.5.5 8.5.4 0 .7-3.8.7-8.5s-.2-8.5-.4-8.5c-.3 0-.6 3.8-.8 8.5m229.5-2c0 3.8.2 5.3.4 3.2.2-2 .2-5.2 0-7-.2-1.7-.4-.1-.4 3.8m53.1 13c0 11 .2 15.6.3 10.3.2-5.3.2-14.3 0-20-.1-5.7-.3-1.3-.3 9.7m121 0c0 11 .2 15.6.3 10.3.2-5.3.2-14.3 0-20-.1-5.7-.3-1.3-.3 9.7m120.4-11c-.2 4.7 0 8.5.5 8.5.4 0 .7-3.8.7-8.5s-.2-8.5-.4-8.5c-.3 0-.6 3.8-.8 8.5m190.6 11c0 11 .2 15.6.3 10.3.2-5.3.2-14.3 0-20-.1-5.7-.3-1.3-.3 9.7m7 0c0 11 .2 15.6.3 10.3.2-5.3.2-14.3 0-20-.1-5.7-.3-1.3-.3 9.7m58.4-11c-.2 4.7 0 8.5.5 8.5.4 0 .7-3.8.7-8.5s-.2-8.5-.4-8.5c-.3 0-.6 3.8-.8 8.5m-411.6 3.5c0 1.4.2 1.9.5 1.2.2-.6.2-1.8 0-2.5-.3-.6-.5-.1-.5 1.3m-191.8 13c0 8 .2 11.2.3 7.2.2-3.9.2-10.5 0-14.5-.1-3.9-.3-.7-.3 7.3m163 0c0 8 .2 11.2.3 7.2.2-3.9.2-10.5 0-14.5-.1-3.9-.3-.7-.3 7.3m483 0c0 8 .2 11.2.3 7.2.2-3.9.2-10.5 0-14.5-.1-3.9-.3-.7-.3 7.3m-513.4-5.3c-.3 2.9-.1 4.8.3 4.4.5-.5.7-2.8.5-5.2l-.3-4.4zm439 0c-.3 2.9-.1 4.8.3 4.4.5-.5.7-2.8.5-5.2l-.3-4.4zm-698.9-.1c0 1.1.3 1.4.6.6.3-.7.2-1.6-.1-1.9-.3-.4-.6.2-.5 1.3m13 0c0 1.1.3 1.4.6.6.3-.7.2-1.6-.1-1.9-.3-.4-.6.2-.5 1.3m535.1.4c0 1.4.2 1.9.5 1.2.2-.6.2-1.8 0-2.5-.3-.6-.5-.1-.5 1.3m-159.8 10.5c0 4.9.1 7.1.3 4.8s.2-6.4 0-9-.3-.8-.3 4.2m243 0c0 4.9.1 7.1.3 4.8s.2-6.4 0-9-.3-.8-.3 4.2m-312-3c.1 1.8.8 2 7.6 2.1h7.5l-7.2-.3c-5.8-.3-7.3-.7-7.6-2.1q-.45-1.8-.3.3m-139.1 5c0 3.8.2 5.3.4 3.2.2-2 .2-5.2 0-7-.2-1.7-.4-.1-.4 3.8m-380.5-2.8c2.3.2 5.9.2 8 0 2-.2.1-.4-4.3-.4s-6.1.2-3.7.4m448.2-.1c5.8.8 14.8.8 14.3.1-.2-.4-4.1-.6-8.6-.6-4.5.1-7.1.3-5.7.5m352.8.1c2.3.2 5.9.2 8 0 2-.2.1-.4-4.3-.4s-6.1.2-3.7.4m86.2-.1c5.8.8 14.8.8 14.3.1-.2-.4-4.1-.6-8.6-.6-4.5.1-7.1.3-5.7.5m-600.3 5.1c-.3.5 1.6.7 4.1.5 8-.5 9-.9 2.5-1.1-3.4 0-6.4.2-6.6.6m333 0c-.3.5 1.6.7 4.1.5 8-.5 9-.9 2.5-1.1-3.4 0-6.4.2-6.6.6m87 0c-.3.5 1.6.7 4.1.5 8-.5 9-.9 2.5-1.1-3.4 0-6.4.2-6.6.6"/><path fill="gray" fill-opacity=".2" d="M616.8 137.7c.7.3 1.6.2 1.9-.1.4-.3-.2-.6-1.3-.5-1.1 0-1.4.3-.6.6m154 0c.7.3 1.6.2 1.9-.1.4-.3-.2-.6-1.3-.5-1.1 0-1.4.3-.6.6m566 0c.6.2 1.8.2 2.5 0 .6-.3.1-.5-1.3-.5s-1.9.2-1.2.5m-745.5 5.8c0 2.2.2 3 .4 1.7.2-1.2.2-3 0-4-.3-.9-.5.1-.4 2.3m304 .5c0 2.5.2 3.5.4 2.2.2-1.2.2-3.2 0-4.5-.2-1.2-.4-.2-.4 2.3m54.1 2.5.1 6 5.5.1 5.5.1-5.2-.4-5.2-.4-.4-5.7-.3-5.7zm132.9-2.5c0 2.5.2 3.5.4 2.2.2-1.2.2-3.2 0-4.5-.2-1.2-.4-.2-.4 2.3m310-.5c0 2.2.2 3 .4 1.7.2-1.2.2-3 0-4-.3-.9-.5.1-.4 2.3m173 .5c0 2.5.2 3.5.4 2.2.2-1.2.2-3.2 0-4.5-.2-1.2-.4-.2-.4 2.3m-616 27c0 4.1.2 5.8.4 3.7.2-2 .2-5.4 0-7.5-.2-2-.4-.3-.4 3.8m387.5-2.3c.7.3 1.6.2 1.9-.1.4-.3-.2-.6-1.3-.5-1.1 0-1.4.3-.6.6m-703 12c.7.3 1.6.2 1.9-.1.4-.3-.2-.6-1.3-.5-1.1 0-1.4.3-.6.6"/><path fill="#404040" fill-opacity=".1" d="M600.9 143.7c-1.3 1.6-1.2 1.7.4.4s2.1-2.1 1.3-2.1c-.2 0-1 .8-1.7 1.7m719.1 28.7c0 .2.8 1 1.8 1.7 1.5 1.3 1.6 1.2.3-.4s-2.1-2.1-2.1-1.3"/><path fill="#404040" fill-opacity=".3" d="M563.7 138.7c-.3.5 3.6.7 8.6.5 16.6-.4 18.4-.8 5-1-7.2-.1-13.4.1-13.6.5m84.6 0c1.5.2 3.9.2 5.5 0 1.5-.2.2-.4-2.8-.4s-4.3.2-2.7.4m23 0c1.5.2 3.9.2 5.5 0 1.5-.2.2-.4-2.8-.4s-4.3.2-2.7.4m20 0c1.5.2 3.9.2 5.5 0 1.5-.2.2-.4-2.8-.4s-4.3.2-2.7.4m16.3.1c-.2.4 1.2.6 3.2.4 6.2-.6 6.9-1 2-1.1-2.6 0-4.9.3-5.2.7m27.7-.1c1.5.2 3.9.2 5.5 0 1.5-.2.2-.4-2.8-.4s-4.3.2-2.7.4m65.5 0c1.8.2 4.5.2 6 0s0-.4-3.3-.4-4.5.2-2.7.4m26 0c1.7.2 4.7.2 6.5 0 1.7-.2.3-.4-3.3-.4s-5 .2-3.2.4m43.5 0c1.5.2 3.9.2 5.5 0 1.5-.2.2-.4-2.8-.4s-4.3.2-2.7.4m35 0c4.8.2 12.6.2 17.5 0 4.8-.1.8-.3-8.8-.3s-13.6.2-8.7.3m35 0c1.5.2 3.9.2 5.5 0 1.5-.2.2-.4-2.8-.4s-4.3.2-2.7.4m24 0c1.5.2 3.9.2 5.5 0 1.5-.2.2-.4-2.8-.4s-4.3.2-2.7.4m20 0c1.5.2 3.9.2 5.5 0 1.5-.2.2-.4-2.8-.4s-4.3.2-2.7.4m37 0c3.7.2 9.7.2 13.5 0 3.7-.2.6-.3-6.8-.3s-10.5.1-6.7.3m34 0c4.8.2 12.6.2 17.5 0 4.8-.1.8-.3-8.8-.3s-13.6.2-8.7.3m39 0c3.7.2 9.7.2 13.5 0 3.7-.2.6-.3-6.8-.3s-10.5.1-6.7.3m43.5 0c1.2.2 3.2.2 4.5 0 1.2-.2.2-.4-2.3-.4s-3.5.2-2.2.4m36 0c1.2.2 3.2.2 4.5 0 1.2-.2.2-.4-2.3-.4s-3.5.2-2.2.4m29.5 0c1.5.2 3.9.2 5.5 0 1.5-.2.2-.4-2.8-.4s-4.3.2-2.7.4m28.3.1c-.2.4 1.2.6 3.2.4 6.2-.6 6.9-1 2-1.1-2.6 0-4.9.3-5.2.7m27.7-.1c1.5.2 3.9.2 5.5 0 1.5-.2.2-.4-2.8-.4s-4.3.2-2.7.4m31 0c1.5.2 3.9.2 5.5 0 1.5-.2.2-.4-2.8-.4s-4.3.2-2.7.4m74.4 0c-.3.5 3.6.7 8.6.5 16.6-.4 18.4-.8 5-1-7.2-.1-13.4.1-13.6.5m37.1 0c1.2.2 3.2.2 4.5 0 1.2-.2.2-.4-2.3-.4s-3.5.2-2.2.4m36 0c1.2.2 3.2.2 4.5 0 1.2-.2.2-.4-2.3-.4s-3.5.2-2.2.4m22.5 0c3.7.2 9.7.2 13.5 0 3.7-.2.6-.3-6.8-.3s-10.5.1-6.7.3m27.3.1c-.2.4 1.2.6 3.2.4 6.2-.6 6.9-1 2-1.1-2.6 0-4.9.3-5.2.7m27.7-.1c1.5.2 3.9.2 5.5 0 1.5-.2.2-.4-2.8-.4s-4.3.2-2.7.4m23 0c4.8.2 12.6.2 17.5 0 4.8-.1.8-.3-8.8-.3s-13.6.2-8.7.3m-774.4 13c-1.3 1.6-1.2 1.7.4.4s2.1-2.1 1.3-2.1c-.2 0-1 .8-1.7 1.7m584.9 1c1.8.2 4.5.2 6 0s0-.4-3.3-.4-4.5.2-2.7.4m-770.1 1c1.8.2 5 .2 7 0 2.1-.2.7-.4-3.2-.4-3.8 0-5.5.2-3.8.4m450 0c1.8.2 5 .2 7 0 2.1-.2.7-.4-3.2-.4-3.8 0-5.5.2-3.8.4m74.1 0c1.7.2 4.7.2 6.5 0 1.7-.2.3-.4-3.3-.4s-5 .2-3.2.4m276.9 0c1.8.2 5 .2 7 0 2.1-.2.7-.4-3.2-.4-3.8 0-5.5.2-3.8.4m88 0c1.8.2 5 .2 7 0 2.1-.2.7-.4-3.2-.4-3.8 0-5.5.2-3.8.4m-354.4 4.8c0 2.2.2 3 .4 1.7.2-1.2.2-3 0-4-.3-.9-.5.1-.4 2.3m-116.5 9.2c2.3.2 5.9.2 8 0 2-.2.1-.4-4.3-.4s-6.1.2-3.7.4M754 172.4c0 .2.8 1 1.8 1.7 1.5 1.3 1.6 1.2.3-.4s-2.1-2.1-2.1-1.3m-134 12c0 .2.8 1 1.8 1.7 1.5 1.3 1.6 1.2.3-.4s-2.1-2.1-2.1-1.3m12.3 5.3c.9.2 2.3.2 3 0 .6-.3-.1-.5-1.8-.5-1.6 0-2.2.2-1.2.5"/><path fill="#404040" fill-opacity=".2" d="M687.4 159c0 10.7.2 15.1.3 9.7.2-5.3.2-14.1 0-19.5-.1-5.3-.3-.9-.3 9.8m293 0c0 10.7.2 15.1.3 9.7.2-5.3.2-14.1 0-19.5-.1-5.3-.3-.9-.3 9.8m-225.5-15.3c-1.3 1.6-1.2 1.7.4.4.9-.7 1.7-1.5 1.7-1.7 0-.8-.8-.3-2.1 1.3m-179.5 5.8c-.3.8-.4 2-.1 2.7s.6.3.6-.9c.1-2 .7-2.2 7.4-2.6l7.2-.3-7.3-.2c-5.6-.2-7.4.1-7.8 1.3m454.4-.8c2.3.2 5.9.2 8 0 2-.2.1-.4-4.3-.4s-6.1.2-3.7.4m73.5 0c2 .2 5.4.2 7.5 0 2-.2.3-.4-3.8-.4s-5.8.2-3.7.4m273.1.8c-.3.8-.4 2-.1 2.7s.6.3.6-.9c.1-2 .7-2.2 7.4-2.6l7.2-.3-7.3-.2c-5.6-.2-7.4.1-7.8 1.3m92.4-.8c2.3.2 5.9.2 8 0 2-.2.1-.4-4.3-.4s-6.1.2-3.7.4M639.2 159c0 1.4.2 1.9.5 1.2.2-.6.2-1.8 0-2.5-.3-.6-.5-.1-.5 1.3m80.2 10.5c0 4.9.1 7.1.3 4.8s.2-6.4 0-9-.3-.8-.3 4.2m524 0c0 4.9.1 7.1.3 4.8s.2-6.4 0-9-.3-.8-.3 4.2m256 0c0 4.9.1 7.1.3 4.8s.2-6.4 0-9-.3-.8-.3 4.2m-924-5c-.3.8-.4 2-.1 2.7s.6.3.6-.9c.1-2 .7-2.2 6.4-2.6l6.2-.3-6.3-.2c-4.7-.2-6.4.2-6.8 1.3m453.3-.8c1.8.2 5 .2 7 0 2.1-.2.7-.4-3.2-.4-3.8 0-5.5.2-3.8.4m74.1 0c1.7.2 4.7.2 6.5 0 1.7-.2.3-.4-3.3-.4s-5 .2-3.2.4m273.6.8c-.3.8-.4 2-.1 2.7s.6.3.6-.9c.1-2 .7-2.2 6.4-2.6l6.2-.3-6.3-.2c-4.7-.2-6.4.2-6.8 1.3m91.3-.8c1.8.2 5 .2 7 0 2.1-.2.7-.4-3.2-.4-3.8 0-5.5.2-3.8.4m-311.4 6c.9.2 2.5.2 3.5 0 .9-.3.1-.5-1.8-.5s-2.7.2-1.7.5m264 0c.9.2 2.5.2 3.5 0 .9-.3.1-.5-1.8-.5s-2.7.2-1.7.5m-378 4.3c0 2.5.2 3.5.4 2.2.2-1.2.2-3.2 0-4.5-.2-1.2-.4-.2-.4 2.3m439 0c0 2.5.2 3.5.4 2.2.2-1.2.2-3.2 0-4.5-.2-1.2-.4-.2-.4 2.3M600 172.4c0 .2.8 1 1.8 1.7 1.5 1.3 1.6 1.2.3-.4s-2.1-2.1-2.1-1.3"/><path fill-opacity=".3" d="M563.4 159c0 10.7.2 15.1.3 9.7.2-5.3.2-14.1 0-19.5-.1-5.3-.3-.9-.3 9.8m144 0c0 10.7.2 15.1.3 9.7.2-5.3.2-14.1 0-19.5-.1-5.3-.3-.9-.3 9.8m524 0c0 10.7.2 15.1.3 9.7.2-5.3.2-14.1 0-19.5-.1-5.3-.3-.9-.3 9.8m133 0c0 10.7.2 15.1.3 9.7.2-5.3.2-14.1 0-19.5-.1-5.3-.3-.9-.3 9.8m123 0c0 10.7.2 15.1.3 9.7.2-5.3.2-14.1 0-19.5-.1-5.3-.3-.9-.3 9.8m-372.1 15c0 2.5.2 3.5.4 2.2.2-1.2.2-3.2 0-4.5-.2-1.2-.4-.2-.4 2.3"/><path fill-opacity=".5" d="M656.4 151.5c0 6.6.1 9.2.3 5.7.2-3.4.2-8.8 0-12-.2-3.1-.3-.3-.3 6.3m12 0c0 6.6.1 9.2.3 5.7.2-3.4.2-8.8 0-12-.2-3.1-.3-.3-.3 6.3m262.9-7c0 2.7.2 3.8.4 2.2.2-1.5.2-3.7 0-5-.2-1.2-.4 0-.4 2.8m6.2 15v19l5 .1 5 .1-4.7-.4-4.8-.4-.3-18.7-.3-18.7zm34.7-.8-.2 19.2-5.2.4-5.3.3 5.3.2c3.5.1 5.4-.2 5.8-1.1.2-.7.3-9.6.1-19.7l-.2-18.5zm74.1-14.2c0 2.7.2 3.8.4 2.2.2-1.5.2-3.7 0-5-.2-1.2-.4 0-.4 2.8m41.2 15v19h13.3l13.2.1-13-.3-13-.4-.3-18.7-.3-18.7zm26.8-16c0 2.2.2 3 .4 1.7.2-1.2.2-3 0-4-.3-.9-.5.1-.4 2.3m65.9 15.2-.2 19.2-5.2.4-5.3.3 5.3.2c3.5.1 5.4-.2 5.8-1.1.2-.7.3-9.6.1-19.7l-.2-18.5zm219.3.8v19l5 .1 5 .1-4.7-.4-4.8-.4-.3-18.7-.3-18.7zm129.8-15c0 2.7.2 3.8.4 2.2.2-1.5.2-3.7 0-5-.2-1.2-.4 0-.4 2.8m-928.4.2c-1.3 1.6-1.2 1.7.4.4s2.1-2.1 1.3-2.1c-.2 0-1 .8-1.7 1.7m15.9 4c.7.3 1.6.2 1.9-.1.4-.3-.2-.6-1.3-.5-1.1 0-1.4.3-.6.6m154 0c.7.3 1.6.2 1.9-.1.4-.3-.2-.6-1.3-.5-1.1 0-1.4.3-.6.6m254.4 2.3c0 1.4.2 1.9.5 1.2.2-.6.2-1.8 0-2.5-.3-.6-.5-.1-.5 1.3m439 0c0 1.4.2 1.9.5 1.2.2-.6.2-1.8 0-2.5-.3-.6-.5-.1-.5 1.3m-545 12.7-.2 14.2-5.2.4-5.3.3 5.3.2c3.5.1 5.4-.2 5.8-1.1.2-.7.3-7.4.1-14.8l-.3-13.4zm139.3.8v14l5.3.1 5.2.1-5-.4-4.9-.4-.4-13.7-.3-13.7zm483 0v14l5.3.1 5.2.1-5-.4-4.9-.4-.4-13.7-.3-13.7zm-194.3-8.8 10.7.4.4 2.7c.5 2.5.5 2.5.3-.3l-.1-3-11-.1h-11zm-740.1 2.9c0 1.1.3 1.4.6.6.3-.7.2-1.6-.1-1.9-.3-.4-.6.2-.5 1.3m20.1.4c0 1.4.2 1.9.5 1.2.2-.6.2-1.8 0-2.5-.3-.6-.5-.1-.5 1.3m519.5.7c-.4.3-.7 4.6-.7 9.4v8.8l-5 .4-5 .4 5.2-.1 5.3-.1.5-9.8c.3-5.3.5-9.7.4-9.7 0 0-.4.3-.7.7m286.7 9.8.1 9 5.5.1 5.5.1-5.2-.4-5.2-.4-.4-8.7-.3-8.7zm-481.1-5.8c1.5.2 3.9.2 5.5 0 1.5-.2.2-.4-2.8-.4s-4.3.2-2.7.4m387 0c1.5.2 3.7.2 5 0 1.2-.2 0-.4-2.8-.4-2.7 0-3.8.2-2.2.4m-467.5 1c1.2.2 3 .2 4 0 .9-.3-.1-.5-2.3-.4-2.2 0-3 .2-1.7.4m153.4 1.3c0 1.4.2 1.9.5 1.2.2-.6.2-1.8 0-2.5-.3-.6-.5-.1-.5 1.3m179.6-1.3c1.2.2 3 .2 4 0 .9-.3-.1-.5-2.3-.4-2.2 0-3 .2-1.7.4m87 0c1.2.2 3 .2 4 0 .9-.3-.1-.5-2.3-.4-2.2 0-3 .2-1.7.4m172.4 1.3c0 1.4.2 1.9.5 1.2.2-.6.2-1.8 0-2.5-.3-.6-.5-.1-.5 1.3m-456 7.2-.2 4.7-13.2.4-13.3.3 13.3.2c14.7.2 14.6.3 13.9-6.4-.3-3.7-.4-3.7-.5.8m-417 .5-.2 4.2-13.2.4-13.3.3 13.3.2c14.6.2 14.7.2 13.9-6-.3-3-.4-2.9-.5.9m801 0-.2 4.2-13.2.4-13.3.3 13.3.2c14.6.2 14.7.2 13.9-6-.3-3-.4-2.9-.5.9m-71.2-1.3c0 .2.8 1 1.8 1.7 1.5 1.3 1.6 1.2.3-.4s-2.1-2.1-2.1-1.3M830.5 178l-6 .7 5.7.1c3.1.1 6-.3 6.3-.8.3-.6.5-.9.3-.8s-3 .4-6.3.8m22.4.3c.5.5 3 .7 5.7.5l4.9-.3-5.7-.5c-3.1-.3-5.3-.1-4.9.3m333 0c.5.5 3 .7 5.7.5l4.9-.3-5.7-.5c-3.1-.3-5.3-.1-4.9.3m87 0c.5.5 3 .7 5.7.5l4.9-.3-5.7-.5c-3.1-.3-5.3-.1-4.9.3m-581.6.4c1.5.2 3.7.2 5 0 1.2-.2 0-.4-2.8-.4-2.7 0-3.8.2-2.2.4m20 0c1.5.2 3.7.2 5 0 1.2-.2 0-.4-2.8-.4-2.7 0-3.8.2-2.2.4m25.5 0c1.2.2 3 .2 4 0 .9-.3-.1-.5-2.3-.4-2.2 0-3 .2-1.7.4m63.5 0c1.5.2 3.9.2 5.5 0 1.5-.2.2-.4-2.8-.4s-4.3.2-2.7.4m85 0c1.5.2 3.9.2 5.5 0 1.5-.2.2-.4-2.8-.4s-4.3.2-2.7.4m136 0c3.7.2 9.7.2 13.5 0 3.7-.2.6-.3-6.8-.3s-10.5.1-6.7.3m197 0c1.5.2 3.9.2 5.5 0 1.5-.2.2-.4-2.8-.4s-4.3.2-2.7.4m17 0c1.5.2 3.7.2 5 0 1.2-.2 0-.4-2.8-.4-2.7 0-3.8.2-2.2.4m25.5 0c1.2.2 3 .2 4 0 .9-.3-.1-.5-2.3-.4-2.2 0-3 .2-1.7.4m44.5 0c1.5.2 3.9.2 5.5 0 1.5-.2.2-.4-2.8-.4s-4.3.2-2.7.4m155 0c3.7.2 9.7.2 13.5 0 3.7-.2.6-.3-6.8-.3s-10.5.1-6.7.3m31 0c1.5.2 3.7.2 5 0 1.2-.2 0-.4-2.8-.4-2.7 0-3.8.2-2.2.4m25.5 0c1.2.2 3 .2 4 0 .9-.3-.1-.5-2.3-.4-2.2 0-3 .2-1.7.4M636.2 185c0 1.9.2 2.7.5 1.7.2-.9.2-2.5 0-3.5-.3-.9-.5-.1-.5 1.8"/><path fill-opacity=".6" d="M767.8 138.7c.7.3 1.6.2 1.9-.1.4-.3-.2-.6-1.3-.5-1.1 0-1.4.3-.6.6m-122.4 13.8c0 7.1.1 9.9.3 6.2s.2-9.6 0-13-.3-.4-.3 6.8m34-.5c0 6.9.1 9.7.3 6.2.2-3.4.2-9 0-12.5-.2-3.4-.3-.6-.3 6.3m53-3c0 5.2.1 7.4.3 4.7.2-2.6.2-6.8 0-9.5-.2-2.6-.3-.4-.3 4.8m228.9-3c0 3.6.2 5 .4 3.2.2-1.7.2-4.7 0-6.5-.2-1.7-.4-.3-.4 3.3m53.1 13c0 10.7.2 15.1.3 9.7.2-5.3.2-14.1 0-19.5-.1-5.3-.3-.9-.3 9.8m121 0c0 10.7.2 15.1.3 9.7.2-5.3.2-14.1 0-19.5-.1-5.3-.3-.9-.3 9.8m121-10c0 5.2.1 7.4.3 4.7.2-2.6.2-6.8 0-9.5-.2-2.6-.3-.4-.3 4.8m188 10c0 10.7.2 15.1.3 9.7.2-5.3.2-14.1 0-19.5-.1-5.3-.3-.9-.3 9.8m9 0c0 10.7.2 15.1.3 9.7.2-5.3.2-14.1 0-19.5-.1-5.3-.3-.9-.3 9.8m59-10c0 5.2.1 7.4.3 4.7.2-2.6.2-6.8 0-9.5-.2-2.6-.3-.4-.3 4.8m-757.5-4.3c-1.3 1.6-1.2 1.7.4.4.9-.7 1.7-1.5 1.7-1.7 0-.8-.8-.3-2.1 1.3m343.3 6.3c0 1.4.2 1.9.5 1.2.2-.6.2-1.8 0-2.5-.3-.6-.5-.1-.5 1.3m-189.8 13c0 8 .2 11.2.3 7.2.2-3.9.2-10.5 0-14.5-.1-3.9-.3-.7-.3 7.3m161 0c0 8 .2 11.2.3 7.2.2-3.9.2-10.5 0-14.5-.1-3.9-.3-.7-.3 7.3m483 0c0 8 .2 11.2.3 7.2.2-3.9.2-10.5 0-14.5-.1-3.9-.3-.7-.3 7.3m-513.1-5.5c0 2.2.2 3 .4 1.7.2-1.2.2-3 0-4-.3-.9-.5.1-.4 2.3m439 0c0 2.2.2 3 .4 1.7.2-1.2.2-3 0-4-.3-.9-.5.1-.4 2.3m-697.2.1c0 1.1.3 1.4.6.6.3-.7.2-1.6-.1-1.9-.3-.4-.6.2-.5 1.3m11.1.4c0 1.4.2 1.9.5 1.2.2-.6.2-1.8 0-2.5-.3-.6-.5-.1-.5 1.3m535 0c0 1.4.2 1.9.5 1.2.2-.6.2-1.8 0-2.5-.3-.6-.5-.1-.5 1.3m-157.8 10c0 5.2.1 7.4.3 4.7.2-2.6.2-6.8 0-9.5-.2-2.6-.3-.4-.3 4.8m241 0c0 5.2.1 7.4.3 4.7.2-2.6.2-6.8 0-9.5-.2-2.6-.3-.4-.3 4.8M961 170.8l.5 7.7.3-6.9c.2-3.8-.1-7.3-.5-7.7s-.6 2.7-.3 6.9m137.2-4.8c0 1.4.2 1.9.5 1.2.2-.6.2-1.8 0-2.5-.3-.6-.5-.1-.5 1.3m230.8-.6c0 .2.8 1 1.8 1.7 1.5 1.3 1.6 1.2.3-.4s-2.1-2.1-2.1-1.3m-303.1 3.9c.4.4 4.1.7 8.2.5l7.4-.3-8.2-.5c-4.5-.3-7.8-.1-7.4.3m439 0c.4.4 4.1.7 8.2.5l7.4-.3-8.2-.5c-4.5-.3-7.8-.1-7.4.3m-885.1.4c2.3.2 5.9.2 8 0 2-.2.1-.4-4.3-.4s-6.1.2-3.7.4m524 0c2.3.2 5.9.2 8 0 2-.2.1-.4-4.3-.4s-6.1.2-3.7.4m277 0c2.3.2 5.9.2 8 0 2-.2.1-.4-4.3-.4s-6.1.2-3.7.4m-511 3c1.7.2 4.7.2 6.5 0 1.7-.2.3-.4-3.3-.4s-5 .2-3.2.4m333 0c1.7.2 4.7.2 6.5 0 1.7-.2.3-.4-3.3-.4s-5 .2-3.2.4m87 0c1.7.2 4.7.2 6.5 0 1.7-.2.3-.4-3.3-.4s-5 .2-3.2.4"/><path fill-opacity=".7" d="M616.8 138.7c.7.3 1.6.2 1.9-.1.4-.3-.2-.6-1.3-.5-1.1 0-1.4.3-.6.6m154 0c.7.3 1.6.2 1.9-.1.4-.3-.2-.6-1.3-.5-1.1 0-1.4.3-.6.6m566 0c.7.3 1.6.2 1.9-.1.4-.3-.2-.6-1.3-.5-1.1 0-1.4.3-.6.6m-746.7 4.5-.1 3.7-7.2.4-7.3.3 7.3.2c7.9.2 8.7-.3 7.9-5.5-.3-2.4-.4-2.2-.6.9m98.3 15.8c0 10.7.2 15.1.3 9.7.2-5.3.2-14.1 0-19.5-.1-5.3-.3-.9-.3 9.8m207.9-15c0 2.5.2 3.5.4 2.2.2-1.2.2-3.2 0-4.5-.2-1.2-.4-.2-.4 2.3m52.1 3 .1 6.5 5.9.3c3.2.2 6.3-.1 6.7-.5s-2.1-.7-5.6-.5l-6.4.4-.4-6.4-.3-6.3zm33 12c0 10.7.2 15.1.3 9.7.2-5.3.2-14.1 0-19.5-.1-5.3-.3-.9-.3 9.8m99.9-15c0 2.5.2 3.5.4 2.2.2-1.2.2-3.2 0-4.5-.2-1.2-.4-.2-.4 2.3m309.8-.8-.1 3.7-7.2.4-7.3.3 7.3.2c7.9.2 8.7-.3 7.9-5.5-.3-2.4-.4-2.2-.6.9m173.2.8c0 2.5.2 3.5.4 2.2.2-1.2.2-3.2 0-4.5-.2-1.2-.4-.2-.4 2.3m-534.5 3.7c2.3.2 5.9.2 8 0 2-.2.1-.4-4.3-.4s-6.1.2-3.7.4m73.5 0c2 .2 5.4.2 7.5 0 2-.2.3-.4-3.8-.4s-5.8.2-3.7.4m365.5 0c2.3.2 5.9.2 8 0 2-.2.1-.4-4.3-.4s-6.1.2-3.7.4M574.2 151c0 1.4.2 1.9.5 1.2.2-.6.2-1.8 0-2.5-.3-.6-.5-.1-.5 1.3m801 0c0 1.4.2 1.9.5 1.2.2-.6.2-1.8 0-2.5-.3-.6-.5-.1-.5 1.3m-737 8c0 1.9.2 2.7.5 1.7.2-.9.2-2.5 0-3.5-.3-.9-.5-.1-.5 1.8m518.5-1.9c.7.7 1.5 1 1.8.7s-.2-.9-1.2-1.2c-1.4-.6-1.5-.5-.6.5m265.3-.1c-.9.6-1 1-.3 1 .6 0 1.5-.5 1.8-1 .8-1.2.4-1.2-1.5 0m-825.8 2c0 1.4.2 1.9.5 1.2.2-.6.2-1.8 0-2.5-.3-.6-.5-.1-.5 1.3m122.2 9.5c0 5.5.1 7.6.3 4.7s.2-7.4 0-10-.3-.2-.3 5.3m524 0c0 5.5.1 7.6.3 4.7s.2-7.4 0-10-.3-.2-.3 5.3m256 0c0 5.5.1 7.6.3 4.7s.2-7.4 0-10-.3-.2-.3 5.3m-919.7-5.8c1.8.2 5 .2 7 0 2.1-.2.7-.4-3.2-.4-3.8 0-5.5.2-3.8.4m450 0c1.8.2 5 .2 7 0 2.1-.2.7-.4-3.2-.4-3.8 0-5.5.2-3.8.4m70 0c-.3.5 1.8.7 4.6.5 8.6-.5 9.6-.9 2.5-1.1-3.7 0-6.9.2-7.1.6m281 0c1.8.2 5 .2 7 0 2.1-.2.7-.4-3.2-.4-3.8 0-5.5.2-3.8.4m88 0c1.8.2 5 .2 7 0 2.1-.2.7-.4-3.2-.4-3.8 0-5.5.2-3.8.4M574.2 166c0 1.4.2 1.9.5 1.2.2-.6.2-1.8 0-2.5-.3-.6-.5-.1-.5 1.3m374.1 5c0 4.1.2 5.8.4 3.7.2-2 .2-5.4 0-7.5-.2-2-.4-.3-.4 3.8m426.9-5c0 1.4.2 1.9.5 1.2.2-.6.2-1.8 0-2.5-.3-.6-.5-.1-.5 1.3m-221.3 2.3c.5.5 2.4.7 4.2.5 3.3-.3 3.3-.4-.8-.8-2.3-.3-3.9-.2-3.4.3m268.6-.3-4 .7 3.7.2c2 0 4-.4 4.3-.9.3-.6.5-.9.3-.9-.2.1-2.1.5-4.3.9m-85.7 1.7c.6.2 1.8.2 2.5 0 .6-.3.1-.5-1.3-.5s-1.9.2-1.2.5m-295.5 4.3c0 2.5.2 3.5.4 2.2.2-1.2.2-3.2 0-4.5-.2-1.2-.4-.2-.4 2.3m439 0c0 2.5.2 3.5.4 2.2.2-1.2.2-3.2 0-4.5-.2-1.2-.4-.2-.4 2.3m-724.8-1c1 1.1 2 2 2.3 2s-.3-.9-1.3-2-2-2-2.3-2 .3.9 1.3 2m-122.7 8.7c.6.2 1.8.2 2.5 0 .6-.3.1-.5-1.3-.5s-1.9.2-1.2.5"/><path fill-opacity=".4" d="M743 158.7c-.3 11.1-.2 19.9.3 19.4.4-.4.6-9.5.5-20.2l-.3-19.4zm524 0c-.3 11.1-.2 19.9.3 19.4.4-.4.6-9.5.5-20.2l-.3-19.4zm256 0c-.3 11.1-.2 19.9.3 19.4.4-.4.6-9.5.5-20.2l-.3-19.4zm-824 .5c-.3 10.8-.2 19.4.3 18.9.4-.4.6-9.3.5-19.7l-.3-18.9zm293.4-5.7c0 7.7.2 10.7.3 6.7.2-4 .2-10.3 0-14s-.3-.4-.3 7.3m48.9-10c0 2.2.2 3 .4 1.7.2-1.2.2-3 0-4-.3-.9-.5.1-.4 2.3m439 0c0 2.2.2 3 .4 1.7.2-1.2.2-3 0-4-.3-.9-.5.1-.4 2.3m-581 6.2c1.5.2 3.9.2 5.5 0 1.5-.2.2-.4-2.8-.4s-4.3.2-2.7.4m23.5 0c1.8.2 4.5.2 6 0s0-.4-3.3-.4-4.5.2-2.7.4m127 0c1.8.2 4.5.2 6 0s0-.4-3.3-.4-4.5.2-2.7.4m23.5 0c1.5.2 3.9.2 5.5 0 1.5-.2.2-.4-2.8-.4s-4.3.2-2.7.4m459.5 0c1.8.2 4.5.2 6 0s0-.4-3.3-.4-4.5.2-2.7.4m23.5 0c1.5.2 3.9.2 5.5 0 1.5-.2.2-.4-2.8-.4s-4.3.2-2.7.4m-967 8.8c0 2.2.2 3 .4 1.7.2-1.2.2-3 0-4-.3-.9-.5.1-.4 2.3m726.8-1.9c0 1.1.3 1.4.6.6.3-.7.2-1.6-.1-1.9-.3-.4-.6.2-.5 1.3m19.6-.9c-.9.9-.9 7.1.1 7.6.4.3.7-1.5.7-3.9s0-4.4-.1-4.4c0 0-.4.3-.7.7m54.6 2.8c0 2.2.2 3 .4 1.7.2-1.2.2-3 0-4-.3-.9-.5.1-.4 2.3m-629.1.5c0 1.4.2 1.9.5 1.2.2-.6.2-1.8 0-2.5-.3-.6-.5-.1-.5 1.3"/><g fill-opacity=".8" stroke-opacity=".8" stroke-width="0"><path d="M564.4 140.3c-.2.7-.3 9.6-.1 19.7l.2 18.5.3-19.2.2-19.2 12.8-.4 12.7-.3-12.8-.2c-9.6-.1-12.9.1-13.3 1.1m83.9-.6c1.5.2 3.9.2 5.5 0 1.5-.2.2-.4-2.8-.4s-4.3.2-2.7.4m23 0c1.5.2 3.9.2 5.5 0 1.5-.2.2-.4-2.8-.4s-4.3.2-2.7.4m20 0c1.5.2 3.9.2 5.5 0 1.5-.2.2-.4-2.8-.4s-4.3.2-2.7.4m17.1.6c-.2.7-.3 9.6-.1 19.7l.2 18.5.3-19.4.2-19.3 4.4.3c2.4.2 4.2.1 3.9-.4-.8-1.2-8.3-.8-8.9.6m26.9-.6c1.5.2 3.9.2 5.5 0 1.5-.2.2-.4-2.8-.4s-4.3.2-2.7.4m62.7.1c0 .4 1.9.6 4.3.4 7-.5 7.6-1 1.5-1.1-3.2 0-5.8.2-5.8.7m25.7-.1c-.3.5 2.1.8 5.4.8 3.2 0 5.9-.3 5.9-.8 0-.4-2.4-.7-5.4-.7s-5.7.3-5.9.7m43.9.1c-.2.4 1.4.6 3.7.4 6.8-.5 7.6-1 2-1.1-2.8 0-5.4.2-5.7.7m37.7-.1c4.8.2 12.6.2 17.5 0 4.8-.1.8-.3-8.8-.3s-13.6.2-8.7.3m35 0c1.5.2 3.9.2 5.5 0 1.5-.2.2-.4-2.8-.4s-4.3.2-2.7.4m24 0c1.5.2 3.9.2 5.5 0 1.5-.2.2-.4-2.8-.4s-4.3.2-2.7.4m20 0c1.5.2 3.9.2 5.5 0 1.5-.2.2-.4-2.8-.4s-4.3.2-2.7.4m37 0c3.7.2 9.7.2 13.5 0 3.7-.2.6-.3-6.8-.3s-10.5.1-6.7.3m34 0c4.8.2 12.6.2 17.5 0 4.8-.1.8-.3-8.8-.3s-13.6.2-8.7.3m39 0c3.7.2 9.7.2 13.5 0 3.7-.2.6-.3-6.8-.3s-10.5.1-6.7.3m43.5 0c1.2.2 3.2.2 4.5 0 1.2-.2.2-.4-2.3-.4s-3.5.2-2.2.4m36 0c1.2.2 3.2.2 4.5 0 1.2-.2.2-.4-2.3-.4s-3.5.2-2.2.4m26.8.1c-.2.4 1.4.6 3.7.4 6.8-.5 7.6-1 2-1.1-2.8 0-5.4.2-5.7.7m31.8.5c-.2.7-.3 9.6-.1 19.7l.2 18.5.3-19.4.2-19.3 4.4.3c2.4.2 4.2.1 3.9-.4-.8-1.2-8.3-.8-8.9.6m26.9-.6c1.5.2 3.9.2 5.5 0 1.5-.2.2-.4-2.8-.4s-4.3.2-2.7.4m28.3.1c-.2.4 1.4.6 3.7.4 6.8-.5 7.6-1 2-1.1-2.8 0-5.4.2-5.7.7m77.8.5c-.2.7-.3 9.6-.1 19.7l.2 18.5.3-19.2.2-19.2 12.8-.4 12.7-.3-12.8-.2c-9.6-.1-12.9.1-13.3 1.1m36.4-.6c1.2.2 3.2.2 4.5 0 1.2-.2.2-.4-2.3-.4s-3.5.2-2.2.4m36 0c1.2.2 3.2.2 4.5 0 1.2-.2.2-.4-2.3-.4s-3.5.2-2.2.4m22.5 0c3.7.2 9.7.2 13.5 0 3.7-.2.6-.3-6.8-.3s-10.5.1-6.7.3m28.1.6c-.2.7-.3 9.6-.1 19.7l.2 18.5.3-19.4.2-19.3 4.4.3c2.4.2 4.2.1 3.9-.4-.8-1.2-8.3-.8-8.9.6m26.9-.6c1.5.2 3.9.2 5.5 0 1.5-.2.2-.4-2.8-.4s-4.3.2-2.7.4m23 0c4.8.2 12.6.2 17.5 0 4.8-.1.8-.3-8.8-.3s-13.6.2-8.7.3M785 143.4c0 .2.8 1 1.8 1.7 1.5 1.3 1.6 1.2.3-.4s-2.1-2.1-2.1-1.3m536.9 1.3c-1.3 1.6-1.2 1.7.4.4.9-.7 1.7-1.5 1.7-1.7 0-.8-.8-.3-2.1 1.3m14.9 3c.7.3 1.6.2 1.9-.1.4-.3-.2-.6-1.3-.5-1.1 0-1.4.3-.6.6m-726.9 3c-1.3 1.6-1.2 1.7.4.4s2.1-2.1 1.3-2.1c-.2 0-1 .8-1.7 1.7m14.6.3c1 1.1 2 2 2.3 2s-.3-.9-1.3-2-2-2-2.3-2 .3.9 1.3 2m726.5 0-5.5.7 5.8.1c3.2.1 5.7-.2 5.7-.8s-.1-.9-.2-.8c-.2.1-2.8.4-5.8.8"/><path d="M574.9 154.3c.4.4 3.7.7 7.2.5l6.4-.3-7.2-.5c-4-.3-6.8-.1-6.4.3m801 0c.4.4 3.7.7 7.2.5l6.4-.3-7.2-.5c-4-.3-6.8-.1-6.4.3m-347.2.4c1.8.2 5 .2 7 0 2.1-.2.7-.4-3.2-.4-3.8 0-5.5.2-3.8.4m77 0 6.2.4.4 3.5c.4 3.4.4 3.4.3-.3l-.1-3.8-6.5-.1h-6.5zm362 0c1.8.2 5 .2 7 0 2.1-.2.7-.4-3.2-.4-3.8 0-5.5.2-3.8.4m-717.5 3.8c0 1.6.2 2.2.5 1.2.2-.9.2-2.3 0-3-.3-.6-.5.1-.5 1.8m659.8-.1c0 .2.7.7 1.6 1 .8.3 1.2.2.9-.4-.6-1-2.5-1.4-2.5-.6m-414.2 10.3c2.3.2 6.1.2 8.5 0 2.3-.2.4-.4-4.3-.4s-6.6.2-4.2.4m118.5 5.3c0 2.5.2 3.5.4 2.2.2-1.2.2-3.2 0-4.5-.2-1.2-.4-.2-.4 2.3m-454.5 4.7c.7.3 1.6.2 1.9-.1.4-.3-.2-.6-1.3-.5-1.1 0-1.4.3-.6.6m4 0c.7.3 1.6.2 1.9-.1.4-.3-.2-.6-1.3-.5-1.1 0-1.4.3-.6.6m105.5 0c.9.2 2.5.2 3.5 0 .9-.3.1-.5-1.8-.5s-2.7.2-1.7.5m-137 10c.9.2 2.3.2 3 0 .6-.3-.1-.5-1.8-.5-1.6 0-2.2.2-1.2.5"/></g><path fill-opacity=".9" d="M625.1 140.4c.2.2 1.5.9 2.9 1.5 2.4 1.1 2.4 1.1.6-.3-1.6-1.3-4.9-2.4-3.5-1.2m73.3 18.6c0 10.7.2 15.1.3 9.7.2-5.3.2-14.1 0-19.5-.1-5.3-.3-.9-.3 9.8m44 0c0 10.7.2 15.1.3 9.7.2-5.3.2-14.1 0-19.5-.1-5.3-.3-.9-.3 9.8m249-4.5c0 8.2.2 11.5.3 7.2.2-4.3.2-11 0-15-.1-4-.3-.5-.3 7.8m48.9-11c0 2.2.2 3 .4 1.7.2-1.2.2-3 0-4-.3-.9-.5.1-.4 2.3m226.1 15.5c0 10.7.2 15.1.3 9.7.2-5.3.2-14.1 0-19.5-.1-5.3-.3-.9-.3 9.8m212.9-15.5c0 2.2.2 3 .4 1.7.2-1.2.2-3 0-4-.3-.9-.5.1-.4 2.3m43.1 15.5c0 10.7.2 15.1.3 9.7.2-5.3.2-14.1 0-19.5-.1-5.3-.3-.9-.3 9.8m-916.9-17c-.3.6.1.7.9.4 1.8-.7 2.1-1.4.7-1.4-.6 0-1.3.4-1.6 1m111.5-.6c0 .2.8 1 1.8 1.7 1.5 1.3 1.6 1.2.3-.4s-2.1-2.1-2.1-1.3m524 0c0 .2.8 1 1.8 1.7 1.5 1.3 1.6 1.2.3-.4s-2.1-2.1-2.1-1.3m256 0c0 .2.8 1 1.8 1.7 1.5 1.3 1.6 1.2.3-.4s-2.1-2.1-2.1-1.3m-741.6 3.8-1.9 2.3 2.3-1.9c2.1-1.8 2.7-2.6 1.9-2.6-.2 0-1.2 1-2.3 2.2m412.5-.5c-1.3 1.6-1.2 1.7.4.4s2.1-2.1 1.3-2.1c-.2 0-1 .8-1.7 1.7m-447.9.7c0 .2.8 1 1.8 1.7 1.5 1.3 1.6 1.2.3-.4s-2.1-2.1-2.1-1.3m524 0c0 .2.8 1 1.8 1.7 1.5 1.3 1.6 1.2.3-.4s-2.1-2.1-2.1-1.3m76.9 1.3c-1.3 1.6-1.2 1.7.4.4.9-.7 1.7-1.5 1.7-1.7 0-.8-.8-.3-2.1 1.3m179.1-1.3c0 .2.8 1 1.8 1.7 1.5 1.3 1.6 1.2.3-.4s-2.1-2.1-2.1-1.3m-725 3c0 .2.7.7 1.6 1 .8.3 1.2.2.9-.4-.6-1-2.5-1.4-2.5-.6m124.8.3c1.7.2 4.7.2 6.5 0 1.7-.2.3-.4-3.3-.4s-5 .2-3.2.4m22 0c1.7.2 4.7.2 6.5 0 1.7-.2.3-.4-3.3-.4s-5 .2-3.2.4m128 0c1.7.2 4.7.2 6.5 0 1.7-.2.3-.4-3.3-.4s-5 .2-3.2.4m22 0c1.7.2 4.7.2 6.5 0 1.7-.2.3-.4-3.3-.4s-5 .2-3.2.4m271.2-.3c0 .2.8 1 1.8 1.7 1.5 1.3 1.6 1.2.3-.4s-2.1-2.1-2.1-1.3m189.8.3c1.7.2 4.7.2 6.5 0 1.7-.2.3-.4-3.3-.4s-5 .2-3.2.4m22 0c1.7.2 4.7.2 6.5 0 1.7-.2.3-.4-3.3-.4s-5 .2-3.2.4m-930.8.7c0 .2.8 1 1.8 1.7 1.5 1.3 1.6 1.2.3-.4s-2.1-2.1-2.1-1.3m99 0c0 .2.8 1 1.8 1.7 1.5 1.3 1.6 1.2.3-.4s-2.1-2.1-2.1-1.3m39.9 1.3c-1.3 1.6-1.2 1.7.4.4s2.1-2.1 1.3-2.1c-.2 0-1 .8-1.7 1.7m53.6-.7c-1.6.7-1.7.9-.3.9.9.1 2-.4 2.3-.9.7-1.1.7-1.1-2 0m430.5-.6c0 .2.8 1 1.8 1.7 1.5 1.3 1.6 1.2.3-.4s-2.1-2.1-2.1-1.3m81.9 1.3c-1.3 1.6-1.2 1.7.4.4s2.1-2.1 1.3-2.1c-.2 0-1 .8-1.7 1.7m99 0c-1.3 1.6-1.2 1.7.4.4s2.1-2.1 1.3-2.1c-.2 0-1 .8-1.7 1.7m75.1-1.3c0 .2.8 1 1.8 1.7 1.5 1.3 1.6 1.2.3-.4s-2.1-2.1-2.1-1.3m-88 1c0 .2.8 1 1.8 1.7 1.5 1.3 1.6 1.2.3-.4s-2.1-2.1-2.1-1.3m-541.8 2c.7.8 1.5 1.2 1.7 1.1.5-.6-1-2.5-2-2.5-.5 0-.4.6.3 1.4m333 0c.7.8 1.5 1.2 1.7 1.1.5-.6-1-2.5-2-2.5-.5 0-.4.6.3 1.4m87 0c.7.8 1.5 1.2 1.7 1.1.5-.6-1-2.5-2-2.5-.5 0-.4.6.3 1.4m-685.7.7c-.4.6-.5 1.2-.2 1.5.2.3.7-.2 1-1.1.7-1.7.1-2-.8-.4m118.5.3c0 .2.8 1 1.8 1.7 1.5 1.3 1.6 1.2.3-.4s-2.1-2.1-2.1-1.3m524 0c0 .2.8 1 1.8 1.7 1.5 1.3 1.6 1.2.3-.4s-2.1-2.1-2.1-1.3m256 0c0 .2.8 1 1.8 1.7 1.5 1.3 1.6 1.2.3-.4s-2.1-2.1-2.1-1.3m-917.7 5.1c0 2.2.2 3 .4 1.7.2-1.2.2-3 0-4-.3-.9-.5.1-.4 2.3m728.8-1.9c0 1.1.3 1.4.6.6.3-.7.2-1.6-.1-1.9-.3-.4-.6.2-.5 1.3m72.2 1.9c0 2.2.2 3 .4 1.7.2-1.2.2-3 0-4-.3-.9-.5.1-.4 2.3m-629.1 0c0 1.6.2 2.2.5 1.2.2-.9.2-2.3 0-3-.3-.6-.5.1-.5 1.8m396-1c1.5 1.6 2 1.7 3 .6 1.1-1.1 1-1.3 0-.7-.7.4-2.1.2-3-.5-1.5-1.2-1.5-1.1 0 .6m180.1 2c0 2.2.2 3 .4 1.7.2-1.2.2-3 0-4-.3-.9-.5.1-.4 2.3m87.2-2.4c-.4.6-1.4.8-2.4.4-1.3-.5-1.4-.4-.3.6 1 1.1 1.5 1 2.9-.4 1-.9 1.4-1.7 1.1-1.7-.4 0-1 .5-1.3 1.1m-705.4.2c.2.1 1.3.9 2.4 1.7 1.9 1.4 1.9 1.4.6-.3-.7-.9-1.8-1.7-2.4-1.7q-.9 0-.6.3m12.1 1.3c1 1 2 1.6 2.2 1.3.3-.3-.5-1.1-1.7-1.8-2.1-1.3-2.1-1.2-.5.5m92.8-.2c0 .8.4 1.7.9 2 .5.4.7-.3.4-1.4-.6-2.3-1.3-2.6-1.3-.6m419.1-1.1c.2.1 1.3.9 2.4 1.7 1.9 1.4 1.9 1.4.6-.3-.7-.9-1.8-1.7-2.4-1.7q-.9 0-.6.3m12.1 1.3c1 1 2 1.6 2.2 1.3.3-.3-.5-1.1-1.7-1.8-2.1-1.3-2.1-1.2-.5.5m243.9-1.3c.2.1 1.3.9 2.4 1.7 1.9 1.4 1.9 1.4.6-.3-.7-.9-1.8-1.7-2.4-1.7q-.9 0-.6.3m12.1 1.3c1 1 2 1.6 2.2 1.3.3-.3-.5-1.1-1.7-1.8-2.1-1.3-2.1-1.2-.5.5m-344.3 2.1c-1.3 1.6-1.2 1.7.4.4s2.1-2.1 1.3-2.1c-.2 0-1 .8-1.7 1.7m151.2-.1c0 1.1.3 1.4.6.6.3-.7.2-1.6-.1-1.9-.3-.4-.6.2-.5 1.3m-595.1.8c0 .2.8 1 1.8 1.7 1.5 1.3 1.6 1.2.3-.4s-2.1-2.1-2.1-1.3m524 0c0 .2.8 1 1.8 1.7 1.5 1.3 1.6 1.2.3-.4s-2.1-2.1-2.1-1.3m256 0c0 .2.8 1 1.8 1.7 1.5 1.3 1.6 1.2.3-.4s-2.1-2.1-2.1-1.3m-352 1c0 .2.8 1 1.8 1.7 1.5 1.3 1.6 1.2.3-.4s-2.1-2.1-2.1-1.3m196.6 2.3c-.6 1.4-.5 1.5.5.6.7-.7 1-1.5.7-1.8s-.9.2-1.2 1.2m68.4-1.3c0 .2.8 1 1.8 1.7 1.5 1.3 1.6 1.2.3-.4s-2.1-2.1-2.1-1.3m-807 2c0 .2.8 1 1.8 1.7 1.5 1.3 1.6 1.2.3-.4s-2.1-2.1-2.1-1.3m16.9 1.3c-1.3 1.6-1.2 1.7.4.4s2.1-2.1 1.3-2.1c-.2 0-1 .8-1.7 1.7m31.1-1c0 .6.8 1.7 1.8 2.4 1.6 1.3 1.6 1.3.2-.6-.8-1.1-1.6-2.2-1.7-2.4q-.3-.3-.3.6m11.1 1.6c-1.3 2.1-1.2 2.1.5.5 1-1 1.6-2 1.3-2.2-.3-.3-1.1.5-1.8 1.7m57.9-1.9c0 .2.8 1 1.8 1.7 1.5 1.3 1.6 1.2.3-.4s-2.1-2.1-2.1-1.3m38.7 1.7c1.2 1.2 2.4 2.1 2.7 1.8.2-.2-.8-1.3-2.2-2.3l-2.7-1.9zm15.2-.4c-1.3 1.6-1.2 1.7.4.4s2.1-2.1 1.3-2.1c-.2 0-1 .8-1.7 1.7m470.1-1.3c0 .2.8 1 1.8 1.7 1.5 1.3 1.6 1.2.3-.4s-2.1-2.1-2.1-1.3m80.5 1.6c1 1.1 2 2 2.3 2s-.3-.9-1.3-2-2-2-2.3-2 .3.9 1.3 2m175.5-1.6c0 .2.8 1 1.8 1.7 1.5 1.3 1.6 1.2.3-.4s-2.1-2.1-2.1-1.3m-690 1c0 .2.9.6 2 .9s1.8.1 1.4-.4c-.5-.9-3.4-1.3-3.4-.5m-62.2 2.1c.6 1.1 2.3 3.1 3.9 4.5l2.8 2.5-3-3.5c-4.7-5.5-4.8-5.6-3.7-3.5m601.8.2c-.6 1.4-.5 1.5.5.6.7-.7 1-1.5.7-1.8s-.9.2-1.2 1.2m-739.8 1c.7.3 1.6.2 1.9-.1.4-.3-.2-.6-1.3-.5-1.1 0-1.4.3-.6.6m4 0c.7.3 1.6.2 1.9-.1.4-.3-.2-.6-1.3-.5-1.1 0-1.4.3-.6.6m43 0c.7.3 1.6.2 1.9-.1.4-.3-.2-.6-1.3-.5-1.1 0-1.4.3-.6.6m66.2-.3c0 .2.8 1 1.8 1.7 1.5 1.3 1.6 1.2.3-.4s-2.1-2.1-2.1-1.3m40.8.3c.7.3 1.6.2 1.9-.1.4-.3-.2-.6-1.3-.5-1.1 0-1.4.3-.6.6m483.2-.3c0 .2.8 1 1.8 1.7 1.5 1.3 1.6 1.2.3-.4s-2.1-2.1-2.1-1.3m256 0c0 .2.8 1 1.8 1.7 1.5 1.3 1.6 1.2.3-.4s-2.1-2.1-2.1-1.3m-906 3.1c1.3 1.4 2.6 2.5 2.8 2.5.3 0-.5-1.1-1.8-2.5s-2.6-2.5-2.8-2.5c-.3 0 .5 1.1 1.8 2.5m29.9.2-2.4 2.8 2.8-2.4c1.5-1.4 2.7-2.6 2.7-2.8 0-.8-.8-.1-3.1 2.4m154 0c-1.3 1.6-1.2 1.7.4.4.9-.7 1.7-1.5 1.7-1.7 0-.8-.8-.3-2.1 1.3m565.5.5-1.9 2.3 2.3-1.9c2.1-1.8 2.7-2.6 1.9-2.6-.2 0-1.2 1-2.3 2.2m-620.4.2c0 .2.8 1 1.8 1.7 1.5 1.3 1.6 1.2.3-.4s-2.1-2.1-2.1-1.3m524 0c0 .2.8 1 1.8 1.7 1.5 1.3 1.6 1.2.3-.4s-2.1-2.1-2.1-1.3m256 0c0 .2.8 1 1.8 1.7 1.5 1.3 1.6 1.2.3-.4s-2.1-2.1-2.1-1.3m-883.7 3.1c-.3.9-.3 1.8-.1 2.1.3.3.8-.4 1.1-1.6.6-2.3-.1-2.7-1-.5m-8.6 3.5c1 1.1 1.9 2 2.1 2 .1 0-.2-.9-.8-2s-1.5-2-2-2c-.6 0-.2.9.7 2m3.8 5c1 1.1 2 2 2.3 2s-.3-.9-1.3-2-2-2-2.3-2 .3.9 1.3 2"/><path d="M608.3 141.4c-11.7 5.5-14.8 19.9-6.5 29.8 3.1 3.7 9.4 6.7 13.9 6.8 2.6 0 3.6.6 4.8 2.9 2.4 4.7 6.2 7.1 11.1 7.1 4.2 0 4.4-.1 4.4-3 0-2.7-.3-3-2.9-3-3 0-6.1-2.2-6.1-4.3 0-.7 1.6-2.5 3.6-4.1 6.6-5.3 9.1-14.6 5.9-22.3-2.2-5.2-4.2-7.2-10-9.9-6.4-3-11.7-3-18.2 0m17.2 9.1c2 1.9 2.5 3.4 2.5 7.5 0 6.2-1.1 8.5-5 10.5-3.7 1.9-7.3 1.9-11 0-3.9-2-5-4.3-5-10.3 0-4 .5-5.4 2.6-7.6 2.2-2.2 3.6-2.6 8.1-2.6 4.4 0 5.8.5 7.8 2.5m138.1-10c-11.7 4.2-16.5 19.8-8.9 29.3 11.5 14.4 34.9 8.6 36.9-9.3.5-4.2.1-5.8-2.3-10.5-4.9-9.2-15.4-13.2-25.7-9.5m15.8 10.6c2 2.3 2.6 4.2 2.6 7.8 0 5.7-1.9 8.6-6.6 10.1-9.7 3.2-17.6-4.8-14.4-14.5 1.6-4.8 4.4-6.5 10.6-6.5 4.6 0 5.5.4 7.8 3.1m550-10.2c-18.4 8.4-14 35.2 6 36.9 12 1 20.3-5.6 22.2-17.7l.7-4.1H1337v7h5.5c5.7 0 6.3.4 4.2 3.1-2 2.6-5.3 3.9-9.7 3.9-3.3 0-4.8-.6-7.1-2.9-2.5-2.6-2.9-3.7-2.9-8.6 0-4.6.4-6 2.4-8 1.3-1.3 3.6-2.7 5-3.1 3.5-.8 9.1.3 10.6 2.1 1.2 1.5 11 2.2 11 .9 0-2.1-5.1-7-9.4-9-6.1-2.9-11.7-3-17.2-.5M565 159v19h26v-8h-17v-8h14v-7h-14v-8h16v-7h-25zm81-6.3c0 10.6.3 13.3 2 16.8 5.2 10.7 22.4 11.4 28.6 1.2 1.6-2.7 2-5.6 2.2-17l.4-13.7H669v13.4c0 14.9-.5 16-6.5 16s-6.5-1.1-6.5-16V140h-10zm43 6.3v19h9v-38h-9zm20 0v19h9v-10.5c0-5.8.4-10.5.9-10.5s4.4 4.7 8.7 10.5c7.2 9.6 8.1 10.5 11.1 10.5h3.3v-38h-9v10c0 5.5-.4 10-.9 10s-4.2-4.5-8.2-10c-7.1-9.5-7.6-9.9-11.1-10H709zm92.6-14.8c1.5 2.4 4 6.2 5.5 8.5 1.6 2.3 2.9 4.8 2.9 5.5s-1.9 4.2-4.3 7.8-5.2 7.7-6.1 9.2l-1.8 2.8H808l3.7-6c2.1-3.3 4.3-6 4.9-6s2.8 2.7 4.8 6l3.7 6h10.1l-2.3-3.8c-1.3-2-4-6.3-6.1-9.4s-3.8-6.1-3.8-6.5 2.2-4.2 4.8-8.3 5.1-8.1 5.6-8.8c.5-.9-.5-1.2-4.1-1.2-4.8 0-4.9 0-8.2 5.5-1.8 3-3.9 5.5-4.5 5.5-.7 0-2.7-2.5-4.5-5.5-3.3-5.5-3.4-5.5-8.2-5.5H799zm59.6 14.2c-4 10.2-7.2 18.8-7.2 19.1s2 .5 4.6.5c4.1 0 4.6-.3 5.5-3 1.1-3 1.1-3 8.9-3 7.7 0 7.8 0 9 3 1.1 2.7 1.7 3 6 3h4.8l-7.4-18.8-7.3-18.7-4.9-.3-4.9-.3zm14.9-1.8c2.8 8 2.7 8.4-3.1 8.4-3.1 0-5-.4-5-1.1 0-2.6 4.4-12.9 5.3-12.6.6.2 1.9 2.5 2.8 5.3M897 144v4h12v30h10v-30h12v-8h-34zm41 15v19h10v-15h14v15h10v-38h-10v14h-14v-14h-10zm44 0v19h26v-9h-17v-29h-9zm33 0v19h26v-8h-16v-8h14v-7h-14v-8h15v-7h-25zm32-15v4h12v30h10v-30h12v-8h-34zm41 15v19h26v-8h-16v-8h14v-7h-14v-8h16v-7h-26zm48 0v19h10v-10c0-5.5.4-10 .9-10s2.6 2.2 4.6 5c2.9 4 4.3 5 6.5 5s3.6-1 6.4-5c2-2.8 4-5 4.6-5s1 4 1 10v10h10v-38h-4c-3.8 0-4.1.2-10.7 9.5-3.7 5.2-7.1 9.5-7.4 9.5-.4 0-3.7-4.3-7.4-9.5-6.4-9.3-6.7-9.5-10.5-9.5h-4zm58.2-.6c-4 10.2-7.2 18.8-7.2 19.1s2 .5 4.6.5c4.1 0 4.6-.3 5.5-3 1.1-3 1.1-3 8.9-3 7.7 0 7.8 0 9 3 1.1 2.7 1.7 3 6 3h4.8l-7.4-18.8-7.3-18.7-4.9-.3-4.9-.3zm14.9-1.8c2.8 8 2.7 8.4-3.1 8.4-3.1 0-5-.4-5-1.1 0-2.6 4.4-12.9 5.3-12.6.6.2 1.9 2.5 2.8 5.3m23.9 2.4v19h9v-10.5c0-5.8.4-10.5.9-10.5s4.4 4.7 8.7 10.5c7.2 9.6 8.1 10.5 11.1 10.5h3.3v-38h-9v10c0 5.5-.4 10-.9 10s-4.2-4.5-8.2-10c-7.1-9.5-7.6-9.9-11.1-10h-3.8zm48.2-.6c-4 10.2-7.2 18.8-7.2 19.1s2 .5 4.6.5c4.1 0 4.6-.3 5.5-3 1.1-3 1.1-3 8.9-3 7.7 0 7.8 0 9 3 1.1 2.7 1.7 3 6 3h4.8l-7.4-18.8-7.3-18.7-4.9-.3-4.9-.3zm14.9-1.8c2.8 8 2.7 8.4-3.1 8.4-3.1 0-5-.4-5-1.1 0-2.6 4.4-12.9 5.3-12.6.6.2 1.9 2.5 2.8 5.3m69.9 2.4v19h26v-8h-17v-8h14v-7h-14v-8h16v-7h-25zm34-.1V178h10v-10c0-11.7.8-12.4 5.9-5 2.7 4.1 3.9 5 6.2 5s3.6-1 6.5-5c2-2.8 4-5 4.5-5s.9 4.5.9 10v10h10v-38h-3.9c-3.9 0-4.1.2-10.6 9.6-3.7 5.2-7.1 9.4-7.5 9.2-.5-.2-3.8-4.4-7.3-9.3-6.1-8.7-6.4-9-10.5-9.3l-4.2-.3zm54 .1v19h26v-8h-16v-8h14v-7h-14v-8h15v-7h-25zm35 0v19h9v-10.5c0-5.8.4-10.5.9-10.5s4.4 4.7 8.7 10.5c7.2 9.6 8.1 10.5 11.1 10.5h3.3v-38h-9v10c0 5.5-.4 10-.9 10s-4.2-4.5-8.2-10c-7.1-9.5-7.6-9.9-11.1-10h-3.8zm41-15v4h12v30h10v-30h12v-8h-34z"/><path fill="#404040" fill-opacity=".4" d="M786 143.4c0 .2.8 1 1.8 1.7 1.5 1.3 1.6 1.2.3-.4s-2.1-2.1-2.1-1.3"/></svg>