<svg xmlns="http://www.w3.org/2000/svg" version="1.0" viewBox="0 0 1749 538"><path fill="#FFBF80" fill-opacity=".2" d="M274.6 163.8c-.2.4 1.3.6 3.5.4 2.1-.2 3.9-.6 3.9-.8 0-.7-6.9-.4-7.4.4m150.2.9c1.2.2 3.2.2 4.5 0 1.2-.2.2-.4-2.3-.4s-3.5.2-2.2.4m-136 50c1.2.2 3 .2 4 0 .9-.3-.1-.5-2.3-.4-2.2 0-3 .2-1.7.4m150 1c1.8.2 4.5.2 6 0s0-.4-3.3-.4-4.5.2-2.7.4m-54.5 21c.9.2 2.5.2 3.5 0 .9-.3.1-.5-1.8-.5s-2.7.2-1.7.5m6.5 54c1.2.2 3 .2 4 0 .9-.3-.1-.5-2.3-.4-2.2 0-3 .2-1.7.4m-132.5 21c1.5.2 3.7.2 5 0 1.2-.2 0-.4-2.8-.4-2.7 0-3.8.2-2.2.4m149.5 1c.7.3 1.6.2 1.9-.1.4-.3-.2-.6-1.3-.5-1.1 0-1.4.3-.6.6m-136 50c1.2.2 3.2.2 4.5 0 1.2-.2.2-.4-2.3-.4s-3.5.2-2.2.4"/><path fill="#FFBFBF" fill-opacity=".2" d="M283.8 163.7c1.2.2 3.2.2 4.5 0 1.2-.2.2-.4-2.3-.4s-3.5.2-2.2.4m149.5 1c1.5.2 3.7.2 5 0 1.2-.2 0-.4-2.8-.4-2.7 0-3.8.2-2.2.4m-151.5 50c1.2.2 3 .2 4 0 .9-.3-.1-.5-2.3-.4-2.2 0-3 .2-1.7.4m147.5 1c1.5.2 3.7.2 5 0 1.2-.2 0-.4-2.8-.4-2.7 0-3.8.2-2.2.4m-38 21c1.5.2 3.7.2 5 0 1.2-.2 0-.4-2.8-.4-2.7 0-3.8.2-2.2.4m-10 54c1.5.2 3.9.2 5.5 0 1.5-.2.2-.4-2.8-.4s-4.3.2-2.7.4m-114 21c1.5.2 3.7.2 5 0 1.2-.2 0-.4-2.8-.4-2.7 0-3.8.2-2.2.4m-3.5 51c1.2.2 3.2.2 4.5 0 1.2-.2.2-.4-2.3-.4s-3.5.2-2.2.4"/><path fill="#FFBFBF" fill-opacity=".1" d="M294.3 163.7c2.6.2 6.8.2 9.5 0 2.6-.2.4-.3-4.8-.3s-7.4.1-4.7.3m151 1c3.1.2 8.3.2 11.5 0 3.1-.2.5-.3-5.8-.3s-8.9.1-5.7.3m-179 50c2.6.2 6.8.2 9.5 0 2.6-.2.4-.3-4.8-.3s-7.4.1-4.7.3m141 1c3.7.2 9.7.2 13.5 0 3.7-.2.6-.3-6.8-.3s-10.5.1-6.7.3m-4 21c3.1.2 8.3.2 11.5 0 3.1-.2.5-.3-5.8-.3s-8.9.1-5.7.3m-43 54c3.7.2 9.6.2 13 0s.4-.3-6.8-.3c-7.1 0-9.9.1-6.2.3m-81 21c3.2.2 8.1.2 11 0s.3-.3-5.8-.3c-6 0-8.4.1-5.2.3m-32.5 51c2.8.2 7.6.2 10.5 0 2.8-.2.5-.3-5.3-.3s-8.1.1-5.2.3"/><path fill="#FFBF00" d="M264.8 188.7c-5.9 13.6-10.6 24.8-10.5 24.9s44.1.5 97.7.9l97.5.7 10.8-24.7c5.9-13.7 10.6-24.9 10.5-25-.2-.1-44.2-.5-97.8-.9l-97.5-.7zm-48 74.5c-5.9 14.4-10.6 26.3-10.5 26.4s15.1.4 33.3.6l33.2.3 10.6-25.9c5.8-14.3 10.5-26 10.3-26.1-.1-.2-15-.6-33.2-.9l-33-.7zm90-.1c-5.9 14.4-10.6 26.4-10.5 26.5.2.2 44.2.5 97.9.6l97.6.3 10.7-25.9c5.8-14.2 10.4-26.1 10-26.4-.3-.3-44.3-.8-97.8-1l-97.2-.4zm-94.9 53.6c-1.1 2.7-6 13.8-10.8 24.8-4.9 11-8.8 20.1-8.7 20.1.1.1 44.1.3 98 .5l97.8.4 10.7-24.5 10.7-24.5-33-.6c-18.2-.3-62.3-.7-97.9-.8l-64.8-.1z"/><path fill="#BFBF00" fill-opacity=".9" d="M357.3 164.7c.9.2 2.5.2 3.5 0 .9-.3.1-.5-1.8-.5s-2.7.2-1.7.5m-8.5 50c.7.3 1.6.2 1.9-.1.4-.3-.2-.6-1.3-.5-1.1 0-1.4.3-.6.6m-91.5 23c.9.2 2.3.2 3 0 .6-.3-.1-.5-1.8-.5-1.6 0-2.2.2-1.2.5m5.5 0c.7.3 1.6.2 1.9-.1.4-.3-.2-.6-1.3-.5-1.1 0-1.4.3-.6.6m216 0c.6.2 1.8.2 2.5 0 .6-.3.1-.5-1.3-.5s-1.9.2-1.2.5m-231 53c1.8.2 4.5.2 6 0s0-.4-3.3-.4-4.5.2-2.7.4m11 0c1.2.2 3.2.2 4.5 0 1.2-.2.2-.4-2.3-.4s-3.5.2-2.2.4m213 0c1.2.2 3.2.2 4.5 0 1.2-.2.2-.4-2.3-.4s-3.5.2-2.2.4m8.5 0c.9.2 2.5.2 3.5 0 .9-.3.1-.5-1.8-.5s-2.7.2-1.7.5m-128 22c.9.2 2.5.2 3.5 0 .9-.3.1-.5-1.8-.5s-2.7.2-1.7.5m-9 50c1.5.2 3.7.2 5 0 1.2-.2 0-.4-2.8-.4-2.7 0-3.8.2-2.2.4"/><path fill="#BFBF00" fill-opacity=".8" d="M363.8 164.7c1.2.2 3 .2 4 0 .9-.3-.1-.5-2.3-.4-2.2 0-3 .2-1.7.4m-21 50c1.2.2 3 .2 4 0 .9-.3-.1-.5-2.3-.4-2.2 0-3 .2-1.7.4m-23 22c1.2.2 3.2.2 4.5 0 1.2-.2.2-.4-2.3-.4s-3.5.2-2.2.4m-53 1c1.2.2 3.2.2 4.5 0 1.2-.2.2-.4-2.3-.4s-3.5.2-2.2.4m217 0c1.2.2 3.2.2 4.5 0 1.2-.2.2-.4-2.3-.4s-3.5.2-2.2.4m-245.5 53c1.5.2 3.7.2 5 0 1.2-.2 0-.4-2.8-.4-2.7 0-3.8.2-2.2.4m225 0c1.5.2 3.7.2 5 0 1.2-.2 0-.4-2.8-.4-2.7 0-3.8.2-2.2.4m-104 22c1.5.2 3.7.2 5 0 1.2-.2 0-.4-2.8-.4-2.7 0-3.8.2-2.2.4m-24.5 50c1.2.2 3.2.2 4.5 0 1.2-.2.2-.4-2.3-.4s-3.5.2-2.2.4"/><path fill="#BFBF00" fill-opacity=".7" d="M370.8 164.7c.7.3 1.6.2 1.9-.1.4-.3-.2-.6-1.3-.5-1.1 0-1.4.3-.6.6m-32 50c.7.3 1.6.2 1.9-.1.4-.3-.2-.6-1.3-.5-1.1 0-1.4.3-.6.6m-12 22c.6.2 1.8.2 2.5 0 .6-.3.1-.5-1.3-.5s-1.9.2-1.2.5m-53 1c.6.2 1.8.2 2.5 0 .6-.3.1-.5-1.3-.5s-1.9.2-1.2.5m218 0c.6.2 1.8.2 2.5 0 .6-.3.1-.5-1.3-.5s-1.9.2-1.2.5m-260.5 53c.9.2 2.5.2 3.5 0 .9-.3.1-.5-1.8-.5s-2.7.2-1.7.5m226 0c.9.2 2.3.2 3 0 .6-.3-.1-.5-1.8-.5-1.6 0-2.2.2-1.2.5m-90.5 22c.6.2 1.8.2 2.5 0 .6-.3.1-.5-1.3-.5s-1.9.2-1.2.5m-37 50c.6.2 1.8.2 2.5 0 .6-.3.1-.5-1.3-.5s-1.9.2-1.2.5"/><path fill="#BFBF40" fill-opacity=".7" d="M374.3 164.7c.9.2 2.3.2 3 0 .6-.3-.1-.5-1.8-.5-1.6 0-2.2.2-1.2.5m-40.5 50c.6.2 1.8.2 2.5 0 .6-.3.1-.5-1.3-.5s-1.9.2-1.2.5m-2.5 22c.9.2 2.3.2 3 0 .6-.3-.1-.5-1.8-.5-1.6 0-2.2.2-1.2.5m-53 1c.9.2 2.3.2 3 0 .6-.3-.1-.5-1.8-.5-1.6 0-2.2.2-1.2.5m218 0c.9.2 2.3.2 3 0 .6-.3-.1-.5-1.8-.5-1.6 0-2.2.2-1.2.5m-271.5 53c1.2.2 3 .2 4 0 .9-.3-.1-.5-2.3-.4-2.2 0-3 .2-1.7.4m226.5 0c.9.2 2.5.2 3.5 0 .9-.3.1-.5-1.8-.5s-2.7.2-1.7.5m-79 22c.9.2 2.3.2 3 0 .6-.3-.1-.5-1.8-.5-1.6 0-2.2.2-1.2.5m-47.5 50c.6.2 1.8.2 2.5 0 .6-.3.1-.5-1.3-.5s-1.9.2-1.2.5"/><path fill="#BFBF40" fill-opacity=".6" d="M382.3 164.7c.9.2 2.5.2 3.5 0 .9-.3.1-.5-1.8-.5s-2.7.2-1.7.5m-56 50c.9.2 2.3.2 3 0 .6-.3-.1-.5-1.8-.5-1.6 0-2.2.2-1.2.5m9.5 22c.7.3 1.6.2 1.9-.1.4-.3-.2-.6-1.3-.5-1.1 0-1.4.3-.6.6m4 0c.7.3 1.6.2 1.9-.1.4-.3-.2-.6-1.3-.5-1.1 0-1.4.3-.6.6m4 0c.7.3 1.6.2 1.9-.1.4-.3-.2-.6-1.3-.5-1.1 0-1.4.3-.6.6m-59.5 1c1.5.2 3.9.2 5.5 0 1.5-.2.2-.4-2.8-.4s-4.3.2-2.7.4m216.5 0c.7.3 1.6.2 1.9-.1.4-.3-.2-.6-1.3-.5-1.1 0-1.4.3-.6.6m4 0c.7.3 1.6.2 1.9-.1.4-.3-.2-.6-1.3-.5-1.1 0-1.4.3-.6.6m4 0c.7.3 1.6.2 1.9-.1.4-.3-.2-.6-1.3-.5-1.1 0-1.4.3-.6.6m-298 53c.7.3 1.6.2 1.9-.1.4-.3-.2-.6-1.3-.5-1.1 0-1.4.3-.6.6m4.5 0c.9.2 2.3.2 3 0 .6-.3-.1-.5-1.8-.5-1.6 0-2.2.2-1.2.5m5.5 0c.7.3 1.6.2 1.9-.1.4-.3-.2-.6-1.3-.5-1.1 0-1.4.3-.6.6m218 0c.7.3 1.6.2 1.9-.1.4-.3-.2-.6-1.3-.5-1.1 0-1.4.3-.6.6m5 0c1.2.2 3.2.2 4.5 0 1.2-.2.2-.4-2.3-.4s-3.5.2-2.2.4m-228.5 21c.9.2 2.3.2 3 0 .6-.3-.1-.5-1.8-.5-1.6 0-2.2.2-1.2.5m161.5 1c.7.3 1.6.2 1.9-.1.4-.3-.2-.6-1.3-.5-1.1 0-1.4.3-.6.6m4.5 0c.9.2 2.5.2 3.5 0 .9-.3.1-.5-1.8-.5s-2.7.2-1.7.5m-63.5 50c.7.3 1.6.2 1.9-.1.4-.3-.2-.6-1.3-.5-1.1 0-1.4.3-.6.6m4 0c.7.3 1.6.2 1.9-.1.4-.3-.2-.6-1.3-.5-1.1 0-1.4.3-.6.6"/><path fill="#BFBF40" fill-opacity=".5" d="M388.3 164.7c.9.2 2.3.2 3 0 .6-.3-.1-.5-1.8-.5-1.6 0-2.2.2-1.2.5m-68 50c.9.2 2.5.2 3.5 0 .9-.3.1-.5-1.8-.5s-2.7.2-1.7.5m28 22c1.5.2 3.9.2 5.5 0 1.5-.2.2-.4-2.8-.4s-4.3.2-2.7.4m-55.5 1c.7.3 1.6.2 1.9-.1.4-.3-.2-.6-1.3-.5-1.1 0-1.4.3-.6.6m219 0c.7.3 1.6.2 1.9-.1.4-.3-.2-.6-1.3-.5-1.1 0-1.4.3-.6.6M205 290.1c0 .5 1.1.9 2.5.9s2.5-.2 2.5-.4-1.1-.6-2.5-.8c-1.4-.3-2.5-.1-2.5.3m223.8.6c1.7.2 4.7.2 6.5 0 1.7-.2.3-.4-3.3-.4s-5 .2-3.2.4m-207.5 21c1.5.2 3.9.2 5.5 0 1.5-.2.2-.4-2.8-.4s-4.3.2-2.7.4m166 1c.9.2 2.5.2 3.5 0 .9-.3.1-.5-1.8-.5s-2.7.2-1.7.5m-81 50c1.5.2 3.9.2 5.5 0 1.5-.2.2-.4-2.8-.4s-4.3.2-2.7.4"/><path fill="#FFBF80" fill-opacity=".4" d="M398.7 164.7c1.8.2 5 .2 7 0 2.1-.2.7-.4-3.2-.4-3.8 0-5.5.2-3.8.4m-90.9 50c1.8.2 4.5.2 6 0s0-.4-3.3-.4-4.5.2-2.7.4m52 22c1.7.2 4.7.2 6.5 0 1.7-.2.3-.4-3.3-.4s-5 .2-3.2.4m54.9 54c1.8.2 5 .2 7 0 2.1-.2.7-.4-3.2-.4-3.8 0-5.5.2-3.8.4m-182 21c1.8.2 5 .2 7 0 2.1-.2.7-.4-3.2-.4-3.8 0-5.5.2-3.8.4m161.1 1c1.2.2 3 .2 4 0 .9-.3-.1-.5-2.3-.4-2.2 0-3 .2-1.7.4m-100 50c1.7.2 4.7.2 6.5 0 1.7-.2.3-.4-3.3-.4s-5 .2-3.2.4"/><path fill="#FFBF80" fill-opacity=".3" d="M412.3 164.7c2 .2 5.4.2 7.5 0 2-.2.3-.4-3.8-.4s-5.8.2-3.7.4m-115.5 50c1.8.2 4.5.2 6 0s0-.4-3.3-.4-4.5.2-2.7.4m151 1c.7.3 1.6.2 1.9-.1.4-.3-.2-.6-1.3-.5-1.1 0-1.4.3-.6.6m-75.5 21c2 .2 5.4.2 7.5 0 2-.2.3-.4-3.8-.4s-5.8.2-3.7.4m27.5 54c2.3.2 6.1.2 8.5 0 2.3-.2.4-.4-4.3-.4s-6.6.2-4.2.4m-154.1 21c1.8.2 5 .2 7 0 2.1-.2.7-.4-3.2-.4-3.8 0-5.5.2-3.8.4m155.1 1c1.2.2 3.2.2 4.5 0 1.2-.2.2-.4-2.3-.4s-3.5.2-2.2.4m-120.1 50c1.8.2 5 .2 7 0 2.1-.2.7-.4-3.2-.4-3.8 0-5.5.2-3.8.4"/><path fill="#BFBFBF" fill-opacity=".1" d="M933.3 242.5c0 3.3.2 4.5.4 2.7s.2-4.5 0-6-.4 0-.4 3.3m114 0c0 3.3.2 4.5.4 2.7s.2-4.5 0-6-.4 0-.4 3.3m69-1c0 2.7.2 3.8.4 2.2.2-1.5.2-3.7 0-5-.2-1.2-.4 0-.4 2.8m414 1c0 3.3.2 4.5.4 2.7s.2-4.5 0-6-.4 0-.4 3.3m-555.9 15c0 11 .2 15.6.3 10.3.2-5.3.2-14.3 0-20-.1-5.7-.3-1.3-.3 9.7m385.8-1c0 1.6.2 2.2.5 1.2.2-.9.2-2.3 0-3-.3-.6-.5.1-.5 1.8M1010.3 272c0 3 .2 4.3.4 2.7.2-1.5.2-3.9 0-5.5-.2-1.5-.4-.2-.4 2.8m-375.4-.3c-1.3 1.6-1.2 1.7.4.4s2.1-2.1 1.3-2.1c-.2 0-1 .8-1.7 1.7m3.4 11.8c0 2.2.2 3 .4 1.7.2-1.2.2-3 0-4-.3-.9-.5.1-.4 2.3"/><path fill="gray" fill-opacity=".3" d="M646.4 250c0 6.9.1 9.7.3 6.2.2-3.4.2-9 0-12.5-.2-3.4-.3-.6-.3 6.3m35 0c0 6.9.1 9.7.3 6.2.2-3.4.2-9 0-12.5-.2-3.4-.3-.6-.3 6.3m52-3c0 5.2.1 7.4.3 4.7.2-2.6.2-6.8 0-9.5-.2-2.6-.3-.4-.3 4.8m228.9-2.5c0 3.8.2 5.3.4 3.2.2-2 .2-5.2 0-7-.2-1.7-.4-.1-.4 3.8m295.1 2.5c0 5.2.1 7.4.3 4.7.2-2.6.2-6.8 0-9.5-.2-2.6-.3-.4-.3 4.8m189 10.5c0 11 .2 15.6.3 10.3.2-5.3.2-14.3 0-20-.1-5.7-.3-1.3-.3 9.7m67-10.5c0 5.2.1 7.4.3 4.7.2-2.6.2-6.8 0-9.5-.2-2.6-.3-.4-.3 4.8m-604 15.5c0 8.2.2 11.5.3 7.2.2-4.3.2-11 0-15-.1-4-.3-.5-.3 7.8m162 0c0 8.2.2 11.5.3 7.2.2-4.3.2-11 0-15-.1-4-.3-.5-.3 7.8m483 0c0 8.2.2 11.5.3 7.2.2-4.3.2-11 0-15-.1-4-.3-.5-.3 7.8m-513.1-5.5c0 2.5.2 3.5.4 2.2.2-1.2.2-3.2 0-4.5-.2-1.2-.4-.2-.4 2.3m439 0c0 2.5.2 3.5.4 2.2.2-1.2.2-3.2 0-4.5-.2-1.2-.4-.2-.4 2.3m-518 12.5c0 4.4.2 6.1.4 3.7.2-2.3.2-5.9 0-8-.2-2-.4-.1-.4 4.3m-381.5-1.8c2.3.2 6.1.2 8.5 0 2.3-.2.4-.4-4.3-.4s-6.6.2-4.2.4m450 0c2.3.2 6.1.2 8.5 0 2.3-.2.4-.4-4.3-.4s-6.6.2-4.2.4m74 0c2.3.2 5.9.2 8 0 2-.2.1-.4-4.3-.4s-6.1.2-3.7.4m277 0c2.3.2 6.1.2 8.5 0 2.3-.2.4-.4-4.3-.4s-6.6.2-4.2.4m88 0c2.3.2 6.1.2 8.5 0 2.3-.2.4-.4-4.3-.4s-6.6.2-4.2.4m-599.1 4c1.8.2 5 .2 7 0 2.1-.2.7-.4-3.2-.4-3.8 0-5.5.2-3.8.4m333 0c1.8.2 5 .2 7 0 2.1-.2.7-.4-3.2-.4-3.8 0-5.5.2-3.8.4m87 0c1.8.2 5 .2 7 0 2.1-.2.7-.4-3.2-.4-3.8 0-5.5.2-3.8.4"/><path fill="gray" fill-opacity=".4" d="M592.3 242c0 2.5.2 3.5.4 2.2.2-1.2.2-3.2 0-4.5-.2-1.2-.4-.2-.4 2.3m305 .5c0 2.7.2 3.8.4 2.2.2-1.5.2-3.7 0-5-.2-1.2-.4 0-.4 2.8m53.1 2.5.1 6.5 5.8.1 5.7.1-5.5-.4-5.4-.4-.4-6.2-.3-6.2zm132.9-2.5c0 2.7.2 3.8.4 2.2.2-1.5.2-3.7 0-5-.2-1.2-.4 0-.4 2.8m310-.5c0 2.5.2 3.5.4 2.2.2-1.2.2-3.2 0-4.5-.2-1.2-.4-.2-.4 2.3m173 .5c0 2.7.2 3.8.4 2.2.2-1.5.2-3.7 0-5-.2-1.2-.4 0-.4 2.8m-616 27c0 4.4.2 6.1.4 3.7.2-2.3.2-5.9 0-8-.2-2-.4-.1-.4 4.3m-315.5 10.2c.6.2 1.8.2 2.5 0 .6-.3.1-.5-1.3-.5s-1.9.2-1.2.5"/><path fill="#404040" fill-opacity=".5" d="M689.4 257.5c0 11 .2 15.6.3 10.3.2-5.3.2-14.3 0-20-.1-5.7-.3-1.3-.3 9.7m293 0c0 11 .2 15.6.3 10.3.2-5.3.2-14.3 0-20-.1-5.7-.3-1.3-.3 9.7m-406-10.1c-.3.8-.4 2.3-.1 3.3q.45 1.8.6-.9c.1-2.7.2-2.7 7.9-3.1l7.7-.3-7.8-.2c-6-.2-7.9.1-8.3 1.2m454.4-.7c2.3.2 6.1.2 8.5 0 2.3-.2.4-.4-4.3-.4s-6.6.2-4.2.4m74 0c2.3.2 5.9.2 8 0 2-.2.1-.4-4.3-.4s-6.1.2-3.7.4m272.6.7c-.3.8-.4 2.3-.1 3.3q.45 1.8.6-.9c.1-2.7.2-2.7 7.9-3.1l7.7-.3-7.8-.2c-6-.2-7.9.1-8.3 1.2m92.4-.7c2.3.2 6.1.2 8.5 0 2.3-.2.4-.4-4.3-.4s-6.6.2-4.2.4M720.4 267c0 5.8.1 8.1.3 5.2.2-2.8.2-7.6 0-10.5-.2-2.8-.3-.5-.3 5.3m524 0c0 5.8.1 8.1.3 5.2.2-2.8.2-7.6 0-10.5-.2-2.8-.3-.5-.3 5.3m256 0c0 5.8.1 8.1.3 5.2.2-2.8.2-7.6 0-10.5-.2-2.8-.3-.5-.3 5.3m-924-4.6c-.3.8-.4 2.3-.1 3.3q.45 1.8.6-.9c.1-2.6.3-2.7 6.9-3.1l6.7-.3-6.8-.2c-5.1-.2-6.9.2-7.3 1.2m453.9-.7c2 .2 5.4.2 7.5 0 2-.2.3-.4-3.8-.4s-5.8.2-3.7.4m73.4 0c1.8.2 5 .2 7 0 2.1-.2.7-.4-3.2-.4-3.8 0-5.5.2-3.8.4m273.7.7c-.3.8-.4 2.3-.1 3.3q.45 1.8.6-.9c.1-2.6.3-2.7 6.9-3.1l6.7-.3-6.8-.2c-5.1-.2-6.9.2-7.3 1.2m91.9-.7c2 .2 5.4.2 7.5 0 2-.2.3-.4-3.8-.4s-5.8.2-3.7.4m-311.5 6c1.2.2 3 .2 4 0 .9-.3-.1-.5-2.3-.4-2.2 0-3 .2-1.7.4m264 0c1.2.2 3 .2 4 0 .9-.3-.1-.5-2.3-.4-2.2 0-3 .2-1.7.4m-378.5 4.8c0 2.7.2 3.8.4 2.2.2-1.5.2-3.7 0-5-.2-1.2-.4 0-.4 2.8m439 0c0 2.7.2 3.8.4 2.2.2-1.5.2-3.7 0-5-.2-1.2-.4 0-.4 2.8"/><path fill="gray" fill-opacity=".2" d="M1015.4 257.5c0 11 .2 15.6.3 10.3.2-5.3.2-14.3 0-20-.1-5.7-.3-1.3-.3 9.7m121 0c0 11 .2 15.6.3 10.3.2-5.3.2-14.3 0-20-.1-5.7-.3-1.3-.3 9.7m318 0c0 11 .2 15.6.3 10.3.2-5.3.2-14.3 0-20-.1-5.7-.3-1.3-.3 9.7m-354.2-8c0 1.6.2 2.2.5 1.2.2-.9.2-2.3 0-3-.3-.6-.5.1-.5 1.8m70.2 18c0 5.5.1 7.6.3 4.7s.2-7.4 0-10-.3-.2-.3 5.3m242 0c0 5.5.1 7.6.3 4.7s.2-7.4 0-10-.3-.2-.3 5.3m-312.2-3c0 1.6.2 2.2.5 1.2.2-.9.2-2.3 0-3-.3-.6-.5.1-.5 1.8"/><path fill="#404040" fill-opacity=".7" d="M572.3 237.7c3.7.2 9.7.2 13.5 0 3.7-.2.6-.3-6.8-.3s-10.5.1-6.7.3m77.5 0c1.8.2 4.5.2 6 0s0-.4-3.3-.4-4.5.2-2.7.4m23 0c1.8.2 4.5.2 6 0s0-.4-3.3-.4-4.5.2-2.7.4m19.5 0c1.5.2 3.9.2 5.5 0 1.5-.2.2-.4-2.8-.4s-4.3.2-2.7.4m19.5 0c1.2.2 3.2.2 4.5 0 1.2-.2.2-.4-2.3-.4s-3.5.2-2.2.4m24.5 0c1.5.2 3.9.2 5.5 0 1.5-.2.2-.4-2.8-.4s-4.3.2-2.7.4m65.5 0c1.7.2 4.7.2 6.5 0 1.7-.2.3-.4-3.3-.4s-5 .2-3.2.4m27 0c1.8.2 4.5.2 6 0s0-.4-3.3-.4-4.5.2-2.7.4m43 0c1.8.2 4.5.2 6 0s0-.4-3.3-.4-4.5.2-2.7.4m34.4 0c4.8.2 12.9.2 18 0 5.1-.1 1.2-.3-8.7-.3s-14.1.2-9.3.3m35.6 0c1.8.2 4.5.2 6 0s0-.4-3.3-.4-4.5.2-2.7.4m24 0c1.8.2 4.5.2 6 0s0-.4-3.3-.4-4.5.2-2.7.4m19.5 0c1.5.2 3.9.2 5.5 0 1.5-.2.2-.4-2.8-.4s-4.3.2-2.7.4m37 0c3.7.2 9.7.2 13.5 0 3.7-.2.6-.3-6.8-.3s-10.5.1-6.7.3m33.9 0c4.8.2 12.9.2 18 0 5.1-.1 1.2-.3-8.7-.3s-14.1.2-9.3.3m39 0c3.7.2 10 .2 14 0 4-.1 1-.3-6.7-.3s-11 .1-7.3.3m44.1 0c1.5.2 3.7.2 5 0 1.2-.2 0-.4-2.8-.4-2.7 0-3.8.2-2.2.4m36 0c1.5.2 3.7.2 5 0 1.2-.2 0-.4-2.8-.4-2.7 0-3.8.2-2.2.4m29.5 0c1.8.2 4.5.2 6 0s0-.4-3.3-.4-4.5.2-2.7.4m31 0c1.2.2 3.2.2 4.5 0 1.2-.2.2-.4-2.3-.4s-3.5.2-2.2.4m24.5 0c1.5.2 3.9.2 5.5 0 1.5-.2.2-.4-2.8-.4s-4.3.2-2.7.4m31.5 0c1.8.2 4.5.2 6 0s0-.4-3.3-.4-4.5.2-2.7.4m81.5 0c3.7.2 9.7.2 13.5 0 3.7-.2.6-.3-6.8-.3s-10.5.1-6.7.3m30 0c1.5.2 3.7.2 5 0 1.2-.2 0-.4-2.8-.4-2.7 0-3.8.2-2.2.4m36 0c1.5.2 3.7.2 5 0 1.2-.2 0-.4-2.8-.4-2.7 0-3.8.2-2.2.4m22 0c3.7.2 9.7.2 13.5 0 3.7-.2.6-.3-6.8-.3s-10.5.1-6.7.3m30.5 0c1.2.2 3.2.2 4.5 0 1.2-.2.2-.4-2.3-.4s-3.5.2-2.2.4m24.5 0c1.5.2 3.9.2 5.5 0 1.5-.2.2-.4-2.8-.4s-4.3.2-2.7.4m22.9 0c4.8.2 12.9.2 18 0 5.1-.1 1.2-.3-8.7-.3s-14.1.2-9.3.3"/><path fill="#404040" fill-opacity=".6" d="M1349.8 250.7c1.7.2 4.7.2 6.5 0 1.7-.2.3-.4-3.3-.4s-5 .2-3.2.4m-769.5 2c2 .2 5.4.2 7.5 0 2-.2.3-.4-3.8-.4s-5.8.2-3.7.4m450 0c2 .2 5.4.2 7.5 0 2-.2.3-.4-3.8-.4s-5.8.2-3.7.4m77.4 0 6.2.4.4 4 .4 3.9-.1-4.2-.1-4.3-6.5-.1h-6.5zm273.6 0c2 .2 5.4.2 7.5 0 2-.2.3-.4-3.8-.4s-5.8.2-3.7.4m88 0c2 .2 5.4.2 7.5 0 2-.2.3-.4-3.8-.4s-5.8.2-3.7.4m-471.5 14c2.3.2 6.1.2 8.5 0 2.3-.2.4-.4-4.3-.4s-6.6.2-4.2.4m-364.5 21c.9.2 2.5.2 3.5 0 .9-.3.1-.5-1.8-.5s-2.7.2-1.7.5"/><path fill-opacity=".8" d="M590.3 257c0 2.5.2 3.5.4 2.2.2-1.2.2-3.2 0-4.5-.2-1.2-.4-.2-.4 2.3m801 0c0 2.5.2 3.5.4 2.2.2-1.2.2-3.2 0-4.5-.2-1.2-.4-.2-.4 2.3m-54 1c0 2.5.2 3.5.4 2.2.2-1.2.2-3.2 0-4.5-.2-1.2-.4-.2-.4 2.3"/><path d="M609.3 239.4c-15 7-14.9 28.9.2 35.7 2.2 1 5.5 1.9 7.2 1.9 2.6 0 3.6.6 4.8 2.9 2.5 4.8 6.2 7.1 11.6 7.1h4.9v-3.5c0-3.2-.2-3.5-2.9-3.5-2.6 0-6.1-2.1-6.1-3.7 0-.3 1.8-2.1 3.9-4 7.6-6.5 9.2-18 3.7-26.4-3.3-5-11-8.9-17.6-8.9-2.7 0-6.6 1-9.7 2.4m17.2 10.1c3.5 3.4 3.6 11.5.1 15-2.9 2.8-6.6 4-10.2 3.1-4.7-1.2-7.4-4.9-7.4-10.4 0-6.9 3.3-10.2 10.2-10.2 3.9 0 5.4.5 7.3 2.5M765.7 238c-12.4 3.7-18 20.8-10.1 30.7 4.8 6 10.6 8.5 18.6 8.1 5.5-.3 7.5-.9 10.9-3.3 12.3-8.7 11.3-26.8-2-33.7-5.5-2.9-11.6-3.5-17.4-1.8m13.4 10.3c4 3 5.3 11.3 2.4 15.4-1.9 2.7-7.6 4.6-11.4 3.8-3.4-.7-6.7-4-7.6-7.7-.9-3.5 1.1-9.4 3.8-11.3 2.6-1.8 10.6-1.9 12.8-.2m550.3-8.8c-10.2 5.1-13.7 17.4-8 28.3 2.6 4.9 8.7 8.5 15.6 9 12.7.9 20.6-5.4 22.5-18.1l.7-4.7H1338v8h5.5c5.2 0 5.4.1 4.3 1.9-3.1 4.9-11.5 5.6-15.9 1.2-2.4-2.5-2.9-3.8-2.9-7.8 0-5.6 1.7-8.5 5.9-10.3 3.5-1.4 9.3-.6 11.1 1.5 1.3 1.6 12 2.2 12 .7 0-2.5-4.5-7.3-9.1-9.6-6.9-3.4-12.9-3.4-19.5-.1m-763.4 18V277h27v-9h-17v-7h14v-8h-14v-7h16v-8h-26zm81.2-5.1c.3 12.8.5 14.8 2.4 17.3 3.8 5.1 8.1 7.3 14.4 7.3s10.6-2.2 14.4-7.3c1.9-2.5 2.1-4.5 2.4-17.3l.4-14.4h-11.1l-.3 13.7-.3 13.8-2.7 1.3c-2.3 1.1-3.3 1.1-5.5 0l-2.8-1.3-.3-13.8-.3-13.7h-11.1zm42.8 5.1V277h10v-39h-10zm20 0V277h9.9l.3-10.7.3-10.7 8 10.7c7.6 10.3 8.1 10.7 11.7 10.7h3.8v-39h-9.9l-.3 10.2-.3 10.2-7.5-10.2c-7.4-10.1-7.5-10.1-11.7-10.2H710zm90-18.9c0 .3 2.5 4.4 5.5 9 3 4.7 5.5 8.8 5.5 9.2s-2.7 4.7-6 9.7c-3.3 4.9-6 9.3-6 9.7 0 .5 2.5.8 5.5.8h5.5l3.7-6c2.1-3.3 4.1-6 4.4-6s2.3 2.7 4.3 6l3.7 6H838l-6.5-10c-7.3-11.3-7.3-9.9-.3-20.2 5.9-8.8 5.9-8.8-.4-8.8h-5.4l-3.3 5.5c-1.8 3-3.6 5.5-4 5.5s-2.2-2.5-4-5.5l-3.3-5.5h-5.4c-3 0-5.4.3-5.4.6m65.7 8.6c-1.9 5.1-5.3 13.9-7.5 19.5l-4 10.3h5.4c5.2 0 5.6-.2 6.5-3 1.1-3 1.2-3 8.4-3 7.1 0 7.3.1 8.5 3 1.2 2.8 1.6 3 6.6 3 3 0 5.4-.1 5.4-.3 0-.1-3.4-8.8-7.4-19.2l-7.5-19-5.4-.3-5.4-.3zm11.9 9.9 2.1 5.9h-4.8c-2.7 0-4.9-.3-4.9-.6 0-1.8 4.4-12.4 4.9-11.9.3.3 1.5 3.3 2.7 6.6m20.4-14.6v4.5h12v30h11v-30h12v-9h-35zm41 15V277h11v-15h13v15h11v-39h-11v14h-13v-14h-11zm44 0V277h27v-10h-17v-29h-10zm33 0V277h27v-9h-16v-7h14v-8h-14v-7h15v-8h-26zm32-15v4.5h12v30h11v-30h12v-9h-35zm41 15V277h27v-9h-16v-7h14v-8h-14v-7h16v-8h-27zm48 0V277h11v-21.3l4.1 5.6c3.5 5 4.4 5.7 7.4 5.7 2.8 0 3.8-.7 7.2-5.3l3.8-5.2.3 10.2.3 10.3h10.9v-39h-4.4c-4.5 0-4.5 0-10.7 8.7-3.4 4.9-6.6 9.2-7 9.6-.4.5-3.7-3.4-7.4-8.7l-6.6-9.6h-8.9zm61.7-10.3c-1.9 5.1-5.3 13.9-7.5 19.5l-4 10.3h5.4c5.2 0 5.6-.2 6.5-3 1.1-3 1.2-3 8.4-3 7.1 0 7.3.1 8.5 3 1.2 2.8 1.6 3 6.6 3 3 0 5.4-.1 5.4-.3 0-.1-3.4-8.8-7.4-19.2l-7.5-19-5.4-.3-5.4-.3zm11.9 9.9 2.1 5.9h-4.8c-2.7 0-4.9-.3-4.9-.6 0-1.8 4.4-12.4 4.9-11.9.3.3 1.5 3.3 2.7 6.6m23.4.4V277h9.9l.3-10.7.3-10.7 8 10.7c7.6 10.3 8.1 10.7 11.7 10.7h3.8v-39h-9.9l-.3 10.2-.3 10.2-7.5-10.2c-7.4-10.1-7.5-10.1-11.7-10.2h-4.3zm51.7-10.3c-1.9 5.1-5.3 13.9-7.5 19.5l-4 10.3h5.4c5.2 0 5.6-.2 6.5-3 1.1-3 1.2-3 8.4-3 7.1 0 7.3.1 8.5 3 1.2 2.8 1.6 3 6.6 3 3 0 5.4-.1 5.4-.3 0-.1-3.4-8.8-7.4-19.2l-7.5-19-5.4-.3-5.4-.3zm11.9 9.9 2.1 5.9h-4.8c-2.7 0-4.9-.3-4.9-.6 0-1.8 4.4-12.4 4.9-11.9.3.3 1.5 3.3 2.7 6.6m69.4.4V277h27v-9h-17v-7h14v-8h-14v-7h16v-8h-26zm34 0V277h10.9l.3-10.6.3-10.7 3.9 5.7c3.4 4.9 4.2 5.6 7.2 5.6s3.9-.7 7.2-5.2l3.7-5.2.3 10.2.3 10.2h10.9v-39h-8.7l-6.8 9.6c-3.7 5.2-7.1 9.2-7.5 8.7-.4-.4-3.5-4.7-6.9-9.6-6.2-8.7-6.2-8.7-10.7-8.7h-4.4zm54 0V277h27v-9h-16v-7h14v-8h-14v-7h15v-8h-26zm35 0V277h9.9l.3-10.7.3-10.7 8 10.7c7.6 10.3 8.1 10.7 11.7 10.7h3.8v-39h-9.9l-.3 10.2-.3 10.2-7.5-10.2c-7.4-10.1-7.5-10.1-11.7-10.2h-4.3zm41-15v4.5h12v30h11v-30h12v-9h-35z"/><path fill-opacity=".9" d="M700.4 257.5c0 11 .2 15.6.3 10.3.2-5.3.2-14.3 0-20-.1-5.7-.3-1.3-.3 9.7m44 0c0 11 .2 15.6.3 10.3.2-5.3.2-14.3 0-20-.1-5.7-.3-1.3-.3 9.7m249-5c0 8.2.2 11.5.3 7.2.2-4.3.2-11 0-15-.1-4-.3-.5-.3 7.8m48.9-10.5c0 2.5.2 3.5.4 2.2.2-1.2.2-3.2 0-4.5-.2-1.2-.4-.2-.4 2.3m226.1 15.5c0 11 .2 15.6.3 10.3.2-5.3.2-14.3 0-20-.1-5.7-.3-1.3-.3 9.7m212.9-15.5c0 2.5.2 3.5.4 2.2.2-1.2.2-3.2 0-4.5-.2-1.2-.4-.2-.4 2.3m43.1 15.5c0 11 .2 15.6.3 10.3.2-5.3.2-14.3 0-20-.1-5.7-.3-1.3-.3 9.7m-623.6-9.8c1.7.2 4.7.2 6.5 0 1.7-.2.3-.4-3.3-.4s-5 .2-3.2.4m23 0c1.7.2 4.7.2 6.5 0 1.7-.2.3-.4-3.3-.4s-5 .2-3.2.4m127 0c1.7.2 4.7.2 6.5 0 1.7-.2.3-.4-3.3-.4s-5 .2-3.2.4m23 0c1.7.2 4.7.2 6.5 0 1.7-.2.3-.4-3.3-.4s-5 .2-3.2.4m460 0c1.7.2 4.7.2 6.5 0 1.7-.2.3-.4-3.3-.4s-5 .2-3.2.4m23 0c1.7.2 4.7.2 6.5 0 1.7-.2.3-.4-3.3-.4s-5 .2-3.2.4m-931.8.7c0 .2.8 1 1.8 1.7 1.5 1.3 1.6 1.2.3-.4s-2.1-2.1-2.1-1.3m705.9 1.3c-1.3 1.6-1.2 1.7.4.4s2.1-2.1 1.3-2.1c-.2 0-1 .8-1.7 1.7m-551 15c-1.3 1.6-1.2 1.7.4.4s2.1-2.1 1.3-2.1c-.2 0-1 .8-1.7 1.7m-23.9 5.7c0 .2.8 1 1.8 1.7 1.5 1.3 1.6 1.2.3-.4s-2.1-2.1-2.1-1.3M651.5 273c1 1.1 2 2 2.3 2s-.3-.9-1.3-2-2-2-2.3-2 .3.9 1.3 2m23.9.2-1.9 2.3 2.3-1.9c1.2-1.1 2.2-2.1 2.2-2.3 0-.8-.8-.2-2.6 1.9m-53.4 9.2c0 .2.8 1 1.8 1.7 1.5 1.3 1.6 1.2.3-.4s-2.1-2.1-2.1-1.3"/><path fill-opacity=".7" d="M565.4 257.5c0 11 .2 15.6.3 10.3.2-5.3.2-14.3 0-20-.1-5.7-.3-1.3-.3 9.7m144 0c0 11 .2 15.6.3 10.3.2-5.3.2-14.3 0-20-.1-5.7-.3-1.3-.3 9.7m524 0c0 11 .2 15.6.3 10.3.2-5.3.2-14.3 0-20-.1-5.7-.3-1.3-.3 9.7m133 0c0 11 .2 15.6.3 10.3.2-5.3.2-14.3 0-20-.1-5.7-.3-1.3-.3 9.7m123 0c0 11 .2 15.6.3 10.3.2-5.3.2-14.3 0-20-.1-5.7-.3-1.3-.3 9.7m-373.1 15c0 2.7.2 3.8.4 2.2.2-1.5.2-3.7 0-5-.2-1.2-.4 0-.4 2.8"/></svg>