<svg xmlns="http://www.w3.org/2000/svg" version="1.0" viewBox="0 0 971 539"><path fill="#FFBFBF" fill-opacity=".1" d="M673.8 92.7c.7.3 1.6.2 1.9-.1.4-.3-.2-.6-1.3-.5-1.1 0-1.4.3-.6.6m107.8 3.2c-.4.5.3.7 1.4.4 2.3-.6 2.6-1.3.6-1.3-.8 0-1.7.4-2 .9m-3.8 4.8c.7.3 1.6.2 1.9-.1.4-.3-.2-.6-1.3-.5-1.1 0-1.4.3-.6.6M394.3 134c0 4.1.2 5.8.4 3.7.2-2 .2-5.4 0-7.5-.2-2-.4-.3-.4 3.8m0 12.5c0 2.7.2 3.8.4 2.2.2-1.5.2-3.7 0-5-.2-1.2-.4 0-.4 2.8m.1 51.5c0 17.9.2 25.2.3 16.2.2-8.9.2-23.5 0-32.5-.1-8.9-.3-1.6-.3 16.3m77.9-23.3c5.4.2 13.9.2 19 0 5.1-.1.7-.3-9.8-.3-10.4 0-14.6.2-9.2.3m107.4 83.4c.7.7 1.5 1 1.8.7s-.2-.9-1.2-1.2c-1.4-.6-1.5-.5-.6.5m-185.6 50.5c0 1.1.3 1.4.6.6.3-.7.2-1.6-.1-1.9-.3-.4-.6.2-.5 1.3m-7.2 5.1c-1.3 1.6-1.2 1.7.4.4.9-.7 1.7-1.5 1.7-1.7 0-.8-.8-.3-2.1 1.3m7.2-.1c0 1.1.3 1.4.6.6.3-.7.2-1.6-.1-1.9-.3-.4-.6.2-.5 1.3m188.8 24.7c.4.4 20.7.6 45.2.5l44.4-.3-45.2-.5c-24.9-.3-44.9-.2-44.4.3m-375.6.4c.9.2 2.3.2 3 0 .6-.3-.1-.5-1.8-.5-1.6 0-2.2.2-1.2.5m32.9 0c15.9.2 41.7.2 57.5 0 15.9-.1 2.9-.2-28.7-.2s-44.6.1-28.8.2m159.6 0c1.8.2 4.5.2 6 0s0-.4-3.3-.4-4.5.2-2.7.4m38 0c12.7.2 33.7.2 46.5 0 12.7-.1 2.3-.2-23.3-.2s-36 .1-23.2.2m89.5 0c.9.2 2.5.2 3.5 0 .9-.3.1-.5-1.8-.5s-2.7.2-1.7.5m-324.6 30c15 .2 39.6.2 54.5 0 15-.1 2.8-.2-27.2-.2s-42.2.1-27.3.2m396.1 0c11.6.2 30.8.2 42.5 0 11.6-.1 2.1-.2-21.3-.2s-32.9.1-21.2.2M538.2 415c0 1.4.2 1.9.5 1.2.2-.6.2-1.8 0-2.5-.3-.6-.5-.1-.5 1.3m-112.9 13.5c0 2.7.2 3.8.4 2.2.2-1.5.2-3.7 0-5-.2-1.2-.4 0-.4 2.8m107 3.5c0 4.1.2 5.8.4 3.7.2-2 .2-5.4 0-7.5-.2-2-.4-.3-.4 3.8m-130 .5c0 2.7.2 3.8.4 2.2.2-1.5.2-3.7 0-5-.2-1.2-.4 0-.4 2.8m185 8.2c.9.2 2.3.2 3 0 .6-.3-.1-.5-1.8-.5-1.6 0-2.2.2-1.2.5"/><path fill="#BFBFBF" fill-opacity=".1" d="M264.8 92.7c1.7.2 4.7.2 6.5 0 1.7-.2.3-.4-3.3-.4s-5 .2-3.2.4m32.5 0c.9.2 2.5.2 3.5 0 .9-.3.1-.5-1.8-.5s-2.7.2-1.7.5m29.5 0c2.3.2 5.9.2 8 0 2-.2.1-.4-4.3-.4s-6.1.2-3.7.4m338.5 0c1.5.2 3.9.2 5.5 0 1.5-.2.2-.4-2.8-.4s-4.3.2-2.7.4M781.2 107c0 1.9.2 2.7.5 1.7.2-.9.2-2.5 0-3.5-.3-.9-.5-.1-.5 1.8m-486.5 74.7c9.4.2 25.2.2 35 0 9.8-.1 2.1-.2-17.2-.2-19.2-.1-27.3.1-17.8.2m-92.5 5.3c0 1.4.2 1.9.5 1.2.2-.6.2-1.8 0-2.5-.3-.6-.5-.1-.5 1.3m574 45c0 1.4.2 1.9.5 1.2.2-.6.2-1.8 0-2.5-.3-.6-.5-.1-.5 1.3m28.9 11.6c0 1.1.3 1.4.6.6.3-.7.2-1.6-.1-1.9-.3-.4-.6.2-.5 1.3m-102.7 21.6-1.9 2.3 2.3-1.9c2.1-1.8 2.7-2.6 1.9-2.6-.2 0-1.2 1-2.3 2.2m-404.1 14.5c2 .2 5.4.2 7.5 0 2-.2.3-.4-3.8-.4s-5.8.2-3.7.4m368.5 0c1.2.2 3 .2 4 0 .9-.3-.1-.5-2.3-.4-2.2 0-3 .2-1.7.4m-464.4 31.8c0 14.8.2 21.1.3 13.8.2-7.2.2-19.4 0-27-.1-7.6-.3-1.7-.3 13.2M394 336.9c0 1 1.9 2.5 2.5 2 .1-.2-.3-1-1.1-1.7s-1.4-.8-1.4-.3m-67.2 1.8c.6.2 1.8.2 2.5 0 .6-.3.1-.5-1.3-.5s-1.9.2-1.2.5m83 0c1.2.2 3 .2 4 0 .9-.3-.1-.5-2.3-.4-2.2 0-3 .2-1.7.4m263 0c.6.2 1.8.2 2.5 0 .6-.3.1-.5-1.3-.5s-1.9.2-1.2.5M562.2 415c0 1.4.2 1.9.5 1.2.2-.6.2-1.8 0-2.5-.3-.6-.5-.1-.5 1.3m-110 1c0 1.4.2 1.9.5 1.2.2-.6.2-1.8 0-2.5-.3-.6-.5-.1-.5 1.3m124.1 3c0 3 .2 4.3.4 2.7.2-1.5.2-3.9 0-5.5-.2-1.5-.4-.2-.4 2.8m-132-.5c0 2.2.2 3 .4 1.7.2-1.2.2-3 0-4-.3-.9-.5.1-.4 2.3M570.4 431c0 8.5.2 12 .3 7.7.2-4.2.2-11.2 0-15.5-.1-4.2-.3-.7-.3 7.8m-32.1-9.5c0 2.7.2 3.8.4 2.2.2-1.5.2-3.7 0-5-.2-1.2-.4 0-.4 2.8m-39.2 3.1c0 1.1.3 1.4.6.6.3-.7.2-1.6-.1-1.9-.3-.4-.6.2-.5 1.3m-121.4 1.1c1.8.2 5 .2 7 0 2.1-.2.7-.4-3.2-.4-3.8 0-5.5.2-3.8.4m66.6 14.8c0 2.2.2 3 .4 1.7.2-1.2.2-3 0-4-.3-.9-.5.1-.4 2.3m54.8-1.9c0 1.1.3 1.4.6.6.3-.7.2-1.6-.1-1.9-.3-.4-.6.2-.5 1.3m-67.3 2.1c1.2.2 3 .2 4 0 .9-.3-.1-.5-2.3-.4-2.2 0-3 .2-1.7.4m106.4 2.8c0 1.6.2 2.2.5 1.2.2-.9.2-2.3 0-3-.3-.6-.5.1-.5 1.8"/><path fill="#BFBFBF" fill-opacity=".2" d="M279.3 92.7c3.1.2 8.3.2 11.5 0 3.1-.2.5-.3-5.8-.3s-8.9.1-5.7.3m28 0c3.2.2 8.1.2 11 0s.3-.3-5.8-.3c-6 0-8.4.1-5.2.3m112 0c45 .2 118.4.2 163 0 44.7-.1 7.9-.2-81.8-.2-89.6 0-126.2.1-81.2.2m361.9 9.3c0 1.4.2 1.9.5 1.2.2-.6.2-1.8 0-2.5-.3-.6-.5-.1-.5 1.3m-577.3 14.7c-1.3 1.6-1.2 1.7.4.4.9-.7 1.7-1.5 1.7-1.7 0-.8-.8-.3-2.1 1.3M557 135.4c0 .2.8 1 1.8 1.7 1.5 1.3 1.6 1.2.3-.4s-2.1-2.1-2.1-1.3m-209.2 46.3c.7.3 1.6.2 1.9-.1.4-.3-.2-.6-1.3-.5-1.1 0-1.4.3-.6.6m25 0c.6.2 1.8.2 2.5 0 .6-.3.1-.5-1.3-.5s-1.9.2-1.2.5m-170.7 1.9c0 1.1.3 1.4.6.6.3-.7.2-1.6-.1-1.9-.3-.4-.6.2-.5 1.3m0 7c0 1.1.3 1.4.6.6.3-.7.2-1.6-.1-1.9-.3-.4-.6.2-.5 1.3m603 29c0 1.1.3 1.4.6.6.3-.7.2-1.6-.1-1.9-.3-.4-.6.2-.5 1.3m-305.3 36.1c.7.3 1.6.2 1.9-.1.4-.3-.2-.6-1.3-.5-1.1 0-1.4.3-.6.6m-272.5 24c12.5.2 32.9.2 45.5 0 12.5-.1 2.2-.2-22.8-.2s-35.3.1-22.7.2m86 0c2.6.2 6.7.2 9 0s.2-.3-4.8-.3c-4.9 0-6.8.1-4.2.3m341 0c2 .2 5.4.2 7.5 0 2-.2.3-.4-3.8-.4s-5.8.2-3.7.4M491.1 416.6c0 1.1.3 1.4.6.6.3-.7.2-1.6-.1-1.9-.3-.4-.6.2-.5 1.3m71.1 2.9c0 1.6.2 2.2.5 1.2.2-.9.2-2.3 0-3-.3-.6-.5.1-.5 1.8M452.3 422c0 2.5.2 3.5.4 2.2.2-1.2.2-3.2 0-4.5-.2-1.2-.4-.2-.4 2.3m-8 7.5c0 4.4.2 6.1.4 3.7.2-2.3.2-5.9 0-8-.2-2-.4-.1-.4 4.3m132.1 5.5c0 6.3.1 8.9.3 5.7.2-3.1.2-8.3 0-11.5-.2-3.1-.3-.5-.3 5.8m-38.1-1.5c0 4.4.2 6.1.4 3.7.2-2.3.2-5.9 0-8-.2-2-.4-.1-.4 4.3m62.8-3.9c0 1.1.3 1.4.6.6.3-.7.2-1.6-.1-1.9-.3-.4-.6.2-.5 1.3m-54.9 12.9c0 1.6.2 2.2.5 1.2.2-.9.2-2.3 0-3-.3-.6-.5.1-.5 1.8"/><path fill="#BF80BF" fill-opacity=".2" d="M356.8 181.7c2.8.2 7.6.2 10.5 0 2.8-.2.5-.3-5.3-.3s-8.1.1-5.2.3m312 0c.7.3 1.6.2 1.9-.1.4-.3-.2-.6-1.3-.5-1.1 0-1.4.3-.6.6m107.3 44.9c0 1.1.3 1.4.6.6.3-.7.2-1.6-.1-1.9-.3-.4-.6.2-.5 1.3m-311.8 29.1c.9.2 2.3.2 3 0 .6-.3-.1-.5-1.8-.5-1.6 0-2.2.2-1.2.5m-262.2 25.9c0 1.1.3 1.4.6.6.3-.7.2-1.6-.1-1.9-.3-.4-.6.2-.5 1.3m360.2 144.9c0 2.7.2 3.8.4 2.2.2-1.5.2-3.7 0-5-.2-1.2-.4 0-.4 2.8m-110 7.5c0 4.7.2 6.6.4 4.2.2-2.3.2-6.1 0-8.5-.2-2.3-.4-.4-.4 4.3m93.8-5.4c0 1.1.3 1.4.6.6.3-.7.2-1.6-.1-1.9-.3-.4-.6.2-.5 1.3m38 8c0 1.1.3 1.4.6.6.3-.7.2-1.6-.1-1.9-.3-.4-.6.2-.5 1.3m-38 2c0 1.1.3 1.4.6.6.3-.7.2-1.6-.1-1.9-.3-.4-.6.2-.5 1.3m-114.8 9.1c.9.2 2.5.2 3.5 0 .9-.3.1-.5-1.8-.5s-2.7.2-1.7.5"/><path fill="#BF8080" fill-opacity=".3" d="M802.3 105c0 4.7.2 6.6.4 4.2.2-2.3.2-6.1 0-8.5-.2-2.3-.4-.4-.4 4.3m-602.4 15.7c-1.3 1.6-1.2 1.7.4.4.9-.7 1.7-1.5 1.7-1.7 0-.8-.8-.3-2.1 1.3M763 131.3c0 .2 1.5 1.6 3.3 3.3l3.2 2.9-2.9-3.3c-2.8-3-3.6-3.7-3.6-2.9m-542.1 9.4-2.4 2.8 2.8-2.4c2.5-2.3 3.2-3.1 2.4-3.1-.2 0-1.4 1.2-2.8 2.7M747.5 157c1 1.1 2 2 2.3 2s-.3-.9-1.3-2-2-2-2.3-2 .3.9 1.3 2m-288.3 21.5c0 1.6.2 2.2.5 1.2.2-.9.2-2.3 0-3-.3-.6-.5.1-.5 1.8m49.3.5c1 1.1 2 2 2.3 2s-.3-.9-1.3-2-2-2-2.3-2 .3.9 1.3 2m-335.2 6.5c0 2.7.2 3.8.4 2.2.2-1.5.2-3.7 0-5-.2-1.2-.4 0-.4 2.8m479-3.8c.9.2 2.3.2 3 0 .6-.3-.1-.5-1.8-.5-1.6 0-2.2.2-1.2.5m9.5 0c1.2.2 3.2.2 4.5 0 1.2-.2.2-.4-2.3-.4s-3.5.2-2.2.4M459.2 199c0 1.4.2 1.9.5 1.2.2-.6.2-1.8 0-2.5-.3-.6-.5-.1-.5 1.3m15.1 3.7c4.8.2 12.5.2 17 0 4.5-.1.6-.3-8.8-.3-9.3 0-13 .2-8.2.3m330.9 20.8c0 1.6.2 2.2.5 1.2.2-.9.2-2.3 0-3-.3-.6-.5.1-.5 1.8m-29.1.1c0 1.1.3 1.4.6.6.3-.7.2-1.6-.1-1.9-.3-.4-.6.2-.5 1.3M216 229.3c0 .2 1.5 1.6 3.3 3.3l3.2 2.9-2.9-3.3c-2.8-3-3.6-3.7-3.6-2.9m589.2 6.7c0 1.4.2 1.9.5 1.2.2-.6.2-1.8 0-2.5-.3-.6-.5-.1-.5 1.3m-29.1 2.6c0 1.1.3 1.4.6.6.3-.7.2-1.6-.1-1.9-.3-.4-.6.2-.5 1.3m-302.3 17.1c3.4.2 8.8.2 12 0 3.1-.2.3-.3-6.3-.3s-9.2.1-5.7.3m-14.6 3.3c0 1.4.2 1.9.5 1.2.2-.6.2-1.8 0-2.5-.3-.6-.5-.1-.5 1.3m287.7 45.7-2.4 2.8 2.8-2.4c1.5-1.4 2.7-2.6 2.7-2.8 0-.8-.8-.1-3.1 2.4m-179.5 19.5-1.9 2.3 2.3-1.9c1.2-1.1 2.2-2.1 2.2-2.3 0-.8-.8-.2-2.6 1.9m200.5.5c-1.3 1.6-1.2 1.7.4.4s2.1-2.1 1.3-2.1c-.2 0-1 .8-1.7 1.7m-149.6 87c.9.2 2.3.2 3 0 .6-.3-.1-.5-1.8-.5-1.6 0-2.2.2-1.2.5m-76.5 1c.6.2 1.8.2 2.5 0 .6-.3.1-.5-1.3-.5s-1.9.2-1.2.5m-124.5 6.8c0 2.7.2 3.8.4 2.2.2-1.5.2-3.7 0-5-.2-1.2-.4 0-.4 2.8m182.2-1.5c-1.6.7-1.7.9-.3.9.9.1 2-.4 2.3-.9.7-1.1.7-1.1-2 0m-227.2 3.5c0 2.2.2 3 .4 1.7.2-1.2.2-3 0-4-.3-.9-.5.1-.4 2.3m24 1c0 2.7.2 3.8.4 2.2.2-1.5.2-3.7 0-5-.2-1.2-.4 0-.4 2.8m188 0c0 2.2.2 3 .4 1.7.2-1.2.2-3 0-4-.3-.9-.5.1-.4 2.3m-97.2 1.1c0 1.1.3 1.4.6.6.3-.7.2-1.6-.1-1.9-.3-.4-.6.2-.5 1.3m4.3 9.4c0 5.8.1 8.1.3 5.2.2-2.8.2-7.6 0-10.5-.2-2.8-.3-.5-.3 5.3m-119 .4c-.3.7-.4 3.3-.1 5.7.3 4.4.4 4.4.5-.8l.2-5.2 7.8-.4 7.7-.3-7.8-.2c-5.8-.2-7.9.1-8.3 1.2m44.9 6.6c0 3 .2 4.3.4 2.7.2-1.5.2-3.9 0-5.5-.2-1.5-.4-.2-.4 2.8m-21 2c0 2.5.2 3.5.4 2.2.2-1.2.2-3.2 0-4.5-.2-1.2-.4-.2-.4 2.3m13.8 2.6c0 1.1.3 1.4.6.6.3-.7.2-1.6-.1-1.9-.3-.4-.6.2-.5 1.3m83.7 2.1c.7.3 1.6.2 1.9-.1.4-.3-.2-.6-1.3-.5-1.1 0-1.4.3-.6.6m-73.5 1c.9.2 2.5.2 3.5 0 .9-.3.1-.5-1.8-.5s-2.7.2-1.7.5m27.5 0c.6.2 1.8.2 2.5 0 .6-.3.1-.5-1.3-.5s-1.9.2-1.2.5m139 0c1.2.2 3.2.2 4.5 0 1.2-.2.2-.4-2.3-.4s-3.5.2-2.2.4"/><path fill="#BF8080" fill-opacity=".4" d="M770.3 107.5c0 3.3.2 4.5.4 2.7s.2-4.5 0-6-.4 0-.4 3.3m-481.5 14.2c12.7.2 33.7.2 46.5 0 12.7-.1 2.3-.2-23.3-.2s-36 .1-23.2.2m81.5 0c2.6.2 6.7.2 9 0s.2-.3-4.8-.3c-4.9 0-6.8.1-4.2.3m65.5 0c10 .2 26.4.2 36.5 0 10-.1 1.8-.2-18.3-.2s-28.3.1-18.2.2m68 0c.7.3 1.6.2 1.9-.1.4-.3-.2-.6-1.3-.5-1.1 0-1.4.3-.6.6m7 0c1.7.2 4.7.2 6.5 0 1.7-.2.3-.4-3.3-.4s-5 .2-3.2.4m12 0c.6.2 1.8.2 2.5 0 .6-.3.1-.5-1.3-.5s-1.9.2-1.2.5m97.9 0c9.4.2 25.2.2 35 0 9.8-.1 2.1-.2-17.2-.2-19.2-.1-27.3.1-17.8.2m-46.4 55.8c0 2.2.2 3 .4 1.7.2-1.2.2-3 0-4-.3-.9-.5.1-.4 2.3m-115 11.5c0 4.7.2 6.6.4 4.2.2-2.3.2-6.1 0-8.5-.2-2.3-.4-.4-.4 4.3m197.5-7.3c.6.2 1.8.2 2.5 0 .6-.3.1-.5-1.3-.5s-1.9.2-1.2.5m-9.7 5.9c0 1.1.3 1.4.6.6.3-.7.2-1.6-.1-1.9-.3-.4-.6.2-.5 1.3M173.5 278c0 48.7.1 68.6.2 44.3.2-24.4.2-64.2 0-88.6-.1-24.3-.2-4.4-.2 44.3m28.6-82.4c0 1.1.3 1.4.6.6.3-.7.2-1.6-.1-1.9-.3-.4-.6.2-.5 1.3m499.9.9c1.3 1.4 2.6 2.5 2.8 2.5.3 0-.5-1.1-1.8-2.5s-2.6-2.5-2.8-2.5c-.3 0 .5 1.1 1.8 2.5M805.3 230c0 2.5.2 3.5.4 2.2.2-1.2.2-3.2 0-4.5-.2-1.2-.4-.2-.4 2.3m-345.9 41.5c0 6 .1 8.4.3 5.2s.2-8.1 0-11-.3-.3-.3 5.8m187.7 5.1c0 1.1.3 1.4.6.6.3-.7.2-1.6-.1-1.9-.3-.4-.6.2-.5 1.3m-179.8 9.1c3.1.2 8.3.2 11.5 0 3.1-.2.5-.3-5.8-.3s-8.9.1-5.7.3m24 0c2.6.2 6.7.2 9 0s.2-.3-4.8-.3c-4.9 0-6.8.1-4.2.3m247.6 27c-1.3 1.6-1.2 1.7.4.4s2.1-2.1 1.3-2.1c-.2 0-1 .8-1.7 1.7m26 15c-1.3 1.6-1.2 1.7.4.4s2.1-2.1 1.3-2.1c-.2 0-1 .8-1.7 1.7m-89.1 40c.6.2 1.8.2 2.5 0 .6-.3.1-.5-1.3-.5s-1.9.2-1.2.5m-307 45c.7.3 1.6.2 1.9-.1.4-.3-.2-.6-1.3-.5-1.1 0-1.4.3-.6.6m20.5.8c-.3.9-.3 1.9.1 2.2.3.4.6-.1.6-1 0-.8 1-1.8 2.3-2l2.2-.4-2.3-.2c-1.2 0-2.5.6-2.9 1.4m28.2-.4c-1.1 1.6-.1 1.9 1.3.3.7-.8.8-1.4.3-1.4s-1.3.5-1.6 1.1m75.3-.4c.7.3 1.6.2 1.9-.1.4-.3-.2-.6-1.3-.5-1.1 0-1.4.3-.6.6m15 0c.7.3 1.6.2 1.9-.1.4-.3-.2-.6-1.3-.5-1.1 0-1.4.3-.6.6m16.5 8.3c0 4.1.2 5.8.4 3.7.2-2 .2-5.4 0-7.5-.2-2-.4-.3-.4 3.8m-113.9 8c0 6.9.1 9.7.3 6.2.2-3.4.2-9 0-12.5-.2-3.4-.3-.6-.3 6.3m-78.3-9.4c0 1.1.3 1.4.6.6.3-.7.2-1.6-.1-1.9-.3-.4-.6.2-.5 1.3m10.7-.9c1.2.2 3 .2 4 0 .9-.3-.1-.5-2.3-.4-2.2 0-3 .2-1.7.4m116.5 6.3c0 4.1.2 5.8.4 3.7.2-2 .2-5.4 0-7.5-.2-2-.4-.3-.4 3.8m10.5-6.3c1.2.2 3.2.2 4.5 0 1.2-.2.2-.4-2.3-.4s-3.5.2-2.2.4m32 0c1.2.2 3 .2 4 0 .9-.3-.1-.5-2.3-.4-2.2 0-3 .2-1.7.4m87 0c1.7.2 4.7.2 6.5 0 1.7-.2.3-.4-3.3-.4s-5 .2-3.2.4m-171.5 10.8c0 3.3.2 4.5.4 2.7s.2-4.5 0-6-.4 0-.4 3.3m176.5-2.8c1.2.2 3.2.2 4.5 0 1.2-.2.2-.4-2.3-.4s-3.5.2-2.2.4m-197.5 5.8c0 3.3.2 4.5.4 2.7s.2-4.5 0-6-.4 0-.4 3.3m128 3.5c0 3.6.2 5 .4 3.2.2-1.7.2-4.7 0-6.5-.2-1.7-.4-.3-.4 3.3m72.5-3.3c.6.2 1.8.2 2.5 0 .6-.3.1-.5-1.3-.5s-1.9.2-1.2.5m-137.5 5.8c0 2.7.2 3.8.4 2.2.2-1.5.2-3.7 0-5-.2-1.2-.4 0-.4 2.8m16.5-3.8c.7.3 1.6.2 1.9-.1.4-.3-.2-.6-1.3-.5-1.1 0-1.4.3-.6.6m33 0c.7.3 1.6.2 1.9-.1.4-.3-.2-.6-1.3-.5-1.1 0-1.4.3-.6.6M332.2 443c0 1.4.2 1.9.5 1.2.2-.6.2-1.8 0-2.5-.3-.6-.5-.1-.5 1.3m287.6-1.3c.7.3 1.6.2 1.9-.1.4-.3-.2-.6-1.3-.5-1.1 0-1.4.3-.6.6m-251 5c.7.3 1.6.2 1.9-.1.4-.3-.2-.6-1.3-.5-1.1 0-1.4.3-.6.6"/><path fill="#BF4080" fill-opacity=".5" d="M258.8 93.7c.7.3 1.6.2 1.9-.1.4-.3-.2-.6-1.3-.5-1.1 0-1.4.3-.6.6m418 0c.7.3 1.6.2 1.9-.1.4-.3-.2-.6-1.3-.5-1.1 0-1.4.3-.6.6m-267 28c1.2.2 3 .2 4 0 .9-.3-.1-.5-2.3-.4-2.2 0-3 .2-1.7.4m177.5 0c2.6.2 6.8.2 9.5 0 2.6-.2.4-.3-4.8-.3s-7.4.1-4.7.3m86.5 0c.7.3 1.6.2 1.9-.1.4-.3-.2-.6-1.3-.5-1.1 0-1.4.3-.6.6M647.5 232c0 23.9.1 33.7.2 21.7.2-11.9.2-31.5 0-43.5-.1-11.9-.2-2.1-.2 21.8m68.8-1.5c0 2.2.2 3 .4 1.7.2-1.2.2-3 0-4-.3-.9-.5.1-.4 2.3M569.5 243c1 1.1 2 2 2.3 2s-.3-.9-1.3-2-2-2-2.3-2 .3.9 1.3 2m133.4 20.7c-1.3 1.6-1.2 1.7.4.4.9-.7 1.7-1.5 1.7-1.7 0-.8-.8-.3-2.1 1.3m-121.6 58.8c0 2.2.2 3 .4 1.7.2-1.2.2-3 0-4-.3-.9-.5.1-.4 2.3m-.1 8c0 1.6.2 2.2.5 1.2.2-.9.2-2.3 0-3-.3-.6-.5.1-.5 1.8m90.6 37.2c.7.3 1.6.2 1.9-.1.4-.3-.2-.6-1.3-.5-1.1 0-1.4.3-.6.6m-339.3 45.4c-1.1 1.6-.1 1.9 1.3.3.7-.8.8-1.4.3-1.4s-1.3.5-1.6 1.1m73.3-.4c.6.2 1.8.2 2.5 0 .6-.3.1-.5-1.3-.5s-1.9.2-1.2.5m58 0c.7.3 1.6.2 1.9-.1.4-.3-.2-.6-1.3-.5-1.1 0-1.4.3-.6.6m8.5 0c.9.2 2.5.2 3.5 0 .9-.3.1-.5-1.8-.5s-2.7.2-1.7.5m25.5 0c1.7.2 4.7.2 6.5 0 1.7-.2.3-.4-3.3-.4s-5 .2-3.2.4m33.3 2.9c0 1.1.3 1.4.6.6.3-.7.2-1.6-.1-1.9-.3-.4-.6.2-.5 1.3m-191.7 3.8c-.3.8-.4 2.9-.2 4.8.3 2.9.4 2.7.8-1.5.5-4.8.3-5.8-.6-3.3m127 0c-.3.8-.4 2.3-.2 3.3q.45 1.65.9-1.5c.6-3.4.2-4.2-.7-1.8m139.7 3.2c0 1.1.3 1.4.6.6.3-.7.2-1.6-.1-1.9-.3-.4-.6.2-.5 1.3m-273.8 6.9c0 3.3.2 4.5.4 2.7s.2-4.5 0-6-.4 0-.4 3.3m254-2.8c.9.2 2.5.2 3.5 0 .9-.3.1-.5-1.8-.5s-2.7.2-1.7.5m-243 2c.9.2 2.5.2 3.5 0 .9-.3.1-.5-1.8-.5s-2.7.2-1.7.5m125.5 0c.7.3 1.6.2 1.9-.1.4-.3-.2-.6-1.3-.5-1.1 0-1.4.3-.6.6m36 0c.7.3 1.6.2 1.9-.1.4-.3-.2-.6-1.3-.5-1.1 0-1.4.3-.6.6m84 4c1.2.2 3.2.2 4.5 0 1.2-.2.2-.4-2.3-.4s-3.5.2-2.2.4m-247.5 2c.9.2 2.5.2 3.5 0 .9-.3.1-.5-1.8-.5s-2.7.2-1.7.5m128.5 0c1.2.2 3 .2 4 0 .9-.3-.1-.5-2.3-.4-2.2 0-3 .2-1.7.4m32 0c1.2.2 3.2.2 4.5 0 1.2-.2.2-.4-2.3-.4s-3.5.2-2.2.4M339.2 440c0 1.4.2 1.9.5 1.2.2-.6.2-1.8 0-2.5-.3-.6-.5-.1-.5 1.3m127 1c0 1.4.2 1.9.5 1.2.2-.6.2-1.8 0-2.5-.3-.6-.5-.1-.5 1.3m153.6 6.7c.7.3 1.6.2 1.9-.1.4-.3-.2-.6-1.3-.5-1.1 0-1.4.3-.6.6"/><path fill="#BF4040" fill-opacity=".6" d="M672.8 93.7c.6.2 1.8.2 2.5 0 .6-.3.1-.5-1.3-.5s-1.9.2-1.2.5m95 3c.7.3 1.6.2 1.9-.1.4-.3-.2-.6-1.3-.5-1.1 0-1.4.3-.6.6m4 0c.7.3 1.6.2 1.9-.1.4-.3-.2-.6-1.3-.5-1.1 0-1.4.3-.6.6m14.4 9.3c0 1.4.2 1.9.5 1.2.2-.6.2-1.8 0-2.5-.3-.6-.5-.1-.5 1.3m12.6 7.7c.7.3 1.6.2 1.9-.1.4-.3-.2-.6-1.3-.5-1.1 0-1.4.3-.6.6m-121 8c.6.2 1.8.2 2.5 0 .6-.3.1-.5-1.3-.5s-1.9.2-1.2.5m-96.7 6.9c0 1.1.3 1.4.6.6.3-.7.2-1.6-.1-1.9-.3-.4-.6.2-.5 1.3m176.9-1.2c0 .2.8 1 1.8 1.7 1.5 1.3 1.6 1.2.3-.4s-2.1-2.1-2.1-1.3M581.4 166c0 16.8.2 23.6.3 15.2.2-8.3.2-22.1 0-30.5-.1-8.3-.3-1.5-.3 15.3m-188 5c0 11.3.2 15.9.3 10.2.2-5.6.2-14.8 0-20.5-.1-5.6-.3-1-.3 10.3m78.4 4.7c5.7.2 14.7.2 20 0 5.3-.1.7-.3-10.3-.3s-15.4.2-9.7.3m109.6 53.8c0 14.8.2 21.1.3 13.8.2-7.2.2-19.4 0-27-.1-7.6-.3-1.7-.3 13.2m-21.5-14.8c-1.3 1.6-1.2 1.7.4.4s2.1-2.1 1.3-2.1c-.2 0-1 .8-1.7 1.7m-166.8 12.9c0 1.1.3 1.4.6.6.3-.7.2-1.6-.1-1.9-.3-.4-.6.2-.5 1.3m.2 6.9c0 2.7.2 3.8.4 2.2.2-1.5.2-3.7 0-5-.2-1.2-.4 0-.4 2.8m188 80c0 2.2.2 3 .4 1.7.2-1.2.2-3 0-4-.3-.9-.5.1-.4 2.3m-188 8.5c0 4.7.2 6.6.4 4.2.2-2.3.2-6.1 0-8.5-.2-2.3-.4-.4-.4 4.3m-10.4-3.3-2.4 2.8 2.8-2.4c2.5-2.3 3.2-3.1 2.4-3.1-.2 0-1.4 1.2-2.8 2.7m198.3 15.8c0 1.6.2 2.2.5 1.2.2-.9.2-2.3 0-3-.3-.6-.5.1-.5 1.8m-377.4 4.2c.7.3 1.6.2 1.9-.1.4-.3-.2-.6-1.3-.5-1.1 0-1.4.3-.6.6m95 28c68.3.2 180.1.2 248.5 0 68.3-.1 12.4-.2-124.3-.2s-192.6.1-124.2.2m40 45c1.8.2 4.5.2 6 0s0-.4-3.3-.4-4.5.2-2.7.4m248.9 0c1.8.2 5 .2 7 0 2.1-.2.7-.4-3.2-.4-3.8 0-5.5.2-3.8.4m-18.6 1.9c0 1.1.3 1.4.6.6.3-.7.2-1.6-.1-1.9-.3-.4-.6.2-.5 1.3m-165.8 3.9c0 2.7.2 3.8.4 2.2.2-1.5.2-3.7 0-5-.2-1.2-.4 0-.4 2.8m-38 2c0 3.3.2 4.5.4 2.7s.2-4.5 0-6-.4 0-.4 3.3m24 0c0 2.2.2 3 .4 1.7.2-1.2.2-3 0-4-.3-.9-.5.1-.4 2.3m142.1 11c0 7.7.2 10.7.3 6.7.2-4 .2-10.3 0-14s-.3-.4-.3 7.3m-65.3-5.9c0 1.1.3 1.4.6.6.3-.7.2-1.6-.1-1.9-.3-.4-.6.2-.5 1.3M365.3 436c0 4.1.2 5.8.4 3.7.2-2 .2-5.4 0-7.5-.2-2-.4-.3-.4 3.8m59 .5c0 2.2.2 3 .4 1.7.2-1.2.2-3 0-4-.3-.9-.5.1-.4 2.3m-35 5c0 2.7.2 3.8.4 2.2.2-1.5.2-3.7 0-5-.2-1.2-.4 0-.4 2.8m227.5 6.2c.7.3 1.6.2 1.9-.1.4-.3-.2-.6-1.3-.5-1.1 0-1.4.3-.6.6"/><path fill="#BF4040" fill-opacity=".7" d="M286.8 93.7c13.4.2 35 .2 48 0 13-.1 2.1-.2-24.3-.2s-37.1.1-23.7.2m85.5 0c5.3.2 14.1.2 19.5 0 5.3-.1.9-.3-9.8-.3s-15.1.2-9.7.3m168.5 0c10 .2 26.4.2 36.5 0 10-.1 1.8-.2-18.3-.2s-28.3.1-18.2.2m122 0c1.7.2 4.7.2 6.5 0 1.7-.2.3-.4-3.3-.4s-5 .2-3.2.4m119.8 3.2c-.4.5.3.7 1.4.4 2.3-.6 2.6-1.3.6-1.3-.8 0-1.7.4-2 .9m1.2 16.8c.7.3 1.6.2 1.9-.1.4-.3-.2-.6-1.3-.5-1.1 0-1.4.3-.6.6m-581.9 6c-1.3 1.6-1.2 1.7.4.4.9-.7 1.7-1.5 1.7-1.7 0-.8-.8-.3-2.1 1.3M393.4 139c0 6.9.1 9.7.3 6.2.2-3.4.2-9 0-12.5-.2-3.4-.3-.6-.3 6.3m369.6-6.5c1.3 1.4 2.6 2.5 2.8 2.5.3 0-.5-1.1-1.8-2.5s-2.6-2.5-2.8-2.5c-.3 0 .5 1.1 1.8 2.5M559.5 137c1 1.1 2 2 2.3 2s-.3-.9-1.3-2-2-2-2.3-2 .3.9 1.3 2m-166.1 71.5c0 9.9.2 13.8.3 8.7.2-5.1.2-13.2 0-18-.1-4.8-.3-.6-.3 9.3m-6.4 23.9c0 .2.8 1 1.8 1.7 1.5 1.3 1.6 1.2.3-.4s-2.1-2.1-2.1-1.3m358.5 74.8-4 4.3 4.3-4c3.9-3.6 4.7-4.5 3.9-4.5-.2 0-2.1 1.9-4.2 4.2m-352.4 6.4c0 1.1.3 1.4.6.6.3-.7.2-1.6-.1-1.9-.3-.4-.6.2-.5 1.3m0 19c0 1.1.3 1.4.6.6.3-.7.2-1.6-.1-1.9-.3-.4-.6.2-.5 1.3m-156.8 7.1c17 .2 44.4.2 61 0 16.6-.1 2.8-.2-30.8-.2-33.5 0-47.1.1-30.2.2m195 0c18.5.2 48.9.2 67.5 0 18.5-.1 3.3-.2-33.8-.2s-52.3.1-33.7.2m176 0c12.6.2 32.8.2 45 0 12.2-.1 2-.2-22.8-.2-24.7 0-34.7.1-22.2.2m-162.1 77.8c0 1.6.2 2.2.5 1.2.2-.9.2-2.3 0-3-.3-.6-.5.1-.5 1.8M569.4 431c0 8.5.2 12 .3 7.7.2-4.2.2-11.2 0-15.5-.1-4.2-.3-.7-.3 7.8m-30.2-11c0 1.9.2 2.7.5 1.7.2-.9.2-2.5 0-3.5-.3-.9-.5-.1-.5 1.8m-114.9 5.5c0 4.4.2 6.1.4 3.7.2-2.3.2-5.9 0-8-.2-2-.4-.1-.4 4.3m204.6-5.8c-1.3 1.6-1.2 1.7.4.4.9-.7 1.7-1.5 1.7-1.7 0-.8-.8-.3-2.1 1.3m-225.5 12.8c0 5.5.1 7.6.3 4.7s.2-7.4 0-10-.3-.2-.3 5.3m-38.3-4.9c0 1.1.3 1.4.6.6.3-.7.2-1.6-.1-1.9-.3-.4-.6.2-.5 1.3m24.1 7.4c0 1.4.2 1.9.5 1.2.2-.6.2-1.8 0-2.5-.3-.6-.5-.1-.5 1.3m56 6.5c0 1.6.2 2.2.5 1.2.2-.9.2-2.3 0-3-.3-.6-.5.1-.5 1.8m94 2.5c0 1.4.2 1.9.5 1.2.2-.6.2-1.8 0-2.5-.3-.6-.5-.1-.5 1.3"/><path fill="#BF0040" fill-opacity=".7" d="M359.3 93.7c.9.2 2.3.2 3 0 .6-.3-.1-.5-1.8-.5-1.6 0-2.2.2-1.2.5m71.9 0c17 .2 44.6.2 61.5 0 17-.1 3.1-.2-30.7-.2s-47.7.1-30.8.2m173.1 0c5.4.2 13.9.2 19 0 5.1-.1.7-.3-9.8-.3-10.4 0-14.6.2-9.2.3m34.9 0c3.7.2 10 .2 14 0 4-.1 1-.3-6.7-.3s-11 .1-7.3.3m135 11.3c0 1.4.2 1.9.5 1.2.2-.6.2-1.8 0-2.5-.3-.6-.5-.1-.5 1.3m-573 187c0 1.4.2 1.9.5 1.2.2-.6.2-1.8 0-2.5-.3-.6-.5-.1-.5 1.3m0 38.5c0 1.6.2 2.2.5 1.2.2-.9.2-2.3 0-3-.3-.6-.5.1-.5 1.8m376 86c0 1.6.2 2.2.5 1.2.2-.9.2-2.3 0-3-.3-.6-.5.1-.5 1.8m-132 6.5c0 1.9.2 2.7.5 1.7.2-.9.2-2.5 0-3.5-.3-.9-.5-.1-.5 1.8m0 13c0 1.9.2 2.7.5 1.7.2-.9.2-2.5 0-3.5-.3-.9-.5-.1-.5 1.8"/><path fill="#BF0040" fill-opacity=".8" d="M782.3 103c0 3 .2 4.3.4 2.7.2-1.5.2-3.9 0-5.5-.2-1.5-.4-.2-.4 2.8m-.1 8c0 1.4.2 1.9.5 1.2.2-.6.2-1.8 0-2.5-.3-.6-.5-.1-.5 1.3m-558.3 25.7c-1.3 1.6-1.2 1.7.4.4.9-.7 1.7-1.5 1.7-1.7 0-.8-.8-.3-2.1 1.3m-6 6c-1.3 1.6-1.2 1.7.4.4s2.1-2.1 1.3-2.1c-.2 0-1 .8-1.7 1.7m521.1 4.7c0 .2.8 1 1.8 1.7 1.5 1.3 1.6 1.2.3-.4s-2.1-2.1-2.1-1.3M174.2 183c0 1.9.2 2.7.5 1.7.2-.9.2-2.5 0-3.5-.3-.9-.5-.1-.5 1.8m27.1 4c0 3.6.2 5 .4 3.2.2-1.7.2-4.7 0-6.5-.2-1.7-.4-.3-.4 3.3m95.4-4.3c9.4.2 25.2.2 35 0 9.8-.1 2.1-.2-17.2-.2-19.2-.1-27.3.1-17.8.2M701.5 197c1 1.1 2 2 2.3 2s-.3-.9-1.3-2-2-2-2.3-2 .3.9 1.3 2m-241.1 2.5c.1 1.2.9 2.1 2.1 2.2q2.1.15.3-.3c-.9-.3-1.9-1.3-2.1-2.2q-.45-1.8-.3.3m316.9 33c0 2.7.2 3.8.4 2.2.2-1.5.2-3.7 0-5-.2-1.2-.4 0-.4 2.8m26.9 6.5c0 1.4.2 1.9.5 1.2.2-.6.2-1.8 0-2.5-.3-.6-.5-.1-.5 1.3m-343.9 18.5c-.3.9-.3 1.9.1 2.2.3.4.6-.1.6-1s1.1-1.7 2.8-2l2.7-.4-2.8-.2c-1.7 0-3 .5-3.4 1.4m39.5-.8c.6.2 1.8.2 2.5 0 .6-.3.1-.5-1.3-.5s-1.9.2-1.2.5m-266.6 22c17 .2 44.6.2 61.5 0 17-.1 3.1-.2-30.7-.2s-47.7.1-30.8.2m421.6 0c2.9.2 7.4.2 10 0s.2-.3-5.3-.3-7.6.1-4.7.3M201.3 285c0 3 .2 4.3.4 2.7.2-1.5.2-3.9 0-5.5-.2-1.5-.4-.2-.4 2.8m258.7-2.1c0 .6.4 1.3 1 1.6s.7-.1.4-.9c-.7-1.8-1.4-2.1-1.4-.7M201.4 311c0 9.6.2 13.6.3 8.7.2-4.8.2-12.6 0-17.5-.1-4.8-.3-.8-.3 8.8m538.5 1.7c-1.3 1.6-1.2 1.7.4.4s2.1-2.1 1.3-2.1c-.2 0-1 .8-1.7 1.7m-169 9c-1.3 1.6-1.2 1.7.4.4s2.1-2.1 1.3-2.1c-.2 0-1 .8-1.7 1.7m191 8c-1.3 1.6-1.2 1.7.4.4s2.1-2.1 1.3-2.1c-.2 0-1 .8-1.7 1.7m-560.8 6.9c0 1.1.3 1.4.6.6.3-.7.2-1.6-.1-1.9-.3-.4-.6.2-.5 1.3m128.7 3.1c.7.3 1.6.2 1.9-.1.4-.3-.2-.6-1.3-.5-1.1 0-1.4.3-.6.6m41.5 77.8c0 2.2.2 3 .4 1.7.2-1.2.2-3 0-4-.3-.9-.5.1-.4 2.3m80 3c0 3.8.2 5.3.4 3.2.2-2 .2-5.2 0-7-.2-1.7-.4-.1-.4 3.8m111.9-4.5c0 1.4.2 1.9.5 1.2.2-.6.2-1.8 0-2.5-.3-.6-.5-.1-.5 1.3m-48.2-.6c0 .2.8 1 1.8 1.7 1.5 1.3 1.6 1.2.3-.4s-2.1-2.1-2.1-1.3m-22.8 4.6c0 1.9.2 2.7.5 1.7.2-.9.2-2.5 0-3.5-.3-.9-.5-.1-.5 1.8m85.1 3c0 2.5.2 3.5.4 2.2.2-1.2.2-3.2 0-4.5-.2-1.2-.4-.2-.4 2.3m-97.2.6c0 1.1.3 1.4.6.6.3-.7.2-1.6-.1-1.9-.3-.4-.6.2-.5 1.3m18.1.4c0 1.4.2 1.9.5 1.2.2-.6.2-1.8 0-2.5-.3-.6-.5-.1-.5 1.3M381 426l-8.5.6 8.2.2c4.6.1 8.5-.2 8.8-.8s.5-.9.3-.8-4.1.5-8.8.8m158.4 7.5c0 4.9.1 7.1.3 4.8s.2-6.4 0-9-.3-.8-.3 4.2m-94.1-4c0 2.2.2 3 .4 1.7.2-1.2.2-3 0-4-.3-.9-.5.1-.4 2.3m115.4 4.6c.7.7 1.5 1 1.8.7s-.2-.9-1.2-1.2c-1.4-.6-1.5-.5-.6.5m22.6 2.4c0 2.2.2 3 .4 1.7.2-1.2.2-3 0-4-.3-.9-.5.1-.4 2.3m-85 2c0 2.2.2 3 .4 1.7.2-1.2.2-3 0-4-.3-.9-.5.1-.4 2.3m79 0c0 2.2.2 3 .4 1.7.2-1.2.2-3 0-4-.3-.9-.5.1-.4 2.3m-85.2 1.1c0 1.1.3 1.4.6.6.3-.7.2-1.6-.1-1.9-.3-.4-.6.2-.5 1.3m96.2 2.1c2 .2 5.4.2 7.5 0 2-.2.3-.4-3.8-.4s-5.8.2-3.7.4m-43.3 2.6c0 .9-1.1 1.7-2.7 2l-2.8.4 2.8.2c2.6.1 4.8-2.2 3.3-3.6-.3-.4-.6.1-.6 1m32.3.7c.2 1 1.8 1.5 4.8 1.6 4.4.1 4.4.1.4-.3-2.2-.3-4.4-1-4.8-1.6-.6-.8-.7-.7-.4.3m-171.5 1.7c.6.2 1.8.2 2.5 0 .6-.3.1-.5-1.3-.5s-1.9.2-1.2.5m15 0c.6.2 1.8.2 2.5 0 .6-.3.1-.5-1.3-.5s-1.9.2-1.2.5m8.5 0c1.5.2 3.7.2 5 0 1.2-.2 0-.4-2.8-.4-2.7 0-3.8.2-2.2.4m136.5 0c.6.2 1.8.2 2.5 0 .6-.3.1-.5-1.3-.5s-1.9.2-1.2.5m28 0c1.2.2 3.2.2 4.5 0 1.2-.2.2-.4-2.3-.4s-3.5.2-2.2.4"/><g fill="#BF0000" fill-opacity=".9" stroke-opacity=".9" stroke-width="0"><path d="M255.6 95.1c.5.9-.4 1-3.2.5-3-.5-3.6-.4-2.4.4 1.2 1 1 1.1-.9.6-2.8-.6-11.1 1.4-11.1 2.7 0 .5-.7.7-1.5.3-.8-.3-1.5-.1-1.5.5s-.4.7-1 .4c-.5-.3-1-.1-1 .5s-.4.9-1 .5c-2.6-1.6-24.2 12.7-32.6 21.6-8.9 9.4-17.8 25.2-21.4 38.1-3.5 12.2-4.1 32.1-3.8 121.3l.3 84 253 .1c139.2.1 251-.2 248.5-.6-3.6-.6-3-.7 2.5-.4 7.3.4 25.8-2.3 25-3.7-.3-.4.5-.5 1.7-.1 1.6.4 1.9.2 1.3-.8q-.75-1.35.3-.6c1.4.8 9.2-1.3 9.2-2.5 0-.5.7-.6 1.5-.3 1.4.6 2-.6 1.6-2.9-.1-.5.3-.6.9-.2.6.3.8 1.1.4 1.6-.3.6 1.1.3 3.3-.6 2.1-.9 4.4-1.9 5-2.2.7-.3 1-1 .6-1.6-.3-.6-.1-.7.5-.3 1.3.8 12.3-5.6 21.5-12.5 8.4-6.3 21.8-20.5 28.3-30 6.5-9.3 13.7-23.6 12.8-25.1-.4-.6-.3-.8.3-.5 1.3.8 5.4-10 4.6-12.1-.4-1-.2-1.3.5-.8.8.5 1 .2.6-.8-.3-.9-.1-1.6.4-1.6 1.2 0 2.8-8.2 2.4-11.8-.2-1.7.1-2.2.9-1.6.9.5 1-.4.5-3.7-.4-2.6-.3-3.9.3-3.1 1 1.7 2.6-22.2 1.5-23.9-.4-.7-.6-3.7-.5-6.7.1-3.5-.1-5.2-.8-4.7-.7.4-.9-.5-.5-2.7.5-2.6.3-3-.6-1.8s-1.1.9-.7-1.5c.6-3.5-1.2-12.5-2.5-12.5-.5 0-.6-1-.3-2.1.5-1.6.4-1.9-.6-1.4q-1.35.9-.6-.9c.6-1.6-1.9-8.5-3.6-9.7-.4-.3-.7-1-.5-1.5.4-1.4-2.3-7.4-3.4-7.4-.5 0-.7-.4-.3-.9.7-1.3-3.2-7.8-5.1-8.5-.9-.3-1.4-1.2-1.1-1.9.5-1.6-7-12.6-14.5-21.1-7.3-8.1-20.7-19.8-21.9-19-.5.3-.9.1-.9-.4 0-1.5-8-6.3-9.2-5.6-.6.4-.8.3-.5-.3.3-.5-3.3-2.9-8.1-5.3-11-5.4-15.8-7.1-17.9-6.3-1.1.4-1.4.3-.9-.5.7-1.1-1.3-1.7-3.8-1.3-.4.1-1.3-.2-2-.7-2.2-1.8-11.1-3.3-13.6-2.4-2.3.9-2.3 1-.5 1.5 1.1.3 3.8.8 6 1.2s4.6 1.1 5.3 1.7c.6.6 1.2.8 1.2.5 0-.4 1.8 0 3.9.8 2.2.7 4.2 1.1 4.5.8.3-.4.6-.1.6.5 0 .7.7 1.2 1.5 1.2.9 0 4.2 1.3 7.4 3 3.2 1.6 6.1 2.6 6.5 2.3.3-.4.6-.1.6.6s.5.9 1 .6c.6-.3 1-.1 1 .6s.3.9.6.6c.4-.4 2 .5 3.6 1.8 1.6 1.4 3.4 2.5 4 2.5s2.1.8 3.2 1.7c1.6 1.4 1.8 1.4 1.1.3-.6-.9-.3-.8.7.2.9 1 2.3 1.8 3.1 1.8s2.1.8 2.8 1.7c1.3 1.7 1.2 1.7-.6.4-1.1-.8-.7-.1 1 1.5 1.6 1.6 3.1 2.7 3.4 2.6.2-.2.8.3 1.3 1.2s1.4 1.4 1.9 1c.5-.3.8 0 .7.7-.2.6.3 1.4 1.1 1.7.9.3 1.1 0 .6-.8-.5-.9-.4-1.1.4-.6.6.4.9 1.1.6 1.6-.2.4 2.8 4 6.8 8.1 3.9 4 6.5 6.9 5.7 6.5s-.6 0 .5.9 1.9 2 1.8 2.5c-.2.5 1.1 2 2.8 3.4 1.6 1.4 3.1 2.9 3.2 3.3s.6.7 1 .5c.5-.1.6.2.2.8-.7 1.1 2.4 7 3.7 7 .4 0 .8.7.8 1.5s.4 1.5.8 1.5c.5 0 .9.6 1 1.2.2 2.9.9 5 1.8 5.6 1 .7 3.3 6.3 4.1 9.9.3 1.3.9 2.3 1.4 2.3s.8.3.7.7c-.2 1 1.3 6.4 2.1 7.8.3.5.6 1.4.7 2 .4 2 1.4 6.1 2.4 10 .6 2.2 1.1 12.1 1.1 22 0 18.1-1.1 27.5-4.7 36.7-.7 2.1-1.1 3.8-.8 3.8.4 0 .2.6-.3 1.2-1.3 1.7-4.8 11.1-4.5 12 .1.5-.3.8-.9.8-.5 0-.8.4-.5.9.4.5.2 1.1-.3 1.3-.5.1-1.1 1-1.3 1.8s-.7 1.8-1.1 2.1-.9 1.6-1 2.7c-.1 1.2-.4 2.2-.8 2.2-1.2 0-5.1 6.9-4.4 7.9.3.6-.6 1.8-2 2.7s-2.5 2.1-2.5 2.6c0 1-1.9 3.1-12.7 14.8-2.9 3.1-5 6-4.5 6.5.4.5.2.5-.5.2-.6-.4-3.1 1.1-5.6 3.5-2.4 2.4-4.6 4.3-4.8 4.3-1.4.1-4.8 3.3-4.1 4 .4.5.1.5-.5.1-1.6-.9-5.6 1.2-4.8 2.4.3.6-.1.7-.9.4-.9-.4-1.8.1-2.2 1-.3.9-1 1.3-1.5 1s-.9 0-.9.5c0 .6-.7 1.1-1.5 1.1-.9 0-3.3 1.2-5.4 2.6-2.2 1.4-4.5 2.7-5.3 2.8-.7.1-2.3.8-3.5 1.4-1.3.7-2.3 1-2.3.6 0-.3-1.1.1-2.5 1s-2.5 1.4-2.5 1.2c0-.3-1.9.2-4.2 1-2.4.8-5.6 1.7-7.3 1.9-1.6.3-4.1.7-5.5 1s-4.5 1-7 1.5c-2.7.5-105.6.8-256.5.7l-252-.2V271c0-69.7.3-93.6 1.2-97 .7-2.5 1.4-6.1 1.6-8.1.6-5 3.7-13.9 4.8-13.9.6 0 .8-.3.6-.8-.3-.4.6-2.5 1.9-4.7s3-5.4 3.8-7.1 1.9-3.5 2.5-3.8c.6-.4.9-1.1.6-1.5-.2-.5 1.3-2.2 3.5-4s4-4 4-5.1c0-1 .4-2.2 1-2.5.6-.4.7.1.3 1.2-.6 1.6-.4 1.6 1.6-.2 2.1-1.8 2.1-2 .4-2.6-1.5-.6-1.4-.8.7-.8 1.5-.1 3.7-1.6 5.8-3.9 1.9-2 2.9-2.8 2.1-1.7-1.1 1.7-1 1.7 1.2-.3 1.4-1.2 3.1-2.2 3.7-2.2.7 0 1.2-.5 1.2-1 0-.6.7-1 1.5-1s1.5-.4 1.5-.8c0-.7 6.4-4 9-4.6.3-.1 1.2-.6 2-1.1 1.5-.9 3.4-1.5 5.8-1.7.6-.1 1.2-.5 1.2-1 0-.4 1.3-.8 2.8-.8 1.6 0 3.2-.3 3.6-.7.3-.4 1.7-.9 2.9-1.2s99.9-.6 219.3-.6c171 0 217.4-.3 218.3-1.2.9-1 .1-1.1-3.6-.7-3.6.4-4.4.3-3.3-.5S620.5 94 468.7 94c-159.6 0-213.6.3-213.1 1.1M765 137.5c1.9 1.9 3.2 3.5 2.9 3.5s-2-1.6-3.9-3.5-3.2-3.5-2.9-3.5 2 1.6 3.9 3.5m11.1 14.2c1.3 1.6 1.2 1.7-.3.4-1-.7-1.8-1.5-1.8-1.7 0-.8.8-.3 2.1 1.3m-6.5 168.5c.4.7.3 1-.1.5-.5-.4-1.8.1-2.9 1-2.1 1.8-2.1 1.8-.2-.5 2.2-2.6 2.3-2.6 3.2-1m-5.6 4.1c0 .2-1 1.2-2.2 2.3l-2.3 1.9 1.9-2.3c1.8-2.1 2.6-2.7 2.6-1.9m2-226.2c0 .6.9.8 2.1.4 1.6-.5 1.9-.4 1.4.6-.6.8-.4 1.1.6.7 1.2-.5 1.4.6 1.1 6.3-.4 6.1-.2 6.8 1.2 6.3 1.2-.5 1.6-2 1.6-6.3 0-6.6.8-8.2 3.8-7.6 1.3.2 2 0 1.7-.6-.9-1.3-13.5-1.2-13.5.2m17 6.3c0 5.6.4 7.5 1.5 8 1.2.4 1.5-.4 1.5-4.4 0-2.8.5-5 1-5 .6 0 1 .6 1 1.2 0 .7.5.5 1.1-.6 1.4-2.3-.8-4.1-2.8-2.4-.9.7-1.3.7-1.3-.1 0-1 1.3-1.5 3.2-1.2.4 0 .5-.6.2-1.4-.4-.8-1.7-1.5-3-1.5-2.3 0-2.4.3-2.4 7.4m12.3-4.4c-.7 1.7-1 3.7-.7 4.4.2.6-.4 1.2-1.6 1.3-1.1.1-2-.4-2-1 0-.7-.5-.4-1.1.7-.8 1.3-.8 2 .1 2.6.6.4 1.1 1 1.1 1.4-.4 3.1 0 3.8 1.4 2.6.8-.7 1.2-1.6.9-2.1s.2-1.7 1.1-2.6 1.4-2.4 1.2-3.4q-.45-1.8.9-1.2c.9.3 1.4 2.2 1.4 5.4 0 4.7.1 4.9 2.1 3.9 1.8-1 2-1.9 1.7-7.8-.3-6.3-.4-6.7-2.8-7-2-.2-2.8.3-3.7 2.8m4.4 7.2c-.2 1.3-.4.3-.4-2.2s.2-3.5.4-2.3c.2 1.3.2 3.3 0 4.5"/><path d="M270.9 117.4c-.2.2-3.5.6-7.4.9-3.8.4-8.3.9-10 1.2-1.6.3-4.6.8-6.5 1.1s-4.6 1.2-5.9 2.1c-1.6 1-2.1 1.1-1.5.2.4-.7-.6-.3-2.3.9s-3.5 2.2-4 2.2c-1.7 0-8.3 5.1-7.8 6.1.4.5.3.8-.2.7-.4-.1-2.1.5-3.8 1.5-1.7.9-2.3 1.7-1.5 1.7.9.1.5.5-.9 1.1s-2.1 1.5-1.7 2.4c.3.8 0 1.7-.6 2.1-.7.5-.8.2-.4-.7.4-.8-.5-.1-1.9 1.6-1.5 1.6-2.4 2.4-2 1.6.6-1 .4-1.2-.4-.7-.7.5-1 1.5-.7 2.3s.1 1.1-.4.8c-1.1-.7-3.1 3.5-2.3 4.8.2.4-.1.6-.8.5-.7-.2-1.3.1-1.4.7 0 .5-.9 2.5-1.8 4.3-1 1.8-1.5 3.8-1.1 4.4s.3.8-.3.5c-.7-.4-1.4.8-1.9 3.1-.4 2-.9 4.1-1.1 4.7-1.1 3.3-2.1 12.1-2.2 20.3-.2 7.5 0 9.2 1.1 8.6 1-.5 1-.4.2.5-1.2 1.3-.7 6.1.7 6.1.5 0 .8.3.7.7-.5 2 1.6 9.8 3.6 13.6 1.3 2.3 2.3 4.6 2.4 5 0 .5.4 1.2.8 1.5.4.4.4.1 0-.6-.4-.6-.5-1.2-.2-1.2.2 0 1.4 2 2.6 4.5s2.6 4.5 3.1 4.5c.6 0 .7-.5.3-1.2-.5-.7-.3-.8.5-.4.7.5 1 1 .7 1.3-1.3 1.3 7.6 9.3 10.4 9.3.5 0 1.2.5 1.6 1.2.5.7.2.8-.7.3s-1-.5-.4.2c.6.5 2.3 1.5 3.8 2.1 2.3 1 2.7 1 2.2 0-.4-.7 0-.5.8.5.9 1 2.1 1.9 2.9 2.1.7.1 2.9 1 4.8 2s4.2 1.9 5 2.1 4 1.1 7 2 6.4 1.8 7.5 2 2.1.4 2.3.5c.4.4 4 1.1 18.2 3.4 1.4.3 2.5.5 2.5.6s1.2.4 2.7.6c4.3.7 22.1 4.2 24.8 4.8 1.4.4 4.2.9 6.3 1.1 4.9.7 10.7 3.1 10.7 4.4 0 .6-1.1 1.8-2.4 2.6-2.1 1.4-9.5 1.6-62.6 1.5-49.5-.2-60.4.1-61.1 1.2-.7 1-.9 1-.9 0 0-.7-.4-1.1-.8-.8-.6.3-.8 47.9-.3 62.9.1 1.2.5 1.6 1.4 1.1.8-.6.8-.3-.1.9-1.3 1.5 3.1 1.6 63 1.7 65.2 0 84.9-.8 91.5-3.5 2-.8 5-1.8 6.6-2.1 1.7-.2 4.3-1.4 5.9-2.5 1.5-1.1 2.8-1.7 2.8-1.3 0 .5.5.3 1.2-.4s1.8-1.2 2.6-1.2c2.9 0 14.7-10.3 13.7-12-.3-.5 0-1.2.6-1.6.8-.4.9-.3.5.4s-.4 1.2.1 1.2c.4 0 .8 4.1.8 9.1 0 7.6.3 9.3 1.8 10.4 1.3 1 1.5 1.4.5 1.8-3.9 1.3 20.8 1.8 82.2 1.5s68.9-.5 72.8-2c2.3-1 4.2-1.4 4.2-1.1 0 .4.7-.2 1.6-1.3.8-1 1.2-1.3.9-.5-.5.8.3.6 2.1-.5 1.5-1.1 2.9-1.8 3.1-1.7.9.8 2.3.2 1.8-.7-.3-.6.1-1 .9-1s3.1-1 5.1-2.1c2.8-1.7 3.3-2.4 2.4-3.5s-.8-1.4.7-1.5c1.1-.1 2.3-.1 2.7 0 .5.1.6-.3.2-.9-.3-.6-1.1-.7-1.7-.4-.6.4-.8.2-.4-.4.3-.6 1.5-.9 2.6-.7 1.7.3 2.4-.5 2.2-2.6-.1-.3.6-.6 1.4-.6 1.1 0 1.4 1.9 1.5 8.6.1 4.7.1 9.1 0 9.7-.3 2.9 8.8 3.4 58.4 3 32-.2 51.6-.7 54.5-1.4 4.2-1.1 6.6-1.6 10.8-2.6 11.5-2.7 37.8-17.3 36.7-20.4-.3-.7 0-1 .5-.7 1.2.7 7.6-5.4 7.2-6.9-.2-.6 0-.8.4-.3.9.8 5.4-3.1 5.4-4.7 0-.6 1.7-2.6 3.7-4.5 2.1-1.8 2.9-2.7 1.8-2s-.4-.3 1.6-2.2c2-1.8 4.4-5 5.4-6.9.9-1.9 2.3-4.2 3-5s1.5-2.6 1.7-4c.1-1.4.9-3.1 1.6-3.8.7-.8 1-1.7.7-2.2s-.2-1 .2-1.2c.5-.1 1.5-2.4 2.4-5 1-3 1.2-4.5.5-4.2-.6.3-.4 0 .5-.8.9-.7 1.6-2 1.6-2.8s.9-5.1 1.9-9.5c1.8-7.6 2.6-31.3 1.2-35.5-.2-.8-1-4.9-1.7-9s-1.4-8-1.6-8.5c-.1-.6-.2-1.2-.2-1.5s-1-2.4-2.2-4.8c-1.2-2.3-1.9-4.2-1.5-4.2s.2-.6-.3-1.3c-.6-.6-1.3-2.4-1.7-4-.3-1.5-1.1-2.7-1.7-2.7s-.7-.5-.4-1c.3-.6.1-1-.6-1s-.9-.3-.6-.6c.4-.4-.2-1.9-1.3-3.4-1.1-1.6-2-3.3-2-3.9 0-.7-.7-1.4-1.5-1.7-.8-.4-1.3-1-1-1.4.3-.5-.6-1.7-2-2.8-1.3-1.1-2.2-2.1-2-2.4.9-.9-7.7-9.8-8.7-9.1-.6.3-.8.2-.5-.4.9-1.4-6.8-9.1-8.6-8.5-.5.1-.6-.2-.3-.7s-1.4-2.2-3.9-3.8c-2.5-1.5-4.5-3.2-4.5-3.6 0-.5-.4-.5-1-.2-.5.3-1 .2-1-.2 0-1.2-5.6-4.4-6.4-3.6-.3.3-.6 0-.6-.7s-.3-1-.7-.7c-.3.4-1.5 0-2.5-1-1-.9-1.8-1.2-1.8-.7s-.4.3-.8-.3c-.4-.7-1.7-1.4-2.7-1.6-1.1-.2-3.6-1.1-5.5-2-1.9-.8-3.8-1.3-4.2-1.1-.5.3-.8 0-.8-.5 0-.6-.3-1-.7-.9-.5.1-1.7-.1-2.8-.5-3.8-1.3-17.9-3.4-25.5-3.8-12.9-.7-89.3-.4-92.4.3-3.3.8-4.8 2.6-4.1 4.8.6 1.8 1.7 60.5 1.1 59.9-.2-.2-.6-4.2-.9-8.9-.4-4.7-.8-9.5-1.1-10.7-.2-1.1-.8-4.2-1.1-6.7-.4-2.5-1-4.6-1.4-4.6s-.7-.9-.8-1.9c-.2-2.6-6.3-12-9.4-14.6l-2.4-2 2 2.5 2 2.5-2.2-1.8c-1.2-1.1-1.9-2.4-1.7-3.1.6-1.6-2.1-4-3.5-3.2-.5.4-1.2-.2-1.6-1.3-.3-1.1-1.3-2.2-2.2-2.5-1.2-.5-1.3-.3-.7.7.5.7.1.4-.8-.6-1-1.1-1.8-1.6-1.8-1.3 0 .4-.9-.2-2.1-1.3-2.4-2.2-6.3-3.5-5.2-1.8.3.7-.4.3-1.6-.8-1.3-1.1-2.6-1.9-3-1.7-.6.3-4.6-.3-9.1-1.4-3.1-.8-133.6-1.6-136.7-.9-1.3.3-2.3 1.3-2.3 2.3-.1 1.3-.4 1.1-1.5-.8-1.4-2.4-1.4-2.4-.8 1.4.3 2.1.2 4.1-.4 4.5-1.3.8-3.4 14-2.7 17.1.5 2 .4 2.2-.6 1-.9-1.2-1-.5-.5 3s.4 4.2-.5 3-1-.6-.5 2.3c.4 2.3.2 3.7-.3 3.3-1.1-.6-3.6 13.9-2.7 15.4.3.5.1 1-.5 1s-.8 1-.4 2.5c.4 1.6.2 2.5-.6 2.5s-1.1 1.2-.8 3.4l.4 3.4-11.1-.2c-6.4-.2-8.7 0-5.5.3 3 .3-15.3.4-40.8.2-41.9-.3-46.5-.2-48.8 1.4-2 1.3-2.5 2.3-2.2 4.8.4 3.8 4.2 6.1 10 6.1 2 0 3.4.4 3.1.9s.5.8 1.8.6c1.3-.1 3.1.1 3.9.4 3.4 1.3 13.1 2.8 14.1 2.1.8-.5.9-.3.4.5-.5.9-.1 1.2 1.1 1 1.1-.1 2.6.1 3.4.4 3.1 1.2 15.1 2.7 16.2 2.1q1.05-.75.3.6c-.6.9 0 1.1 2.6.5 2.7-.5 3.1-.4 1.9.5s-.9 1 1.3.6c1.5-.4 2.7-.3 2.7.2 0 .4 2.6 1.2 5.8 1.9 3.1.6 6.6 1.4 7.6 1.9 1.3.5 1.7.4 1.3-.3-.5-.7 0-.9 1.3-.6 1.1.3 1.8.8 1.5 1.2-.4.7 9.3 3.7 10.8 3.3.4-.1.7.2.7.7s1.4 1.4 3.1 2c5.3 1.8 16.5 9.9 22.1 15.9l5.3 5.8-.3-58.3-.2-58.3 71.7.4c71 .4 75.3.4 76.3 1.5.3.3 3.2 1.9 6.5 3.6 7.8 4 18.5 14.6 22.4 22.4 1.7 3.3 3.1 6.8 3.1 7.6 0 .9.5 1.3 1.1.9.8-.4.9.1.4 1.6-.4 1.3-.3 2 .2 1.7.6-.4 1 6 1 16.3 0 11.3-.3 16.7-1 16.3-.6-.4-.8 0-.4 1 .3.9.3 1.7-.1 1.9s-2.2 3.2-4.1 6.8c-4 7.6-9.7 14-16.3 18.3-2.7 1.6-4.8 3.4-4.8 3.9 0 .4-.3.7-.7.7-1.9-.3-3.3.2-3.3 1.2 0 .6.9.9 2 .6 1.3-.3 1.8-.1 1.3.6-.4.6 0 .8 1 .4 1-.3 1.7-.3 1.7.1 0 .8 7.1 3.7 7.9 3.3.2-.2.7.1 1 .6.3.4 2.9 2.6 5.6 4.7 5.9 4.5 8.4 7.3 13.1 14.1l3.4 5v-136h52.4c28.8 0 51.9.4 51.3.8-.7.5.3.5 2.2.2 2.4-.5 3.1-.4 2.6.4s.1 1 1.9.5c1.4-.3 2.6-.2 2.6.3 0 .9 9.5 3.9 11.8 3.7.6-.1 1.2.2 1.2.6 0 1.1 7.1 3.5 9 3.1.8-.2 1.2 0 .8.5-.4.4 2.3 2.5 6 4.6 3.7 2.2 8.7 5.6 11.2 7.6 5.8 4.7 19.1 17.2 18.3 17.2-.4 0 .2 1 1.3 2.2 5.9 6.8 12.4 18.2 16.6 28.8 7.5 19.4 9.4 43.6 4.8 62.5-1.4 5.5-2.4 10.8-2.2 11.8.1 1-.2 1.6-.7 1.3-.4-.3-1.3 1.2-2 3.3-2.5 8.4-16.9 32-21.2 34.7-.5.3-.6 1.1-.3 1.7.4.7.4.9-.1.5-.4-.4-3.7 2-7.3 5.4-6.9 6.3-15.2 12.2-22.8 15.8-2.4 1.2-4.4 2.6-4.4 3.1 0 .6-.4.8-.9.4-1.1-.6-6.1 1.5-6.1 2.6 0 .4-1 .5-2.2.1-1.6-.4-1.9-.2-1.3.8.5.8.4 1.1-.2.7-1.3-.8-14.5 2.4-15.4 3.6-.3.5-2.8.6-5.5.3-2.7-.4-4.1-.3-3.2.1 1 .5-20.8.9-48.2 1-27.5.1-49.9-.1-49.9-.5.1-.4.1-7.9 0-16.7l-.1-16-1.9 3.5c-1 1.9-1.6 3.9-1.3 4.5.3.5.2.7-.3.3-.4-.4-2.4 1.4-4.5 4-4.4 5.7-9.2 9.9-13.7 12-1.8.8-3 1.9-2.7 2.4.3.4-.2.5-1 .2-.9-.3-1.6-.1-1.6.5s-.3 1-.7.9c-1.5-.5-10.3 2.5-10.3 3.4 0 .6-1.8.7-4.2.4s-3.5-.3-2.6.2c1 .4-30.7.8-70.2.9-61.7.1-72-.1-72-1.3 0-.8-.4-1.4-1-1.4-.5 0-.7-6-.5-15.3.4-14.3.4-15-1.1-12.2-2.3 4.3-12.2 14.2-17.1 17.2-2.4 1.4-4.3 2.7-4.3 3 0 .2.5.1 1.2-.3.7-.5.8-.3.4.5-.5.7-1.4 1-2.2.7-1.4-.5-8.6 2.3-9.2 3.6-.2.4-1 .4-1.9.1-1.1-.4-1.4-.2-.9.5.5.8.1 1.1-1.1 1-3.2-.3-12.3 1.4-12.3 2.4 0 .5-2.4.6-5.2.3-2.9-.3-4.5-.2-3.6.2 1 .5-28.5.8-65.5.8-43.6 0-67.5-.4-67.9-1s-.8-14.1-.8-30c.1-22.4.4-29.4 1.4-30.7 1.2-1.6 5.7-1.8 63-1.7 45.7 0 62.2-.3 63.2-1.2 3.6-2.9.5-9.3-4.5-9.1-2 0-2.9-.3-2.5-1 .5-.8-.3-.9-2.4-.5-1.8.4-3.2.3-3.2-.2 0-1.1-12.5-3.2-14.6-2.4-1.2.4-1.5.3-1-.5s-.3-1-2.6-.6c-2.5.4-2.9.3-1.8-.5 1.3-.9 1.2-1.1-.6-1.1-2.7 0-30.5-5.4-38.5-7.5-3.3-.9-6.4-1.3-6.9-1-.6.3-1 .2-1-.3 0-1.3-5.9-3.4-7.3-2.5-.6.4-.7.1-.2-.7.6-1 .4-1.2-.8-.7-.9.3-1.7.2-1.9-.2s-3-2.2-6.4-4c-20.2-10.7-30.9-29.9-30.8-55.6 0-13.2 1.8-20.6 7.7-32 4.9-9.5 16.3-21.4 24.7-25.9 3-1.6 5.8-3.4 6.1-3.9s.9-.8 1.3-.8c1.9.2 6.6-1.3 6.6-2.1 0-.5 1-.6 2.1-.3 1.6.5 1.9.4 1.4-.5-.6-1 .1-1.1 2.9-.6 2 .4 3.6.3 3.6-.1s29.3-.7 65.1-.5c59.3.2 65.1.1 64.5-1.4-.3-.8-.6-1.8-.6-2 0-.5-115.5-.5-116.1 0M389 227.8c-.8.3-.7.8 0 1.7.8 1 .8 1.5-.2 2.1-.7.4-1 .4-.6-.1.4-.4.2-1.5-.4-2.3-.7-.8-1.3-2.1-1.3-2.8 0-.8-.3-1.4-.8-1.4-.4 0-1.8-1.1-3.2-2.6-1.3-1.4-2.8-2.3-3.4-2-.5.4-1.6-.2-2.3-1.2-1.2-1.7-4.6-3.7-12-7.2-1.4-.7-3.2-.9-3.9-.5-.7.5-1 .4-.6-.1.3-.5-.6-1.4-1.9-2.1-1.8-.8-2.2-.8-1.7 0 .5.9.3.9-.8.1-.8-.6-2.5-1.4-3.9-1.7s-3.6-.8-5-1.1-3.6-.8-4.8-1.1c-1.3-.2-3.1-1-4-1.7-1.3-1.1-1.4-1.1-.7.2.7 1.2.6 1.3-.7.3-.8-.7-1.7-1.1-2-.8-.2.3-3.8-.4-7.9-1.4-7.1-1.8-18.9-4-23.6-4.4-1.3-.1-2.3-.4-2.3-.7 0-.4-.6-.7-1.2-.8-.7 0-2.4-.3-3.8-.5-1.4-.3-4.7-.8-7.3-1.2-2.7-.4-5.9-.9-7-1.2-1.2-.2-2.8-.5-3.4-.5-.7-.1-1.3-.5-1.3-1 0-.4-.8-.8-1.8-.8-1.1 0-1.9-.7-1.9-1.6 0-3.8 4.4-4.2 54.7-4.3 50.5-.1 52.5-.2 52.5-1.7.1-.9 1.2-8.1 2.1-13.9.3-1.7 1-5 1.5-7.5.6-2.5 1.3-6.5 1.5-9 .6-5.8 1.7-12.2 2.4-13.5.4-.7.7-2.2 1.1-4.8.2-1.2.5 19.2.6 45.3.2 32.6 0 47.6-.7 47.8m189.3-17.3c.2 14.3.2 28 0 30.4l-.5 4.4-3.2-3.5c-1.7-1.9-3.9-3.7-4.9-4.1-.9-.3-1.7-1.1-1.7-1.7 0-.5-.7-1-1.5-1s-1.4-.3-1.4-.8c.3-1.9-.2-2.5-1.1-1.2s-1 1.3-1 0c0-.8-2.4-2.6-5.3-4.1-2.8-1.4-5.3-3.1-5.5-3.8-.1-.7.2-1 .8-.6 1.8 1.1 6-2.3 5.4-4.3-.4-1.2-.3-1.3.3-.4.8 1 1.7.6 4.2-1.7 1.8-1.7 3.7-3.1 4.2-3.1s.9-.6.9-1.4c0-.7.7-1.9 1.5-2.6.9-.7 1.3-2.3 1-3.7-.2-1.4-.1-2.3.2-1.9.5.5 3.6-3 3.9-4.4 0-.3.4-2.1.8-4 1.2-6 1.4-7.4 1.5-10.4.1-1.6.3-2.7.5-2.5s.6 12.1.9 26.4m-11.3 2c0 .8-.4 1.5-1 1.5-.5 0-.7-.7-.4-1.5.4-.8.8-1.5 1-1.5s.4.7.4 1.5m210.7 1.7c-.3.7-.5.2-.5-1.2s.2-1.9.5-1.3c.2.7.2 1.9 0 2.5m-559.9 22.3c-.3.3-.9-.2-1.2-1.2-.6-1.4-.5-1.5.5-.6.7.7 1 1.5.7 1.8m559.9 12.7c-.3.8-.6.5-.6-.6-.1-1.1.2-1.7.5-1.3.3.3.4 1.2.1 1.9"/><path d="M460.5 181.6c-.8 6-.2 18.1 1 19.2.4.4 9.5.7 20.3.7 22.8 0 25.2-.6 28.4-6.8 2.8-5.5 2-11-2.1-15.1l-3.1-3.1-21.9-.3-21.9-.3zm43.9-1.1c2 .8 3.6 1.8 3.6 2.1s-.6.2-1.2-.1c-.7-.4-.4.1.6.9 1.1.9 1.7 1.9 1.3 2.2-.4.4-.2 1.3.4 2.1.7.8.8 1.3.1 1.3-.5 0-1.3 1.2-1.7 2.7-.3 1.5-1.4 3.3-2.3 4.1-1.1.9-1.2 1.1-.2.6.8-.4 1.1-.3.7.1-1.3 1.5-3.7 1.7-20.5 2.2-22.5.6-21.2 1.2-21.2-9.6 0-4.8.3-9.1.7-9.4.3-.4 8.6-.7 18.3-.7 13.6 0 18.6.4 21.4 1.5m-13.1 20.2c-4.5.2-12.2.2-17 0-4.8-.1-1.1-.3 8.2-.3 9.4 0 13.3.2 8.8.3M650 183c-1.3.8-1.5 7.2-1.5 47.5v46.6l14 .3c15.6.3 20.7-.7 29.1-5.5 8.6-4.9 20.5-18.3 18.8-21.1-.4-.6-.3-.8.3-.5 1.1.7 3.7-5.9 2.8-7.3-.3-.5-.2-1 .4-1s.8-2.1.6-5.3c-.3-4.3-.3-4.6.4-1.7s.8 2.2.9-4c0-5.4-.2-6.9-.9-5.5-.7 1.5-.8.8-.4-2.3.4-3.2.2-4.2-.6-3.6-.8.4-.9.3-.5-.5.9-1.4-1.2-8.1-2.5-8.1-.6 0-.8-.4-.5-.9.9-1.4-4.8-9.4-10.5-14.6-7.2-6.6-16-11-21.3-10.7-2.2 0-3.5-.2-2.9-.6.7-.4-4.5-.7-11.5-.6l-12.7.1 10-.7 10-.6-10-.2c-5.5-.1-10.7.3-11.5.8m27.5 3.1c1.1.2 2.2.6 2.5.9 1.2 1.2 7 4.1 7 3.5 0-.4 1.8.7 3.9 2.4 3.9 3.1 5.7 4 4.6 2.2-.3-.5 0-1.3.7-1.7s1-.3.5.1c-.4.5.1 1.8 1 2.9 1.7 2 1.7 2 .1.7-1.1-.8-1.8-.9-1.8-.3 0 1 3.6 3.6 5.2 3.7.3 0 1 .4 1.5.9s.3.6-.4.2-1.3-.2-1.3.4 1.1 1.5 2.5 2 2.5 1.2 2.5 1.5c0 .4-.4.3-1 0-.5-.3-.2.7.7 2.4 1 1.6 2 2.8 2.4 2.6.3-.2.6.1.7.8.2 2.8.9 4.9 1.8 5.5 1.3 1 1.7 3.7 1.8 13.7.1 7.3-.3 10-2.2 14.3-1.3 2.9-2 5.7-1.7 6.2s0 1.2-.6 1.6c-.8.5-.9.3-.4-.6q.75-1.35-.3-.6c-.7.4-1.2 1.4-1.2 2.2s-.4 1.4-.9 1.4-1.4 1.3-2 3c-.5 1.6-1.3 3-1.6 3s-.3-.6.1-1.3c.4-.6-.5-.1-1.9 1.2s-2.5 2.7-2.4 3.1c.1.5 0 .8-.3.7-.3 0-2.4 1.2-4.8 2.6-10.1 6.4-14.6 7.8-27.7 8.4l-12.4.6-1.2-2.9c-1.8-4.6-.7-86.3 1.2-87.5 1.3-.9 20.5-.7 25.4.2m-201.2 70.6c4.3.2 11 .2 15 0 4-.1.5-.3-7.8-.3-8.2 0-11.5.2-7.2.3m-15.7 5.2c-.9 6.7-.7 17.7.4 20.5l1 2.6h21c12.9 0 21-.4 21-1 0-.5.7-.7 1.5-.4 2.1.9 8.1-3.2 9.3-6.4 1.5-3.7 1.3-10.1-.4-13.4-2.9-5.7-4.2-5.9-29.7-6.1l-23.5-.2zm44.2-2.2c1.2.3 1.9 1 1.5 1.6-.4.7 0 .8 1.3.3 1-.4 1.5-.4 1.2 0-.8.7 1.4 3.4 2.3 2.8.3-.2.6.2.7.9s.4 2.6.8 4.4c.5 2.4 0 4-1.7 6.5-1.3 1.8-2.4 3.5-2.4 3.8 0 .9-4.8 1.3-24.2 1.7l-20.3.4v-10c0-5.5.3-10.6.6-11.5.5-1.3 3.4-1.5 19.3-1.5 10.3 0 19.7.3 20.9.6m114 153c.7.3 1.6.2 1.9-.1.4-.3-.2-.6-1.3-.5-1.1 0-1.4.3-.6.6m-285.6 16.8c.3 14.7.4 16 2.2 16.3 2.6.5 3.6-1.4 3.6-7.1V434h4.8c5.7 0 11.6-1.5 13.2-3.5 1.4-1.7 2-10.4.8-12.7-1.6-3.2-5.1-4.2-15.1-4.2l-9.7-.1zm5.2-12.8c-.5.5-1.2 1.2-1.6 1.8s-.8.2-.8-.8c0-.9.7-1.7 1.7-1.7.9 0 1.2.3.7.7m13 .6c-.3.8.2 2 1.1 2.7 1.7 1.4 2 5.6.5 6.5-1.8 1.1-1 2.3 1.3 1.9 1.2-.2 1.5-.1.7.2-.8.4-2.1 1.1-2.8 1.7-.9.7-1.2.7-1-.2.2-1-1.4-1.4-5.7-1.5l-6-.1-.3-5.3-.3-5.2h5.5c3 0 5.8-.5 6.1-1 .9-1.5 1.5-1.2.9.3m-12.8 15.3c-.5 1.3-1 1.4-1.8.6-.6-.6-.8-1.8-.4-2.8.5-1.3 1-1.4 1.8-.6.6.6.8 1.8.4 2.8"/><path d="M337.1 431.6c0 1.1.3 1.4.6.6.3-.7.2-1.6-.1-1.9-.3-.4-.6.2-.5 1.3m29.3-2.4c.1 15.5.3 16.3 2.1 16.3 1.7 0 2.1-1 2.9-6.8l.8-6.7H390v6.8c0 6.8 0 6.8 2.8 6.7h2.7v-15.4c0-13.4-.2-15.5-1.7-16.5-2.5-1.5-3.2-.2-3.8 7-.4 4.9-.2 6.4.8 6.4.7 0 1.1.3.9.7-.8 1.3-19.3.3-19.5-1-.1-.7-.5-4-.8-7.5-.6-5.6-.9-6.2-2.9-6.2h-2.3zm27.4-6.1c.1 2.3 0 4-.2 3.8-.8-.7-1.3-8.8-.6-8.4.4.2.7 2.3.8 4.6m-23.4 3.4c.3.8.1 1.5-.4 1.5-.6 0-1-.7-1-1.5s.2-1.5.4-1.5.6.7 1 1.5m23.6 3.9c0 2.4-.8 2.6-4 1.3-.8-.4-4.9-.8-9-1-5.5-.3-4.9-.4 2.3-.3 7.1.1 9.7-.2 9.7-1.2 0-.6.2-1.2.5-1.2s.5 1.1.5 2.4m-23.4-.2c.5.7.3.8-.6.3s-1-.1-.6 1.6c.6 2 .5 2.1-.4.6-.6-.9-.8-2.2-.5-2.7.8-1.3 1.2-1.3 2.1.2m23.1 5.7c0 1.1-.5 1.8-.9 1.5s-.5-1.1-.1-1.9c.7-2.1 1.2-1.9 1 .4m-.3 5.6c-.4.8-.8 1.5-1 1.5s-.4-.7-.4-1.5.4-1.5 1-1.5c.5 0 .7.7.4 1.5m10.6-12.1v16.1h6v-32.4l-3 .1-3 .1zm2.7 3.3c-.2 2.1-.4.6-.4-3.2 0-3.9.2-5.5.4-3.8.2 1.8.2 5 0 7m12.1-19c-.8 1.4-1 24.7-.3 28.4l.7 3.5h9.9c9.2-.1 9.9-.2 9.9-2.1 0-1.8-.7-2-7.8-2-5.9 0-7.6.3-7.4 1.3.1.8-.2 1.1-.8.7-.7-.4-.8-1.1-.2-1.8.5-.7.9-7.3.8-14.7-.1-13-.2-13.5-2.3-13.8-1.1-.2-2.3 0-2.5.5m2.9 13c-.2 1.6-.4.5-.4-2.2 0-2.8.2-4 .4-2.8.2 1.3.2 3.5 0 5m0 7.5c-.3.8-.6.5-.6-.6-.1-1.1.2-1.7.5-1.3.3.3.4 1.2.1 1.9m24.3-4.8c0 9 .3 16.5.6 16.8s1.3.4 2.2.1c1.5-.4 1.7-2.3 1.8-16.6l.2-16.2-2.4-.1-2.4-.2zm2.7 7.3c-.2 2.1-.4.6-.4-3.2 0-3.9.2-5.5.4-3.8.2 1.8.2 5 0 7m11.4-6.9.1 16.3 2.6-.3c2.5-.3 2.7-.7 3-5.7.2-3.7-.1-5.7-1-6.2-1.7-1.1-1.7-2.9-.1-5.4.7-1.1 1.3-3.9 1.3-6.2V418h5.8c4.4 0 6.3.5 7.4 1.7 2.5 2.9 2.6 4.6.4 7.1-1.8 2-2.9 2.3-8.1 2.1-5.1-.2-6 0-5.7 1.4.2 1-.3 1.7-1 1.7-.9 0-.9.3.2 1 2.2 1.4 11.6 1.2 15.5-.4 4.3-1.8 5.7-4.5 5.3-10.3-.2-3.7-.9-5-3.1-6.7-2.5-1.8-4.3-2.1-12.8-2.1h-10zm5.6-13.2c-.3.3-1.2.4-1.9.1-.8-.3-.5-.6.6-.6 1.1-.1 1.7.2 1.3.5m-1.6 6.7c-1.3 1.3-1.5-.1-.4-3 .7-1.7.8-1.7 1.1.1.2 1-.1 2.3-.7 2.9m.2 14.7c-.7 2.7-1.3 2.5-1.1-.4.1-1.4.5-2.3.9-2 .4.2.5 1.3.2 2.4m28.5-17.6c-.3 7.9.2 23.9.7 24.4.2.2 1.3.1 2.4-.3 1.6-.5 2.1-1.6 2.3-5.3l.3-4.7 7.4-.6c6.7-.5 7.7-.8 10.2-3.7 2.9-3.2 4.1-9.2 1.8-9.2-.5 0-.7-.5-.4-1.1.4-.6-.3-2.1-1.5-3.4-1.7-1.8-3-2.3-5.9-1.9-2.7.3-3 .2-1.2-.4 1.6-.5-.9-.8-6.7-.8l-9.2-.1zm5.2-2.6c0 .5 2.6.5 5.7.1 4-.5 6-.4 6.4.3.6.9 1.2.8 2.3-.1s1.6-1 1.6-.2c0 .6-.5 1.1-1 1.1-.7 0-.7.6-.2 1.7 1.1 2.1.1 5.3-2.1 7.1-.9.8-3.6 1.2-6.9 1l-5.3-.3-.3-4.5c-.2-2.4-.8-5-1.4-5.7-.7-.9-.7-1.3.1-1.3.6 0 1.1.4 1.1.8m-.7 11.4c.8.5.7 1.1-.2 2.2-1.1 1.3-1.1 1.6 0 1.6 1 0 1.1.2.2.8-.6.4-1.3 2.1-1.6 3.7-.2 1.7-.4-1.5-.4-7s.2-8.2.4-6c.3 2.2.9 4.3 1.6 4.7m17-.7c-.3.9-.8 1.4-1 1.1-.3-.3-.2-.9.2-1.5.9-1.6 1.5-1.3.8.4m11.2-14.7c-.3.3-.5 7.1-.5 15.2 0 14.9.5 17 4 17 1.3 0 1.5-1.9 1.4-13.5-.1-7.4-.5-14.2-.8-15-.3-.9-.2-1.3.4-1s1-.3 1-1.3c0-1.4-.7-2-2.5-2-1.3 0-2.7.3-3 .6M541 429c0 16.3.5 18.3 3.6 14.2.9-1.1 1.3-4.8 1.4-10.5 0-5.3.4-8.7 1-8.7s1.3.7 1.6 1.5c.4.8 1.1 1.2 1.7.8.5-.3.8-.2.4.3-.3.5 2.3 5 5.7 9.9 5.7 8.1 6.6 9 9.4 9h3.2V413h-2.4c-2.2 0-2.3.5-3 7.7-.3 4.2-.5 9.2-.5 11.2l.1 3.6.8-3 .8-3 .1 2.7c0 1.6.6 2.8 1.3 2.8.6 0 .3.7-.8 1.5-1.6 1.3-1.6 1.4-.1.9 1.2-.4 1.7-.1 1.7 1.2 0 3.6-1.5 4.6-2.9 2-.8-1.3-1-2.9-.7-3.5.4-.6.1-1.4-.7-1.7s-4.2-4.4-7.6-9.2c-8.7-12.5-8.4-12.2-11.2-11.6-1.9.5-2.1.3-.9-.5 1.3-.9 1.3-1.1-.2-1.1-1.6 0-1.8 1.4-1.8 16m3.7 10.2c-.2 1.3-.4.3-.4-2.2s.2-3.5.4-2.3c.2 1.3.2 3.3 0 4.5m44.8-25.2-11 .5V425c.1 5.8.2 12.7.3 15.5l.2 5 11 .3c10.7.4 11 .3 11-1.8 0-2-.4-2.1-8.7-1.9-5.1.1-9.2.6-9.6 1.3-.6.7-.7.6-.4-.4.2-.8 1-1.4 1.7-1.2 1.1.3 1.1 0 .1-1.2-.8-.9-1.1-3.1-.9-5.1.4-3.1-.1-3.9-2.3-3.7-.3.1-.6-.6-.6-1.3 0-1.2.3-1.2 1.4-.3.8.6 5.2 1.4 9.9 1.6l8.4.5v-2.7c0-2.4-.4-2.6-3.7-2.5-2.1 0-5.9.4-8.6.8-6.3 1-8-.2-7.4-5.4l.4-4 .1 4.1c.3 6.1 2.8 6.6 2.8.5l-.1-4.6 8.3-.3c8-.3 10.2-1.2 9-3.9-.1-.4-5.2-.6-11.3-.3m3.8 16.7c-.7.2-1.9.2-2.5 0-.7-.3-.2-.5 1.2-.5s1.9.2 1.3.5m16.5-14.5c-4.4 4.2-3.5 10.4 2 13.1 1.5.7 3.6 1.2 4.7 1 1.5-.3 1.6-.2.7.5-1 .7-.2 1.1 2.6 1.6 5.5.8 7.5 3 6.6 7-.6 2.9-.6 3 1.2 1.6s1.8-1.4.5.2c-1.1 1.4-1.1 1.8-.1 1.8.8 0 1 .3.7.6-.4.4-1.3.1-2.2-.6-.9-.8-4.1-1.3-8-1.2-3.6 0-6.3-.3-6-.8.8-1.3-3.5-2.4-4.7-1.2-2.9 2.9 3.8 7.2 11.2 7.2 4.3 0 10.3-2 11.4-3.9.4-.6.9-3.4 1.1-6.2.3-4.7.1-5.2-2.8-6.9-1.7-1.1-3.4-1.7-3.9-1.4-.4.3-.8.1-.8-.5s-.7-.8-1.5-.5c-.8.4-1.5.1-1.5-.5s-.9-1.1-1.9-1.1c-3.3 0-6.5-3.3-5.8-6.2.4-1.3 1.2-2.5 1.9-2.6.7 0 3.3-.3 5.8-.7 2.5-.3 3.9-.2 3.2.1-.9.4-.5 1.1 1.4 2 2 1.1 3 1.1 4 .3 3.5-2.9-.6-5.1-10-5.3-6.4-.1-7.4.1-9.8 2.6m-.1 6c-.3.7-.5.2-.5-1.2s.2-1.9.5-1.3c.2.7.2 1.9 0 2.5m17.7 10.4c.3.8.2 1.2-.4.9s-1-1-1-1.6c0-1.4.7-1.1 1.4.7m2.3 3.6c-.3.8-.6.5-.6-.6-.1-1.1.2-1.7.5-1.3.3.3.4 1.2.1 1.9"/></g><path fill="#BF0000" fill-opacity=".8" d="M350.8 182.7c1.2.2 3.2.2 4.5 0 1.2-.2.2-.4-2.3-.4s-3.5.2-2.2.4m17 0c.6.2 1.8.2 2.5 0 .6-.3.1-.5-1.3-.5s-1.9.2-1.2.5M777.2 226c0 1.4.2 1.9.5 1.2.2-.6.2-1.8 0-2.5-.3-.6-.5-.1-.5 1.3M569 241.4c0 .2.8 1 1.8 1.7 1.5 1.3 1.6 1.2.3-.4s-2.1-2.1-2.1-1.3m-102.2 15.3c.7.3 1.6.2 1.9-.1.4-.3-.2-.6-1.3-.5-1.1 0-1.4.3-.6.6m-6.7 4.9c0 1.1.3 1.4.6.6.3-.7.2-1.6-.1-1.9-.3-.4-.6.2-.5 1.3m-42 155c0 1.1.3 1.4.6.6.3-.7.2-1.6-.1-1.9-.3-.4-.6.2-.5 1.3m145 5c0 1.1.3 1.4.6.6.3-.7.2-1.6-.1-1.9-.3-.4-.6.2-.5 1.3m20.1 1.9c0 1.6.2 2.2.5 1.2.2-.9.2-2.3 0-3-.3-.6-.5.1-.5 1.8m-224.1.1c0 1.1.3 1.4.6.6.3-.7.2-1.6-.1-1.9-.3-.4-.6.2-.5 1.3m133.1 1.4c0 1.4.2 1.9.5 1.2.2-.6.2-1.8 0-2.5-.3-.6-.5-.1-.5 1.3m-40.8 10.5c0 4.9.1 7.1.3 4.8s.2-6.4 0-9-.3-.8-.3 4.2m125.8-5.5c0 1.9.2 2.7.5 1.7.2-.9.2-2.5 0-3.5-.3-.9-.5-.1-.5 1.8m-85 6c0 1.4.2 1.9.5 1.2.2-.6.2-1.8 0-2.5-.3-.6-.5-.1-.5 1.3m-121 4c0 1.4.2 1.9.5 1.2.2-.6.2-1.8 0-2.5-.3-.6-.5-.1-.5 1.3m62.1 1.7c.9.2 2.3.2 3 0 .6-.3-.1-.5-1.8-.5-1.6 0-2.2.2-1.2.5m-8.5 5c.7.3 1.6.2 1.9-.1.4-.3-.2-.6-1.3-.5-1.1 0-1.4.3-.6.6m24 0c.7.3 1.6.2 1.9-.1.4-.3-.2-.6-1.3-.5-1.1 0-1.4.3-.6.6m138.5 0c.9.2 2.5.2 3.5 0 .9-.3.1-.5-1.8-.5s-2.7.2-1.7.5"/><path fill="#BF4040" fill-opacity=".5" d="M581.2 133c0 1.9.2 2.7.5 1.7.2-.9.2-2.5 0-3.5-.3-.9-.5-.1-.5 1.8m.1 66.5c0 2.2.2 3 .4 1.7.2-1.2.2-3 0-4-.3-.9-.5.1-.4 2.3m-114 213.2c.9.2 2.3.2 3 0 .6-.3-.1-.5-1.8-.5-1.6 0-2.2.2-1.2.5m113.5 0c.7.3 1.6.2 1.9-.1.4-.3-.2-.6-1.3-.5-1.1 0-1.4.3-.6.6"/><g fill="#BF0000" stroke-width="0"><path d="M252.8 95.7c.6.2 1.8.2 2.5 0 .6-.3.1-.5-1.3-.5s-1.9.2-1.2.5m428.5 0c.9.2 2.5.2 3.5 0 .9-.3.1-.5-1.8-.5s-2.7.2-1.7.5m-432.5 1c.7.3 1.6.2 1.9-.1.4-.3-.2-.6-1.3-.5-1.1 0-1.4.3-.6.6m438.2 0c0 .5-97.8.8-217.2.8-119.5 0-218.3.3-219.5.6s-2.6.8-2.9 1.2c-.4.4-2 .7-3.6.7-1.5 0-2.8.4-2.8.8 0 .5-.6.9-1.2 1-2.9.2-4.7.9-6.4 2.2-.9.8-1.9 1.4-2 1.3-.8-.4-8.4 3.1-8.4 3.9 0 .4-.7.8-1.5.8s-1.5.4-1.5 1c0 .5-.5 1-1.2 1-.6 0-2.3 1-3.7 2.2-2.2 2-2.3 2-1.2.3.8-1.1-.2-.3-2.1 1.7-2.1 2.3-4.3 3.8-5.8 3.9-2.1 0-2.2.2-.7.8 1.7.6 1.7.8-.4 2.6-2 1.8-2.2 1.8-1.6.2.4-1.1.3-1.6-.3-1.2-.6.3-1 1.5-1 2.5 0 1.1-1.8 3.3-4 5.1s-3.7 3.5-3.5 4c.3.4 0 1.1-.6 1.5-.6.3-1.7 2.1-2.5 3.8s-2.5 4.9-3.8 7.1-2.2 4.3-1.9 4.7c.2.5 0 .8-.6.8-1.1 0-4.2 8.9-4.8 13.9-.2 2-.9 5.6-1.6 8.1-.9 3.4-1.2 27.3-1.2 97v92.5l252 .2c150.9.1 253.8-.2 256.5-.7 2.5-.5 5.6-1.2 7-1.5s3.9-.7 5.5-1c1.7-.2 4.9-1.1 7.3-1.9 2.3-.8 4.2-1.3 4.2-1 0 .2 1.1-.3 2.5-1.2s2.5-1.3 2.5-1c0 .4 1 .1 2.3-.6 1.2-.6 2.8-1.3 3.5-1.4.8-.1 3.1-1.4 5.3-2.8 2.1-1.4 4.5-2.6 5.4-2.6.8 0 1.5-.5 1.5-1.1 0-.5.4-.8.9-.5s1.2-.1 1.5-1c.4-.9 1.3-1.4 2.2-1 .8.3 1.2.2.9-.4-.8-1.2 3.2-3.3 4.8-2.4.6.4.9.4.5-.1-.7-.7 1.8-3.3 3.2-3.3.3 0 2.7-2 5.3-4.6 2.7-2.5 5.3-4.3 5.9-4 .6.4.8.3.5-.3-.3-.5 1.7-3.2 4.6-5.9 2.8-2.7 4.3-3.8 3.2-2.4l-2 2.5 2.1-1.8c1.1-.9 2.5-1.4 2.9-1 .5.5.3 0-.4-1-1.2-1.6-1.1-2.2 1.5-5 1.6-1.7 3.5-3.5 4.2-4 .6-.4 1.2-1.4 1.2-2.1 0-.8 1.1-2.1 2.5-3s2.3-2.1 2-2.7c-.7-1 3.2-7.9 4.4-7.9.4 0 .7-1 .8-2.2.1-1.1.6-2.4 1-2.7s.9-1.3 1.1-2.1.8-1.7 1.3-1.8c.5-.2.7-.8.3-1.3-.3-.5 0-.9.5-.9.6 0 1-.3.9-.8-.3-.9 3.2-10.3 4.5-12 .5-.6.7-1.2.3-1.2-.3 0 .1-1.7.8-3.8 3.6-9.2 4.7-18.6 4.7-36.7 0-9.9-.5-19.8-1.1-22-1-3.9-2-8-2.4-10-.1-.6-.4-1.5-.7-2-.8-1.4-2.3-6.8-2.1-7.8.1-.4-.2-.7-.7-.7s-1.1-1-1.4-2.3c-.8-3.6-3.1-9.2-4.1-9.9-.9-.6-1.6-2.7-1.8-5.6-.1-.6-.5-1.2-1-1.2-.4 0-.8-.7-.8-1.5s-.4-1.5-.8-1.5c-1.3 0-4.4-5.9-3.7-7 .4-.6.3-.9-.2-.8-.4.2-1-.1-1.3-.7-.3-.5-1.6-2.1-3.1-3.5-1.4-1.4-1.8-2.1-.9-1.5.9.5 0-.5-1.9-2.4-2-1.9-2.9-3-2.1-2.6s0-.6-1.7-2.3c-3.3-3.1-4.3-4.9-2-3.6.6.4-.3-.9-2.2-2.9s-3.7-3.6-4-3.5c-2.2.2-3.2-.4-2.8-1.7.4-.8.1-1.7-.5-2.1-.7-.5-.8-.2-.3.6s.3 1.1-.6.8c-.8-.3-1.3-1.1-1.1-1.7.1-.7-.2-1-.7-.7-.5.4-1.4-.2-2-1.1-.5-1-1.2-1.7-1.5-1.5-.4.1-1.9-1-3.4-2.5-1.5-1.4-1.8-2-.7-1.2 1.8 1.3 1.9 1.3.6-.4-.7-.9-2-1.7-2.9-1.7-.8 0-2.1-.8-2.8-1.8-.7-.9-1.7-1.8-2.3-1.8-.6-.1-1.7-.2-2.4-.3-.7 0-2.2-.8-3.3-1.7-1-.8-1.3-1.2-.5-.8.9.5 1.2.3.7-.5-.4-.6-1.1-.9-1.6-.6s-1.1.1-1.5-.5-1.1-.8-1.6-.5c-.5.4-.9.1-.9-.5s-.4-.8-1-.5c-.5.3-1 .1-1-.6s-.3-1-.6-.6c-.4.3-3.3-.7-6.5-2.3-3.2-1.7-6.5-3-7.4-3-.8 0-1.5-.5-1.5-1.2 0-.6-.3-.9-.6-.5-.3.3-2.3-.1-4.5-.8-2.1-.8-3.9-1.2-3.9-.8 0 .3-.6.1-1.2-.5-.7-.6-3.1-1.3-5.3-1.7s-4.9-.9-6-1.2l-2-.6 2-.8c1.9-.7 1.9-.8-.2-.8-1.3-.1-2.3.2-2.3.6m-299.6 22.5c1.2 5.5 1.5 6 1.1 1.8-.3-4.3-.3-4.4 1-2 1.1 1.9 1.4 2.1 1.5.8 0-1 1-2 2.3-2.3 3.1-.7 133.6.1 136.7.9 2.4.6 8.9 1.9 10 2.1.3 0 1.2.5 2 1s2.2.8 3 .7c.9-.1 2.6.7 3.8 1.8s2.2 1.8 2.2 1.4c0-.3.8.2 1.8 1.3.9 1 1.3 1.3.8.6-.6-1-.5-1.2.7-.7.9.3 1.9 1.4 2.2 2.5.4 1.1 1.1 1.7 1.6 1.3 1.4-.8 4.1 1.6 3.5 3.2-.2.7.5 2 1.7 3.1l2.2 1.8-2-2.5-2-2.5 2.4 2c3.1 2.6 9.2 12 9.4 14.6.1 1 .4 1.9.8 1.9s1 2.1 1.4 4.6c.3 2.5.9 5.6 1.1 6.7.3 1.2.7 6 1.1 10.7.3 4.7.7 8.7.9 8.9.6.6-.5-58.1-1.1-59.9-.7-2.2.8-4 4.1-4.8 3.1-.7 79.5-1 92.4-.3 7.6.4 21.7 2.5 25.5 3.8 1.1.4 2.3.6 2.8.5.4-.1.7.3.7.9 0 .5.3.8.8.5.4-.2 2.3.3 4.2 1.1 1.9.9 4.4 1.8 5.5 2 1 .2 2.3.9 2.7 1.6.4.6.8.8.8.3s.8-.2 1.8.7c1 1 2.2 1.4 2.5 1 .4-.3.7 0 .7.7s.3 1 .6.7c.8-.8 6.4 2.4 6.4 3.6 0 .4.5.5 1 .2.6-.3 1-.3 1 .2 0 .4 2 2.1 4.5 3.6 2.5 1.6 4.2 3.3 3.9 3.8s-.2.8.3.7c1.6-.5 9.5 7 8.7 8.4-.3.5 0 .7.7.6.7-.2 1.4.4 1.4 1.2s.6 1.4 1.3 1.3c1.2-.3 5.6 4.9 5.3 6.2-.1.3 1 1.6 2.4 2.7s2.4 2.3 2.1 2.6.1 1 1 1.6c.8.6 1.6 2.1 1.7 3.3 0 1.2.4 2 .8 1.7.7-.4 2.3 2.6 2.1 3.8-.1.5.3.8.9.8.5 0 .7.4.4 1-.3.5-.2 1 .4 1s1.4 1.2 1.7 2.7c.4 1.6 1.1 3.4 1.7 4 .5.7.7 1.3.3 1.3s.3 1.9 1.5 4.2c1.2 2.4 2.2 4.5 2.2 4.8s.1.9.2 1.5c.2.5.9 4.4 1.6 8.5s1.5 8.2 1.7 9c1.4 4.2.6 27.9-1.2 35.5-1 4.4-1.9 8.7-1.9 9.5s-.7 2.1-1.6 2.8c-.9.8-1.1 1.1-.5.8.7-.3.5 1.2-.5 4.2-.9 2.6-1.9 4.9-2.4 5-.4.2-.5.7-.2 1.2s0 1.4-.7 2.2c-.7.7-1.5 2.4-1.6 3.8-.2 1.4-1 3.2-1.7 4s-2.1 3.1-3 5c-1 1.9-3.4 5.1-5.4 6.9-2 1.9-2.7 2.9-1.6 2.2s.3.2-1.8 2c-2 1.9-3.7 3.9-3.7 4.5 0 1.6-4.5 5.5-5.4 4.7-.4-.5-.6-.3-.4.3.4 1.6-6 7.6-7.4 6.8-.7-.4-.8-.3-.4.4s-.5 2.3-2.1 3.7c-3.9 3.4-13.8 8.6-14.8 7.7-.5-.4-.5-.2-.2.5.5.7-.7 1.6-3 2.3-2.1.7-4.7 1.8-5.8 2.5-1.7 1-7.9 3.4-11 4.1-.5.2-2.1.5-3.5.9-1.4.3-4.5 1.1-7 1.7-2.9.7-22.5 1.2-54.5 1.4-49.6.4-58.7-.1-58.4-3 .1-.6.1-5 0-9.7-.1-6.7-.4-8.6-1.5-8.6-.8 0-1.5.3-1.4.6.2 2.1-.5 2.8-2.4 2.7-1.4-.1-2.2.4-2.1 1.1.2.7-.4 1.3-1.3 1.3-1.3 0-1.4.3-.5 1.4s.4 1.8-2.4 3.5c-2 1.1-4.3 2.1-5.1 2.1s-1.2.4-.9 1c.5.9-.9 1.5-1.8.7-.2-.1-1.6.6-3.1 1.7-1.8 1.1-2.6 1.3-2.1.5.3-.8-.1-.5-.9.5-.9 1.1-1.6 1.7-1.6 1.3 0-.3-1.9.1-4.2 1.1-3.9 1.5-11.4 1.7-72.8 2s-86.1-.2-82.2-1.5c1-.4.8-.8-.5-1.8-1.5-1.1-1.8-2.8-1.8-10.4 0-5-.4-9.1-.8-9.1-.5 0-.5-.5-.1-1.2s.3-.8-.5-.4c-.6.4-.9 1.2-.5 1.7.8 1.4-6.5 8.1-7.9 7.3-.7-.4-.9-.4-.5.1.9.9-3.4 4.5-5.4 4.5-.8 0-1.9.5-2.6 1.2s-1.2.9-1.2.4c0-.4-1.3.2-2.8 1.3-1.6 1.1-4.2 2.3-5.9 2.5-1.6.3-4.6 1.3-6.6 2.1-6.6 2.7-26.3 3.5-91.5 3.5-59.9-.1-64.3-.2-63-1.7.9-1.2.9-1.5.1-.9-.9.5-1.3.1-1.4-1.1-.5-15-.3-62.6.3-62.9.4-.3.8.1.8.8 0 1 .2 1 .9 0 .7-1.1 11.6-1.4 61.1-1.2 53.1.1 60.5-.1 62.6-1.5 1.3-.8 2.4-2 2.4-2.6 0-1.3-5.8-3.7-10.7-4.4-2.1-.2-4.9-.7-6.3-1.1-2.7-.6-20.5-4.1-24.8-4.8-1.5-.2-2.7-.5-2.7-.6s-1.1-.3-2.5-.6c-14.2-2.3-17.8-3-18.2-3.4-.2-.1-1.2-.3-2.3-.5s-4.5-1.1-7.5-2-6.2-1.8-7-2-3.1-1.1-5-2.1-4.1-1.9-4.9-2c-.8-.2-1.7-.8-2.2-1.5-.4-.7-1.9-1.3-3.5-1.5-1.5-.2-3.2-.8-3.8-1.5-.8-.9-.7-1 .3-.4.9.5 1.2.4.7-.3-.4-.7-1.1-1.2-1.6-1.2-1.5 0-9-5.3-9-6.4 0-.6.5-.4 1.1.4.9 1.3 1 1.3.6 0-.2-.8-1-1.5-1.8-1.5s-1.4-.5-1.4-1.2c0-.6-.4-1.5-.9-2s-.6-.3-.2.4.3 1.3-.3 1.3c-.5 0-1.9-2-3.1-4.5s-2.4-4.5-2.6-4.5c-.3 0-.2.6.2 1.2.4.7.4 1 0 .6-.4-.3-.8-1-.8-1.5-.1-.4-1.1-2.7-2.4-5-2-3.8-4.1-11.6-3.6-13.6.1-.4-.2-.7-.7-.7-1.4 0-1.9-4.8-.7-6.1.8-.9.8-1-.2-.5-2.1 1.2-1.2-22 1.1-28.9.2-.6.7-2.7 1.1-4.7.5-2.3 1.2-3.5 1.9-3.1.6.3.7.1.3-.5s.1-2.6 1.1-4.4c.9-1.8 1.8-3.8 1.8-4.3.1-.6.7-.9 1.4-.7.7.1 1-.1.8-.5-.8-1.3 1.2-5.5 2.3-4.8.5.3.7 0 .4-.8s0-1.8.7-2.3c.8-.5 1-.3.5.7-.4.8 0 .5.9-.6s2.1-2 2.8-2 1.1-.8.9-1.8.6-2.1 2-2.7c1.3-.5 1.7-.9.8-1-.8 0-.2-.8 1.5-1.7 1.7-1 3.4-1.6 3.8-1.5.5.1.6-.2.2-.7-.5-1 6.1-6.1 7.8-6.1.5 0 2.3-1 4-2.2s2.7-1.6 2.3-.9c-.6.9-.1.8 1.5-.2 1.3-.9 4-1.8 5.9-2.1s4.9-.8 6.5-1.1c1.7-.3 6.2-.8 10-1.2 3.9-.3 7.2-.7 7.4-.9s26.4-.4 58.2-.4H387zM764 137.5c1.3 1.4 2.1 2.5 1.8 2.5-.2 0-1.5-1.1-2.8-2.5s-2.1-2.5-1.8-2.5c.2 0 1.5 1.1 2.8 2.5"/><path d="M683.8 120.7c.7.3 1.6.2 1.9-.1.4-.3-.2-.6-1.3-.5-1.1 0-1.4.3-.6.6m-432 1c.6.2 1.8.2 2.5 0 .6-.3.1-.5-1.3-.5s-1.9.2-1.2.5M392.4 135c0 8 .2 11.2.3 7.2.2-3.9.2-10.5 0-14.5-.1-3.9-.3-.7-.3 7.3m295.4-13.3c.7.3 1.6.2 1.9-.1.4-.3-.2-.6-1.3-.5-1.1 0-1.4.3-.6.6m4 1c.7.3 1.6.2 1.9-.1.4-.3-.2-.6-1.3-.5-1.1 0-1.4.3-.6.6m-302.7 12c-.4 2.6-.7 4.1-1.1 4.8-.7 1.3-1.8 7.7-2.4 13.5-.2 2.5-.9 6.5-1.5 9-.5 2.5-1.2 5.8-1.5 7.5-.9 5.8-2 13-2.1 13.9 0 1.5-2 1.6-52.5 1.7-50.3.1-54.7.5-54.7 4.3 0 .9.8 1.6 1.9 1.6 1 0 1.8.4 1.8.8 0 .5.6.9 1.3 1 .6 0 2.2.3 3.4.5 1.1.3 4.3.8 7 1.2 2.6.4 5.9.9 7.3 1.2 1.4.2 3.1.5 3.8.5.6.1 1.2.4 1.2.8 0 .3 1 .6 2.3.7 4.7.4 16.5 2.6 23.6 4.4 4.1 1 7.7 1.7 7.9 1.4.3-.3 1.2.1 2 .8 1.3 1 1.4.9.7-.3-.7-1.3-.6-1.3.7-.2.9.7 2.7 1.5 4 1.7 1.2.3 3.4.8 4.8 1.1s3.6.8 5 1.1 3.1 1.1 3.9 1.7c1.1.8 1.3.8.8-.1-.5-.8-.1-.8 1.7 0 1.3.7 2.2 1.6 1.9 2.1-.4.5-.1.6.6.1.7-.4 2.5-.2 3.9.5 7.4 3.5 10.8 5.5 12 7.2.7 1 1.8 1.6 2.3 1.2.6-.3 2.1.6 3.4 2 1.4 1.5 2.8 2.6 3.2 2.6.5 0 .8.6.8 1.4 0 .7.6 2 1.3 2.8.6.8.8 1.9.4 2.3-.4.5-.1.5.6.1 1-.6 1-1.1.2-2.1-.7-.9-.8-1.4 0-1.7.7-.2.9-15.2.7-47.8-.1-26.1-.4-46.5-.6-45.3"/><path d="M385.1 142.6c0 1.1.3 1.4.6.6.3-.7.2-1.6-.1-1.9-.3-.4-.6.2-.5 1.3m-.9 5.4c0 1.4.2 1.9.5 1.2.2-.6.2-1.8 0-2.5-.3-.6-.5-.1-.5 1.3m8.3 41c0 21.7.1 30.6.2 19.7.2-10.8.2-28.6 0-39.5-.1-10.8-.2-1.9-.2 19.8m-9.4-35.4c0 1.1.3 1.4.6.6.3-.7.2-1.6-.1-1.9-.3-.4-.6.2-.5 1.3m-4 21c0 1.1.3 1.4.6.6.3-.7.2-1.6-.1-1.9-.3-.4-.6.2-.5 1.3m85.6 5.1c-.4.3-.7 4.6-.7 9.4 0 10.8-1.3 10.2 21.2 9.6 16.8-.5 19.2-.7 20.5-2.2.4-.4.1-.5-.7-.1-1 .5-.9.3.2-.6.9-.8 2-2.6 2.3-4.1.4-1.5 1.2-2.7 1.7-2.7.7 0 .6-.5-.1-1.3-.6-.8-.8-1.7-.4-2.1.4-.3-.2-1.3-1.3-2.2-1-.8-1.3-1.3-.6-.9.6.3 1.2.4 1.2.1s-1.6-1.3-3.6-2.1c-2.8-1.1-7.8-1.5-21.4-1.5-9.7 0-18 .3-18.3.7m-105.9 4c1.8.2 4.5.2 6 0s0-.4-3.3-.4-4.5.2-2.7.4m297.5 0c3.1.2 8.3.2 11.5 0 3.1-.2.5-.3-5.8-.3s-8.9.1-5.7.3m-79.4 2.9c-.1 3-.3 4.4-1.5 10.4-.4 1.9-.8 3.7-.8 4-.3 1.4-3.4 4.9-3.9 4.4-.3-.4-.4.5-.2 1.9.3 1.4-.1 3-1 3.7-.8.7-1.5 1.9-1.5 2.6 0 .8-.4 1.4-.9 1.4s-2.4 1.4-4.2 3.1c-2.5 2.3-3.4 2.7-4.2 1.7-.6-.9-.7-.8-.3.4.6 2-3.6 5.4-5.4 4.3-.6-.4-.9-.1-.8.6.2.7 2.7 2.4 5.5 3.8 2.9 1.5 5.3 3.3 5.3 4.1 0 1.3.1 1.3 1 0s1.4-.7 1.1 1.2c0 .5.6.8 1.4.8s1.5.5 1.5 1c0 .6.8 1.4 1.7 1.7 1 .4 3.2 2.2 4.9 4.1l3.2 3.5.5-4.4c.5-4.8-.3-56.1-.9-56.8-.2-.2-.4.9-.5 2.5m98.9-1.9c.6.2 1.8.2 2.5 0 .6-.3.1-.5-1.3-.5s-1.9.2-1.2.5m-23.7 1.2c-1.9 1.2-3 82.9-1.2 87.5l1.2 2.9 12.4-.6c13.1-.6 17.6-2 27.7-8.4 2.4-1.4 4.5-2.6 4.8-2.6.3.1.4-.2.3-.7-.1-.4 1-1.8 2.4-3.1s2.3-1.8 1.9-1.2c-.4.7-.4 1.3-.1 1.3s1.1-1.4 1.6-3c.6-1.7 1.5-3 2-3s.9-.6.9-1.4.5-1.8 1.2-2.2q1.05-.75.3.6c-.5.9-.4 1.1.4.6.6-.4.9-1.1.6-1.6s.4-3.3 1.7-6.2c1.9-4.3 2.3-7 2.2-14.3-.1-10-.5-12.7-1.8-13.7-.9-.6-1.6-2.7-1.8-5.5-.1-.7-.4-1-.7-.8-.4.2-1.4-1-2.4-2.6-.9-1.7-1.2-2.7-.7-2.4.6.3 1 .4 1 0 0-.3-1.1-1-2.5-1.5s-2.5-1.4-2.5-2 .6-.8 1.3-.4.9.3.4-.2-1.2-.9-1.5-.9c-1.6-.1-5.2-2.7-5.2-3.7 0-.6.7-.5 1.8.3 1.6 1.3 1.6 1.3-.1-.7-.9-1.1-1.4-2.4-1-2.9.5-.4.2-.5-.5-.1s-1 1.2-.7 1.7c1.1 1.8-.7.9-4.6-2.2-2.1-1.7-3.9-2.8-3.9-2.4 0 .6-5.8-2.3-7-3.5-1.5-1.5-25.9-2.5-27.9-1.1m-177.8 14.8c4.8.2 12.5.2 17 0 4.5-.1.6-.3-8.8-.3-9.3 0-13 .2-8.2.3m-146.5 4c.7.3 1.6.2 1.9-.1.4-.3-.2-.6-1.3-.5-1.1 0-1.4.3-.6.6m20 4.5c.5.5 1.6.8 2.3.6.8-.3.3-.7-1-1.1-1.7-.4-2.1-.3-1.3.5"/><path d="M565.6 212.5c-.3.8-.1 1.5.4 1.5.6 0 1-.7 1-1.5s-.2-1.5-.4-1.5-.6.7-1 1.5m211.6.5c0 1.4.2 1.9.5 1.2.2-.6.2-1.8 0-2.5-.3-.6-.5-.1-.5 1.3m-63 11.5c0 1.6.2 2.2.5 1.2.2-.9.2-2.3 0-3-.3-.6-.5.1-.5 1.8m-321.9 8c0 2.2.2 3 .4 1.7.2-1.2.2-3 0-4-.3-.9-.5.1-.4 2.3m322 3c0 2.2.2 3 .4 1.7.2-1.2.2-3 0-4-.3-.9-.5.1-.4 2.3m62.8 13.1c0 1.1.3 1.4.6.6.3-.7.2-1.6-.1-1.9-.3-.4-.6.2-.5 1.3m-302.3 9.1c5.7.2 14.7.2 20 0 5.3-.1.7-.3-10.3-.3s-15.4.2-9.7.3m-10.2 2.9c-.3.9-.6 6-.6 11.5v10l20.3-.4c19.4-.4 24.2-.8 24.2-1.7 0-.3 1.1-2 2.4-3.8 1.7-2.5 2.2-4.1 1.7-6.5-.4-1.8-.7-3.7-.8-4.4s-.4-1.1-.7-.9c-.9.6-3.1-2.1-2.3-2.8.3-.4-.2-.4-1.2 0-1.3.5-1.7.4-1.3-.3 1.1-1.8-2.9-2.2-22.4-2.2-15.9 0-18.8.2-19.3 1.5m-168.8 1.1c.6.2 1.8.2 2.5 0 .6-.3.1-.5-1.3-.5s-1.9.2-1.2.5m26 5c.7.3 1.6.2 1.9-.1.4-.3-.2-.6-1.3-.5-1.1 0-1.4.3-.6.6m-85 11c16.1.2 42.2.2 58 0 15.8-.1 2.6-.2-29.3-.2s-44.8.1-28.7.2m419 0c2.8.2 7.6.2 10.5 0 2.8-.2.5-.3-5.3-.3s-8.1.1-5.2.3m-263.5 49.8c0 2.2.2 3 .4 1.7.2-1.2.2-3 0-4-.3-.9-.5.1-.4 2.3M370 331c-.9.6-1 1-.3 1 .6 0 1.5-.5 1.8-1 .8-1.2.4-1.2-1.5 0m22.2 5c0 1.4.2 1.9.5 1.2.2-.6.2-1.8 0-2.5-.3-.6-.5-.1-.5 1.3m-51.4 3.7c.6.2 1.8.2 2.5 0 .6-.3.1-.5-1.3-.5s-1.9.2-1.2.5m199 0c.6.2 1.8.2 2.5 0 .6-.3.1-.5-1.3-.5s-1.9.2-1.2.5m144.5 0c.9.2 2.3.2 3 0 .6-.3-.1-.5-1.8-.5-1.6 0-2.2.2-1.2.5m-481 1c.9.2 2.5.2 3.5 0 .9-.3.1-.5-1.8-.5s-2.7.2-1.7.5m15 0c.9.2 2.3.2 3 0 .6-.3-.1-.5-1.8-.5-1.6 0-2.2.2-1.2.5m101.5 0c3.4.2 8.8.2 12 0 3.1-.2.3-.3-6.3-.3s-9.2.1-5.7.3m81 0c3.9.2 10.5.2 14.5 0 3.9-.1.7-.3-7.3-.3s-11.2.2-7.2.3m43 0c5 .2 13.4.2 18.5 0 5-.1.9-.3-9.3-.3s-14.3.2-9.2.3m57 0c1.2.2 3 .2 4 0 .9-.3-.1-.5-2.3-.4-2.2 0-3 .2-1.7.4m12 0c1.7.2 4.7.2 6.5 0 1.7-.2.3-.4-3.3-.4s-5 .2-3.2.4m19 0c1.2.2 3.2.2 4.5 0 1.2-.2.2-.4-2.3-.4s-3.5.2-2.2.4m60 0c6.1.2 16.3.2 22.5 0 6.1-.1 1.1-.3-11.3-.3s-17.4.2-11.2.3m67 0c1.7.2 4.7.2 6.5 0 1.7-.2.3-.4-3.3-.4s-5 .2-3.2.4m14 0c1.8.2 4.5.2 6 0s0-.4-3.3-.4-4.5.2-2.7.4m113.5-241c-.7.2-1.3.9-1.3 1.5 0 .7.5.7 1.3-.1.8-.6 1.8-.7 2.2-.3.5.4.5.1.1-.6-.4-.6-.8-1.2-.9-1.1-.1 0-.8.3-1.4.6m13 5.3c0 2.5.2 3.5.4 2.2.2-1.2.2-3.2 0-4.5-.2-1.2-.4-.2-.4 2.3m-10.2-.4c0 1.1.3 1.4.6.6.3-.7.2-1.6-.1-1.9-.3-.4-.6.2-.5 1.3m-6.1 55.3c0 .6.4 1.3 1 1.6s.7-.1.4-.9c-.7-1.8-1.4-2.1-1.4-.7m9.6 18.4c.3 1 .9 1.5 1.2 1.2s0-1.1-.7-1.8c-1-.9-1.1-.8-.5.6m8.6 28.7c0 1.4.2 1.9.5 1.2.2-.6.2-1.8 0-2.5-.3-.6-.5-.1-.5 1.3m.9 41.6c0 1.1.3 1.4.6.6.3-.7.2-1.6-.1-1.9-.3-.4-.6.2-.5 1.3m-1 7c0 1.1.3 1.4.6.6.3-.7.2-1.6-.1-1.9-.3-.4-.6.2-.5 1.3m-3.5 13.9c-.9 2.6-.7 3.2.5 1.2.6-1 .9-2.1.6-2.3-.2-.3-.7.2-1.1 1.1m-36.2 56.7-1.9 2.3 2.3-1.9c2.1-1.8 2.7-2.6 1.9-2.6-.2 0-1.2 1-2.3 2.2m-42.1 29.3c0 .8.4 1.2.9.9s.6-1 .3-1.5c-.9-1.3-1.2-1.1-1.2.6m-46 10.2c1.5.2 3.9.2 5.5 0 1.5-.2.2-.4-2.8-.4s-4.3.2-2.7.4m-465.5 1c1.2.2 3 .2 4 0 .9-.3-.1-.5-2.3-.4-2.2 0-3 .2-1.7.4m131 47c1.8.2 4.5.2 6 0s0-.4-3.3-.4-4.5.2-2.7.4m123 0c.7.3 1.6.2 1.9-.1.4-.3-.2-.6-1.3-.5-1.1 0-1.4.3-.6.6m5 0c1.2.2 3.2.2 4.5 0 1.2-.2.2-.4-2.3-.4s-3.5.2-2.2.4m34 0c1.2.2 3 .2 4 0 .9-.3-.1-.5-2.3-.4-2.2 0-3 .2-1.7.4m39.4 15.5L540 446h2.5c1.7 0 2.5-.5 2.4-1.8 0-1-.3-1.2-.6-.5-.2.7-1.1 1.3-1.9 1.3-1.1 0-1.4-3.2-1.7-16.3l-.3-16.2zm43.1-15.5c3.1.2 8.3.2 11.5 0 3.1-.2.5-.3-5.8-.3s-8.9.1-5.7.3m34 0c1.5.2 3.7.2 5 0 1.2-.2 0-.4-2.8-.4-2.7 0-3.8.2-2.2.4m-109 1c.9.2 2.3.2 3 0 .6-.3-.1-.5-1.8-.5-1.6 0-2.2.2-1.2.5m34.5 0c.7.3 1.6.2 1.9-.1.4-.3-.2-.6-1.3-.5-1.1 0-1.4.3-.6.6m-206.8 3c0 1 .4 1.4.8.8s1.1-1.3 1.6-1.8c.5-.4.2-.7-.7-.7-1 0-1.7.8-1.7 1.7m127.8-1c.7.3 1.6.2 1.9-.1.4-.3-.2-.6-1.3-.5-1.1 0-1.4.3-.6.6m65.8.6c.3 1 .9 1.5 1.2 1.2s0-1.1-.7-1.8c-1-.9-1.1-.8-.5.6m90.7-.6c.9.2 2.5.2 3.5 0 .9-.3.1-.5-1.8-.5s-2.7.2-1.7.5M496.5 418c.3.5.8 1 1.1 1 .2 0 .4-.5.4-1 0-.6-.5-1-1.1-1-.5 0-.7.4-.4 1m11.3-.3c.7.3 1.6.2 1.9-.1.4-.3-.2-.6-1.3-.5-1.1 0-1.4.3-.6.6m4.7.3c-.3.5-.1 1 .4 1 .6 0 1.1-.5 1.1-1 0-.6-.2-1-.4-1-.3 0-.8.4-1.1 1m-119.8 4.3c.6 5.6 1.3 6.1 1.1.8-.1-2.3-.4-4.4-.8-4.6s-.5 1.5-.3 3.8m71-2c-1.1 2.9-.9 4.3.4 3 .6-.6.9-1.9.7-2.9-.3-1.8-.4-1.8-1.1-.1m114.6 2.7c0 2.5.2 3.5.4 2.2.2-1.2.2-3.2 0-4.5-.2-1.2-.4-.2-.4 2.3m1.9-.3c-.2 5.1 1.4 6.2 7.3 5.2l4-.7h-4c-2.2 0-4.5 0-5.2-.1-.6-.1-1.4-2-1.6-4.4l-.4-4.2zm29-1.7c0 1.4.2 1.9.5 1.2.2-.6.2-1.8 0-2.5-.3-.6-.5-.1-.5 1.3m-187.9 3.5c0 2.7.2 3.8.4 2.2.2-1.5.2-3.7 0-5-.2-1.2-.4 0-.4 2.8m74 6c0 5.5.2 8.7.4 7 .3-1.6 1-3.3 1.6-3.7.9-.6.8-.8-.2-.8-1.1 0-1.1-.3 0-1.6.9-1.1 1-1.7.2-2.2-.7-.4-1.3-2.5-1.6-4.7-.2-2.2-.4.5-.4 6m35.1 2.5c0 6.9.1 9.7.3 6.2.2-3.4.2-9 0-12.5-.2-3.4-.3-.6-.3 6.3m-172.2-8.5c0 1.6.2 2.2.5 1.2.2-.9.2-2.3 0-3-.3-.6-.5.1-.5 1.8m48.1 5c0 3.8.2 5.3.4 3.2.2-2 .2-5.2 0-7-.2-1.7-.4-.1-.4 3.8m-40 1.5c0 3.6.2 5 .4 3.2.2-1.7.2-4.7 0-6.5-.2-1.7-.4-.3-.4 3.3m2.7-4.5c0 .8.4 1.5 1 1.5.5 0 .7-.7.4-1.5-.4-.8-.8-1.5-1-1.5s-.4.7-.4 1.5m81.3 6.5c0 4.7.2 6.6.4 4.2.2-2.3.2-6.1 0-8.5-.2-2.3-.4-.4-.4 4.3m-27.1-4c0 1.9.2 2.7.5 1.7.2-.9.2-2.5 0-3.5-.3-.9-.5-.1-.5 1.8m-51.1-1.6c.7.7 18.9.9 19.6.2.3-.3-4-.6-9.7-.6s-10.1.2-9.9.4m76.2 6.1c0 3.8.2 5.3.4 3.2.2-2 .2-5.2 0-7-.2-1.7-.4-.1-.4 3.8m16.1-4.8c-1.2 2.9-1 4.6.6 5 1.3.4 1.3.3 0-.6-.8-.6-1-1.1-.4-1.1s1.2-1.1 1.2-2.5c0-3-.3-3.1-1.4-.8m49.1-.6c-.4.6-.5 1.2-.2 1.5.2.3.7-.2 1-1.1.7-1.7.1-2-.8-.4m-162.2 1.6c0 .8.5.9 1.1.4.6-.4 1.8-1.1 2.6-1.4s.3-.5-1.1-.4-2.6.7-2.6 1.4"/><path d="M393 429.2c0 1-2.6 1.3-9.7 1.2-7.2-.1-7.8 0-2.3.3 4.1.2 8.2.6 9 1 3.2 1.3 4 1.1 4-1.3 0-1.3-.2-2.4-.5-2.4s-.5.6-.5 1.2m-56.6 1.2c-.4 1-.2 2.2.4 2.8.8.8 1.3.7 1.8-.6.4-1 .2-2.2-.4-2.8-.8-.8-1.3-.7-1.8.6m1.3 1.8c-.3.8-.6.5-.6-.6-.1-1.1.2-1.7.5-1.3.3.3.4 1.2.1 1.9m30.8-2.2c-.3.5-.1 1.8.5 2.7.9 1.5 1 1.4.4-.6-.4-1.7-.3-2.1.6-1.6q1.35.75.6-.3c-.9-1.5-1.3-1.5-2.1-.2m211.8.3c0 .8 1.3 1.3 3.1 1.4 1.9.1 2.3-.1 1.1-.4-1.1-.3-2.5-.9-3.1-1.4-.7-.5-1.1-.4-1.1.4m-16.2 1.7c-.2 1.4-.4 3.4-.7 4.5-.5 2.7 1.7 7 2.8 5.3 1.5-2.4.9-5.1-.9-4.4-1.5.5-1.5.4.1-.9 1.1-.8 1.5-1.5.9-1.5-.7 0-1.4-1.2-1.6-2.8-.4-2.6-.4-2.6-.6-.2m26.7-1.3c.6.2 1.8.2 2.5 0 .6-.3.1-.5-1.3-.5s-1.9.2-1.2.5m25 0c.7.3 1.6.2 1.9-.1.4-.3-.2-.6-1.3-.5-1.1 0-1.4.3-.6.6m10.2 1.2c0 .6.4 1.3 1 1.6s.7-.1.4-.9c-.7-1.8-1.4-2.1-1.4-.7m-204.9 1.7c0 1.1.3 1.4.6.6.3-.7.2-1.6-.1-1.9-.3-.4-.6.2-.5 1.3m123.2 3.4c0 2.5.2 3.5.4 2.2.2-1.2.2-3.2 0-4.5-.2-1.2-.4-.2-.4 2.3m-151.6-1.5c-.4.8-.3 1.6.1 1.9s.9-.4.9-1.5c.2-2.3-.3-2.5-1-.4m236.4.1c0 1.1.3 1.4.6.6.3-.7.2-1.6-.1-1.9-.3-.4-.6.2-.5 1.3m-165.9 2c-.1 1.3 0 2.4.2 2.4.7 0 1.4-4 .7-4.4-.4-.3-.8.6-.9 2m168-.1c0 1.6.2 2.2.5 1.2.2-.9.2-2.3 0-3-.3-.6-.5.1-.5 1.8m-52.9 3.5c0 3 .2 4.3.4 2.7.2-1.5.2-3.9 0-5.5-.2-1.5-.4-.2-.4 2.8m-186.3.5c0 .8.2 1.5.4 1.5s.6-.7 1-1.5c.3-.8.1-1.5-.4-1.5-.6 0-1 .7-1 1.5m235.5-.5c-.4.6-1.2.7-1.8.3-.7-.4-.6 0 .2 1 .7.9 1.9 1.7 2.5 1.6.6 0 .6-.3-.2-.6-1-.4-1-.8-.1-1.9.6-.8.9-1.4.6-1.4s-.9.5-1.2 1m-205 .9c-.3.5-.2 1.2.3 1.5s.9-.1.9-.9c0-1.7-.3-1.9-1.2-.6m160 .2c-.4.6-.4 1.3-.1 1.6.3.4.6.1.6-.6s.5-.9 1.2-.5.8.3.4-.4c-.9-1.5-1.3-1.5-2.1-.1m-176.7 3.6c.6.2 1.8.2 2.5 0 .6-.3.1-.5-1.3-.5s-1.9.2-1.2.5m24.5 0c1.5.2 3.9.2 5.5 0 1.5-.2.2-.4-2.8-.4s-4.3.2-2.7.4m135.5 0c.7.3 1.6.2 1.9-.1.4-.3-.2-.6-1.3-.5-1.1 0-1.4.3-.6.6m15.5 0c.9.2 2.3.2 3 0 .6-.3-.1-.5-1.8-.5-1.6 0-2.2.2-1.2.5"/></g><path fill="#BF8080" fill-opacity=".2" d="M492.3 255.7c.9.2 2.5.2 3.5 0 .9-.3.1-.5-1.8-.5s-2.7.2-1.7.5M546.2 432c0 1.4.2 1.9.5 1.2.2-.6.2-1.8 0-2.5-.3-.6-.5-.1-.5 1.3m-94.1 11.6c0 1.1.3 1.4.6.6.3-.7.2-1.6-.1-1.9-.3-.4-.6.2-.5 1.3m128.2 4.1c.9.2 2.5.2 3.5 0 .9-.3.1-.5-1.8-.5s-2.7.2-1.7.5"/><path fill="#BF8080" fill-opacity=".5" d="M359.8 121.7c1.2.2 3.2.2 4.5 0 1.2-.2.2-.4-2.3-.4s-3.5.2-2.2.4m40 0c1.8.2 4.5.2 6 0s0-.4-3.3-.4-4.5.2-2.7.4m16 0c.7.3 1.6.2 1.9-.1.4-.3-.2-.6-1.3-.5-1.1 0-1.4.3-.6.6m76.9 0c1.8.2 5 .2 7 0 2.1-.2.7-.4-3.2-.4-3.8 0-5.5.2-3.8.4m109.1 0c.7.3 1.6.2 1.9-.1.4-.3-.2-.6-1.3-.5-1.1 0-1.4.3-.6.6m-117 164c.7.3 1.6.2 1.9-.1.4-.3-.2-.6-1.3-.5-1.1 0-1.4.3-.6.6M332.1 422.6c0 1.1.3 1.4.6.6.3-.7.2-1.6-.1-1.9-.3-.4-.6.2-.5 1.3m.1 15.4c0 1.9.2 2.7.5 1.7.2-.9.2-2.5 0-3.5-.3-.9-.5-.1-.5 1.8"/></svg>