<svg xmlns="http://www.w3.org/2000/svg" version="1.0" viewBox="0 0 702 399"><path fill="#BF0000" fill-opacity=".1" d="M143.7 20.7c1.8.2 5 .2 7 0 2.1-.2.7-.4-3.2-.4-3.8 0-5.5.2-3.8.4m33.6 0c.9.2 2.5.2 3.5 0 .9-.3.1-.5-1.8-.5s-2.7.2-1.7.5m29.5 0c2.3.2 5.9.2 8 0 2-.2.1-.4-4.3-.4s-6.1.2-3.7.4m338.9 0c1.8.2 5 .2 7 0 2.1-.2.7-.4-3.2-.4-3.8 0-5.5.2-3.8.4m113.6 3.8c1.2.6 2.4.8 2.7.4s1.4-.9 2.5-1.1c1.1-.3-.1-.5-2.7-.5-4.3 0-4.5.1-2.5 1.2m-1.5 4.2c.7.3 1.6.2 1.9-.1.4-.3-.2-.6-1.3-.5-1.1 0-1.4.3-.6.6m3.4 6.3c0 1.9.2 2.7.5 1.7.2-.9.2-2.5 0-3.5-.3-.9-.5-.1-.5 1.8M274.4 60c0 5.2.1 7.4.3 4.7.2-2.6.2-6.8 0-9.5-.2-2.6-.3-.4-.3 4.8M636 52.4c0 .2.8 1 1.8 1.7 1.5 1.3 1.6 1.2.3-.4s-2.1-2.1-2.1-1.3M274.3 74.5c0 2.7.2 3.8.4 2.2.2-1.5.2-3.7 0-5-.2-1.2-.4 0-.4 2.8m341.2-.5c1 1.1 2 2 2.3 2s-.3-.9-1.3-2-2-2-2.3-2 .3.9 1.3 2m-341.1 52c0 17.9.2 25.2.3 16.2.2-8.9.2-23.5 0-32.5-.1-8.9-.3-1.6-.3 16.3m76.4-23.3c5.7.2 14.7.2 20 0 5.3-.1.7-.3-10.3-.3s-15.4.2-9.7.3m-297.7 1.9c0 1.1.3 1.4.6.6.3-.7.2-1.6-.1-1.9-.3-.4-.6.2-.5 1.3m120.7 5.1c10.1.2 26.3.2 36 0 9.7-.1 1.5-.2-18.3-.2s-27.8.1-17.7.2M82.2 115c0 1.4.2 1.9.5 1.2.2-.6.2-1.8 0-2.5-.3-.6-.5-.1-.5 1.3m310.9 3.6c0 1.1.3 1.4.6.6.3-.7.2-1.6-.1-1.9-.3-.4-.6.2-.5 1.3m292 26c0 1.1.3 1.4.6.6.3-.7.2-1.6-.1-1.9-.3-.4-.6.2-.5 1.3M656.2 160c0 1.4.2 1.9.5 1.2.2-.6.2-1.8 0-2.5-.3-.6-.5-.1-.5 1.3m29 12c0 1.4.2 1.9.5 1.2.2-.6.2-1.8 0-2.5-.3-.6-.5-.1-.5 1.3m-236.2-.6c0 .2.8 1 1.8 1.7 1.5 1.3 1.6 1.2.3-.4s-2.1-2.1-2.1-1.3m-66.2 12.3c.7.3 1.6.2 1.9-.1.4-.3-.2-.6-1.3-.5-1.1 0-1.4.3-.6.6m76.9 2.4c.7.7 1.5 1 1.8.7s-.2-.9-1.2-1.2c-1.4-.6-1.5-.5-.6.5m122.2 7.6-3.4 3.8 3.8-3.4c3.4-3.3 4.2-4.1 3.4-4.1-.2 0-1.9 1.7-3.8 3.7m-403.6 14c2 .2 5.4.2 7.5 0 2-.2.3-.4-3.8-.4s-5.8.2-3.7.4m368.5 0c1.2.2 3.2.2 4.5 0 1.2-.2.2-.4-2.3-.4s-3.5.2-2.2.4M82.4 239.5c0 14.8.2 21.1.3 13.8.2-7.2.2-19.4 0-27-.1-7.6-.3-1.7-.3 13.2m191.7-2.9c0 1.1.3 1.4.6.6.3-.7.2-1.6-.1-1.9-.3-.4-.6.2-.5 1.3m-7.2 5.1c-1.3 1.6-1.2 1.7.4.4.9-.7 1.7-1.5 1.7-1.7 0-.8-.8-.3-2.1 1.3m7.2-.1c0 1.1.3 1.4.6.6.3-.7.2-1.6-.1-1.9-.3-.4-.6.2-.5 1.3m341.8 1.1c-1.3 1.6-1.2 1.7.4.4s2.1-2.1 1.3-2.1c-.2 0-1 .8-1.7 1.7m40 1c-1.3 1.6-1.2 1.7.4.4.9-.7 1.7-1.5 1.7-1.7 0-.8-.8-.3-2.1 1.3M274.4 263l.1 3.5h113l-56.2-.2-56.2-.3-.4-3.3c-.4-3.2-.4-3.2-.3.3m362 1.2-1.9 2.3 2.3-1.9c2.1-1.8 2.7-2.6 1.9-2.6-.2 0-1.2 1-2.3 2.2m-173.5 2.1c.4.4 21.6.6 47.2.5l46.4-.3-47.2-.5c-26-.3-46.9-.2-46.4.3m-375.6.4c.9.2 2.3.2 3 0 .6-.3-.1-.5-1.8-.5-1.6 0-2.2.2-1.2.5m33.9 0c16.4.2 43.2.2 59.5 0 16.4-.1 3-.2-29.7-.2s-46.1.1-29.8.2m286.6 0c1.2.2 3.2.2 4.5 0 1.2-.2.2-.4-2.3-.4s-3.5.2-2.2.4m-325.1 30c15 .2 39.6.2 54.5 0 15-.1 2.8-.2-27.2-.2s-42.2.1-27.3.2m396.1 0c11.6.2 30.8.2 42.5 0 11.6-.1 2.1-.2-21.3-.2s-32.9.1-21.2.2m-154.5 48.8c0 2.7.2 3.8.4 2.2.2-1.5.2-3.7 0-5-.2-1.2-.4 0-.4 2.8m7.9-2c0 1.6.2 2.2.5 1.2.2-.9.2-2.3 0-3-.3-.6-.5.1-.5 1.8m86.1 4c0 3.8.2 5.3.4 3.2.2-2 .2-5.2 0-7-.2-1.7-.4-.1-.4 3.8m23.9-4.5c0 1.4.2 1.9.5 1.2.2-.6.2-1.8 0-2.5-.3-.6-.5-.1-.5 1.3m14.1 3.5c0 3.3.2 4.5.4 2.7s.2-4.5 0-6-.4 0-.4 3.3m-6.3 12.2c-.3 9.5-.2 16.9.3 16.4.4-.4.6-8.1.5-17.2l-.3-16.4zm-70.8-6.7c0 1.4.2 1.9.5 1.2.2-.6.2-1.8 0-2.5-.3-.6-.5-.1-.5 1.3m-117.7 1-7 .6 6.7.2c3.7.1 7-.3 7.3-.8.3-.6.5-.9.3-.8s-3.4.4-7.3.8m43.8 3.5c0 2.7.2 3.8.4 2.2.2-1.5.2-3.7 0-5-.2-1.2-.4 0-.4 2.8m107 3.5c0 4.1.2 5.8.4 3.7.2-2 .2-5.4 0-7.5-.2-2-.4-.3-.4 3.8m-130 .5c0 2.7.2 3.8.4 2.2.2-1.5.2-3.7 0-5-.2-1.2-.4 0-.4 2.8m96.9 6.5c0 1.9.2 2.7.5 1.7.2-.9.2-2.5 0-3.5-.3-.9-.5-.1-.5 1.8m-54.9 2.5c0 2.7.2 3.8.4 2.2.2-1.5.2-3.7 0-5-.2-1.2-.4 0-.4 2.8m-12.5-.8c1.2.2 3 .2 4 0 .9-.3-.1-.5-2.3-.4-2.2 0-3 .2-1.7.4m155.5 0c.9.2 2.3.2 3 0 .6-.3-.1-.5-1.8-.5-1.6 0-2.2.2-1.2.5m-49.3 3.2c0 1.7.4 3.2.8 3.5.4.2.6-1.1.4-3-.5-4.2-1.2-4.5-1.2-.5m7.6 2.8c-.6 1.4-.5 1.5.5.6.7-.7 1-1.5.7-1.8s-.9.2-1.2 1.2m-212.8.5c.6.6 1.8.8 2.8.6 1.4-.3 1.2-.5-.9-1-1.9-.3-2.5-.2-1.9.4m128 .5c.7.3 1.6.2 1.9-.1.4-.3-.2-.6-1.3-.5-1.1 0-1.4.3-.6.6"/><path fill="#BF0000" fill-opacity=".2" d="M159.3 20.7c3.1.2 8.3.2 11.5 0 3.1-.2.5-.3-5.8-.3s-8.9.1-5.7.3m28 0c3.2.2 8.1.2 11 0s.3-.3-5.8-.3c-6 0-8.4.1-5.2.3m112 0c45 .2 118.4.2 163 0 44.7-.1 7.9-.2-81.8-.2-89.6 0-126.2.1-81.2.2m263.5 1c.7.3 1.6.2 1.9-.1.4-.3-.2-.6-1.3-.5-1.1 0-1.4.3-.6.6m97.9 6.5c.7 4.4 1.4 5 1.1.9-.1-1.8-.5-3.4-.9-3.7-.4-.2-.5 1.1-.2 2.8m15.9 7.3c.4.8.8 1.5 1 1.5s.4-.7.4-1.5-.4-1.5-1-1.5c-.5 0-.7.7-.4 1.5M83.4 45.2l-1.9 2.3 2.3-1.9c2.1-1.8 2.7-2.6 1.9-2.6-.2 0-1.2 1-2.3 2.2m-6.5 6.5c-1.3 1.6-1.2 1.7.4.4.9-.7 1.7-1.5 1.7-1.7 0-.8-.8-.3-2.1 1.3M640.5 57c1 1.1 2 2 2.3 2s-.3-.9-1.3-2-2-2-2.3-2 .3.9 1.3 2m-203 7c1 1.1 2 2 2.3 2s-.3-.9-1.3-2-2-2-2.3-2 .3.9 1.3 2m186 17c1 1.1 2 2 2.3 2s-.3-.9-1.3-2-2-2-2.3-2 .3.9 1.3 2M53.1 107.6c0 1.1.3 1.4.6.6.3-.7.2-1.6-.1-1.9-.3-.4-.6.2-.5 1.3m181.2 2.1c4.3.2 11 .2 15 0 4-.1.5-.3-7.8-.3-8.2 0-11.5.2-7.2.3m314.5 0c.6.2 1.8.2 2.5 0 .6-.3.1-.5-1.3-.5s-1.9.2-1.2.5m-466.7 1.9c0 1.1.3 1.4.6.6.3-.7.2-1.6-.1-1.9-.3-.4-.6.2-.5 1.3m66 6c0 1.1.3 1.4.6.6.3-.7.2-1.6-.1-1.9-.3-.4-.6.2-.5 1.3m-66 1c0 1.1.3 1.4.6.6.3-.7.2-1.6-.1-1.9-.3-.4-.6.2-.5 1.3m356.8 24.1c-1.3 1.6-1.2 1.7.4.4s2.1-2.1 1.3-2.1c-.2 0-1 .8-1.7 1.7m246.2 4.9c0 1.1.3 1.4.6.6.3-.7.2-1.6-.1-1.9-.3-.4-.6.2-.5 1.3m-28.9 7.9c0 1.6.2 2.2.5 1.2.2-.9.2-2.3 0-3-.3-.6-.5.1-.5 1.8M263 157.3c0 .2 1.5 1.6 3.3 3.3l3.2 2.9-2.9-3.3c-2.8-3-3.6-3.7-3.6-2.9m393.1 6.3c0 1.1.3 1.4.6.6.3-.7.2-1.6-.1-1.9-.3-.4-.6.2-.5 1.3m29.1 4.4c0 1.4.2 1.9.5 1.2.2-.6.2-1.8 0-2.5-.3-.6-.5-.1-.5 1.3m-342.4 15.7c1.2.2 3 .2 4 0 .9-.3-.1-.5-2.3-.4-2.2 0-3 .2-1.7.4m31 0c1.8.2 4.5.2 6 0s0-.4-3.3-.4-4.5.2-2.7.4m23.4 14.8c0 1.6.2 2.2.5 1.2.2-.9.2-2.3 0-3-.3-.6-.5.1-.5 1.8m-186.1 2.1c0 1.1.3 1.4.6.6.3-.7.2-1.6-.1-1.9-.3-.4-.6.2-.5 1.3m-128.7 7.8c-.3.8-.4 2.3-.1 3.3q.45 1.8.6-.9l.1-2.8 46.3-.3 46.2-.2-46.3-.3c-39.5-.2-46.3 0-46.8 1.2m110.9-.7c2.6.2 6.7.2 9 0s.2-.3-4.8-.3c-4.9 0-6.8.1-4.2.3m341 0c2 .2 5.4.2 7.5 0 2-.2.3-.4-3.8-.4s-5.8.2-3.7.4m88.6 29c-1.3 1.6-1.2 1.7.4.4s2.1-2.1 1.3-2.1c-.2 0-1 .8-1.7 1.7m-412.1 30c.6.2 1.8.2 2.5 0 .6-.3.1-.5-1.3-.5s-1.9.2-1.2.5m41.1 76.5c.4 2.8.6 2.9.9.9.2-1.3 0-2.7-.5-3.2-.6-.6-.7.3-.4 2.3m119.4 2.8c0 3 .2 4.3.4 2.7.2-1.5.2-3.9 0-5.5-.2-1.5-.4-.2-.4 2.8m71 6c0 4.1.2 5.8.4 3.7.2-2 .2-5.4 0-7.5-.2-2-.4-.3-.4 3.8m-109.9 8c0 8 .2 11.2.3 7.2.2-3.9.2-10.5 0-14.5-.1-3.9-.3-.7-.3 7.3m-92.2-8c0 1.4.2 1.9.5 1.2.2-.6.2-1.8 0-2.5-.3-.6-.5-.1-.5 1.3m84.1 5.5c0 4.4.2 6.1.4 3.7.2-2.3.2-5.9 0-8-.2-2-.4-.1-.4 4.3m132.1 5.5c0 6.3.1 8.9.3 5.7.2-3.1.2-8.3 0-11.5-.2-3.1-.3-.5-.3 5.8m-38.1-1.5c0 4.4.2 6.1.4 3.7.2-2.3.2-5.9 0-8-.2-2-.4-.1-.4 4.3m8.1 2c0 5.5.1 7.6.3 4.7s.2-7.4 0-10-.3-.2-.3 5.3m54.7-5.9c0 1.1.3 1.4.6.6.3-.7.2-1.6-.1-1.9-.3-.4-.6.2-.5 1.3m-17.1 7.3c0 1.7.4 3.2.8 3.5.4.2.6-1.1.4-3-.5-4.2-1.2-4.5-1.2-.5m-156.2 3.8c.7.3 1.6.2 1.9-.1.4-.3-.2-.6-1.3-.5-1.1 0-1.4.3-.6.6m-34.3 6.3-3 .8 2.7.1c1.5 0 3-.4 3.3-.9.3-.6.5-.9.3-.9-.2.1-1.6.5-3.3.9m206 0c-1.6.7-1.7.9-.3.9.9.1 2-.4 2.3-.9.7-1.1.7-1.1-2 0m-193.7.7c.6.2 1.8.2 2.5 0 .6-.3.1-.5-1.3-.5s-1.9.2-1.2.5m24 0c1.8.2 4.5.2 6 0s0-.4-3.3-.4-4.5.2-2.7.4m111.5 0c.9.2 2.3.2 3 0 .6-.3-.1-.5-1.8-.5-1.6 0-2.2.2-1.2.5m24.5 0c.6.2 1.8.2 2.5 0 .6-.3.1-.5-1.3-.5s-1.9.2-1.2.5m14 0c1.2.2 3 .2 4 0 .9-.3-.1-.5-2.3-.4-2.2 0-3 .2-1.7.4m14 0c.7.3 1.6.2 1.9-.1.4-.3-.2-.6-1.3-.5-1.1 0-1.4.3-.6.6"/><path fill="#BF0000" fill-opacity=".3" d="M682.3 33c0 4.7.2 6.6.4 4.2.2-2.3.2-6.1 0-8.5-.2-2.3-.4-.4-.4 4.3M79.9 48.7c-1.3 1.6-1.2 1.7.4.4.9-.7 1.7-1.5 1.7-1.7 0-.8-.8-.3-2.1 1.3M643 59.3c0 .2 1.5 1.6 3.3 3.3l3.2 2.9-2.9-3.3c-2.8-3-3.6-3.7-3.6-2.9m-542.1 9.4-2.4 2.8 2.8-2.4c2.5-2.3 3.2-3.1 2.4-3.1-.2 0-1.4 1.2-2.8 2.7M627.5 85c1 1.1 2 2 2.3 2s-.3-.9-1.3-2-2-2-2.3-2 .3.9 1.3 2m-288.3 21.5c0 1.6.2 2.2.5 1.2.2-.9.2-2.3 0-3-.3-.6-.5.1-.5 1.8m49.3.5c1 1.1 2 2 2.3 2s-.3-.9-1.3-2-2-2-2.3-2 .3.9 1.3 2m-335.2 6.5c0 2.7.2 3.8.4 2.2.2-1.5.2-3.7 0-5-.2-1.2-.4 0-.4 2.8m479-3.8c.9.2 2.3.2 3 0 .6-.3-.1-.5-1.8-.5-1.6 0-2.2.2-1.2.5m9.5 0c1.2.2 3.2.2 4.5 0 1.2-.2.2-.4-2.3-.4s-3.5.2-2.2.4M339.2 127c0 1.4.2 1.9.5 1.2.2-.6.2-1.8 0-2.5-.3-.6-.5-.1-.5 1.3m15.1 3.7c4.8.2 12.5.2 17 0 4.5-.1.6-.3-8.8-.3-9.3 0-13 .2-8.2.3m330.9 20.8c0 1.6.2 2.2.5 1.2.2-.9.2-2.3 0-3-.3-.6-.5.1-.5 1.8m-29.1.1c0 1.1.3 1.4.6.6.3-.7.2-1.6-.1-1.9-.3-.4-.6.2-.5 1.3M96 157.3c0 .2 1.5 1.6 3.3 3.3l3.2 2.9-2.9-3.3c-2.8-3-3.6-3.7-3.6-2.9m589.2 6.7c0 1.4.2 1.9.5 1.2.2-.6.2-1.8 0-2.5-.3-.6-.5-.1-.5 1.3m-29.1 2.6c0 1.1.3 1.4.6.6.3-.7.2-1.6-.1-1.9-.3-.4-.6.2-.5 1.3m-302.3 17.1c3.4.2 8.8.2 12 0 3.1-.2.3-.3-6.3-.3s-9.2.1-5.7.3m-14.6 3.3c0 1.4.2 1.9.5 1.2.2-.6.2-1.8 0-2.5-.3-.6-.5-.1-.5 1.3m287.7 45.7-2.4 2.8 2.8-2.4c1.5-1.4 2.7-2.6 2.7-2.8 0-.8-.8-.1-3.1 2.4m-179.5 19.5-1.9 2.3 2.3-1.9c2.1-1.8 2.7-2.6 1.9-2.6-.2 0-1.2 1-2.3 2.2m200.5.5c-1.3 1.6-1.2 1.7.4.4s2.1-2.1 1.3-2.1c-.2 0-1 .8-1.7 1.7m-149.6 87c.9.2 2.3.2 3 0 .6-.3-.1-.5-1.8-.5-1.6 0-2.2.2-1.2.5m-76.5 1c.6.2 1.8.2 2.5 0 .6-.3.1-.5-1.3-.5s-1.9.2-1.2.5m-124.5 6.8c0 2.7.2 3.8.4 2.2.2-1.5.2-3.7 0-5-.2-1.2-.4 0-.4 2.8m182.2-1.5c-1.6.7-1.7.9-.3.9.9.1 2-.4 2.3-.9.7-1.1.7-1.1-2 0m-227.2 3.5c0 2.2.2 3 .4 1.7.2-1.2.2-3 0-4-.3-.9-.5.1-.4 2.3m24 1c0 2.7.2 3.8.4 2.2.2-1.5.2-3.7 0-5-.2-1.2-.4 0-.4 2.8m188 0c0 2.2.2 3 .4 1.7.2-1.2.2-3 0-4-.3-.9-.5.1-.4 2.3m-97.2 1.1c0 1.1.3 1.4.6.6.3-.7.2-1.6-.1-1.9-.3-.4-.6.2-.5 1.3m4.3 9.4c0 5.8.1 8.1.3 5.2.2-2.8.2-7.6 0-10.5-.2-2.8-.3-.5-.3 5.3m-119 .4c-.3.7-.4 3.3-.1 5.7.3 4.4.4 4.4.5-.8l.2-5.2 7.8-.4 7.7-.3-7.8-.2c-5.8-.2-7.9.1-8.3 1.2m44.9 6.6c0 3 .2 4.3.4 2.7.2-1.5.2-3.9 0-5.5-.2-1.5-.4-.2-.4 2.8m-21 2c0 2.5.2 3.5.4 2.2.2-1.2.2-3.2 0-4.5-.2-1.2-.4-.2-.4 2.3m13.8 2.6c0 1.1.3 1.4.6.6.3-.7.2-1.6-.1-1.9-.3-.4-.6.2-.5 1.3m83.7 2.1c.7.3 1.6.2 1.9-.1.4-.3-.2-.6-1.3-.5-1.1 0-1.4.3-.6.6m-73.5 1c.9.2 2.5.2 3.5 0 .9-.3.1-.5-1.8-.5s-2.7.2-1.7.5m27.5 0c.6.2 1.8.2 2.5 0 .6-.3.1-.5-1.3-.5s-1.9.2-1.2.5m139 0c1.2.2 3.2.2 4.5 0 1.2-.2.2-.4-2.3-.4s-3.5.2-2.2.4"/><path fill="#BF0000" fill-opacity=".4" d="M650.3 35.5c0 3.3.2 4.5.4 2.7s.2-4.5 0-6-.4 0-.4 3.3M168.8 49.7c12.7.2 33.7.2 46.5 0 12.7-.1 2.3-.2-23.3-.2s-36 .1-23.2.2m81.5 0c2.6.2 6.7.2 9 0s.2-.3-4.8-.3c-4.9 0-6.8.1-4.2.3m65.5 0c10 .2 26.4.2 36.5 0 10-.1 1.8-.2-18.3-.2s-28.3.1-18.2.2m68 0c.7.3 1.6.2 1.9-.1.4-.3-.2-.6-1.3-.5-1.1 0-1.4.3-.6.6m7 0c1.7.2 4.7.2 6.5 0 1.7-.2.3-.4-3.3-.4s-5 .2-3.2.4m12 0c.6.2 1.8.2 2.5 0 .6-.3.1-.5-1.3-.5s-1.9.2-1.2.5m97.9 0c9.4.2 25.2.2 35 0 9.8-.1 2.1-.2-17.2-.2-19.2-.1-27.3.1-17.8.2m-46.4 55.8c0 2.2.2 3 .4 1.7.2-1.2.2-3 0-4-.3-.9-.5.1-.4 2.3m-115 11.5c0 4.7.2 6.6.4 4.2.2-2.3.2-6.1 0-8.5-.2-2.3-.4-.4-.4 4.3m197.5-7.3c.6.2 1.8.2 2.5 0 .6-.3.1-.5-1.3-.5s-1.9.2-1.2.5m-9.7 5.9c0 1.1.3 1.4.6.6.3-.7.2-1.6-.1-1.9-.3-.4-.6.2-.5 1.3M53.5 206c0 48.7.1 68.6.2 44.3.2-24.4.2-64.2 0-88.5-.1-24.4-.2-4.5-.2 44.2m28.6-82.4c0 1.1.3 1.4.6.6.3-.7.2-1.6-.1-1.9-.3-.4-.6.2-.5 1.3m499.9.9c1.3 1.4 2.6 2.5 2.8 2.5.3 0-.5-1.1-1.8-2.5s-2.6-2.5-2.8-2.5c-.3 0 .5 1.1 1.8 2.5M685.3 158c0 2.5.2 3.5.4 2.2.2-1.2.2-3.2 0-4.5-.2-1.2-.4-.2-.4 2.3m-345.9 41.5c0 6 .1 8.4.3 5.2s.2-8.1 0-11-.3-.3-.3 5.8m187.7 5.1c0 1.1.3 1.4.6.6.3-.7.2-1.6-.1-1.9-.3-.4-.6.2-.5 1.3m-179.8 9.1c3.1.2 8.3.2 11.5 0 3.1-.2.5-.3-5.8-.3s-8.9.1-5.7.3m24 0c2.6.2 6.7.2 9 0s.2-.3-4.8-.3c-4.9 0-6.8.1-4.2.3m247.6 27c-1.3 1.6-1.2 1.7.4.4s2.1-2.1 1.3-2.1c-.2 0-1 .8-1.7 1.7m26 15c-1.3 1.6-1.2 1.7.4.4s2.1-2.1 1.3-2.1c-.2 0-1 .8-1.7 1.7m-89.1 40c.6.2 1.8.2 2.5 0 .6-.3.1-.5-1.3-.5s-1.9.2-1.2.5m-307 45c.7.3 1.6.2 1.9-.1.4-.3-.2-.6-1.3-.5-1.1 0-1.4.3-.6.6m20.5.8c-.3.9-.3 1.9.1 2.2.3.4.6-.1.6-1 0-.8 1-1.8 2.3-2l2.2-.4-2.3-.2c-1.2 0-2.5.6-2.9 1.4m28.2-.4c-1.1 1.6-.1 1.9 1.3.3.7-.8.8-1.4.3-1.4s-1.3.5-1.6 1.1m75.3-.4c.7.3 1.6.2 1.9-.1.4-.3-.2-.6-1.3-.5-1.1 0-1.4.3-.6.6m15 0c.7.3 1.6.2 1.9-.1.4-.3-.2-.6-1.3-.5-1.1 0-1.4.3-.6.6m16.5 8.3c0 4.1.2 5.8.4 3.7.2-2 .2-5.4 0-7.5-.2-2-.4-.3-.4 3.8m-113.9 8c0 6.9.1 9.7.3 6.2.2-3.4.2-9 0-12.5-.2-3.4-.3-.6-.3 6.3m-78.3-9.4c0 1.1.3 1.4.6.6.3-.7.2-1.6-.1-1.9-.3-.4-.6.2-.5 1.3m10.7-.9c1.2.2 3 .2 4 0 .9-.3-.1-.5-2.3-.4-2.2 0-3 .2-1.7.4m116.5 6.3c0 4.1.2 5.8.4 3.7.2-2 .2-5.4 0-7.5-.2-2-.4-.3-.4 3.8m10.5-6.3c1.2.2 3.2.2 4.5 0 1.2-.2.2-.4-2.3-.4s-3.5.2-2.2.4m32 0c1.2.2 3 .2 4 0 .9-.3-.1-.5-2.3-.4-2.2 0-3 .2-1.7.4m87 0c1.7.2 4.7.2 6.5 0 1.7-.2.3-.4-3.3-.4s-5 .2-3.2.4m-171.5 10.8c0 3.3.2 4.5.4 2.7s.2-4.5 0-6-.4 0-.4 3.3m176.5-2.8c1.2.2 3.2.2 4.5 0 1.2-.2.2-.4-2.3-.4s-3.5.2-2.2.4m-197.5 5.8c0 3.3.2 4.5.4 2.7s.2-4.5 0-6-.4 0-.4 3.3m128 3.5c0 3.6.2 5 .4 3.2.2-1.7.2-4.7 0-6.5-.2-1.7-.4-.3-.4 3.3m72.5-3.3c.6.2 1.8.2 2.5 0 .6-.3.1-.5-1.3-.5s-1.9.2-1.2.5m-137.5 5.8c0 2.7.2 3.8.4 2.2.2-1.5.2-3.7 0-5-.2-1.2-.4 0-.4 2.8m16.5-3.8c.7.3 1.6.2 1.9-.1.4-.3-.2-.6-1.3-.5-1.1 0-1.4.3-.6.6m33 0c.7.3 1.6.2 1.9-.1.4-.3-.2-.6-1.3-.5-1.1 0-1.4.3-.6.6M212.2 371c0 1.4.2 1.9.5 1.2.2-.6.2-1.8 0-2.5-.3-.6-.5-.1-.5 1.3m287.6-1.3c.7.3 1.6.2 1.9-.1.4-.3-.2-.6-1.3-.5-1.1 0-1.4.3-.6.6m-251 5c.7.3 1.6.2 1.9-.1.4-.3-.2-.6-1.3-.5-1.1 0-1.4.3-.6.6"/><path fill="#BF0000" fill-opacity=".5" d="M138.8 21.7c.7.3 1.6.2 1.9-.1.4-.3-.2-.6-1.3-.5-1.1 0-1.4.3-.6.6m418 0c.7.3 1.6.2 1.9-.1.4-.3-.2-.6-1.3-.5-1.1 0-1.4.3-.6.6m109.3 15.9c0 1.1.3 1.4.6.6.3-.7.2-1.6-.1-1.9-.3-.4-.6.2-.5 1.3M142.8 49.7c.6.2 1.8.2 2.5 0 .6-.3.1-.5-1.3-.5s-1.9.2-1.2.5m97 0c1.2.2 3.2.2 4.5 0 1.2-.2.2-.4-2.3-.4s-3.5.2-2.2.4m24 0c.7.3 1.6.2 1.9-.1.4-.3-.2-.6-1.3-.5-1.1 0-1.4.3-.6.6m17 0c3.4.2 8.8.2 12 0 3.1-.2.3-.3-6.3-.3s-9.2.1-5.7.3m91.9 0c1.8.2 5 .2 7 0 2.1-.2.7-.4-3.2-.4-3.8 0-5.5.2-3.8.4m95.6 0c3.2.2 8.1.2 11 0s.3-.3-5.8-.3c-6 0-8.4.1-5.2.3m85.5 0c.6.2 1.8.2 2.5 0 .6-.3.1-.5-1.3-.5s-1.9.2-1.2.5M461.2 61c0 1.9.2 2.7.5 1.7.2-.9.2-2.5 0-3.5-.3-.9-.5-.1-.5 1.8M615 72.4c0 .2.8 1 1.8 1.7 1.5 1.3 1.6 1.2.3-.4s-2.1-2.1-2.1-1.3M527.5 160c0 23.9.1 33.7.2 21.8.2-12 .2-31.6 0-43.6-.1-11.9-.2-2.1-.2 21.8m-66.2-32.5c0 2.2.2 3 .4 1.7.2-1.2.2-3 0-4-.3-.9-.5.1-.4 2.3m135 31c0 2.7.2 3.8.4 2.2.2-1.5.2-3.7 0-5-.2-1.2-.4 0-.4 2.8M449.5 171c1 1.1 2 2 2.3 2s-.3-.9-1.3-2-2-2-2.3-2 .3.9 1.3 2m133.4 20.7c-1.3 1.6-1.2 1.7.4.4s2.1-2.1 1.3-2.1c-.2 0-1 .8-1.7 1.7m-218.1 22c.7.3 1.6.2 1.9-.1.4-.3-.2-.6-1.3-.5-1.1 0-1.4.3-.6.6m96.5 39.8c0 4.4.2 6.1.4 3.7.2-2.3.2-5.9 0-8-.2-2-.4-.1-.4 4.3m90.5 42.2c.6.2 1.8.2 2.5 0 .6-.3.1-.5-1.3-.5s-1.9.2-1.2.5m-339.3 45.4c-.4.6-.4 1.3-.1 1.6.3.4.6.1.6-.5s.8-1.3 1.8-1.5c1.5-.4 1.5-.5 0-.6-.9 0-2 .4-2.3 1m15.3-.4c.7.3 1.6.2 1.9-.1.4-.3-.2-.6-1.3-.5-1.1 0-1.4.3-.6.6m58.5 0c.9.2 2.3.2 3 0 .6-.3-.1-.5-1.8-.5-1.6 0-2.2.2-1.2.5m42.5 0c.7.3 1.6.2 1.9-.1.4-.3-.2-.6-1.3-.5-1.1 0-1.4.3-.6.6m17.5 0c2 .2 5.4.2 7.5 0 2-.2.3-.4-3.8-.4s-5.8.2-3.7.4m31.5 0c1.7.2 4.7.2 6.5 0 1.7-.2.3-.4-3.3-.4s-5 .2-3.2.4m83 0c.7.3 1.6.2 1.9-.1.4-.3-.2-.6-1.3-.5-1.1 0-1.4.3-.6.6m-49.6 2.8c0 1.6.2 2.2.5 1.2.2-.9.2-2.3 0-3-.3-.6-.5.1-.5 1.8m-191.8 3.9c-.3.8-.4 2.9-.2 4.8.3 2.9.4 2.7.8-1.5.5-4.8.3-5.8-.6-3.3m127 0c-.3.8-.4 2.3-.2 3.3q.45 1.65.9-1.5c.6-3.4.2-4.2-.7-1.8m139.8 2.6c0 1.4.2 1.9.5 1.2.2-.6.2-1.8 0-2.5-.3-.6-.5-.1-.5 1.3m-273.8 9c0 5.8.1 8.1.3 5.2.2-2.8.2-7.6 0-10.5-.2-2.8-.3-.5-.3 5.3m254.4-4.3c1.2.2 3 .2 4 0 .9-.3-.1-.5-2.3-.4-2.2 0-3 .2-1.7.4m-243.5 2c.9.2 2.5.2 3.5 0 .9-.3.1-.5-1.8-.5s-2.7.2-1.7.5m126 0c.9.2 2.3.2 3 0 .6-.3-.1-.5-1.8-.5-1.6 0-2.2.2-1.2.5m32.5 0c1.2.2 3 .2 4 0 .9-.3-.1-.5-2.3-.4-2.2 0-3 .2-1.7.4m86.5 4c1.5.2 3.9.2 5.5 0 1.5-.2.2-.4-2.8-.4s-4.3.2-2.7.4m-246.5 2c1.2.2 3 .2 4 0 .9-.3-.1-.5-2.3-.4-2.2 0-3 .2-1.7.4m128 0c1.2.2 3 .2 4 0 .9-.3-.1-.5-2.3-.4-2.2 0-3 .2-1.7.4m32 0c1.2.2 3.2.2 4.5 0 1.2-.2.2-.4-2.3-.4s-3.5.2-2.2.4m-162.6 4.8c0 1.6.2 2.2.5 1.2.2-.9.2-2.3 0-3-.3-.6-.5.1-.5 1.8m127 1.5c0 1.4.2 1.9.5 1.2.2-.6.2-1.8 0-2.5-.3-.6-.5-.1-.5 1.3m-27.1 3.6c0 1.1.3 1.4.6.6.3-.7.2-1.6-.1-1.9-.3-.4-.6.2-.5 1.3m180.7 3.1c.6.2 1.8.2 2.5 0 .6-.3.1-.5-1.3-.5s-1.9.2-1.2.5"/><path fill="#BF0000" fill-opacity=".6" d="M552.8 21.7c.6.2 1.8.2 2.5 0 .6-.3.1-.5-1.3-.5s-1.9.2-1.2.5m95 3c.7.3 1.6.2 1.9-.1.4-.3-.2-.6-1.3-.5-1.1 0-1.4.3-.6.6m4 0c.7.3 1.6.2 1.9-.1.4-.3-.2-.6-1.3-.5-1.1 0-1.4.3-.6.6m14.4 9.3c0 1.4.2 1.9.5 1.2.2-.6.2-1.8 0-2.5-.3-.6-.5-.1-.5 1.3m12.6 7.7c.7.3 1.6.2 1.9-.1.4-.3-.2-.6-1.3-.5-1.1 0-1.4.3-.6.6m-121 8c.6.2 1.8.2 2.5 0 .6-.3.1-.5-1.3-.5s-1.9.2-1.2.5m-96.7 6.9c0 1.1.3 1.4.6.6.3-.7.2-1.6-.1-1.9-.3-.4-.6.2-.5 1.3M638 55.4c0 .2.8 1 1.8 1.7 1.5 1.3 1.6 1.2.3-.4s-2.1-2.1-2.1-1.3M461.4 94c0 16.8.2 23.6.3 15.2.2-8.3.2-22.1 0-30.5-.1-8.3-.3-1.5-.3 15.3m-188 5c0 11.3.2 15.9.3 10.2.2-5.6.2-14.8 0-20.5-.1-5.6-.3-1-.3 10.3m78.4 4.7c5.7.2 14.7.2 20 0 5.3-.1.7-.3-10.3-.3s-15.4.2-9.7.3m109.6 53.8c0 14.8.2 21.1.3 13.8.2-7.2.2-19.4 0-27-.1-7.6-.3-1.7-.3 13.2m-21.5-14.8c-1.3 1.6-1.2 1.7.4.4s2.1-2.1 1.3-2.1c-.2 0-1 .8-1.7 1.7m-166.8 12.9c0 1.1.3 1.4.6.6.3-.7.2-1.6-.1-1.9-.3-.4-.6.2-.5 1.3m.2 6.9c0 2.7.2 3.8.4 2.2.2-1.5.2-3.7 0-5-.2-1.2-.4 0-.4 2.8m188 80c0 2.2.2 3 .4 1.7.2-1.2.2-3 0-4-.3-.9-.5.1-.4 2.3m-188 8.5c0 4.7.2 6.6.4 4.2.2-2.3.2-6.1 0-8.5-.2-2.3-.4-.4-.4 4.3m-10.4-3.3-2.4 2.8 2.8-2.4c2.5-2.3 3.2-3.1 2.4-3.1-.2 0-1.4 1.2-2.8 2.7m198.3 15.8c0 1.6.2 2.2.5 1.2.2-.9.2-2.3 0-3-.3-.6-.5.1-.5 1.8m-377.4 4.2c.7.3 1.6.2 1.9-.1.4-.3-.2-.6-1.3-.5-1.1 0-1.4.3-.6.6m95 28c68.3.2 180.1.2 248.5 0 68.3-.1 12.4-.2-124.3-.2s-192.6.1-124.2.2m40 45c1.8.2 4.5.2 6 0s0-.4-3.3-.4-4.5.2-2.7.4m248.9 0c1.8.2 5 .2 7 0 2.1-.2.7-.4-3.2-.4-3.8 0-5.5.2-3.8.4m-18.6 1.9c0 1.1.3 1.4.6.6.3-.7.2-1.6-.1-1.9-.3-.4-.6.2-.5 1.3m-165.8 3.9c0 2.7.2 3.8.4 2.2.2-1.5.2-3.7 0-5-.2-1.2-.4 0-.4 2.8m-38 2c0 3.3.2 4.5.4 2.7s.2-4.5 0-6-.4 0-.4 3.3m24 0c0 2.2.2 3 .4 1.7.2-1.2.2-3 0-4-.3-.9-.5.1-.4 2.3m142.1 11c0 7.7.2 10.7.3 6.7.2-4 .2-10.3 0-14s-.3-.4-.3 7.3m-65.3-5.9c0 1.1.3 1.4.6.6.3-.7.2-1.6-.1-1.9-.3-.4-.6.2-.5 1.3M245.3 364c0 4.1.2 5.8.4 3.7.2-2 .2-5.4 0-7.5-.2-2-.4-.3-.4 3.8m59 .5c0 2.2.2 3 .4 1.7.2-1.2.2-3 0-4-.3-.9-.5.1-.4 2.3m-35 5c0 2.7.2 3.8.4 2.2.2-1.5.2-3.7 0-5-.2-1.2-.4 0-.4 2.8m227.5 6.2c.7.3 1.6.2 1.9-.1.4-.3-.2-.6-1.3-.5-1.1 0-1.4.3-.6.6"/><path fill="#BF0000" fill-opacity=".7" d="M245.3 21.7c56.6.2 148.8.2 205 0 56.2-.1 10-.2-102.8-.2-112.7 0-158.7.1-102.2.2m417.3 3.2c-.4.5.3.7 1.4.4 2.3-.6 2.6-1.3.6-1.3-.8 0-1.7.4-2 .9m-8.3 9.6c0 3.3.2 4.5.4 2.7s.2-4.5 0-6-.4 0-.4 3.3m9.5 7.2c.7.3 1.6.2 1.9-.1.4-.3-.2-.6-1.3-.5-1.1 0-1.4.3-.6.6M81.4 48.2l-1.9 2.3 2.3-1.9c2.1-1.8 2.7-2.6 1.9-2.6-.2 0-1.2 1-2.3 2.2m192 18.3c0 7.1.1 9.9.3 6.2s.2-9.6 0-13-.3-.4-.3 6.8M644.5 62c2.1 2.2 4.1 4 4.4 4s-1.3-1.8-3.4-4-4.1-4-4.4-4 1.3 1.8 3.4 4m-205 3c1 1.1 2 2 2.3 2s-.3-.9-1.3-2-2-2-2.3-2 .3.9 1.3 2M54.1 106.6c0 1.1.3 1.4.6.6.3-.7.2-1.6-.1-1.9-.3-.4-.6.2-.5 1.3m103.7 4.1c.7.3 1.6.2 1.9-.1.4-.3-.2-.6-1.3-.5-1.1 0-1.4.3-.6.6m115.6 25.8c0 9.9.2 13.8.3 8.7.2-5.1.2-13.2 0-18-.1-4.8-.3-.6-.3 9.3m410.8 9.5c0 1.4.2 1.9.5 1.2.2-.6.2-1.8 0-2.5-.3-.6-.5-.1-.5 1.3M98 160.5c1.3 1.4 2.6 2.5 2.8 2.5.3 0-.5-1.1-1.8-2.5s-2.6-2.5-2.8-2.5c-.3 0 .5 1.1 1.8 2.5m169-.1c0 .2.8 1 1.8 1.7 1.5 1.3 1.6 1.2.3-.4s-2.1-2.1-2.1-1.3m417.1 10.2c0 1.1.3 1.4.6.6.3-.7.2-1.6-.1-1.9-.3-.4-.6.2-.5 1.3m-134.3 36.1c.6.2 1.8.2 2.5 0 .6-.3.1-.5-1.3-.5s-1.9.2-1.2.5M81.2 220c0 1.4.2 1.9.5 1.2.2-.6.2-1.8 0-2.5-.3-.6-.5-.1-.5 1.3m544.3 15.2-4 4.3 4.3-4c3.9-3.6 4.7-4.5 3.9-4.5-.2 0-2.1 1.9-4.2 4.2m-352.9 1.3c.4.8.8 1.5 1 1.5s.4-.7.4-1.5-.4-1.5-1-1.5c-.5 0-.7.7-.4 1.5m.5 5.1c0 1.1.3 1.4.6.6.3-.7.2-1.6-.1-1.9-.3-.4-.6.2-.5 1.3m375.3 9.6-1.9 2.3 2.3-1.9c2.1-1.8 2.7-2.6 1.9-2.6-.2 0-1.2 1-2.3 2.2m-200.5 1.5c-1.3 1.6-1.2 1.7.4.4.9-.7 1.7-1.5 1.7-1.7 0-.8-.8-.3-2.1 1.3m-366.6 6.8c0 2.2.2 3 .4 1.7.2-1.2.2-3 0-4-.3-.9-.5.1-.4 2.3m191.9 2.5c0 1.9.2 2.7.5 1.7.2-.9.2-2.5 0-3.5-.3-.9-.5-.1-.5 1.8m-156.4 5.7c17.2.2 45.1.2 62 0 16.9-.1 2.8-.2-31.3-.2s-47.9.1-30.7.2m192.4 0c19.2.2 50.4.2 69.5 0 19.2-.1 3.5-.2-34.7-.2s-53.9.1-34.8.2m178.1 0c12.5.2 32.9.2 45.5 0 12.5-.1 2.2-.2-22.8-.2s-35.3.1-22.7.2m75.5 27c.7.3 1.6.2 1.9-.1.4-.3-.2-.6-1.3-.5-1.1 0-1.4.3-.6.6M457.2 344c0 1.9.2 2.7.5 1.7.2-.9.2-2.5 0-3.5-.3-.9-.5-.1-.5 1.8m-131.9 4.5c0 3.3.2 4.5.4 2.7s.2-4.5 0-6-.4 0-.4 3.3m37.7-5.1c0 .2.8 1 1.8 1.7 1.5 1.3 1.6 1.2.3-.4s-2.1-2.1-2.1-1.3m86.4 15.6c0 8.5.2 12 .3 7.7.2-4.2.2-11.2 0-15.5-.1-4.2-.3-.7-.3 7.8m-30.1-10c0 2.5.2 3.5.4 2.2.2-1.2.2-3.2 0-4.5-.2-1.2-.4-.2-.4 2.3m-115 4.5c0 4.4.2 6.1.4 3.7.2-2.3.2-5.9 0-8-.2-2-.4-.1-.4 4.3m204.6-5.8c-1.3 1.6-1.2 1.7.4.4s2.1-2.1 1.3-2.1c-.2 0-1 .8-1.7 1.7m-130.8.9c0 1.1.3 1.4.6.6.3-.7.2-1.6-.1-1.9-.3-.4-.6.2-.5 1.3m-94.7 11.9c0 5.5.1 7.6.3 4.7s.2-7.4 0-10-.3-.2-.3 5.3m-38.3-4.9c0 1.1.3 1.4.6.6.3-.7.2-1.6-.1-1.9-.3-.4-.6.2-.5 1.3m24.1 7.4c0 1.4.2 1.9.5 1.2.2-.6.2-1.8 0-2.5-.3-.6-.5-.1-.5 1.3m56.1 3.5c0 3.3.2 4.5.4 2.7s.2-4.5 0-6-.4 0-.4 3.3m180.8-.9c0 1.1.3 1.4.6.6.3-.7.2-1.6-.1-1.9-.3-.4-.6.2-.5 1.3m-86.9 6.4c0 1.4.2 1.9.5 1.2.2-.6.2-1.8 0-2.5-.3-.6-.5-.1-.5 1.3m-148.4 2.7c.7.3 1.6.2 1.9-.1.4-.3-.2-.6-1.3-.5-1.1 0-1.4.3-.6.6m46 0c.7.3 1.6.2 1.9-.1.4-.3-.2-.6-1.3-.5-1.1 0-1.4.3-.6.6"/><g fill="#BF0000" fill-opacity=".8" stroke-opacity=".8" stroke-width="0"><path d="M662.3 31c0 3 .2 4.3.4 2.7.2-1.5.2-3.9 0-5.5-.2-1.5-.4-.2-.4 2.8m-.1 8c0 1.4.2 1.9.5 1.2.2-.6.2-1.8 0-2.5-.3-.6-.5-.1-.5 1.3M103.9 64.7c-1.3 1.6-1.2 1.7.4.4.9-.7 1.7-1.5 1.7-1.7 0-.8-.8-.3-2.1 1.3m-6.5 6.5-1.9 2.3 2.3-1.9c2.1-1.8 2.7-2.6 1.9-2.6-.2 0-1.2 1-2.3 2.2M619 75.4c0 .2.8 1 1.8 1.7 1.5 1.3 1.6 1.2.3-.4s-2.1-2.1-2.1-1.3m-278.8 31.1c0 1.6.2 2.2.5 1.2.2-.9.2-2.3 0-3-.3-.6-.5.1-.5 1.8M54.3 113c0 3 .2 4.3.4 2.7.2-1.5.2-3.9 0-5.5-.2-1.5-.4-.2-.4 2.8m27 2.5c0 3.8.2 5.3.4 3.2.2-2 .2-5.2 0-7-.2-1.7-.4-.1-.4 3.8m97.4-4.8c10.5.2 28.1.2 39 0 10.9-.1 2.3-.2-19.2-.2-21.4 0-30.4.1-19.8.2m69.1 0c.6.2 1.8.2 2.5 0 .6-.3.1-.5-1.3-.5s-1.9.2-1.2.5m5 0c.6.2 1.8.2 2.5 0 .6-.3.1-.5-1.3-.5s-1.9.2-1.2.5m-103.7 6.9c0 1.1.3 1.4.6.6.3-.7.2-1.6-.1-1.9-.3-.4-.6.2-.5 1.3m432.4 7.4c1 1.1 2 2 2.3 2s-.3-.9-1.3-2-2-2-2.3-2 .3.9 1.3 2m-241.1 2.5c.1 1.2.9 2.1 2.1 2.2q2.1.15.3-.3c-.9-.3-1.9-1.3-2.1-2.2q-.45-1.8-.3.3M684.2 150c0 1.4.2 1.9.5 1.2.2-.6.2-1.8 0-2.5-.3-.6-.5-.1-.5 1.3m-26.9 9c0 4.1.2 5.8.4 3.7.2-2 .2-5.4 0-7.5-.2-2-.4-.3-.4 3.8m26.9 7.5c0 1.6.2 2.2.5 1.2.2-.9.2-2.3 0-3-.3-.6-.5.1-.5 1.8M449 169.4c0 .2.8 1 1.8 1.7 1.5 1.3 1.6 1.2.3-.4s-2.1-2.1-2.1-1.3m-108.6 16c-.3.8-.4 2.5-.1 3.8.3 1.8.5 1.6.6-.9.1-3 .4-3.2 4.4-3.6l4.2-.4-4.3-.1c-2.9-.1-4.4.3-4.8 1.2m38.9-.7c.9.2 2.3.2 3 0 .6-.3-.1-.5-1.8-.5-1.6 0-2.2.2-1.2.5m204.6 5c-1.3 1.6-1.2 1.7.4.4s2.1-2.1 1.3-2.1c-.2 0-1 .8-1.7 1.7m-187.7 8.8c0 1.6.2 2.2.5 1.2.2-.9.2-2.3 0-3-.3-.6-.5.1-.5 1.8m-283 8.2c17 .2 44.6.2 61.5 0 17-.1 3.1-.2-30.7-.2s-47.7.1-30.8.2m421.6 0c2.9.2 7.4.2 10 0s.2-.3-5.3-.3-7.6.1-4.7.3M81.3 213c0 3 .2 4.3.4 2.7.2-1.5.2-3.9 0-5.5-.2-1.5-.4-.2-.4 2.8m258.7-2.6c0 .8.4 1.7.9 2 .5.4.7-.3.4-1.4-.6-2.3-1.3-2.6-1.3-.6M81.4 239c0 9.6.2 13.6.3 8.7.2-4.8.2-12.6 0-17.5-.1-4.8-.3-.8-.3 8.8m537.5 2.7-2.4 2.8 2.8-2.4c1.5-1.4 2.7-2.6 2.7-2.8 0-.8-.8-.1-3.1 2.4m-351 1c-1.3 1.6-1.2 1.7.4.4s2.1-2.1 1.3-2.1c-.2 0-1 .8-1.7 1.7m183 7c-1.3 1.6-1.2 1.7.4.4.9-.7 1.7-1.5 1.7-1.7 0-.8-.8-.3-2.1 1.3m-6 6c-1.3 1.6-1.2 1.7.4.4.9-.7 1.7-1.5 1.7-1.7 0-.8-.8-.3-2.1 1.3m197 2c-1.3 1.6-1.2 1.7.4.4s2.1-2.1 1.3-2.1c-.2 0-1 .8-1.7 1.7M81.2 265c0 1.4.2 1.9.5 1.2.2-.6.2-1.8 0-2.5-.3-.6-.5-.1-.5 1.3m129.1 2.7c.9.2 2.3.2 3 0 .6-.3-.1-.5-1.8-.5-1.6 0-2.2.2-1.2.5m345.5 0c.7.3 1.6.2 1.9-.1.4-.3-.2-.6-1.3-.5-1.1 0-1.4.3-.6.6m-54 73c.7.3 1.6.2 1.9-.1.4-.3-.2-.6-1.3-.5-1.1 0-1.4.3-.6.6m-250.5 5.8c0 2.7.2 3.8.4 2.2.2-1.5.2-3.7 0-5-.2-1.2-.4 0-.4 2.8m79.9 11.2c-.2 14.4-.4 16.2-1.9 16.6-1.7.4-1.7.5 0 .6 1 0 2-.5 2.3-1.2.2-.7.3-8.2.1-16.7l-.3-15.5zm112.1-11.2c0 2.7.2 3.8.4 2.2.2-1.5.2-3.7 0-5-.2-1.2-.4 0-.4 2.8m-145.2-1.9c0 1.1.3 1.4.6.6.3-.7.2-1.6-.1-1.9-.3-.4-.6.2-.5 1.3m96.9-1.2c0 .2.8 1 1.8 1.7 1.5 1.3 1.6 1.2.3-.4s-2.1-2.1-2.1-1.3m-22.7 6.6c0 3 .2 4.3.4 2.7.2-1.5.2-3.9 0-5.5-.2-1.5-.4-.2-.4 2.8m85.2 10.7v13.8l11.3.1H480l-11-.3-10.9-.4-.4-13.4-.3-13.5zm5.8-10.2c0 2.2.2 3 .4 1.7.2-1.2.2-3 0-4-.3-.9-.5.1-.4 2.3m-224.1 1c0 1.6.2 2.2.5 1.2.2-.9.2-2.3 0-3-.3-.6-.5.1-.5 1.8m121-.5c0 1.4.2 1.9.5 1.2.2-.6.2-1.8 0-2.5-.3-.6-.5-.1-.5 1.3m6 .5c0 1.6.2 2.2.5 1.2.2-.9.2-2.3 0-3-.3-.6-.5.1-.5 1.8m12 .5c0 1.4.2 1.9.5 1.2.2-.6.2-1.8 0-2.5-.3-.6-.5-.1-.5 1.3M261 354l-8.5.6 8.2.2c4.6.1 8.5-.2 8.8-.8s.5-.9.3-.8-4.1.5-8.8.8m158.4 7.5c0 4.9.1 7.1.3 4.8s.2-6.4 0-9-.3-.8-.3 4.2m-94.1-4c0 2.2.2 3 .4 1.7.2-1.2.2-3 0-4-.3-.9-.5.1-.4 2.3m154.9-.5c0 1.4.2 1.9.5 1.2.2-.6.2-1.8 0-2.5-.3-.6-.5-.1-.5 1.3m-249.4 4.7c.7.3 1.6.2 1.9-.1.4-.3-.2-.6-1.3-.5-1.1 0-1.4.3-.6.6m209.9.4c.7.7 1.5 1 1.8.7s-.2-.9-1.2-1.2c-1.4-.6-1.5-.5-.6.5"/><path d="M463.3 364.5c0 2.2.2 3 .4 1.7.2-1.2.2-3 0-4-.3-.9-.5.1-.4 2.3m-91 2c0 2.7.2 3.8.4 2.2.2-1.5.2-3.7 0-5-.2-1.2-.4 0-.4 2.8m6 0c0 2.2.2 3 .4 1.7.2-1.2.2-3 0-4-.3-.9-.5.1-.4 2.3M251.2 369c0 1.9.2 2.7.5 1.7.2-.9.2-2.5 0-3.5-.3-.9-.5-.1-.5 1.8m59.6.7c1.2.2 3.2.2 4.5 0 1.2-.2.2-.4-2.3-.4s-3.5.2-2.2.4m157.5 0c2 .2 5.4.2 7.5 0 2-.2.3-.4-3.8-.4s-5.8.2-3.7.4m-169.9 2.8c.1 1.8.8 2 8.9 2.1h8.7l-8.4-.3c-7-.3-8.5-.7-8.9-2.1q-.45-1.8-.3.3m126.7-.8c-.1 1.6-.9 2.3-2.8 2.6l-2.8.4 2.8.2c2.8.1 4.3-1.7 3.4-4.1-.3-.7-.6-.3-.6.9M274 374c-.9.6-1 1-.3 1 .6 0 1.5-.5 1.8-1 .8-1.2.4-1.2-1.5 0m11.8.7c.6.2 1.8.2 2.5 0 .6-.3.1-.5-1.3-.5s-1.9.2-1.2.5m160 0c.6.2 1.8.2 2.5 0 .6-.3.1-.5-1.3-.5s-1.9.2-1.2.5"/></g><g fill="#BF0000" fill-opacity=".9" stroke-opacity=".9" stroke-width="0"><path d="M135.6 23.1c.5.9-.4 1-3.2.5-3-.5-3.6-.4-2.4.4 1.2 1 1 1.1-.9.6-2.8-.6-11.1 1.4-11.1 2.7 0 .5-.7.7-1.5.3-.8-.3-1.5-.1-1.5.5s-.4.7-1 .4c-.5-.3-1-.1-1 .5s-.4.9-1 .5c-2.6-1.6-24.2 12.7-32.6 21.6-8.9 9.4-17.8 25.2-21.4 38.1-3.5 12.2-4.1 32.1-3.8 121.3l.3 84 253 .1c139.2.1 251-.2 248.5-.6-3.6-.6-3-.7 2.5-.4 7.3.4 25.8-2.3 25-3.7-.3-.4.5-.5 1.7-.1 1.6.4 1.9.2 1.3-.8q-.75-1.35.3-.6c1.4.8 9.2-1.3 9.2-2.5 0-.5.7-.6 1.5-.3 1.4.6 2-.6 1.6-2.9-.1-.5.3-.6.9-.2.6.3.8 1.1.4 1.6-.3.6 1.1.3 3.3-.6 2.1-.9 4.4-1.9 5-2.2.7-.3 1-1 .6-1.6-.3-.6-.1-.7.5-.3 1.3.8 12.3-5.6 21.5-12.5 8.4-6.3 21.8-20.5 28.3-30 6.5-9.3 13.7-23.6 12.8-25.1-.4-.6-.3-.8.3-.5 1.3.8 5.4-10 4.6-12.1-.4-1-.2-1.3.5-.8.8.5 1 .2.6-.8-.3-.9-.1-1.6.4-1.6 1.2 0 2.8-8.2 2.4-11.8-.2-1.7.1-2.2.9-1.6.9.5 1-.4.5-3.7-.4-2.6-.3-3.9.3-3.1 1 1.7 2.6-22.2 1.5-23.9-.4-.7-.6-3.7-.5-6.7.1-3.5-.1-5.2-.8-4.7-.7.4-.9-.5-.5-2.7.5-2.6.3-3-.6-1.8s-1.1.9-.7-1.5c.6-3.5-1.2-12.5-2.5-12.5-.5 0-.6-1-.3-2.1.5-1.6.4-1.9-.6-1.4q-1.35.9-.6-.9c.6-1.6-1.9-8.5-3.6-9.7-.4-.3-.7-1-.5-1.5.4-1.4-2.3-7.4-3.4-7.4-.5 0-.7-.4-.3-.9.7-1.3-3.2-7.8-5.1-8.5-.9-.3-1.4-1.2-1.1-1.9.5-1.6-7-12.6-14.5-21.1-7.3-8.1-20.7-19.8-21.9-19-.5.3-.9.1-.9-.4 0-1.5-8-6.3-9.2-5.6-.6.4-.8.3-.5-.3.3-.5-3.3-2.9-8.1-5.3-11-5.4-15.8-7.1-17.9-6.3-1.1.4-1.4.3-.9-.5.7-1.1-1.3-1.7-3.8-1.3-.4.1-1.3-.2-2-.7-2.2-1.8-11.1-3.3-13.6-2.4-2.3.9-2.3 1-.5 1.5 1.1.3 3.8.8 6 1.2s4.6 1.1 5.3 1.7c.6.6 1.2.8 1.2.5 0-.4 1.8 0 3.9.8 2.2.7 4.2 1.1 4.5.8.3-.4.6-.1.6.5 0 .7.7 1.2 1.5 1.2.9 0 4.2 1.3 7.4 3 3.2 1.6 6.1 2.6 6.5 2.3.3-.4.6-.1.6.6s.5.9 1 .6c.6-.3 1-.1 1 .6s.3.9.6.6c.4-.4 2 .5 3.6 1.8 1.6 1.4 3.4 2.5 4 2.5s2.1.8 3.2 1.7c1.6 1.4 1.8 1.4 1.1.3-.6-.9-.3-.8.7.2.9 1 2.3 1.8 3.1 1.8s2.1.8 2.8 1.7c1.3 1.7 1.2 1.7-.6.4-1.1-.8-.7-.1 1 1.5 1.6 1.6 3.1 2.7 3.4 2.6.2-.2.8.3 1.3 1.2s1.4 1.4 1.9 1c.5-.3.8 0 .7.7-.2.6.3 1.4 1.1 1.7.9.3 1.1 0 .6-.8-.5-.9-.4-1.1.4-.6.6.4.9 1.1.6 1.6-.2.4 2.8 4 6.8 8.1 3.9 4 6.5 6.9 5.7 6.5s-.6 0 .5.9 1.9 2 1.8 2.5c-.2.5 1.1 2 2.8 3.4 1.6 1.4 3.1 2.9 3.2 3.3s.6.7 1 .5c.5-.1.6.2.2.8-.7 1.1 2.4 7 3.7 7 .4 0 .8.7.8 1.5s.4 1.5.8 1.5c.5 0 .9.6 1 1.2.2 2.9.9 5 1.8 5.6 1 .7 3.3 6.3 4.1 9.9.3 1.3.9 2.3 1.4 2.3s.8.3.7.7c-.2 1 1.3 6.4 2.1 7.8.3.5.6 1.4.7 2 .4 2 1.4 6.1 2.4 10 .6 2.2 1.1 12.1 1.1 22 0 18.1-1.1 27.5-4.7 36.7-.7 2.1-1.1 3.8-.8 3.8.4 0 .2.6-.3 1.2-1.3 1.7-4.8 11.1-4.5 12 .1.5-.3.8-.9.8-.5 0-.8.4-.5.9.4.5.2 1.1-.3 1.3-.5.1-1.1 1-1.3 1.8s-.7 1.8-1.1 2.1-.9 1.6-1 2.7c-.1 1.2-.4 2.2-.8 2.2-1.2 0-5.1 6.9-4.4 7.9.3.6-.6 1.8-2 2.7s-2.5 2.1-2.5 2.6c0 1-1.9 3.1-12.7 14.8-2.9 3.1-5 6-4.5 6.5.4.5.2.5-.5.2-.6-.4-3.1 1.1-5.6 3.5-2.4 2.4-4.6 4.3-4.8 4.3-1.4.1-4.8 3.3-4.1 4 .4.5.1.5-.5.1-1.6-.9-5.6 1.2-4.8 2.4.3.6-.1.7-.9.4-.9-.4-1.8.1-2.2 1-.3.9-1 1.3-1.5 1s-.9 0-.9.5c0 .6-.7 1.1-1.5 1.1-.9 0-3.3 1.2-5.4 2.6-2.2 1.4-4.5 2.7-5.3 2.8-.7.1-2.3.8-3.5 1.4-1.3.7-2.3 1-2.3.6 0-.3-1.1.1-2.5 1s-2.5 1.4-2.5 1.2c0-.3-1.9.2-4.2 1-2.4.8-5.6 1.7-7.3 1.9-1.6.3-4.1.7-5.5 1s-4.5 1-7 1.5c-2.7.5-105.6.8-256.5.7l-252-.2V199c0-69.7.3-93.6 1.2-97 .7-2.5 1.4-6.1 1.6-8.1.6-5 3.7-13.9 4.8-13.9.6 0 .8-.3.6-.8-.3-.4.6-2.5 1.9-4.7s3-5.4 3.8-7.1 1.9-3.5 2.5-3.8c.6-.4.9-1.1.6-1.5-.2-.5 1.3-2.2 3.5-4s4-4 4-5.1c0-1 .4-2.2 1-2.5.6-.4.7.1.3 1.2-.6 1.6-.4 1.6 1.6-.2 2.1-1.8 2.1-2 .4-2.6-1.5-.6-1.4-.8.7-.8 1.5-.1 3.7-1.6 5.8-3.9 1.9-2 2.9-2.8 2.1-1.7-1.1 1.7-1 1.7 1.2-.3 1.4-1.2 3.1-2.2 3.7-2.2.7 0 1.2-.5 1.2-1 0-.6.7-1 1.5-1s1.5-.4 1.5-.8c0-.7 6.4-4 9-4.6.3-.1 1.2-.6 2-1.1 1.5-.9 3.4-1.5 5.8-1.7.6-.1 1.2-.5 1.2-1 0-.4 1.3-.8 2.8-.8 1.6 0 3.2-.3 3.6-.7.3-.4 1.7-.9 2.9-1.2s99.9-.6 219.3-.6c171 0 217.4-.3 218.3-1.2.9-1 .1-1.1-3.6-.7-3.6.4-4.4.3-3.3-.5S500.5 22 348.7 22c-159.6 0-213.6.3-213.1 1.1M645 65.5c1.9 1.9 3.2 3.5 2.9 3.5s-2-1.6-3.9-3.5-3.2-3.5-2.9-3.5 2 1.6 3.9 3.5m11.1 14.2c1.3 1.6 1.2 1.7-.3.4-1-.7-1.8-1.5-1.8-1.7 0-.8.8-.3 2.1 1.3m-6.5 168.5c.4.7.3 1-.1.5-.5-.4-1.8.1-2.9 1-2.1 1.8-2.1 1.8-.2-.5 2.2-2.6 2.3-2.6 3.2-1m-5.6 4.1c0 .2-1 1.2-2.2 2.3l-2.3 1.9 1.9-2.3c1.8-2.1 2.6-2.7 2.6-1.9m2-226.2c0 .6.9.8 2.1.4 1.6-.5 1.9-.4 1.4.6-.6.8-.4 1.1.6.7 1.2-.5 1.4.6 1.1 6.3-.4 6.1-.2 6.8 1.2 6.3 1.2-.5 1.6-2 1.6-6.3 0-6.6.8-8.2 3.8-7.6 1.3.2 2 0 1.7-.6-.9-1.3-13.5-1.2-13.5.2m17 6.3c0 5.6.4 7.5 1.5 8 1.2.4 1.5-.4 1.5-4.4 0-2.8.5-5 1-5 .6 0 1 .6 1 1.2 0 .7.5.5 1.1-.6 1.4-2.3-.8-4.1-2.8-2.4-.9.7-1.3.7-1.3-.1 0-1 1.3-1.5 3.2-1.2.4 0 .5-.6.2-1.4-.4-.8-1.7-1.5-3-1.5-2.3 0-2.4.3-2.4 7.4m12.3-4.4c-.7 1.7-1 3.7-.7 4.4.2.6-.4 1.2-1.6 1.3-1.1.1-2-.4-2-1 0-.7-.5-.4-1.1.7-.8 1.3-.8 2 .1 2.6.6.4 1.1 1 1.1 1.4-.4 3.1 0 3.8 1.4 2.6.8-.7 1.2-1.6.9-2.1s.2-1.7 1.1-2.6 1.4-2.4 1.2-3.4q-.45-1.8.9-1.2c.9.3 1.4 2.2 1.4 5.4 0 4.7.1 4.9 2.1 3.9 1.8-1 2-1.9 1.7-7.8-.3-6.3-.4-6.7-2.8-7-2-.2-2.8.3-3.7 2.8m4.4 7.2c-.2 1.3-.4.3-.4-2.2s.2-3.5.4-2.3c.2 1.3.2 3.3 0 4.5"/><path d="M150.9 45.4c-.2.2-3.5.6-7.4.9-3.8.4-8.3.9-10 1.2-1.6.3-4.6.8-6.5 1.1s-4.6 1.2-5.9 2.1c-1.6 1-2.1 1.1-1.5.2.4-.7-.6-.3-2.3.9s-3.5 2.2-4 2.2c-1.7 0-8.3 5.1-7.8 6.1.4.5.3.8-.2.7-.4-.1-2.1.5-3.8 1.5-1.7.9-2.3 1.7-1.5 1.7.9.1.5.5-.9 1.1s-2.1 1.5-1.7 2.4c.3.8 0 1.7-.6 2.1-.7.5-.8.2-.4-.7.4-.8-.5-.1-1.9 1.6-1.5 1.6-2.4 2.4-2 1.6.6-1 .4-1.2-.4-.7-.7.5-1 1.5-.7 2.3s.1 1.1-.4.8c-1.1-.7-3.1 3.5-2.3 4.8.2.4-.1.6-.8.5-.7-.2-1.3.1-1.4.7 0 .5-.9 2.5-1.8 4.3-1 1.8-1.5 3.8-1.1 4.4s.3.8-.3.5c-.7-.4-1.4.8-1.9 3.1-.4 2-.9 4.1-1.1 4.7-1.1 3.3-2.1 12.1-2.2 20.3-.2 7.5 0 9.2 1.1 8.6 1-.5 1-.4.2.5-1.2 1.3-.7 6.1.7 6.1.5 0 .8.3.7.7-.5 2 1.6 9.8 3.6 13.6 1.3 2.3 2.3 4.6 2.4 5 0 .5.4 1.2.8 1.5.4.4.4.1 0-.6-.4-.6-.5-1.2-.2-1.2.2 0 1.4 2 2.6 4.5s2.6 4.5 3.1 4.5c.6 0 .7-.5.3-1.2-.5-.7-.3-.8.5-.4.7.5 1 1 .7 1.3-1.3 1.3 7.6 9.3 10.4 9.3.5 0 1.2.5 1.6 1.2.5.7.2.8-.7.3s-1-.5-.4.2c.6.5 2.3 1.5 3.8 2.1 2.3 1 2.7 1 2.2 0-.4-.7 0-.5.8.5.9 1 2.1 1.9 2.9 2.1.7.1 2.9 1 4.8 2s4.2 1.9 5 2.1 4 1.1 7 2 6.4 1.8 7.5 2 2.1.4 2.3.5c.4.4 4 1.1 18.2 3.4 1.4.3 2.5.5 2.5.6s1.2.4 2.7.6c4.3.7 22.1 4.2 24.8 4.8 1.4.4 4.2.9 6.3 1.1 4.9.7 10.7 3.1 10.7 4.4 0 .6-1.1 1.8-2.4 2.6-2.1 1.4-9.5 1.6-62.6 1.5-49.5-.2-60.4.1-61.1 1.2-.7 1-.9 1-.9 0 0-.7-.4-1.1-.8-.8-.6.3-.8 47.9-.3 62.9.1 1.2.5 1.6 1.4 1.1.8-.6.8-.3-.1.9-1.3 1.5 3.1 1.6 63 1.7 65.2 0 84.9-.8 91.5-3.5 2-.8 5-1.8 6.6-2.1 1.7-.2 4.3-1.4 5.9-2.5 1.5-1.1 2.8-1.7 2.8-1.3 0 .5.5.3 1.2-.4s1.8-1.2 2.6-1.2c2.9 0 14.7-10.3 13.7-12-.3-.5 0-1.2.6-1.6.8-.4.9-.3.5.4s-.4 1.2.1 1.2c.4 0 .8 4.1.8 9.1 0 7.6.3 9.3 1.8 10.4 1.3 1 1.5 1.4.5 1.8-3.9 1.3 20.8 1.8 82.2 1.5s68.9-.5 72.8-2c2.3-1 4.2-1.4 4.2-1.1 0 .4.7-.2 1.6-1.3.8-1 1.2-1.3.9-.5-.5.8.3.6 2.1-.5 1.5-1.1 2.9-1.8 3.1-1.7.9.8 2.3.2 1.8-.7-.3-.6.1-1 .9-1s3.1-1 5.1-2.1c2.8-1.7 3.3-2.4 2.4-3.5s-.8-1.4.7-1.5c1.1-.1 2.3-.1 2.7 0 .5.1.6-.3.2-.9-.3-.6-1.1-.7-1.7-.4-.6.4-.8.2-.4-.4.3-.6 1.5-.9 2.6-.7 1.7.3 2.4-.5 2.2-2.6-.1-.3.6-.6 1.4-.6 1.1 0 1.4 1.9 1.5 8.6.1 4.7.1 9.1 0 9.7-.3 2.9 8.8 3.4 58.4 3 32-.2 51.6-.7 54.5-1.4 4.2-1.1 6.6-1.6 10.8-2.6 11.5-2.7 37.8-17.3 36.7-20.4-.3-.7 0-1 .5-.7 1.2.7 7.6-5.4 7.2-6.9-.2-.6 0-.8.4-.3.9.8 5.4-3.1 5.4-4.7 0-.6 1.7-2.6 3.7-4.5 2.1-1.8 2.9-2.7 1.8-2s-.4-.3 1.6-2.2c2-1.8 4.4-5 5.4-6.9.9-1.9 2.3-4.2 3-5s1.5-2.6 1.7-4c.1-1.4.9-3.1 1.6-3.8.7-.8 1-1.7.7-2.2s-.2-1 .2-1.2c.5-.1 1.5-2.4 2.4-5 1-3 1.2-4.5.5-4.2-.6.3-.4 0 .5-.8.9-.7 1.6-2 1.6-2.8s.9-5.1 1.9-9.5c1.8-7.6 2.6-31.3 1.2-35.5-.2-.8-1-4.9-1.7-9s-1.4-8-1.6-8.5c-.1-.6-.2-1.2-.2-1.5s-1-2.4-2.2-4.8c-1.2-2.3-1.9-4.2-1.5-4.2s.2-.6-.3-1.3c-.6-.6-1.3-2.4-1.7-4-.3-1.5-1.1-2.7-1.7-2.7s-.7-.5-.4-1c.3-.6.1-1-.6-1s-.9-.3-.6-.6c.4-.4-.2-1.9-1.3-3.4-1.1-1.6-2-3.3-2-3.9 0-.7-.7-1.4-1.5-1.7-.8-.4-1.3-1-1-1.4.3-.5-.6-1.7-2-2.8-1.3-1.1-2.2-2.1-2-2.4.9-.9-7.7-9.8-8.7-9.1-.6.3-.8.2-.5-.4.9-1.4-6.8-9.1-8.6-8.5-.5.1-.6-.2-.3-.7s-1.4-2.2-3.9-3.8c-2.5-1.5-4.5-3.2-4.5-3.6 0-.5-.4-.5-1-.2-.5.3-1 .2-1-.2 0-1.2-5.6-4.4-6.4-3.6-.3.3-.6 0-.6-.7s-.3-1-.7-.7c-.3.4-1.5 0-2.5-1-1-.9-1.8-1.2-1.8-.7s-.4.3-.8-.3c-.4-.7-1.7-1.4-2.7-1.6-1.1-.2-3.6-1.1-5.5-2-1.9-.8-3.8-1.3-4.2-1.1-.5.3-.8 0-.8-.5 0-.6-.3-1-.7-.9-.5.1-1.7-.1-2.8-.5-3.8-1.3-17.9-3.4-25.5-3.8-12.9-.7-89.3-.4-92.4.3-3.3.8-4.8 2.6-4.1 4.8.6 1.8 1.7 60.5 1.1 59.9-.2-.2-.6-4.2-.9-8.9-.4-4.7-.8-9.5-1.1-10.7-.2-1.1-.8-4.2-1.1-6.7-.4-2.5-1-4.6-1.4-4.6s-.7-.9-.8-1.9c-.2-2.6-6.3-12-9.4-14.6l-2.4-2 2 2.5 2 2.5-2.2-1.8c-1.2-1.1-1.9-2.4-1.7-3.1.6-1.6-2.1-4-3.5-3.2-.5.4-1.2-.2-1.6-1.3-.3-1.1-1.3-2.2-2.2-2.5-1.2-.5-1.3-.3-.7.7.5.7.1.4-.8-.6-1-1.1-1.8-1.6-1.8-1.3 0 .4-.9-.2-2.1-1.3-2.4-2.2-6.3-3.5-5.2-1.8.3.7-.4.3-1.6-.8-1.3-1.1-2.6-1.9-3-1.7-.6.3-4.6-.3-9.1-1.4-3.1-.8-133.6-1.6-136.7-.9-1.3.3-2.3 1.3-2.3 2.3-.1 1.3-.4 1.1-1.5-.8-1.4-2.4-1.4-2.4-.8 1.4.3 2.1.2 4.1-.4 4.5-1.3.8-3.4 14-2.7 17.1.5 2 .4 2.2-.6 1-.9-1.2-1-.5-.5 3s.4 4.2-.5 3-1-.6-.5 2.3c.4 2.3.2 3.7-.3 3.3-1.1-.6-3.6 13.9-2.7 15.4.3.5.1 1-.5 1s-.8 1-.4 2.5c.4 1.6.2 2.5-.6 2.5s-1.1 1.2-.8 3.4l.4 3.4-11.1-.2c-6.4-.2-8.7 0-5.5.3 3 .3-15.3.4-40.8.2-41.9-.3-46.5-.2-48.8 1.4-2 1.3-2.5 2.3-2.2 4.8.4 3.8 4.2 6.1 10 6.1 2 0 3.4.4 3.1.9s.5.8 1.8.6c1.3-.1 3.1.1 3.9.4 3.4 1.3 13.1 2.8 14.1 2.1.8-.5.9-.3.4.5-.5.9-.1 1.2 1.1 1 1.1-.1 2.6.1 3.4.4 3.1 1.2 15.1 2.7 16.2 2.1q1.05-.75.3.6c-.6.9 0 1.1 2.6.5 2.7-.5 3.1-.4 1.9.5s-.9 1 1.3.6c1.5-.4 2.7-.3 2.7.2 0 .4 2.6 1.2 5.8 1.9 3.1.6 6.6 1.4 7.6 1.9 1.3.5 1.7.4 1.3-.3-.5-.7 0-.9 1.3-.6 1.1.3 1.8.8 1.5 1.2-.4.7 9.3 3.7 10.8 3.3.4-.1.7.2.7.7s1.4 1.4 3.1 2c5.3 1.8 16.5 9.9 22.1 15.9l5.3 5.8-.3-58.3L272 49l71.7.4c71 .4 75.3.4 76.3 1.5.3.3 3.2 1.9 6.5 3.6 7.8 4 18.5 14.6 22.4 22.4 1.7 3.3 3.1 6.8 3.1 7.6 0 .9.5 1.3 1.1.9.8-.4.9.1.4 1.6-.4 1.3-.3 2 .2 1.7.6-.4 1 6 1 16.3 0 11.3-.3 16.7-1 16.3-.6-.4-.8 0-.4 1 .3.9.3 1.7-.1 1.9s-2.2 3.2-4.1 6.8c-4 7.6-9.7 14-16.3 18.3-2.7 1.6-4.8 3.4-4.8 3.9 0 .4-.3.7-.7.7-1.9-.3-3.3.2-3.3 1.2 0 .6.9.9 2 .6 1.3-.3 1.8-.1 1.3.6-.4.6 0 .8 1 .4 1-.3 1.7-.3 1.7.1 0 .8 7.1 3.7 7.9 3.3.2-.2.7.1 1 .6.3.4 2.9 2.6 5.6 4.7 5.9 4.5 8.4 7.3 13.1 14.1l3.4 5v-136h52.4c28.8 0 51.9.4 51.3.8-.7.5.3.5 2.2.2 2.4-.5 3.1-.4 2.6.4s.1 1 1.9.5c1.4-.3 2.6-.2 2.6.3 0 .9 9.5 3.9 11.8 3.7.6-.1 1.2.2 1.2.6 0 1.1 7.1 3.5 9 3.1.8-.2 1.2 0 .8.5-.4.4 2.3 2.5 6 4.6 3.7 2.2 8.7 5.6 11.2 7.6 5.8 4.7 19.1 17.2 18.3 17.2-.4 0 .2 1 1.3 2.2 5.9 6.8 12.4 18.2 16.6 28.8 7.5 19.4 9.4 43.6 4.8 62.5-1.4 5.5-2.4 10.8-2.2 11.8.1 1-.2 1.6-.7 1.3-.4-.3-1.3 1.2-2 3.3-2.5 8.4-16.9 32-21.2 34.7-.5.3-.6 1.1-.3 1.7.4.7.4.9-.1.5-.4-.4-3.7 2-7.3 5.4-6.9 6.3-15.2 12.2-22.8 15.8-2.4 1.2-4.4 2.6-4.4 3.1 0 .6-.4.8-.9.4-1.1-.6-6.1 1.5-6.1 2.6 0 .4-1 .5-2.2.1-1.6-.4-1.9-.2-1.3.8.5.8.4 1.1-.2.7-1.3-.8-14.5 2.4-15.4 3.6-.3.5-2.8.6-5.5.3-2.7-.4-4.1-.3-3.2.1 1 .5-20.8.9-48.2 1-27.5.1-49.9-.1-49.9-.5.1-.4.1-7.9 0-16.7l-.1-16-1.9 3.5c-1 1.9-1.6 3.9-1.3 4.5.3.5.2.7-.3.3-.4-.4-2.4 1.4-4.5 4-4.4 5.7-9.2 9.9-13.7 12-1.8.8-3 1.9-2.7 2.4.3.4-.2.5-1 .2-.9-.3-1.6-.1-1.6.5s-.3 1-.7.9c-1.5-.5-10.3 2.5-10.3 3.4 0 .6-1.8.7-4.2.4s-3.5-.3-2.6.2c1 .4-30.7.8-70.2.9-61.7.1-72-.1-72-1.3 0-.8-.4-1.4-1-1.4-.5 0-.7-6-.5-15.3.4-14.3.4-15-1.1-12.2-2.3 4.3-12.2 14.2-17.1 17.2-2.4 1.4-4.3 2.7-4.3 3 0 .2.5.1 1.2-.3.7-.5.8-.3.4.5-.5.7-1.4 1-2.2.7-1.4-.5-8.6 2.3-9.2 3.6-.2.4-1 .4-1.9.1-1.1-.4-1.4-.2-.9.5.5.8.1 1.1-1.1 1-3.2-.3-12.3 1.4-12.3 2.4 0 .5-2.4.6-5.2.3-2.9-.3-4.5-.2-3.6.2 1 .5-28.5.8-65.5.8-43.6 0-67.5-.4-67.9-1s-.8-14.1-.8-30c.1-22.4.4-29.4 1.4-30.7 1.2-1.6 5.7-1.8 63-1.7 45.7 0 62.2-.3 63.2-1.2 3.6-2.9.5-9.3-4.5-9.1-2 0-2.9-.3-2.5-1 .5-.8-.3-.9-2.4-.5-1.8.4-3.2.3-3.2-.2 0-1.1-12.5-3.2-14.6-2.4-1.2.4-1.5.3-1-.5s-.3-1-2.6-.6c-2.5.4-2.9.3-1.8-.5 1.3-.9 1.2-1.1-.6-1.1-2.7 0-30.5-5.4-38.5-7.5-3.3-.9-6.4-1.3-6.9-1-.6.3-1 .2-1-.3 0-1.3-5.9-3.4-7.3-2.5-.6.4-.7.1-.2-.7.6-1 .4-1.2-.8-.7-.9.3-1.7.2-1.9-.2s-3-2.2-6.4-4c-20.2-10.7-30.9-29.9-30.8-55.6 0-13.2 1.8-20.6 7.7-32 4.9-9.5 16.3-21.4 24.7-25.9 3-1.6 5.8-3.4 6.1-3.9s.9-.8 1.3-.8c1.9.2 6.6-1.3 6.6-2.1 0-.5 1-.6 2.1-.3 1.6.5 1.9.4 1.4-.5-.6-1 .1-1.1 2.9-.6 2 .4 3.6.3 3.6-.1s29.3-.7 65.1-.5c59.3.2 65.1.1 64.5-1.4-.3-.8-.6-1.8-.6-2 0-.5-115.5-.5-116.1 0M269 155.8c-.8.3-.7.8 0 1.7.8 1 .8 1.5-.2 2.1-.7.4-1 .4-.6-.1.4-.4.2-1.5-.4-2.3-.7-.8-1.3-2.1-1.3-2.8 0-.8-.3-1.4-.8-1.4-.4 0-1.8-1.1-3.2-2.6-1.3-1.4-2.8-2.3-3.4-2-.5.4-1.6-.2-2.3-1.2-1.2-1.7-4.6-3.7-12-7.2-1.4-.7-3.2-.9-3.9-.5-.7.5-1 .4-.6-.1.3-.5-.6-1.4-1.9-2.1-1.8-.8-2.2-.8-1.7 0 .5.9.3.9-.8.1-.8-.6-2.5-1.4-3.9-1.7s-3.6-.8-5-1.1-3.6-.8-4.8-1.1c-1.3-.2-3.1-1-4-1.7-1.3-1.1-1.4-1.1-.7.2.7 1.2.6 1.3-.7.3-.8-.7-1.7-1.1-2-.8-.2.3-3.8-.4-7.9-1.4-7.1-1.8-18.9-4-23.6-4.4-1.3-.1-2.3-.4-2.3-.7 0-.4-.6-.7-1.2-.8-.7 0-2.4-.3-3.8-.5-1.4-.3-4.7-.8-7.3-1.2-2.7-.4-5.9-.9-7-1.2-1.2-.2-2.8-.5-3.4-.5-.7-.1-1.3-.5-1.3-1 0-.4-.8-.8-1.8-.8-1.1 0-1.9-.7-1.9-1.6 0-3.8 4.4-4.2 54.7-4.3 50.5-.1 52.5-.2 52.5-1.7.1-.9 1.2-8.1 2.1-13.9.3-1.7 1-5 1.5-7.5.6-2.5 1.3-6.5 1.5-9 .6-5.8 1.7-12.2 2.4-13.5.4-.7.7-2.2 1.1-4.8.2-1.2.5 19.2.6 45.3.2 32.6 0 47.6-.7 47.8m189.3-17.3c.2 14.3.2 28 0 30.4l-.5 4.4-3.2-3.5c-1.7-1.9-3.9-3.7-4.9-4.1-.9-.3-1.7-1.1-1.7-1.7 0-.5-.7-1-1.5-1s-1.4-.3-1.4-.8c.3-1.9-.2-2.5-1.1-1.2s-1 1.3-1 0c0-.8-2.4-2.6-5.3-4.1-2.8-1.4-5.3-3.1-5.5-3.8-.1-.7.2-1 .8-.6 1.8 1.1 6-2.3 5.4-4.3-.4-1.2-.3-1.3.3-.4.8 1 1.7.6 4.2-1.7 1.8-1.7 3.7-3.1 4.2-3.1s.9-.6.9-1.4c0-.7.7-1.9 1.5-2.6.9-.7 1.3-2.3 1-3.7-.2-1.4-.1-2.3.2-1.9.5.5 3.6-3 3.9-4.4 0-.3.4-2.1.8-4 1.2-6 1.4-7.4 1.5-10.4.1-1.6.3-2.7.5-2.5s.6 12.1.9 26.4m-11.3 2c0 .8-.4 1.5-1 1.5-.5 0-.7-.7-.4-1.5.4-.8.8-1.5 1-1.5s.4.7.4 1.5m210.7 1.7c-.3.7-.5.2-.5-1.2s.2-1.9.5-1.3c.2.7.2 1.9 0 2.5M97.8 164.5c-.3.3-.9-.2-1.2-1.2-.6-1.4-.5-1.5.5-.6.7.7 1 1.5.7 1.8m559.9 12.7c-.3.8-.6.5-.6-.6-.1-1.1.2-1.7.5-1.3.3.3.4 1.2.1 1.9"/><path d="M340.5 109.6c-.8 6-.2 18.1 1 19.2.4.4 9.5.7 20.3.7 22.8 0 25.2-.6 28.4-6.8 2.8-5.5 2-11-2.1-15.1l-3.1-3.1-21.9-.3-21.9-.3zm43.9-1.1c2 .8 3.6 1.8 3.6 2.1s-.6.2-1.2-.1c-.7-.4-.4.1.6.9 1.1.9 1.7 1.9 1.3 2.2-.4.4-.2 1.3.4 2.1.7.8.8 1.3.1 1.3-.5 0-1.3 1.2-1.7 2.7-.3 1.5-1.4 3.3-2.3 4.1-1.1.9-1.2 1.1-.2.6.8-.4 1.1-.3.7.1-1.3 1.5-3.7 1.7-20.5 2.2-22.5.6-21.2 1.2-21.2-9.6 0-4.8.3-9.1.7-9.4.3-.4 8.6-.7 18.3-.7 13.6 0 18.6.4 21.4 1.5m-13.1 20.2c-4.5.2-12.2.2-17 0-4.8-.1-1.1-.3 8.2-.3 9.4 0 13.3.2 8.8.3M530 111c-1.3.8-1.5 7.2-1.5 47.5v46.6l14 .3c15.6.3 20.7-.7 29.1-5.5 8.6-4.9 20.5-18.3 18.8-21.1-.4-.6-.3-.8.3-.5 1.1.7 3.7-5.9 2.8-7.3-.3-.5-.2-1 .4-1s.8-2.1.6-5.3c-.3-4.3-.3-4.6.4-1.7s.8 2.2.9-4c0-5.4-.2-6.9-.9-5.5-.7 1.5-.8.8-.4-2.3.4-3.2.2-4.2-.6-3.6-.8.4-.9.3-.5-.5.9-1.4-1.2-8.1-2.5-8.1-.6 0-.8-.4-.5-.9.9-1.4-4.8-9.4-10.5-14.6-7.2-6.6-16-11-21.3-10.7-2.2 0-3.5-.2-2.9-.6.7-.4-4.5-.7-11.5-.6l-12.7.1 10-.7 10-.6-10-.2c-5.5-.1-10.7.3-11.5.8m27.5 3.1c1.1.2 2.2.6 2.5.9 1.2 1.2 7 4.1 7 3.5 0-.4 1.8.7 3.9 2.4 3.9 3.1 5.7 4 4.6 2.2-.3-.5 0-1.3.7-1.7s1-.3.5.1c-.4.5.1 1.8 1 2.9 1.7 2 1.7 2 .1.7-1.1-.8-1.8-.9-1.8-.3 0 1 3.6 3.6 5.2 3.7.3 0 1 .4 1.5.9s.3.6-.4.2-1.3-.2-1.3.4 1.1 1.5 2.5 2 2.5 1.2 2.5 1.5c0 .4-.4.3-1 0-.5-.3-.2.7.7 2.4 1 1.6 2 2.8 2.4 2.6.3-.2.6.1.7.8.2 2.8.9 4.9 1.8 5.5 1.3 1 1.7 3.7 1.8 13.7.1 7.3-.3 10-2.2 14.3-1.3 2.9-2 5.7-1.7 6.2s0 1.2-.6 1.6c-.8.5-.9.3-.4-.6q.75-1.35-.3-.6c-.7.4-1.2 1.4-1.2 2.2s-.4 1.4-.9 1.4-1.4 1.3-2 3c-.5 1.6-1.3 3-1.6 3s-.3-.6.1-1.3c.4-.6-.5-.1-1.9 1.2s-2.5 2.7-2.4 3.1c.1.5 0 .8-.3.7-.3 0-2.4 1.2-4.8 2.6-10.1 6.4-14.6 7.8-27.7 8.4l-12.4.6-1.2-2.9c-1.8-4.6-.7-86.3 1.2-87.5 1.3-.9 20.5-.7 25.4.2m-201.2 70.6c4.3.2 11 .2 15 0 4-.1.5-.3-7.8-.3-8.2 0-11.5.2-7.2.3m-15.7 5.2c-.9 6.7-.7 17.7.4 20.5l1 2.6h21c12.9 0 21-.4 21-1 0-.5.7-.7 1.5-.4 2.1.9 8.1-3.2 9.3-6.4 1.5-3.7 1.3-10.1-.4-13.4-2.9-5.7-4.2-5.9-29.7-6.1l-23.5-.2zm44.2-2.2c1.2.3 1.9 1 1.5 1.6-.4.7 0 .8 1.3.3 1-.4 1.5-.4 1.2 0-.8.7 1.4 3.4 2.3 2.8.3-.2.6.2.7.9s.4 2.6.8 4.4c.5 2.4 0 4-1.7 6.5-1.3 1.8-2.4 3.5-2.4 3.8 0 .9-4.8 1.3-24.2 1.7l-20.3.4v-10c0-5.5.3-10.6.6-11.5.5-1.3 3.4-1.5 19.3-1.5 10.3 0 19.7.3 20.9.6m114 153c.7.3 1.6.2 1.9-.1.4-.3-.2-.6-1.3-.5-1.1 0-1.4.3-.6.6m-285.6 16.8c.3 14.7.4 16 2.2 16.3 2.6.5 3.6-1.4 3.6-7.1V362h4.8c5.7 0 11.6-1.5 13.2-3.5 1.4-1.7 2-10.4.8-12.7-1.6-3.2-5.1-4.2-15.1-4.2l-9.7-.1zm5.2-12.8c-.5.5-1.2 1.2-1.6 1.8s-.8.2-.8-.8c0-.9.7-1.7 1.7-1.7.9 0 1.2.3.7.7m13 .6c-.3.8.2 2 1.1 2.7 1.7 1.4 2 5.6.5 6.5-1.8 1.1-1 2.3 1.3 1.9 1.2-.2 1.5-.1.7.2-.8.4-2.1 1.1-2.8 1.7-.9.7-1.2.7-1-.2.2-1-1.4-1.4-5.7-1.5l-6-.1-.3-5.3-.3-5.2h5.5c3 0 5.8-.5 6.1-1 .9-1.5 1.5-1.2.9.3m-12.8 15.3c-.5 1.3-1 1.4-1.8.6-.6-.6-.8-1.8-.4-2.8.5-1.3 1-1.4 1.8-.6.6.6.8 1.8.4 2.8"/><path d="M217.1 359.6c0 1.1.3 1.4.6.6.3-.7.2-1.6-.1-1.9-.3-.4-.6.2-.5 1.3m29.3-2.4c.1 15.5.3 16.3 2.1 16.3 1.7 0 2.1-1 2.9-6.8l.8-6.7H270v6.8c0 6.8 0 6.8 2.8 6.7h2.7v-15.4c0-13.4-.2-15.5-1.7-16.5-2.5-1.5-3.2-.2-3.8 7-.4 4.9-.2 6.4.8 6.4.7 0 1.1.3.9.7-.8 1.3-19.3.3-19.5-1-.1-.7-.5-4-.8-7.5-.6-5.6-.9-6.2-2.9-6.2h-2.3zm27.4-6.1c.1 2.3 0 4-.2 3.8-.8-.7-1.3-8.8-.6-8.4.4.2.7 2.3.8 4.6m-23.4 3.4c.3.8.1 1.5-.4 1.5-.6 0-1-.7-1-1.5s.2-1.5.4-1.5.6.7 1 1.5m23.6 3.9c0 2.4-.8 2.6-4 1.3-.8-.4-4.9-.8-9-1-5.5-.3-4.9-.4 2.3-.3 7.1.1 9.7-.2 9.7-1.2 0-.6.2-1.2.5-1.2s.5 1.1.5 2.4m-23.4-.2c.5.7.3.8-.6.3s-1-.1-.6 1.6c.6 2 .5 2.1-.4.6-.6-.9-.8-2.2-.5-2.7.8-1.3 1.2-1.3 2.1.2m23.1 5.7c0 1.1-.5 1.8-.9 1.5s-.5-1.1-.1-1.9c.7-2.1 1.2-1.9 1 .4m-.3 5.6c-.4.8-.8 1.5-1 1.5s-.4-.7-.4-1.5.4-1.5 1-1.5c.5 0 .7.7.4 1.5m10.6-12.1v16.1h6v-32.4l-3 .1-3 .1zm2.7 3.3c-.2 2.1-.4.6-.4-3.2 0-3.9.2-5.5.4-3.8.2 1.8.2 5 0 7m12.1-19c-.8 1.4-1 24.7-.3 28.4l.7 3.5h9.9c9.2-.1 9.9-.2 9.9-2.1 0-1.8-.7-2-7.8-2-5.9 0-7.6.3-7.4 1.3.1.8-.2 1.1-.8.7-.7-.4-.8-1.1-.2-1.8.5-.7.9-7.3.8-14.7-.1-13-.2-13.5-2.3-13.8-1.1-.2-2.3 0-2.5.5m2.9 13c-.2 1.6-.4.5-.4-2.2 0-2.8.2-4 .4-2.8.2 1.3.2 3.5 0 5m0 7.5c-.3.8-.6.5-.6-.6-.1-1.1.2-1.7.5-1.3.3.3.4 1.2.1 1.9m24.3-4.8c0 9 .3 16.5.6 16.8s1.3.4 2.2.1c1.5-.4 1.7-2.3 1.8-16.6l.2-16.2-2.4-.1-2.4-.2zm2.7 7.3c-.2 2.1-.4.6-.4-3.2 0-3.9.2-5.5.4-3.8.2 1.8.2 5 0 7m11.4-6.9.1 16.3 2.6-.3c2.5-.3 2.7-.7 3-5.7.2-3.7-.1-5.7-1-6.2-1.7-1.1-1.7-2.9-.1-5.4.7-1.1 1.3-3.9 1.3-6.2V346h5.8c4.4 0 6.3.5 7.4 1.7 2.5 2.9 2.6 4.6.4 7.1-1.8 2-2.9 2.3-8.1 2.1-5.1-.2-6 0-5.7 1.4.2 1-.3 1.7-1 1.7-.9 0-.9.3.2 1 2.2 1.4 11.6 1.2 15.5-.4 4.3-1.8 5.7-4.5 5.3-10.3-.2-3.7-.9-5-3.1-6.7-2.5-1.8-4.3-2.1-12.8-2.1h-10zm5.6-13.2c-.3.3-1.2.4-1.9.1-.8-.3-.5-.6.6-.6 1.1-.1 1.7.2 1.3.5m-1.6 6.7c-1.3 1.3-1.5-.1-.4-3 .7-1.7.8-1.7 1.1.1.2 1-.1 2.3-.7 2.9m.2 14.7c-.7 2.7-1.3 2.5-1.1-.4.1-1.4.5-2.3.9-2 .4.2.5 1.3.2 2.4m28.5-17.6c-.3 7.9.2 23.9.7 24.4.2.2 1.3.1 2.4-.3 1.6-.5 2.1-1.6 2.3-5.3l.3-4.7 7.4-.6c6.7-.5 7.7-.8 10.2-3.7 2.9-3.2 4.1-9.2 1.8-9.2-.5 0-.7-.5-.4-1.1.4-.6-.3-2.1-1.5-3.4-1.7-1.8-3-2.3-5.9-1.9-2.7.3-3 .2-1.2-.4 1.6-.5-.9-.8-6.7-.8l-9.2-.1zm5.2-2.6c0 .5 2.6.5 5.7.1 4-.5 6-.4 6.4.3.6.9 1.2.8 2.3-.1s1.6-1 1.6-.2c0 .6-.5 1.1-1 1.1-.7 0-.7.6-.2 1.7 1.1 2.1.1 5.3-2.1 7.1-.9.8-3.6 1.2-6.9 1l-5.3-.3-.3-4.5c-.2-2.4-.8-5-1.4-5.7-.7-.9-.7-1.3.1-1.3.6 0 1.1.4 1.1.8m-.7 11.4c.8.5.7 1.1-.2 2.2-1.1 1.3-1.1 1.6 0 1.6 1 0 1.1.2.2.8-.6.4-1.3 2.1-1.6 3.7-.2 1.7-.4-1.5-.4-7s.2-8.2.4-6c.3 2.2.9 4.3 1.6 4.7m17-.7c-.3.9-.8 1.4-1 1.1-.3-.3-.2-.9.2-1.5.9-1.6 1.5-1.3.8.4m11.2-14.7c-.3.3-.5 7.1-.5 15.2 0 14.9.5 17 3.9 17 1.4 0 1.6-1.9 1.5-13.5-.1-7.4-.5-14.2-.8-15-.3-.9-.2-1.3.4-1s1-.3 1-1.3c0-1.4-.7-2-2.5-2-1.3 0-2.7.3-3 .6M421 357c0 16.3.5 18.3 3.6 14.3.9-1.2 1.3-4.9 1.4-10.6 0-5.3.4-8.7 1-8.7s1.3.7 1.6 1.5c.4.8 1.1 1.2 1.7.8.5-.3.8-.2.4.3-.3.5 2.3 5 5.7 9.9 5.7 8.1 6.6 9 9.4 9h3.2V341h-2.4c-2.2 0-2.3.5-3 7.7-.3 4.2-.5 9.2-.5 11.2l.1 3.6.8-3 .8-3 .1 2.7c0 1.6.6 2.8 1.3 2.8.6 0 .3.7-.8 1.5-1.6 1.3-1.6 1.4-.1.9 1.2-.4 1.7-.1 1.7 1.2 0 3.6-1.5 4.6-2.9 2-.8-1.3-1-2.9-.7-3.5.4-.6.1-1.4-.7-1.7s-4.2-4.4-7.6-9.2c-8.7-12.5-8.4-12.2-11.2-11.6-1.9.5-2.1.3-.9-.5 1.3-.9 1.3-1.1-.2-1.1-1.6 0-1.8 1.4-1.8 16m3.7 10.2c-.2 1.3-.4.3-.4-2.2s.2-3.5.4-2.3c.2 1.3.2 3.3 0 4.5m44.8-25.2-11 .5V353c.1 5.8.2 12.7.3 15.5l.2 5 11 .3c10.7.4 11 .3 11-1.8 0-2-.4-2.1-8.7-1.9-5.1.1-9.2.6-9.6 1.3-.6.7-.7.6-.4-.4.2-.8 1-1.4 1.7-1.2 1.1.3 1.1 0 .1-1.2-.8-.9-1.1-3.1-.9-5.1.4-3.1-.1-3.9-2.3-3.7-.3.1-.6-.6-.6-1.3 0-1.2.3-1.2 1.4-.3.8.6 5.2 1.4 9.9 1.6l8.4.5v-2.7c0-2.4-.4-2.6-3.7-2.5-2.1 0-5.9.4-8.6.8-6.3 1-8-.2-7.4-5.4l.4-4 .1 4.1c.3 6.1 2.8 6.6 2.8.5l-.1-4.6 8.3-.3c8-.3 10.2-1.2 9-3.9-.1-.4-5.2-.6-11.3-.3m3.8 16.7c-.7.2-1.9.2-2.5 0-.7-.3-.2-.5 1.2-.5s1.9.2 1.3.5m16.5-14.5c-4.4 4.2-3.5 10.4 2 13.1 1.5.7 3.6 1.2 4.7 1 1.5-.3 1.6-.2.7.5-1 .7-.2 1.1 2.6 1.6 5.5.8 7.5 3 6.6 7-.6 2.9-.6 3 1.2 1.6s1.8-1.4.5.2c-1.1 1.4-1.1 1.8-.1 1.8.8 0 1 .3.7.6-.4.4-1.3.1-2.2-.6-.9-.8-4.1-1.3-8-1.2-3.6 0-6.3-.3-6-.8.8-1.3-3.5-2.4-4.7-1.2-2.9 2.9 3.8 7.2 11.2 7.2 4.3 0 10.3-2 11.4-3.9.4-.6.9-3.4 1.1-6.2.3-4.7.1-5.2-2.8-6.9-1.7-1.1-3.4-1.7-3.9-1.4-.4.3-.8.1-.8-.5s-.7-.8-1.5-.5c-.8.4-1.5.1-1.5-.5s-.9-1.1-1.9-1.1c-3.3 0-6.5-3.3-5.8-6.2.4-1.3 1.2-2.5 1.9-2.6.7 0 3.3-.3 5.8-.7 2.5-.3 3.9-.2 3.2.1-.9.4-.5 1.1 1.4 2 2 1.1 3 1.1 4 .3 3.5-2.9-.6-5.1-10-5.3-6.4-.1-7.4.1-9.8 2.6m-.1 6c-.3.7-.5.2-.5-1.2s.2-1.9.5-1.3c.2.7.2 1.9 0 2.5m17.7 10.4c.3.8.2 1.2-.4.9s-1-1-1-1.6c0-1.4.7-1.1 1.4.7m2.3 3.6c-.3.8-.6.5-.6-.6-.1-1.1.2-1.7.5-1.3.3.3.4 1.2.1 1.9"/></g><g fill="#BF0000" stroke-width="0"><path d="M132.8 23.7c.6.2 1.8.2 2.5 0 .6-.3.1-.5-1.3-.5s-1.9.2-1.2.5m428.5 0c.9.2 2.5.2 3.5 0 .9-.3.1-.5-1.8-.5s-2.7.2-1.7.5m-432.5 1c.7.3 1.6.2 1.9-.1.4-.3-.2-.6-1.3-.5-1.1 0-1.4.3-.6.6m438.2 0c0 .5-97.8.8-217.2.8-119.5 0-218.3.3-219.5.6s-2.6.8-2.9 1.2c-.4.4-2 .7-3.6.7-1.5 0-2.8.4-2.8.8 0 .5-.6.9-1.2 1-2.9.2-4.7.9-6.4 2.2-.9.8-1.9 1.4-2 1.3-.8-.4-8.4 3.1-8.4 3.9 0 .4-.7.8-1.5.8s-1.5.4-1.5 1c0 .5-.5 1-1.2 1-.6 0-2.3 1-3.7 2.2-2.2 2-2.3 2-1.2.3.8-1.1-.2-.3-2.1 1.7-2.1 2.3-4.3 3.8-5.8 3.9-2.1 0-2.2.2-.7.8 1.7.6 1.7.8-.4 2.6-2 1.8-2.2 1.8-1.6.2.4-1.1.3-1.6-.3-1.2-.6.3-1 1.5-1 2.5 0 1.1-1.8 3.3-4 5.1s-3.7 3.5-3.5 4c.3.4 0 1.1-.6 1.5-.6.3-1.7 2.1-2.5 3.8s-2.5 4.9-3.8 7.1-2.2 4.3-1.9 4.7c.2.5 0 .8-.6.8-1.1 0-4.2 8.9-4.8 13.9-.2 2-.9 5.6-1.6 8.1-.9 3.4-1.2 27.3-1.2 97v92.5l252 .2c150.9.1 253.8-.2 256.5-.7 2.5-.5 5.6-1.2 7-1.5s3.9-.7 5.5-1c1.7-.2 4.9-1.1 7.3-1.9 2.3-.8 4.2-1.3 4.2-1 0 .2 1.1-.3 2.5-1.2s2.5-1.3 2.5-1c0 .4 1 .1 2.3-.6 1.2-.6 2.8-1.3 3.5-1.4.8-.1 3.1-1.4 5.3-2.8 2.1-1.4 4.5-2.6 5.4-2.6.8 0 1.5-.5 1.5-1.1 0-.5.4-.8.9-.5s1.2-.1 1.5-1c.4-.9 1.3-1.4 2.2-1 .8.3 1.2.2.9-.4-.8-1.2 3.2-3.3 4.8-2.4.6.4.9.4.5-.1-.7-.7 1.8-3.3 3.2-3.3.3 0 2.7-2 5.3-4.6 2.7-2.5 5.3-4.3 5.9-4 .6.4.8.3.5-.3-.3-.5 1.7-3.2 4.6-5.9 2.8-2.7 4.3-3.8 3.2-2.4l-2 2.5 2.1-1.8c1.1-.9 2.5-1.4 2.9-1 .5.5.3 0-.4-1-1.2-1.6-1.1-2.2 1.5-5 1.6-1.7 3.5-3.5 4.2-4 .6-.4 1.2-1.4 1.2-2.1 0-.8 1.1-2.1 2.5-3s2.3-2.1 2-2.7c-.7-1 3.2-7.9 4.4-7.9.4 0 .7-1 .8-2.2.1-1.1.6-2.4 1-2.7s.9-1.3 1.1-2.1.8-1.7 1.3-1.8c.5-.2.7-.8.3-1.3-.3-.5 0-.9.5-.9.6 0 1-.3.9-.8-.3-.9 3.2-10.3 4.5-12 .5-.6.7-1.2.3-1.2-.3 0 .1-1.7.8-3.8 3.6-9.2 4.7-18.6 4.7-36.7 0-9.9-.5-19.8-1.1-22-1-3.9-2-8-2.4-10-.1-.6-.4-1.5-.7-2-.8-1.4-2.3-6.8-2.1-7.8.1-.4-.2-.7-.7-.7s-1.1-1-1.4-2.3c-.8-3.6-3.1-9.2-4.1-9.9-.9-.6-1.6-2.7-1.8-5.6-.1-.6-.5-1.2-1-1.2-.4 0-.8-.7-.8-1.5s-.4-1.5-.8-1.5c-1.3 0-4.4-5.9-3.7-7 .4-.6.3-.9-.2-.8-.4.2-1-.1-1.3-.7-.3-.5-1.6-2.1-3.1-3.5-1.4-1.4-1.8-2.1-.9-1.5.9.5 0-.5-1.9-2.4-2-1.9-2.9-3-2.1-2.6s0-.6-1.7-2.3c-3.3-3.1-4.3-4.9-2-3.6.6.4-.3-.9-2.2-2.9s-3.7-3.6-4-3.5c-2.2.2-3.2-.4-2.8-1.7.4-.8.1-1.7-.5-2.1-.7-.5-.8-.2-.3.6s.3 1.1-.6.8c-.8-.3-1.3-1.1-1.1-1.7.1-.7-.2-1-.7-.7-.5.4-1.4-.2-2-1.1-.5-1-1.2-1.7-1.5-1.5-.4.1-1.9-1-3.4-2.5-1.5-1.4-1.8-2-.7-1.2 1.8 1.3 1.9 1.3.6-.4-.7-.9-2-1.7-2.9-1.7-.8 0-2.1-.8-2.8-1.8-.7-.9-1.7-1.8-2.3-1.8-.6-.1-1.7-.2-2.4-.3-.7 0-2.2-.8-3.3-1.7-1-.8-1.3-1.2-.5-.8.9.5 1.2.3.7-.5-.4-.6-1.1-.9-1.6-.6s-1.1.1-1.5-.5-1.1-.8-1.6-.5c-.5.4-.9.1-.9-.5s-.4-.8-1-.5c-.5.3-1 .1-1-.6s-.3-1-.6-.6c-.4.3-3.3-.7-6.5-2.3-3.2-1.7-6.5-3-7.4-3-.8 0-1.5-.5-1.5-1.2 0-.6-.3-.9-.6-.5-.3.3-2.3-.1-4.5-.8-2.1-.8-3.9-1.2-3.9-.8 0 .3-.6.1-1.2-.5-.7-.6-3.1-1.3-5.3-1.7s-4.9-.9-6-1.2l-2-.6 2-.8c1.9-.7 1.9-.8-.2-.8-1.3-.1-2.3.2-2.3.6M267.4 47.2c1.2 5.5 1.5 6 1.1 1.8-.3-4.3-.3-4.4 1-2 1.1 1.9 1.4 2.1 1.5.8 0-1 1-2 2.3-2.3 3.1-.7 133.6.1 136.7.9 2.4.6 8.9 1.9 10 2.1.3 0 1.2.5 2 1s2.2.8 3 .7c.9-.1 2.6.7 3.8 1.8s2.2 1.8 2.2 1.4c0-.3.8.2 1.8 1.3.9 1 1.3 1.3.8.6-.6-1-.5-1.2.7-.7.9.3 1.9 1.4 2.2 2.5.4 1.1 1.1 1.7 1.6 1.3 1.4-.8 4.1 1.6 3.5 3.2-.2.7.5 2 1.7 3.1l2.2 1.8-2-2.5-2-2.5 2.4 2c3.1 2.6 9.2 12 9.4 14.6.1 1 .4 1.9.8 1.9s1 2.1 1.4 4.6c.3 2.5.9 5.6 1.1 6.7.3 1.2.7 6 1.1 10.7.3 4.7.7 8.7.9 8.9.6.6-.5-58.1-1.1-59.9-.7-2.2.8-4 4.1-4.8 3.1-.7 79.5-1 92.4-.3 7.6.4 21.7 2.5 25.5 3.8 1.1.4 2.3.6 2.8.5.4-.1.7.3.7.9 0 .5.3.8.8.5.4-.2 2.3.3 4.2 1.1 1.9.9 4.4 1.8 5.5 2 1 .2 2.3.9 2.7 1.6.4.6.8.8.8.3s.8-.2 1.8.7c1 1 2.2 1.4 2.5 1 .4-.3.7 0 .7.7s.3 1 .6.7c.8-.8 6.4 2.4 6.4 3.6 0 .4.5.5 1 .2.6-.3 1-.3 1 .2 0 .4 2 2.1 4.5 3.6 2.5 1.6 4.2 3.3 3.9 3.8s-.2.8.3.7c1.6-.5 9.5 7 8.7 8.4-.3.5 0 .7.7.6.7-.2 1.4.4 1.4 1.2s.6 1.4 1.3 1.3c1.2-.3 5.6 4.9 5.3 6.2-.1.3 1 1.6 2.4 2.7s2.4 2.3 2.1 2.6.1 1 1 1.6c.8.6 1.6 2.1 1.7 3.3 0 1.2.4 2 .8 1.7.7-.4 2.3 2.6 2.1 3.8-.1.5.3.8.9.8.5 0 .7.4.4 1-.3.5-.2 1 .4 1s1.4 1.2 1.7 2.7c.4 1.6 1.1 3.4 1.7 4 .5.7.7 1.3.3 1.3s.3 1.9 1.5 4.2c1.2 2.4 2.2 4.5 2.2 4.8s.1.9.2 1.5c.2.5.9 4.4 1.6 8.5s1.5 8.2 1.7 9c1.4 4.2.6 27.9-1.2 35.5-1 4.4-1.9 8.7-1.9 9.5s-.7 2.1-1.6 2.8c-.9.8-1.1 1.1-.5.8.7-.3.5 1.2-.5 4.2-.9 2.6-1.9 4.9-2.4 5-.4.2-.5.7-.2 1.2s0 1.4-.7 2.2c-.7.7-1.5 2.4-1.6 3.8-.2 1.4-1 3.2-1.7 4s-2.1 3.1-3 5c-1 1.9-3.4 5.1-5.4 6.9-2 1.9-2.7 2.9-1.6 2.2s.3.2-1.8 2c-2 1.9-3.7 3.9-3.7 4.5 0 1.6-4.5 5.5-5.4 4.7-.4-.5-.6-.3-.4.3.4 1.6-6 7.6-7.4 6.8-.7-.4-.8-.3-.4.4s-.5 2.3-2.1 3.7c-3.9 3.4-13.8 8.6-14.8 7.7-.5-.4-.5-.2-.2.5.5.7-.7 1.6-3 2.3-2.1.7-4.7 1.8-5.8 2.5-1.7 1-7.9 3.4-11 4.1-.5.2-2.1.5-3.5.9-1.4.3-4.5 1.1-7 1.7-2.9.7-22.5 1.2-54.5 1.4-49.6.4-58.7-.1-58.4-3 .1-.6.1-5 0-9.7-.1-6.7-.4-8.6-1.5-8.6-.8 0-1.5.3-1.4.6.2 2.1-.5 2.8-2.4 2.7-1.4-.1-2.2.4-2.1 1.1.2.7-.4 1.3-1.3 1.3-1.3 0-1.4.3-.5 1.4s.4 1.8-2.4 3.5c-2 1.1-4.3 2.1-5.1 2.1s-1.2.4-.9 1c.5.9-.9 1.5-1.8.7-.2-.1-1.6.6-3.1 1.7-1.8 1.1-2.6 1.3-2.1.5.3-.8-.1-.5-.9.5-.9 1.1-1.6 1.7-1.6 1.3 0-.3-1.9.1-4.2 1.1-3.9 1.5-11.4 1.7-72.8 2s-86.1-.2-82.2-1.5c1-.4.8-.8-.5-1.8-1.5-1.1-1.8-2.8-1.8-10.4 0-5-.4-9.1-.8-9.1-.5 0-.5-.5-.1-1.2s.3-.8-.5-.4c-.6.4-.9 1.2-.5 1.7.8 1.4-6.5 8.1-7.9 7.3-.7-.4-.9-.4-.5.1.9.9-3.4 4.5-5.4 4.5-.8 0-1.9.5-2.6 1.2s-1.2.9-1.2.4c0-.4-1.3.2-2.8 1.3-1.6 1.1-4.2 2.3-5.9 2.5-1.6.3-4.6 1.3-6.6 2.1-6.6 2.7-26.3 3.5-91.5 3.5-59.9-.1-64.3-.2-63-1.7.9-1.2.9-1.5.1-.9-.9.5-1.3.1-1.4-1.1-.5-15-.3-62.6.3-62.9.4-.3.8.1.8.8 0 1 .2 1 .9 0 .7-1.1 11.6-1.4 61.1-1.2 53.1.1 60.5-.1 62.6-1.5 1.3-.8 2.4-2 2.4-2.6 0-1.3-5.8-3.7-10.7-4.4-2.1-.2-4.9-.7-6.3-1.1-2.7-.6-20.5-4.1-24.8-4.8-1.5-.2-2.7-.5-2.7-.6s-1.1-.3-2.5-.6c-14.2-2.3-17.8-3-18.2-3.4-.2-.1-1.2-.3-2.3-.5s-4.5-1.1-7.5-2-6.2-1.8-7-2-3.1-1.1-5-2.1-4.1-1.9-4.9-2c-.8-.2-1.7-.8-2.2-1.5-.4-.7-1.9-1.3-3.5-1.5-1.5-.2-3.2-.8-3.8-1.5-.8-.9-.7-1 .3-.4.9.5 1.2.4.7-.3-.4-.7-1.1-1.2-1.6-1.2-1.5 0-9-5.3-9-6.4 0-.6.5-.4 1.1.4.9 1.3 1 1.3.6 0-.2-.8-1-1.5-1.8-1.5s-1.4-.5-1.4-1.2c0-.6-.4-1.5-.9-2s-.6-.3-.2.4.3 1.3-.3 1.3c-.5 0-1.9-2-3.1-4.5s-2.4-4.5-2.6-4.5c-.3 0-.2.6.2 1.2.4.7.4 1 0 .6-.4-.3-.8-1-.8-1.5-.1-.4-1.1-2.7-2.4-5-2-3.8-4.1-11.6-3.6-13.6.1-.4-.2-.7-.7-.7-1.4 0-1.9-4.8-.7-6.1.8-.9.8-1-.2-.5-2.1 1.2-1.2-22 1.1-28.9.2-.6.7-2.7 1.1-4.7.5-2.3 1.2-3.5 1.9-3.1.6.3.7.1.3-.5s.1-2.6 1.1-4.4c.9-1.8 1.8-3.8 1.8-4.3.1-.6.7-.9 1.4-.7.7.1 1-.1.8-.5-.8-1.3 1.2-5.5 2.3-4.8.5.3.7 0 .4-.8s0-1.8.7-2.3c.8-.5 1-.3.5.7-.4.8 0 .5.9-.6s2.1-2 2.8-2 1.1-.8.9-1.8.6-2.1 2-2.7c1.3-.5 1.7-.9.8-1-.8 0-.2-.8 1.5-1.7 1.7-1 3.4-1.6 3.8-1.5.5.1.6-.2.2-.7-.5-1 6.1-6.1 7.8-6.1.5 0 2.3-1 4-2.2s2.7-1.6 2.3-.9c-.6.9-.1.8 1.5-.2 1.3-.9 4-1.8 5.9-2.1s4.9-.8 6.5-1.1c1.7-.3 6.2-.8 10-1.2 3.9-.3 7.2-.7 7.4-.9s26.4-.4 58.2-.4H267zM644 65.5c1.3 1.4 2.1 2.5 1.8 2.5-.2 0-1.5-1.1-2.8-2.5s-2.1-2.5-1.8-2.5c.2 0 1.5 1.1 2.8 2.5"/><path d="M563.8 48.7c.7.3 1.6.2 1.9-.1.4-.3-.2-.6-1.3-.5-1.1 0-1.4.3-.6.6m-432 1c.6.2 1.8.2 2.5 0 .6-.3.1-.5-1.3-.5s-1.9.2-1.2.5M272.4 63c0 8 .2 11.2.3 7.2.2-3.9.2-10.5 0-14.5-.1-3.9-.3-.7-.3 7.3m295.4-13.3c.7.3 1.6.2 1.9-.1.4-.3-.2-.6-1.3-.5-1.1 0-1.4.3-.6.6m4 1c.7.3 1.6.2 1.9-.1.4-.3-.2-.6-1.3-.5-1.1 0-1.4.3-.6.6m-302.7 12c-.4 2.6-.7 4.1-1.1 4.8-.7 1.3-1.8 7.7-2.4 13.5-.2 2.5-.9 6.5-1.5 9-.5 2.5-1.2 5.8-1.5 7.5-.9 5.8-2 13-2.1 13.9 0 1.5-2 1.6-52.5 1.7-50.3.1-54.7.5-54.7 4.3 0 .9.8 1.6 1.9 1.6 1 0 1.8.4 1.8.8 0 .5.6.9 1.3 1 .6 0 2.2.3 3.4.5 1.1.3 4.3.8 7 1.2 2.6.4 5.9.9 7.3 1.2 1.4.2 3.1.5 3.8.5.6.1 1.2.4 1.2.8 0 .3 1 .6 2.3.7 4.7.4 16.5 2.6 23.6 4.4 4.1 1 7.7 1.7 7.9 1.4.3-.3 1.2.1 2 .8 1.3 1 1.4.9.7-.3-.7-1.3-.6-1.3.7-.2.9.7 2.7 1.5 4 1.7 1.2.3 3.4.8 4.8 1.1s3.6.8 5 1.1 3.1 1.1 3.9 1.7c1.1.8 1.3.8.8-.1-.5-.8-.1-.8 1.7 0 1.3.7 2.2 1.6 1.9 2.1-.4.5-.1.6.6.1.7-.4 2.5-.2 3.9.5 7.4 3.5 10.8 5.5 12 7.2.7 1 1.8 1.6 2.3 1.2.6-.3 2.1.6 3.4 2 1.4 1.5 2.8 2.6 3.2 2.6.5 0 .8.6.8 1.4 0 .7.6 2 1.3 2.8.6.8.8 1.9.4 2.3-.4.5-.1.5.6.1 1-.6 1-1.1.2-2.1-.7-.9-.8-1.4 0-1.7.7-.2.9-15.2.7-47.8-.1-26.1-.4-46.5-.6-45.3"/><path d="M265.1 70.6c0 1.1.3 1.4.6.6.3-.7.2-1.6-.1-1.9-.3-.4-.6.2-.5 1.3m-.9 5.4c0 1.4.2 1.9.5 1.2.2-.6.2-1.8 0-2.5-.3-.6-.5-.1-.5 1.3m8.3 41c0 21.7.1 30.6.2 19.7.2-10.8.2-28.6 0-39.5-.1-10.8-.2-1.9-.2 19.8m-9.4-35.4c0 1.1.3 1.4.6.6.3-.7.2-1.6-.1-1.9-.3-.4-.6.2-.5 1.3m-4 21c0 1.1.3 1.4.6.6.3-.7.2-1.6-.1-1.9-.3-.4-.6.2-.5 1.3m85.6 5.1c-.4.3-.7 4.6-.7 9.4 0 10.8-1.3 10.2 21.2 9.6 16.8-.5 19.2-.7 20.5-2.2.4-.4.1-.5-.7-.1-1 .5-.9.3.2-.6.9-.8 2-2.6 2.3-4.1.4-1.5 1.2-2.7 1.7-2.7.7 0 .6-.5-.1-1.3-.6-.8-.8-1.7-.4-2.1.4-.3-.2-1.3-1.3-2.2-1-.8-1.3-1.3-.6-.9.6.3 1.2.4 1.2.1s-1.6-1.3-3.6-2.1c-2.8-1.1-7.8-1.5-21.4-1.5-9.7 0-18 .3-18.3.7m-105.9 4c1.8.2 4.5.2 6 0s0-.4-3.3-.4-4.5.2-2.7.4m297.5 0c3.1.2 8.3.2 11.5 0 3.1-.2.5-.3-5.8-.3s-8.9.1-5.7.3m-79.4 2.9c-.1 3-.3 4.4-1.5 10.4-.4 1.9-.8 3.7-.8 4-.3 1.4-3.4 4.9-3.9 4.4-.3-.4-.4.5-.2 1.9.3 1.4-.1 3-1 3.7-.8.7-1.5 1.9-1.5 2.6 0 .8-.4 1.4-.9 1.4s-2.4 1.4-4.2 3.1c-2.5 2.3-3.4 2.7-4.2 1.7-.6-.9-.7-.8-.3.4.6 2-3.6 5.4-5.4 4.3-.6-.4-.9-.1-.8.6.2.7 2.7 2.4 5.5 3.8 2.9 1.5 5.3 3.3 5.3 4.1 0 1.3.1 1.3 1 0s1.4-.7 1.1 1.2c0 .5.6.8 1.4.8s1.5.5 1.5 1c0 .6.8 1.4 1.7 1.7 1 .4 3.2 2.2 4.9 4.1l3.2 3.5.5-4.4c.5-4.8-.3-56.1-.9-56.8-.2-.2-.4.9-.5 2.5m98.9-1.9c.6.2 1.8.2 2.5 0 .6-.3.1-.5-1.3-.5s-1.9.2-1.2.5m-23.7 1.2c-1.9 1.2-3 82.9-1.2 87.5l1.2 2.9 12.4-.6c13.1-.6 17.6-2 27.7-8.4 2.4-1.4 4.5-2.6 4.8-2.6.3.1.4-.2.3-.7-.1-.4 1-1.8 2.4-3.1s2.3-1.8 1.9-1.2c-.4.7-.4 1.3-.1 1.3s1.1-1.4 1.6-3c.6-1.7 1.5-3 2-3s.9-.6.9-1.4.5-1.8 1.2-2.2q1.05-.75.3.6c-.5.9-.4 1.1.4.6.6-.4.9-1.1.6-1.6s.4-3.3 1.7-6.2c1.9-4.3 2.3-7 2.2-14.3-.1-10-.5-12.7-1.8-13.7-.9-.6-1.6-2.7-1.8-5.5-.1-.7-.4-1-.7-.8-.4.2-1.4-1-2.4-2.6-.9-1.7-1.2-2.7-.7-2.4.6.3 1 .4 1 0 0-.3-1.1-1-2.5-1.5s-2.5-1.4-2.5-2 .6-.8 1.3-.4.9.3.4-.2-1.2-.9-1.5-.9c-1.6-.1-5.2-2.7-5.2-3.7 0-.6.7-.5 1.8.3 1.6 1.3 1.6 1.3-.1-.7-.9-1.1-1.4-2.4-1-2.9.5-.4.2-.5-.5-.1s-1 1.2-.7 1.7c1.1 1.8-.7.9-4.6-2.2-2.1-1.7-3.9-2.8-3.9-2.4 0 .6-5.8-2.3-7-3.5-1.5-1.5-25.9-2.5-27.9-1.1m-177.8 14.8c4.8.2 12.5.2 17 0 4.5-.1.6-.3-8.8-.3-9.3 0-13 .2-8.2.3m-146.5 4c.7.3 1.6.2 1.9-.1.4-.3-.2-.6-1.3-.5-1.1 0-1.4.3-.6.6m20 4.5c.5.5 1.6.8 2.3.6.8-.3.3-.7-1-1.1-1.7-.4-2.1-.3-1.3.5"/><path d="M445.6 140.5c-.3.8-.1 1.5.4 1.5.6 0 1-.7 1-1.5s-.2-1.5-.4-1.5-.6.7-1 1.5m211.6.5c0 1.4.2 1.9.5 1.2.2-.6.2-1.8 0-2.5-.3-.6-.5-.1-.5 1.3m-63 11.5c0 1.6.2 2.2.5 1.2.2-.9.2-2.3 0-3-.3-.6-.5.1-.5 1.8m-321.9 8c0 2.2.2 3 .4 1.7.2-1.2.2-3 0-4-.3-.9-.5.1-.4 2.3m322 3c0 2.2.2 3 .4 1.7.2-1.2.2-3 0-4-.3-.9-.5.1-.4 2.3m62.8 13.1c0 1.1.3 1.4.6.6.3-.7.2-1.6-.1-1.9-.3-.4-.6.2-.5 1.3m-302.3 9.1c5.7.2 14.7.2 20 0 5.3-.1.7-.3-10.3-.3s-15.4.2-9.7.3m-10.2 2.9c-.3.9-.6 6-.6 11.5v10l20.3-.4c19.4-.4 24.2-.8 24.2-1.7 0-.3 1.1-2 2.4-3.8 1.7-2.5 2.2-4.1 1.7-6.5-.4-1.8-.7-3.7-.8-4.4s-.4-1.1-.7-.9c-.9.6-3.1-2.1-2.3-2.8.3-.4-.2-.4-1.2 0-1.3.5-1.7.4-1.3-.3 1.1-1.8-2.9-2.2-22.4-2.2-15.9 0-18.8.2-19.3 1.5m-168.8 1.1c.6.2 1.8.2 2.5 0 .6-.3.1-.5-1.3-.5s-1.9.2-1.2.5m26 5c.7.3 1.6.2 1.9-.1.4-.3-.2-.6-1.3-.5-1.1 0-1.4.3-.6.6m-85 11c16.1.2 42.2.2 58 0 15.8-.1 2.6-.2-29.3-.2s-44.8.1-28.7.2m419 0c2.8.2 7.6.2 10.5 0 2.8-.2.5-.3-5.3-.3s-8.1.1-5.2.3m-263.5 49.8c0 2.2.2 3 .4 1.7.2-1.2.2-3 0-4-.3-.9-.5.1-.4 2.3M250 259c-.9.6-1 1-.3 1 .6 0 1.5-.5 1.8-1 .8-1.2.4-1.2-1.5 0m22.2 5c0 1.4.2 1.9.5 1.2.2-.6.2-1.8 0-2.5-.3-.6-.5-.1-.5 1.3m-51.4 3.7c.6.2 1.8.2 2.5 0 .6-.3.1-.5-1.3-.5s-1.9.2-1.2.5m199 0c.6.2 1.8.2 2.5 0 .6-.3.1-.5-1.3-.5s-1.9.2-1.2.5m144.5 0c.9.2 2.3.2 3 0 .6-.3-.1-.5-1.8-.5-1.6 0-2.2.2-1.2.5m-481 1c.9.2 2.5.2 3.5 0 .9-.3.1-.5-1.8-.5s-2.7.2-1.7.5m15 0c.9.2 2.3.2 3 0 .6-.3-.1-.5-1.8-.5-1.6 0-2.2.2-1.2.5m101.5 0c3.4.2 8.8.2 12 0 3.1-.2.3-.3-6.3-.3s-9.2.1-5.7.3m81 0c3.9.2 10.5.2 14.5 0 3.9-.1.7-.3-7.3-.3s-11.2.2-7.2.3m43 0c5 .2 13.4.2 18.5 0 5-.1.9-.3-9.3-.3s-14.3.2-9.2.3m57 0c1.2.2 3 .2 4 0 .9-.3-.1-.5-2.3-.4-2.2 0-3 .2-1.7.4m12 0c1.7.2 4.7.2 6.5 0 1.7-.2.3-.4-3.3-.4s-5 .2-3.2.4m19 0c1.2.2 3.2.2 4.5 0 1.2-.2.2-.4-2.3-.4s-3.5.2-2.2.4m60 0c6.1.2 16.3.2 22.5 0 6.1-.1 1.1-.3-11.3-.3s-17.4.2-11.2.3m67 0c1.7.2 4.7.2 6.5 0 1.7-.2.3-.4-3.3-.4s-5 .2-3.2.4m14 0c1.8.2 4.5.2 6 0s0-.4-3.3-.4-4.5.2-2.7.4m113.5-241c-.7.2-1.3.9-1.3 1.5 0 .7.5.7 1.3-.1.8-.6 1.8-.7 2.2-.3.5.4.5.1.1-.6-.4-.6-.8-1.2-.9-1.1-.1 0-.8.3-1.4.6m13 5.3c0 2.5.2 3.5.4 2.2.2-1.2.2-3.2 0-4.5-.2-1.2-.4-.2-.4 2.3m-10.2-.4c0 1.1.3 1.4.6.6.3-.7.2-1.6-.1-1.9-.3-.4-.6.2-.5 1.3M663 87.9c0 .6.4 1.3 1 1.6s.7-.1.4-.9c-.7-1.8-1.4-2.1-1.4-.7m9.6 18.4c.3 1 .9 1.5 1.2 1.2s0-1.1-.7-1.8c-1-.9-1.1-.8-.5.6m8.6 28.7c0 1.4.2 1.9.5 1.2.2-.6.2-1.8 0-2.5-.3-.6-.5-.1-.5 1.3m.9 41.6c0 1.1.3 1.4.6.6.3-.7.2-1.6-.1-1.9-.3-.4-.6.2-.5 1.3m-1 7c0 1.1.3 1.4.6.6.3-.7.2-1.6-.1-1.9-.3-.4-.6.2-.5 1.3m-3.5 13.9c-.9 2.6-.7 3.2.5 1.2.6-1 .9-2.1.6-2.3-.2-.3-.7.2-1.1 1.1m-36.2 56.7-1.9 2.3 2.3-1.9c2.1-1.8 2.7-2.6 1.9-2.6-.2 0-1.2 1-2.3 2.2m-42.1 29.3c0 .8.4 1.2.9.9s.6-1 .3-1.5c-.9-1.3-1.2-1.1-1.2.6m-46 10.2c1.5.2 3.9.2 5.5 0 1.5-.2.2-.4-2.8-.4s-4.3.2-2.7.4m-465.5 1c1.2.2 3 .2 4 0 .9-.3-.1-.5-2.3-.4-2.2 0-3 .2-1.7.4m131 47c1.8.2 4.5.2 6 0s0-.4-3.3-.4-4.5.2-2.7.4m123 0c.7.3 1.6.2 1.9-.1.4-.3-.2-.6-1.3-.5-1.1 0-1.4.3-.6.6m5 0c1.2.2 3.2.2 4.5 0 1.2-.2.2-.4-2.3-.4s-3.5.2-2.2.4m34 0c1.2.2 3 .2 4 0 .9-.3-.1-.5-2.3-.4-2.2 0-3 .2-1.7.4m39.4 15.5L420 374h2.5c1.7 0 2.5-.5 2.4-1.8 0-1-.3-1.2-.6-.5-.2.7-1.1 1.3-1.9 1.3-1.1 0-1.4-3.2-1.7-16.3l-.3-16.2zm43.1-15.5c3.1.2 8.3.2 11.5 0 3.1-.2.5-.3-5.8-.3s-8.9.1-5.7.3m34 0c1.5.2 3.7.2 5 0 1.2-.2 0-.4-2.8-.4-2.7 0-3.8.2-2.2.4m-109 1c.9.2 2.3.2 3 0 .6-.3-.1-.5-1.8-.5-1.6 0-2.2.2-1.2.5m34.5 0c.7.3 1.6.2 1.9-.1.4-.3-.2-.6-1.3-.5-1.1 0-1.4.3-.6.6m-206.8 3c0 1 .4 1.4.8.8s1.1-1.3 1.6-1.8c.5-.4.2-.7-.7-.7-1 0-1.7.8-1.7 1.7m127.8-1c.7.3 1.6.2 1.9-.1.4-.3-.2-.6-1.3-.5-1.1 0-1.4.3-.6.6m65.8.6c.3 1 .9 1.5 1.2 1.2s0-1.1-.7-1.8c-1-.9-1.1-.8-.5.6m90.7-.6c.9.2 2.5.2 3.5 0 .9-.3.1-.5-1.8-.5s-2.7.2-1.7.5M376.5 346c.3.5.8 1 1.1 1 .2 0 .4-.5.4-1 0-.6-.5-1-1.1-1-.5 0-.7.4-.4 1m11.3-.3c.7.3 1.6.2 1.9-.1.4-.3-.2-.6-1.3-.5-1.1 0-1.4.3-.6.6m4.7.3c-.3.5-.1 1 .4 1 .6 0 1.1-.5 1.1-1 0-.6-.2-1-.4-1-.3 0-.8.4-1.1 1m-119.8 4.3c.6 5.6 1.3 6.1 1.1.8-.1-2.3-.4-4.4-.8-4.6s-.5 1.5-.3 3.8m71-2c-1.1 2.9-.9 4.3.4 3 .6-.6.9-1.9.7-2.9-.3-1.8-.4-1.8-1.1-.1m114.6 2.7c0 2.5.2 3.5.4 2.2.2-1.2.2-3.2 0-4.5-.2-1.2-.4-.2-.4 2.3m1.9-.3c-.2 5.1 1.4 6.2 7.3 5.2l4-.7h-4c-2.2 0-4.5 0-5.2-.1-.6-.1-1.4-2-1.6-4.4l-.4-4.2zm29-1.7c0 1.4.2 1.9.5 1.2.2-.6.2-1.8 0-2.5-.3-.6-.5-.1-.5 1.3m-187.9 3.5c0 2.7.2 3.8.4 2.2.2-1.5.2-3.7 0-5-.2-1.2-.4 0-.4 2.8m74 6c0 5.5.2 8.7.4 7 .3-1.6 1-3.3 1.6-3.7.9-.6.8-.8-.2-.8-1.1 0-1.1-.3 0-1.6.9-1.1 1-1.7.2-2.2-.7-.4-1.3-2.5-1.6-4.7-.2-2.2-.4.5-.4 6m35.1 2.5c0 6.9.1 9.7.3 6.3.2-3.5.2-9.1 0-12.6-.2-3.4-.3-.6-.3 6.3m-172.2-8.5c0 1.6.2 2.2.5 1.2.2-.9.2-2.3 0-3-.3-.6-.5.1-.5 1.8m48.1 5c0 3.8.2 5.3.4 3.2.2-2 .2-5.2 0-7-.2-1.7-.4-.1-.4 3.8m-40 1.5c0 3.6.2 5 .4 3.2.2-1.7.2-4.7 0-6.5-.2-1.7-.4-.3-.4 3.3m2.7-4.5c0 .8.4 1.5 1 1.5.5 0 .7-.7.4-1.5-.4-.8-.8-1.5-1-1.5s-.4.7-.4 1.5m81.3 6.5c0 4.7.2 6.6.4 4.2.2-2.3.2-6.1 0-8.5-.2-2.3-.4-.4-.4 4.3m-27.1-4c0 1.9.2 2.7.5 1.7.2-.9.2-2.5 0-3.5-.3-.9-.5-.1-.5 1.8m-51.1-1.6c.7.7 18.9.9 19.6.2.3-.3-4-.6-9.7-.6s-10.1.2-9.9.4m76.2 6.1c0 3.8.2 5.3.4 3.2.2-2 .2-5.2 0-7-.2-1.7-.4-.1-.4 3.8m16.1-4.8c-1.2 2.9-1 4.6.6 5 1.3.4 1.3.3 0-.6-.8-.6-1-1.1-.4-1.1s1.2-1.1 1.2-2.5c0-3-.3-3.1-1.4-.8m49.1-.6c-.4.6-.5 1.2-.2 1.5.2.3.7-.2 1-1.1.7-1.7.1-2-.8-.4m-162.2 1.6c0 .8.5.9 1.1.4.6-.4 1.8-1.1 2.6-1.4s.3-.5-1.1-.4-2.6.7-2.6 1.4"/><path d="M273 357.2c0 1-2.6 1.3-9.7 1.2-7.2-.1-7.8 0-2.3.3 4.1.2 8.2.6 9 1 3.2 1.3 4 1.1 4-1.3 0-1.3-.2-2.4-.5-2.4s-.5.6-.5 1.2m-56.6 1.2c-.4 1-.2 2.2.4 2.8.8.8 1.3.7 1.8-.6.4-1 .2-2.2-.4-2.8-.8-.8-1.3-.7-1.8.6m1.3 1.8c-.3.8-.6.5-.6-.6-.1-1.1.2-1.7.5-1.3.3.3.4 1.2.1 1.9m30.8-2.2c-.3.5-.1 1.8.5 2.7.9 1.5 1 1.4.4-.6-.4-1.7-.3-2.1.6-1.6q1.35.75.6-.3c-.9-1.5-1.3-1.5-2.1-.2m211.8.3c0 .8 1.3 1.3 3.1 1.4 1.9.1 2.3-.1 1.1-.4-1.1-.3-2.5-.9-3.1-1.4-.7-.5-1.1-.4-1.1.4m-16.2 1.7c-.2 1.4-.4 3.4-.7 4.5-.5 2.7 1.7 7 2.8 5.3 1.5-2.4.9-5.1-.9-4.4-1.5.5-1.5.4.1-.9 1.1-.8 1.5-1.5.9-1.5-.7 0-1.4-1.2-1.6-2.8-.4-2.6-.4-2.6-.6-.2m26.7-1.3c.6.2 1.8.2 2.5 0 .6-.3.1-.5-1.3-.5s-1.9.2-1.2.5m25 0c.7.3 1.6.2 1.9-.1.4-.3-.2-.6-1.3-.5-1.1 0-1.4.3-.6.6m10.2 1.2c0 .6.4 1.3 1 1.6s.7-.1.4-.9c-.7-1.8-1.4-2.1-1.4-.7m-204.9 1.7c0 1.1.3 1.4.6.6.3-.7.2-1.6-.1-1.9-.3-.4-.6.2-.5 1.3m123.2 3.4c0 2.5.2 3.5.4 2.2.2-1.2.2-3.2 0-4.5-.2-1.2-.4-.2-.4 2.3m-151.6-1.5c-.4.8-.3 1.6.1 1.9s.9-.4.9-1.5c.2-2.3-.3-2.5-1-.4m236.4.1c0 1.1.3 1.4.6.6.3-.7.2-1.6-.1-1.9-.3-.4-.6.2-.5 1.3m-165.9 2c-.1 1.3 0 2.4.2 2.4.7 0 1.4-4 .7-4.4-.4-.3-.8.6-.9 2m168-.1c0 1.6.2 2.2.5 1.2.2-.9.2-2.3 0-3-.3-.6-.5.1-.5 1.8m-52.9 3.5c0 3 .2 4.3.4 2.7.2-1.5.2-3.9 0-5.5-.2-1.5-.4-.2-.4 2.8m-186.3.5c0 .8.2 1.5.4 1.5s.6-.7 1-1.5c.3-.8.1-1.5-.4-1.5-.6 0-1 .7-1 1.5m235.5-.5c-.4.6-1.2.7-1.8.3-.7-.4-.6 0 .2 1 .7.9 1.9 1.7 2.5 1.6.6 0 .6-.3-.2-.6-1-.4-1-.8-.1-1.9.6-.8.9-1.4.6-1.4s-.9.5-1.2 1m-205 .9c-.3.5-.2 1.2.3 1.5s.9-.1.9-.9c0-1.7-.3-1.9-1.2-.6m160 .2c-.4.6-.4 1.3-.1 1.6.3.4.6.1.6-.6s.5-.9 1.2-.5.8.3.4-.4c-.9-1.5-1.3-1.5-2.1-.1m-176.7 3.6c.6.2 1.8.2 2.5 0 .6-.3.1-.5-1.3-.5s-1.9.2-1.2.5m24.5 0c1.5.2 3.9.2 5.5 0 1.5-.2.2-.4-2.8-.4s-4.3.2-2.7.4m135.5 0c.7.3 1.6.2 1.9-.1.4-.3-.2-.6-1.3-.5-1.1 0-1.4.3-.6.6m15.5 0c.9.2 2.3.2 3 0 .6-.3-.1-.5-1.8-.5-1.6 0-2.2.2-1.2.5"/></g></svg>