<?xml version="1.0" encoding="utf-8"?>
<!-- Generator: Adobe Illustrator 27.2.0, SVG Export Plug-In . SVG Version: 6.00 Build 0)  -->
<svg version="1.1" id="Layer_1" xmlns="http://www.w3.org/2000/svg" xmlns:xlink="http://www.w3.org/1999/xlink" x="0px" y="0px"
	 viewBox="0 0 3488 500" style="enable-background:new 0 0 3488 500;" xml:space="preserve">
<style type="text/css">
	.st0{fill:#0030FF;}
	.st1{fill:#FFFFFF;}
</style>
<g>
	<g>
		<g>
			<path class="st0" d="M500.7,250c0-138.1-111.9-250-250-250S0.7,111.9,0.7,250s111.9,250,250,250S500.7,388.1,500.7,250"/>
		</g>
		<g>
			<path class="st1" d="M318.1,292.4c-16.5,0-35-11.2-44.1-37.6V411h23.1V308.2c7.2,4.8,14.6,6.1,21.1,6.1c6.5,0,13.9-1.3,21.1-6.1
				V411h23.1V254.8C353.2,281.2,334.6,292.4,318.1,292.4 M381.2,411h23.1V85.7h-23.1V411z M131.1,324.8c1,7.1,3.5,13,6.9,17.8
				c4.6,6.5,10.3,9.1,17.9,9c11.2-0.3,17-9.9,17.6-21.9c0.6-12.6-3.7-26.3-11.5-37c-3.6-4.9-9.3-11.2-18-19
				C135.2,287.6,128.3,305.2,131.1,324.8 M232,85.7h23.1V411H232v-47.7c-9.6,25.3-28.7,43.2-54,50.5c-5.1,1.5-12.7,2.7-21.5,2.7
				c-14.2,0-31.6-3.2-47.8-13.5c-15.1-9.6-34.6-28.5-39.8-66.5c-5.1-37,9.8-69.1,26.4-91.4l16.7,10.1c-14,22.1-24.9,44.9-20.5,77.8
				c3,22,13.6,40.3,29.6,50.6c12.8,8.2,26.2,9.9,35.3,9.9c5.6,0,11.1-0.7,15.2-1.9c18.5-5.3,32.4-18.7,39.2-37.6
				c9.4-25.9,4.3-57.9-13.1-83.7c-9.8-14.4-32-34.4-45.4-46.3c-3.6-3.3-6.8-6.1-8.3-7.6c-23.4-23-32-42-28.9-63.5
				c2-13.8,12.9-25.7,25.8-28.5c11.2-2.4,22.3,0.1,32.2,7.1c14.3,10.1,24.4,28.4,28.1,49.8l-19.1,4.8c-3-15.1-10.6-35.5-28.2-39.5
				c-3.9-0.9-8.6-0.1-11.5,2.2c-7,5.4-5.4,17.1-2.4,24.4c4.2,10.4,12.4,19.1,20.2,26.8c1.1,1.1,4.4,4.1,7.6,6.9
				c19.1,17.1,38.6,35.1,49.1,50.6c6.5,9.6,11.5,19.9,15.1,30.6V173.6l-14.2,3.6c-4.7-25.9-15.8-48.3-33.8-61
				c-14.3-10.1-30.5-13.6-46.9-10.1c-10.1,2.2-19.8,7.9-27.1,16.1c-7.1,7.9-11.9,17.9-13.4,28c-4.1,27.8,6.5,52.4,34.3,79.7
				c1.8,1.8,5,4.6,9,8.2c11.8,10.6,33.9,30.4,42.3,42.9c13.9,20.5,18.2,46.7,11,66.7c-3.4,9.3-10.7,21.2-26.8,25.8
				c-4.7,1.3-21.1,3.3-35.1-5.7c-11.3-7.2-18.7-21.2-21.2-37.6c-2.1-14.4-0.7-41.3,18.4-69l0.9-1.2c0,0,0.1,0.1,0,0
				c-5.3-4.7-12.5-11.5-14.8-13.7c-20.8-20.5-47.8-53.1-40.9-99.5c4.6-30.9,28.6-57,58.6-63.4c22.6-4.8,43.9,0.3,63.5,13.8
				c16.1,11.1,29.3,29.7,36.3,56.2V85.7z M318.1,273.3c4.1,0,11.7-1.4,18.1-9.5c12.1-15.3,26-33.4,26-178.1h-22.9
				c0,43.1-1.5,83.2-5.1,111.4c-4.9,38.4-10.1,53.2-16,53.2c-5.8,0-10.9-14.8-16.1-53.2c-3.8-28.1-5.1-68.2-5.1-111.4h-22.9
				c0,144.6,13.6,162.6,26,178.1C306.2,271.5,314,273.3,318.1,273.3 M129.4,260L129.4,260C129.4,259.9,129.3,259.9,129.4,260"/>
		</g>
	</g>
	<g>
		<g>
			<path class="st0" d="M864.9,88.1v279.4h-19.4L697.9,118.6h-46.7v293.2h-38.9V88.1H715l110.1,185v-185H864.9z M666.9,132.5h21.3
				l147.5,248.8h44.9V88.1h37.9v323.8h-99.4L705.8,222.2v189.6h-38.9V132.5z"/>
			<path class="st0" d="M1025.2,396.5c-24.7-14-43.9-33.6-57.6-58.9c-13.6-25.3-20.5-54.5-20.5-87.6s6.8-62.4,20.5-87.6
				c13.6-25.3,32.8-44.9,57.6-58.9c24.7-14,53.3-20.9,85.7-20.9s60.9,7,85.7,20.9c24.7,14,43.9,33.6,57.6,58.9
				c13.6,25.3,20.5,54.5,20.5,87.6s-6.8,62.4-20.5,87.6c-13.6,25.3-32.8,44.9-57.6,58.9c-24.7,14-53.3,20.9-85.7,20.9
				S1050,410.5,1025.2,396.5z M1000.7,321.6c10.7,20.7,25.6,36.8,44.7,48.2c19.1,11.4,40.9,17.1,65.4,17.1
				c24.5,0,46.3-5.7,65.4-17.1c19.1-11.4,34-27.5,44.7-48.2c10.7-20.7,16.1-44.6,16.1-71.6s-5.4-50.8-16.1-71.6
				c-10.7-20.7-25.6-36.8-44.7-48.2c-19.1-11.4-40.9-17.1-65.4-17.1c-24.5,0-46.3,5.7-65.4,17.1c-19.1,11.4-34,27.5-44.7,48.2
				C990,199.2,984.7,223,984.7,250S990,300.8,1000.7,321.6z M1014.3,313.6c9.3,18.5,22.3,32.9,39.1,43.1
				c16.8,10.3,36,15.4,57.6,15.4c21.6,0,40.8-5.1,57.6-15.4c16.8-10.3,29.8-24.6,39.1-43.1c9.3-18.5,13.9-39.7,13.9-63.6
				s-4.6-45.1-13.9-63.6c-9.3-18.5-22.3-32.9-39.1-43.1c-16.8-10.3-36-15.4-57.6-15.4c-21.6,0-40.8,5.1-57.6,15.4
				c-16.8,10.3-29.8,24.6-39.1,43.1c-9.3,18.5-13.9,39.7-13.9,63.6S1005,295.1,1014.3,313.6z M1053,204.6
				c5.5-13,13.2-23.1,23.2-30.3c10-7.2,21.6-10.8,34.7-10.8c13.1,0,24.7,3.6,34.7,10.8c10,7.2,17.8,17.3,23.2,30.3
				c5.5,13,8.2,28.2,8.2,45.4s-2.7,32.4-8.2,45.4c-5.5,13-13.2,23.1-23.2,30.3c-10,7.2-21.6,10.8-34.7,10.8
				c-13.1,0-24.7-3.6-34.7-10.8c-10-7.2-17.8-17.3-23.2-30.3c-5.5-13-8.2-28.2-8.2-45.4S1047.5,217.6,1053,204.6z"/>
			<path class="st0" d="M1303.3,411.9V88.1h174.8c20.2,0,38.1,4.4,53.7,13.2c15.6,8.8,27.7,21.2,36.4,37.1
				c8.7,16,13.1,34.2,13.1,54.7c0,23.7-6,44.1-17.9,61.2c-11.9,17-28.6,29-50.1,36l80,121.6H1548l-93-146.2
				c27.3-1.1,48.4-8,63.2-20.8c14.9-12.8,22.3-30.2,22.3-52.3c0-15.1-3.2-28.2-9.6-39.3c-6.4-11.1-15.6-19.7-27.6-25.7
				c-12-6-26.3-9-42.8-9h-117.9v293.2H1303.3z M1358.4,251.9V133h99.9c21.1,0,37.5,5.2,49.1,15.7c11.6,10.5,17.5,25.1,17.5,43.9
				c0,18.8-6.7,33.4-20,43.7c-13.3,10.3-32.4,15.5-57.2,15.5H1358.4z M1358.4,266.2h79.6l92.5,145.7h-46.7l-71.2-115.6h-14.8v115.6
				h-39.3V266.2z M1397.7,222.2h56.9c8.8,0,15.8-2.6,21.2-7.9c5.3-5.2,8-12.2,8-20.8c0-8.6-2.7-15.6-8-20.8
				c-5.3-5.2-12.4-7.9-21.2-7.9h-56.9V222.2z"/>
			<path class="st0" d="M1592.4,88.1h282.1v30.5h-282.1V88.1z M1686.3,411.9v-247h-93.9V133h133.2v278.9H1686.3z M1741.3,133h133.2
				v31.9h-93.9v247h-39.3V133z"/>
			<path class="st0" d="M1901.3,411.9V88.1h39.3v323.8H1901.3z M1956.4,88.1h39.3v119.3h105.9V88.1h39.3v150.3h-184.5V88.1z
				 M1956.4,252.8h184.5v159.1h-39.3V284.2h-105.9v127.7h-39.3V252.8z M2156.7,88.1h39.3v323.8h-39.3V88.1z"/>
			<path class="st0" d="M2347.2,381.4H2547v30.5h-239.1V88.1h238.2v30.5h-198.9V381.4z M2362.9,133h183.2v31h-143.8v44.4h124v30.1
				h-163.3V133z M2362.9,252.8h163.3v30.5h-124V336H2547v31h-184.1V252.8z"/>
			<path class="st0" d="M2579.4,88.1h115.2c35.6,0,67,6.7,94.1,20.2c27.1,13.5,48.1,32.5,63,56.9c14.9,24.4,22.3,52.7,22.3,84.8
				s-7.4,60.3-22.3,84.8c-14.9,24.4-35.9,43.4-63,56.9c-27.1,13.5-58.5,20.2-94.1,20.2h-115.2V88.1z M2694.1,381.4
				c28.1,0,52.8-5.4,74.1-16.3c21.4-10.9,37.8-26.2,49.5-46.1c11.6-19.9,17.5-42.9,17.5-68.9c0-25.9-5.9-48.8-17.6-68.7
				c-11.7-19.9-28.3-35.3-49.6-46.3c-21.4-10.9-46-16.4-73.9-16.4h-75.4v262.7H2694.1z M2634.4,133h58.3c25.6,0,47.9,4.8,67.1,14.5
				c19.1,9.6,33.8,23.3,44.2,40.9c10.3,17.7,15.5,38.2,15.5,61.6c0,23.6-5.2,44.2-15.5,61.9c-10.3,17.7-25.1,31.3-44.2,40.8
				c-19.1,9.6-41.5,14.3-67.1,14.3h-58.3V133z M2690.8,335.1c17,0,31.9-3.5,44.9-10.5c13-7,23-17,30.1-29.8
				c7.1-12.9,10.6-27.8,10.6-44.7s-3.6-31.9-10.6-44.7c-7.1-12.9-17.1-22.8-30.1-29.8c-12.9-7-27.9-10.5-44.9-10.5h-17.1v170.2
				H2690.8z"/>
			<path class="st0" d="M2890.2,189.4c0-22.8,5.8-42.2,17.3-58.3c11.6-16,27.7-28.1,48.3-36.3c20.7-8.2,44.4-12.3,71.2-12.3
				c20.8,0,41.6,2.3,62.3,6.9c20.7,4.6,38.8,10.9,54.2,19v34.2c-17-9.4-35.5-16.6-55.7-21.6c-20.2-5-40.3-7.5-60.4-7.5
				c-20.7,0-38.7,2.9-54,8.8c-15.3,5.9-27.1,14.2-35.4,25.1c-8.2,10.9-12.4,23.6-12.4,38.3c0,19,5.8,33.8,17.3,44.6
				c11.6,10.8,29.2,17.8,53,21l61.5,8.3c18.8,2.5,32.5,7.7,41.2,15.7c8.6,8,13,19.1,13,33.3c0,19.7-7.3,35.2-21.9,46.3
				c-14.6,11.1-35.2,16.7-61.9,16.7c-23.3,0-45.9-3.7-68-11c-22-7.3-42.4-17.8-61.1-31.6v-38.4c15.7,14.8,35.3,26.7,58.6,35.6
				c23.4,8.9,46.7,13.4,70,13.4c14.5,0,25.7-2,33.5-6c7.9-4,11.8-10,11.8-18c0-6-2.1-10.9-6.4-14.8c-4.2-3.9-10.6-6.3-19.1-7.4
				l-56.9-7.9c-32.5-4.5-57.4-14.7-74.6-30.8C2898.8,238.8,2890.2,217,2890.2,189.4z M2899,379v-33.3c19.3,13.1,40.1,23.2,62.6,30.2
				c22.4,7,44.6,10.5,66.5,10.5c20,0,37.5-3.1,52.5-9.4c15-6.2,26.5-15.2,34.7-26.8c8.2-11.6,12.3-25.5,12.3-41.5
				c0-18.3-5.3-32.7-16-43c-10.6-10.3-27.1-17-49.3-19.9l-61.1-8.3c-20.8-2.8-36-8.3-45.4-16.6c-9.5-8.3-14.2-20-14.2-35.2
				c0-18.7,7.5-32.9,22.4-42.7c15-9.8,36.2-14.7,63.6-14.7c21.4,0,42.5,2.7,63.3,8.2c20.7,5.5,38.3,13.1,52.8,22.8v36.1
				c-15.4-10.6-33.6-19.2-54.5-25.6c-20.9-6.4-41.4-9.6-61.6-9.6c-15.1,0-26.7,1.9-34.7,5.8c-8,3.9-12,9.3-12,16.4
				c0,5.7,2.5,10.4,7.6,14.2c5.1,3.8,12.3,6.3,21.5,7.5l59.7,7.9c31.9,4.2,55.5,13.6,70.9,28.4c15.3,14.8,23,35.2,23,61.3
				c0,23.3-5.6,43.6-16.9,61.1c-11.3,17.4-27.1,30.9-47.4,40.4c-20.4,9.5-43.9,14.2-70.8,14.2c-22.7,0-45.3-3.4-67.9-10.1
				C2938,400.7,2917.5,391.2,2899,379z"/>
			<path class="st0" d="M3162.1,411.9l110.1-323.8h104.5l110.5,323.8h-39.8l-95.7-293.2h-54.6l-97.1,293.2H3162.1z M3244.9,321.7
				h158.2l29.1,90.2h-42.1l-18-61.1h-96.7l-18,61.1h-42.1L3244.9,321.7z M3249.6,307.8l58.3-175.3h33.3l57.3,175.3H3249.6z
				 M3297.2,278.7h54.1l-26.8-91.1L3297.2,278.7z"/>
		</g>
	</g>
</g>
</svg>
