<svg xmlns="http://www.w3.org/2000/svg" version="1.0" viewBox="0 0 1763 603"><path fill="#FFF" fill-opacity=".1" d="M499.8 67.7c.7.3 1.6.2 1.9-.1.4-.3-.2-.6-1.3-.5-1.1 0-1.4.3-.6.6m6.3 7.9c0 1.1.3 1.4.6.6.3-.7.2-1.6-.1-1.9-.3-.4-.6.2-.5 1.3m131 5c0 1.1.3 1.4.6.6.3-.7.2-1.6-.1-1.9-.3-.4-.6.2-.5 1.3m-130 10c0 1.1.3 1.4.6.6.3-.7.2-1.6-.1-1.9-.3-.4-.6.2-.5 1.3m-22.3 4.1c.6.2 1.8.2 2.5 0 .6-.3.1-.5-1.3-.5s-1.9.2-1.2.5m-18 1c.6.2 1.8.2 2.5 0 .6-.3.1-.5-1.3-.5s-1.9.2-1.2.5m171.6 8.3c0 5.2.1 7.4.3 4.7.2-2.6.2-6.8 0-9.5-.2-2.6-.3-.4-.3 4.8m-20.2-3c0 1.9.2 2.7.5 1.7.2-.9.2-2.5 0-3.5-.3-.9-.5-.1-.5 1.8m-291 5c0 1.4.2 1.9.5 1.2.2-.6.2-1.8 0-2.5-.3-.6-.5-.1-.5 1.3m291 6c0 1.9.2 2.7.5 1.7.2-.9.2-2.5 0-3.5-.3-.9-.5-.1-.5 1.8m-137.4.7c.6.2 1.8.2 2.5 0 .6-.3.1-.5-1.3-.5s-1.9.2-1.2.5m-19 1c.6.2 1.8.2 2.5 0 .6-.3.1-.5-1.3-.5s-1.9.2-1.2.5M348.3 129c0 2.5.2 3.5.4 2.2.2-1.2.2-3.2 0-4.5-.2-1.2-.4-.2-.4 2.3m95 3.5c0 4.4.2 6.1.4 3.7.2-2.3.2-5.9 0-8-.2-2-.4-.1-.4 4.3m-78.2-.9c0 1.1.3 1.4.6.6.3-.7.2-1.6-.1-1.9-.3-.4-.6.2-.5 1.3m237.3 1.6-2.9 3.3 3.3-2.9c1.7-1.7 3.2-3.1 3.2-3.3 0-.8-.8-.1-3.6 2.9M304.3 138c0 3.6.2 5 .4 3.2.2-1.7.2-4.7 0-6.5-.2-1.7-.4-.3-.4 3.3m-51.9-.8-1.9 2.3 2.3-1.9c2.1-1.8 2.7-2.6 1.9-2.6-.2 0-1.2 1-2.3 2.2m12.5 14.5c-1.3 1.6-1.2 1.7.4.4.9-.7 1.7-1.5 1.7-1.7 0-.8-.8-.3-2.1 1.3m214.9-1c.7.3 1.6.2 1.9-.1.4-.3-.2-.6-1.3-.5-1.1 0-1.4.3-.6.6m-219.9 6c-1.3 1.6-1.2 1.7.4.4.9-.7 1.7-1.5 1.7-1.7 0-.8-.8-.3-2.1 1.3m217.4 2c.9.2 2.3.2 3 0 .6-.3-.1-.5-1.8-.5-1.6 0-2.2.2-1.2.5M590 171.4c0 .2.8 1 1.8 1.7 1.5 1.3 1.6 1.2.3-.4s-2.1-2.1-2.1-1.3m539.3 46.3c2 .2 5.4.2 7.5 0 2-.2.3-.4-3.8-.4s-5.8.2-3.7.4m112.5 2c1.8.2 4.5.2 6 0s0-.4-3.3-.4-4.5.2-2.7.4m-901 1c.7.3 1.6.2 1.9-.1.4-.3-.2-.6-1.3-.5-1.1 0-1.4.3-.6.6m139 0c.7.3 1.6.2 1.9-.1.4-.3-.2-.6-1.3-.5-1.1 0-1.4.3-.6.6m227 0c.6.2 1.8.2 2.5 0 .6-.3.1-.5-1.3-.5s-1.9.2-1.2.5m221 0c.7.3 1.6.2 1.9-.1.4-.3-.2-.6-1.3-.5-1.1 0-1.4.3-.6.6m296 0c.7.3 1.6.2 1.9-.1.4-.3-.2-.6-1.3-.5-1.1 0-1.4.3-.6.6m39.2 2.8c1.3 1.4 2.6 2.5 2.8 2.5.3 0-.5-1.1-1.8-2.5s-2.6-2.5-2.8-2.5c-.3 0 .5 1.1 1.8 2.5m-932.7 9c0 3.3.2 4.5.4 2.7s.2-4.5 0-6-.4 0-.4 3.3m161-.5c0 3 .2 4.3.4 2.7.2-1.5.2-3.9 0-5.5-.2-1.5-.4-.2-.4 2.8m-168.2-.4c0 1.1.3 1.4.6.6.3-.7.2-1.6-.1-1.9-.3-.4-.6.2-.5 1.3m864.9.8c0 .2.8 1 1.8 1.7 1.5 1.3 1.6 1.2.3-.4s-2.1-2.1-2.1-1.3m-79.6 51.8-2.9 3.3 3.3-2.9c3-2.8 3.7-3.6 2.9-3.6-.2 0-1.6 1.5-3.3 3.2m344.4 12.5c.6.2 1.8.2 2.5 0 .6-.3.1-.5-1.3-.5s-1.9.2-1.2.5m-693.5 4c1.5.2 3.7.2 5 0 1.2-.2 0-.4-2.8-.4-2.7 0-3.8.2-2.2.4m-127.2 7.9c0 1.1.3 1.4.6.6.3-.7.2-1.6-.1-1.9-.3-.4-.6.2-.5 1.3m722.1 3.4c0 1.4.2 1.9.5 1.2.2-.6.2-1.8 0-2.5-.3-.6-.5-.1-.5 1.3m216.2 2.2-1.9 2.3 2.3-1.9c2.1-1.8 2.7-2.6 1.9-2.6-.2 0-1.2 1-2.3 2.2m-1080 25.3c0 8.2.2 11.5.3 7.2.2-4.3.2-11 0-15-.1-4-.3-.5-.3 7.8m-159 1.5c0 8 .2 11.2.3 7.2.2-3.9.2-10.5 0-14.5-.1-3.9-.3-.7-.3 7.3m298.7-9.4c0 1.1.3 1.4.6.6.3-.7.2-1.6-.1-1.9-.3-.4-.6.2-.5 1.3m296.7 51.1c1.2.2 3 .2 4 0 .9-.3-.1-.5-2.3-.4-2.2 0-3 .2-1.7.4m31 1c1.2.2 3 .2 4 0 .9-.3-.1-.5-2.3-.4-2.2 0-3 .2-1.7.4m-132.5 30c4.8.2 12.6.2 17.5 0 4.8-.1.8-.3-8.8-.3s-13.6.2-8.7.3m307.5 5c1.2.2 3 .2 4 0 .9-.3-.1-.5-2.3-.4-2.2 0-3 .2-1.7.4m-924 46c1.2.2 3 .2 4 0 .9-.3-.1-.5-2.3-.4-2.2 0-3 .2-1.7.4m97.2-.3c0 .2.8 1 1.8 1.7 1.5 1.3 1.6 1.2.3-.4s-2.1-2.1-2.1-1.3m19.7.3c1.8.2 5 .2 7 0 2.1-.2.7-.4-3.2-.4-3.8 0-5.5.2-3.8.4m197.6 0c1.5.2 3.7.2 5 0 1.2-.2 0-.4-2.8-.4-2.7 0-3.8.2-2.2.4m188 0c1.5.2 3.7.2 5 0 1.2-.2 0-.4-2.8-.4-2.7 0-3.8.2-2.2.4m57.7-.3c0 .2.7.7 1.6 1 .8.3 1.2.2.9-.4-.6-1-2.5-1.4-2.5-.6m602.4 1.8-1.9 2.3 2.3-1.9c2.1-1.8 2.7-2.6 1.9-2.6-.2 0-1.2 1-2.3 2.2m6.4-1.5c1.8.2 4.5.2 6 0s0-.4-3.3-.4-4.5.2-2.7.4m-453.1 1c1.8.2 5 .2 7 0 2.1-.2.7-.4-3.2-.4-3.8 0-5.5.2-3.8.4m-36.5 9.3c0 1.4.2 1.9.5 1.2.2-.6.2-1.8 0-2.5-.3-.6-.5-.1-.5 1.3m-133.9 8c0 2.5.2 3.5.4 2.2.2-1.2.2-3.2 0-4.5-.2-1.2-.4-.2-.4 2.3m-456-1.3c.9.2 2.3.2 3 0 .6-.3-.1-.5-1.8-.5-1.6 0-2.2.2-1.2.5m944 0c.9.2 2.5.2 3.5 0 .9-.3.1-.5-1.8-.5s-2.7.2-1.7.5m-600.5 1c.7.3 1.6.2 1.9-.1.4-.3-.2-.6-1.3-.5-1.1 0-1.4.3-.6.6m750 0c.7.3 1.6.2 1.9-.1.4-.3-.2-.6-1.3-.5-1.1 0-1.4.3-.6.6m11 1c.7.3 1.6.2 1.9-.1.4-.3-.2-.6-1.3-.5-1.1 0-1.4.3-.6.6m-1041.8.7c0 .2.8 1 1.8 1.7 1.5 1.3 1.6 1.2.3-.4s-2.1-2.1-2.1-1.3m212.9 1.3c-1.3 1.6-1.2 1.7.4.4s2.1-2.1 1.3-2.1c-.2 0-1 .8-1.7 1.7m26.1-1.3c0 .2.8 1 1.8 1.7 1.5 1.3 1.6 1.2.3-.4s-2.1-2.1-2.1-1.3m270 2.6c-.9.6-1 1-.3 1 .6 0 1.5-.5 1.8-1 .8-1.2.4-1.2-1.5 0m-486.8 3c0 1.4.2 1.9.5 1.2.2-.6.2-1.8 0-2.5-.3-.6-.5-.1-.5 1.3m1009.6 8.7c1.2.2 3 .2 4 0 .9-.3-.1-.5-2.3-.4-2.2 0-3 .2-1.7.4m9 0c.7.3 1.6.2 1.9-.1.4-.3-.2-.6-1.3-.5-1.1 0-1.4.3-.6.6m57.5 3.8c0 2.2.2 3 .4 1.7.2-1.2.2-3 0-4-.3-.9-.5.1-.4 2.3m60 .5c0 2.5.2 3.5.4 2.2.2-1.2.2-3.2 0-4.5-.2-1.2-.4-.2-.4 2.3m-693.8-1c1 1.1 2 2 2.3 2s-.3-.9-1.3-2-2-2-2.3-2 .3.9 1.3 2m442.7.5c0 1.6.2 2.2.5 1.2.2-.9.2-2.3 0-3-.3-.6-.5.1-.5 1.8m19 .5c0 1.9.2 2.7.5 1.7.2-.9.2-2.5 0-3.5-.3-.9-.5-.1-.5 1.8m213 .5c0 1.6.2 2.2.5 1.2.2-.9.2-2.3 0-3-.3-.6-.5.1-.5 1.8m-1124.8 3.7-1.9 2.3 2.3-1.9c2.1-1.8 2.7-2.6 1.9-2.6-.2 0-1.2 1-2.3 2.2m226.7 9.4c0 1.1.3 1.4.6.6.3-.7.2-1.6-.1-1.9-.3-.4-.6.2-.5 1.3m634.7 8.1c.6.2 1.8.2 2.5 0 .6-.3.1-.5-1.3-.5s-1.9.2-1.2.5m9 0c.6.2 1.8.2 2.5 0 .6-.3.1-.5-1.3-.5s-1.9.2-1.2.5m-395.5 1c.9.2 2.3.2 3 0 .6-.3-.1-.5-1.8-.5-1.6 0-2.2.2-1.2.5m-31.8 1.4c-.4.6-.5 1.2-.2 1.5.2.3.7-.2 1-1.1.7-1.7.1-2-.8-.4m1.5 4.3c0 .2.8 1 1.8 1.7 1.5 1.3 1.6 1.2.3-.4s-2.1-2.1-2.1-1.3"/><g fill="#FFF" fill-opacity=".3" stroke-opacity=".3" stroke-width="0"><path d="M190.8 64.7c1.2.2 3 .2 4 0 .9-.3-.1-.5-2.3-.4-2.2 0-3 .2-1.7.4m-8.3 42.8c0 22 .1 30.9.2 19.7.2-11.2.2-29.2 0-40-.1-10.8-.2-1.7-.2 20.3m309.3-38.8c.7.3 1.6.2 1.9-.1.4-.3-.2-.6-1.3-.5-1.1 0-1.4.3-.6.6M451.2 79c0 1.4.2 1.9.5 1.2.2-.6.2-1.8 0-2.5-.3-.6-.5-.1-.5 1.3m54.9 3.6c0 1.1.3 1.4.6.6.3-.7.2-1.6-.1-1.9-.3-.4-.6.2-.5 1.3m131 4c0 1.1.3 1.4.6.6.3-.7.2-1.6-.1-1.9-.3-.4-.6.2-.5 1.3M365.3 94c0 3.6.2 5 .4 3.2.2-1.7.2-4.7 0-6.5-.2-1.7-.4-.3-.4 3.3m252.8-.4c0 1.1.3 1.4.6.6.3-.7.2-1.6-.1-1.9-.3-.4-.6.2-.5 1.3m-143.3 2.1c.6.2 1.8.2 2.5 0 .6-.3.1-.5-1.3-.5s-1.9.2-1.2.5m-18 1c.6.2 1.8.2 2.5 0 .6-.3.1-.5-1.3-.5s-1.9.2-1.2.5m109.4 9.8c0 1.6.2 2.2.5 1.2.2-.9.2-2.3 0-3-.3-.6-.5.1-.5 1.8m-50.9 5.2c3.1.2 8.3.2 11.5 0 3.1-.2.5-.3-5.8-.3s-8.9.1-5.7.3m-43 1c.9.2 2.3.2 3 0 .6-.3-.1-.5-1.8-.5-1.6 0-2.2.2-1.2.5m93.9 3.8c0 1.6.2 2.2.5 1.2.2-.9.2-2.3 0-3-.3-.6-.5.1-.5 1.8m-142.1 5.1c0 1.1.3 1.4.6.6.3-.7.2-1.6-.1-1.9-.3-.4-.6.2-.5 1.3m-88.2 7.1-2.4 2.8 2.8-2.4c2.5-2.3 3.2-3.1 2.4-3.1-.2 0-1.4 1.2-2.8 2.7m57.4 5.3c0 2.5.2 3.5.4 2.2.2-1.2.2-3.2 0-4.5-.2-1.2-.4-.2-.4 2.3m-29.2 3.6c0 1.1.3 1.4.6.6.3-.7.2-1.6-.1-1.9-.3-.4-.6.2-.5 1.3m-34.2 5.1c-1.3 1.6-1.2 1.7.4.4s2.1-2.1 1.3-2.1c-.2 0-1 .8-1.7 1.7m94.3 2.3c0 1.4.2 1.9.5 1.2.2-.6.2-1.8 0-2.5-.3-.6-.5-.1-.5 1.3m18.9.6c0 1.1.3 1.4.6.6.3-.7.2-1.6-.1-1.9-.3-.4-.6.2-.5 1.3M192 166.4c0 .2.8 1 1.8 1.7 1.5 1.3 1.6 1.2.3-.4s-2.1-2.1-2.1-1.3m306.9 4.3c-1.3 1.6-1.2 1.7.4.4.9-.7 1.7-1.5 1.7-1.7 0-.8-.8-.3-2.1 1.3m-284.6 5c.9.2 2.5.2 3.5 0 .9-.3.1-.5-1.8-.5s-2.7.2-1.7.5m136 45c1.5.2 3.9.2 5.5 0 1.5-.2.2-.4-2.8-.4s-4.3.2-2.7.4m29 0c.9.2 2.5.2 3.5 0 .9-.3.1-.5-1.8-.5s-2.7.2-1.7.5m60 0c.9.2 2.5.2 3.5 0 .9-.3.1-.5-1.8-.5s-2.7.2-1.7.5m27 0c1.5.2 3.9.2 5.5 0 1.5-.2.2-.4-2.8-.4s-4.3.2-2.7.4m253.4 0c1.8.2 5 .2 7 0 2.1-.2.7-.4-3.2-.4-3.8 0-5.5.2-3.8.4m37 0c1.8.2 5 .2 7 0 2.1-.2.7-.4-3.2-.4-3.8 0-5.5.2-3.8.4m180.1 0c1.2.2 3 .2 4 0 .9-.3-.1-.5-2.3-.4-2.2 0-3 .2-1.7.4m22 0c1.2.2 3 .2 4 0 .9-.3-.1-.5-2.3-.4-2.2 0-3 .2-1.7.4m271 0c.7.3 1.6.2 1.9-.1.4-.3-.2-.6-1.3-.5-1.1 0-1.4.3-.6.6m-535.3 2.5c-.3.7-.4 43.1-.3 94.3l.3 93 .5-94.3c.3-51.8.4-94.2.2-94.2-.1 0-.5.6-.7 1.2m-186 92.8c0 50.9.1 71.7.2 46.2.2-25.4.2-67 0-92.5-.1-25.4-.2-4.6-.2 46.3m698 1c0 51.4.1 72.5.2 46.7.2-25.7.2-67.7 0-93.5-.1-25.7-.2-4.6-.2 46.8m-778-56c0 19.5.1 27.5.2 17.8.2-9.8.2-25.8 0-35.5-.1-9.8-.2-1.8-.2 17.7m1106.3-24.3c.6.2 1.8.2 2.5 0 .6-.3.1-.5-1.3-.5s-1.9.2-1.2.5M826.5 242c1 1.1 2 2 2.3 2s-.3-.9-1.3-2-2-2-2.3-2 .3.9 1.3 2m742 7c1 1.1 2 2 2.3 2s-.3-.9-1.3-2-2-2-2.3-2 .3.9 1.3 2M490.4 281.5c0 8.2.2 11.5.3 7.2.2-4.3.2-11 0-15-.1-4-.3-.5-.3 7.8m-159 2c0 8.2.2 11.5.3 7.2.2-4.3.2-11 0-15-.1-4-.3-.5-.3 7.8m804.4-11.8c.7.3 1.6.2 1.9-.1.4-.3-.2-.6-1.3-.5-1.1 0-1.4.3-.6.6m8 0c.7.3 1.6.2 1.9-.1.4-.3-.2-.6-1.3-.5-1.1 0-1.4.3-.6.6m-943.1 2 19.3.3.3 68.3.2 68.2v-137H201l-19.5-.1zm87.6 0c4.8.2 12.6.2 17.5 0 4.8-.1.8-.3-8.8-.3s-13.6.2-8.7.3m296.5 0c9.4.2 25 .2 34.5 0 9.4-.1 1.7-.3-17.3-.3s-26.7.2-17.2.3m171.5 0c1.5.2 3.7.2 5 0 1.2-.2 0-.4-2.8-.4-2.7 0-3.8.2-2.2.4m11.5 0c.7.3 1.6.2 1.9-.1.4-.3-.2-.6-1.3-.5-1.1 0-1.4.3-.6.6m75.4 11.3c0 1.9.2 2.7.5 1.7.2-.9.2-2.5 0-3.5-.3-.9-.5-.1-.5 1.8m-211.1 18.6c0 1.1.3 1.4.6.6.3-.7.2-1.6-.1-1.9-.3-.4-.6.2-.5 1.3m403 8c0 1.1.3 1.4.6.6.3-.7.2-1.6-.1-1.9-.3-.4-.6.2-.5 1.3m348.1 2.4c0 1.9.2 2.7.5 1.7.2-.9.2-2.5 0-3.5-.3-.9-.5-.1-.5 1.8m28.8-1.6c0 .2.8 1 1.8 1.7 1.5 1.3 1.6 1.2.3-.4s-2.1-2.1-2.1-1.3m-316.7 5.1c0 2.2.2 3 .4 1.7.2-1.2.2-3 0-4-.3-.9-.5.1-.4 2.3m262.7 4.9c0 .2.8 1 1.8 1.7 1.5 1.3 1.6 1.2.3-.4s-2.1-2.1-2.1-1.3m-322.9 3.2c0 1.1.3 1.4.6.6.3-.7.2-1.6-.1-1.9-.3-.4-.6.2-.5 1.3m-405 1c0 1.1.3 1.4.6.6.3-.7.2-1.6-.1-1.9-.3-.4-.6.2-.5 1.3m738.2 1.1c.9.2 2.3.2 3 0 .6-.3-.1-.5-1.8-.5-1.6 0-2.2.2-1.2.5M629 337.8c0 .9-8.1 1.3-30.7 1.4l-30.8.3 30.4.2c28.5.3 34-.1 31.8-2.4-.4-.3-.7-.1-.7.5m-218.3 9.9 17.3.3.3 30.3.2 30.2v-61H411l-17.5-.1zm760.1 9c.7.3 1.6.2 1.9-.1.4-.3-.2-.6-1.3-.5-1.1 0-1.4.3-.6.6m-35 7c.7.3 1.6.2 1.9-.1.4-.3-.2-.6-1.3-.5-1.1 0-1.4.3-.6.6m8 0c.7.3 1.6.2 1.9-.1.4-.3-.2-.6-1.3-.5-1.1 0-1.4.3-.6.6m-202 19c1.2.2 3 .2 4 0 .9-.3-.1-.5-2.3-.4-2.2 0-3 .2-1.7.4m29 1c.7.3 1.6.2 1.9-.1.4-.3-.2-.6-1.3-.5-1.1 0-1.4.3-.6.6M489.4 398c0 8 .2 11.2.3 7.2.2-3.9.2-10.5 0-14.5-.1-3.9-.3-.7-.3 7.3m-156.9 1.7v13.8h58l-28.7-.2-28.7-.3-.4-13.5-.3-13.5zm578.4 12c-1.3 1.6-1.2 1.7.4.4s2.1-2.1 1.3-2.1c-.2 0-1 .8-1.7 1.7m-674.1 2c7.2.2 19.2.2 26.5 0 7.2-.1 1.3-.3-13.3-.3s-20.5.2-13.2.3m209 0c7.8.2 20.6.2 28.5 0 7.8-.1 1.4-.3-14.3-.3s-22.1.2-14.2.3m97.5 0c17.4.2 46 .2 63.5 0 17.4-.1 3.1-.2-31.8-.2s-49.2.1-31.7.2m167.5 0c7.2.2 19.2.2 26.5 0 7.2-.1 1.3-.3-13.3-.3s-20.5.2-13.2.3m179.5 0c3.7.2 9.6.2 13 0s.4-.3-6.8-.3c-7.1 0-9.9.1-6.2.3m108.5 0c8.3.2 22.1.2 30.5 0 8.3-.1 1.5-.3-15.3-.3s-23.6.2-15.2.3m224 0c7.2.2 19.2.2 26.5 0 7.2-.1 1.3-.3-13.3-.3s-20.5.2-13.2.3m96 0c9.4.2 25 .2 34.5 0 9.4-.1 1.7-.3-17.3-.3s-26.7.2-17.2.3m-976.5 51c.9.2 2.3.2 3 0 .6-.3-.1-.5-1.8-.5-1.6 0-2.2.2-1.2.5m12.5 0c.7.3 1.6.2 1.9-.1.4-.3-.2-.6-1.3-.5-1.1 0-1.4.3-.6.6m1039.5 0c2 .2 5.4.2 7.5 0 2-.2.3-.4-3.8-.4s-5.8.2-3.7.4m84.5 0c1.2.2 3 .2 4 0 .9-.3-.1-.5-2.3-.4-2.2 0-3 .2-1.7.4m-1230.4 9 .1 7.8 10.7.3 10.8.3.2 28.7.3 28.7 7.5.1h7.5l-7.2-.3-7.3-.4-.2-28.7-.3-28.7-10.7-.3-10.7-.3-.4-7.4-.3-7.5zm74.1 28.8v37h17l.1-5.3.1-5.2-.4 5-.4 5H323l-.3-36.8-.2-36.7zm76 0v37H424l25.5.1-25.2-.3-25.3-.3-.3-36.8-.2-36.7zm496.8-35.8c2 .2 5.4.2 7.5 0 2-.2.3-.4-3.8-.4s-5.8.2-3.7.4m67.1 25.8c0 14.8.2 21.1.3 13.8.2-7.2.2-19.4 0-27-.1-7.6-.3-1.7-.3 13.2m50-1c0 14.3.2 20 .3 12.7.2-7.3.2-19 0-26-.1-7-.3-1-.3 13.3m36.1 11v37l8 .1h8l-7.7-.3-7.8-.4-.3-36.7-.2-36.7zm68 0v37l8 .1h8l-7.7-.3-7.8-.4-.3-36.7-.2-36.7zm102 0v37h21.3l21.2.1-21-.3-21-.3-.3-36.8-.2-36.7zm84 0v37h25.5l25.5.1-25.2-.3-25.3-.3-.3-36.8-.2-36.7zm-786.3-15.1-.2 19.9-2.2-1.9-2.3-1.9 1.9 2.3c1.1 1.2 2.3 1.9 2.8 1.4s.7-9.6.5-20.3l-.2-19.4zM704.5 504v35.5l7.5.1h7.5l-7.2-.3-7.3-.4-.3-35.2-.2-35.2zm666 0v35.5h8.5c7.8 0 8.5-.2 8.6-2q.15-2.25-.3-.3c-.4 1.5-1.6 1.8-8.4 1.8h-7.9l-.3-35.3-.2-35.2zm-904 0v35.5l7.5.1h7.5l-7.2-.3-7.3-.4-.3-35.2-.2-35.2zm22-32c1 1.1 2 2 2.3 2s-.3-.9-1.3-2-2-2-2.3-2 .3.9 1.3 2m336.4 2.7c-1.3 1.6-1.2 1.7.4.4.9-.7 1.7-1.5 1.7-1.7 0-.8-.8-.3-2.1 1.3m682.6.3c1 1.1 2 2 2.3 2s-.3-.9-1.3-2-2-2-2.3-2 .3.9 1.3 2m69.3 5.7c.7.3 1.6.2 1.9-.1.4-.3-.2-.6-1.3-.5-1.1 0-1.4.3-.6.6m-1288 1c.7.3 1.6.2 1.9-.1.4-.3-.2-.6-1.3-.5-1.1 0-1.4.3-.6.6m135.5 0c4.8.2 12.6.2 17.5 0 4.8-.1.8-.3-8.8-.3s-13.6.2-8.7.3M652 510.3l.5 29.2 7.5.1h7.5l-7.2-.3-7.3-.4v-28.4c0-15.6-.3-28.6-.7-28.8-.5-.3-.6 12.6-.3 28.6m22.8-28.6c2.8.2 7.6.2 10.5 0 2.8-.2.5-.3-5.3-.3s-8.1.1-5.2.3m224.4 0 10.8.4.2 28.7.3 28.7 7.5.1h7.5l-7.2-.3-7.3-.4-.2-28.7-.3-28.7-11-.1h-11zm33.6 0c2.8.2 7.6.2 10.5 0 2.8-.2.5-.3-5.3-.3s-8.1.1-5.2.3m141.5 0c4.8.2 12.6.2 17.5 0 4.8-.1.8-.3-8.8-.3s-13.6.2-8.7.3m68 0c4.8.2 12.6.2 17.5 0 4.8-.1.8-.3-8.8-.3s-13.6.2-8.7.3m186 0c4.8.2 12.6.2 17.5 0 4.8-.1.8-.3-8.8-.3s-13.6.2-8.7.3m209.4 0 10.3.4.2 28.7.3 28.7 7.5.1h7.5l-7.2-.3-7.3-.4-.2-28.7-.3-28.7-10.5-.1h-10.5zm-129.9 2c.7.3 1.6.2 1.9-.1.4-.3-.2-.6-1.3-.5-1.1 0-1.4.3-.6.6m57.1 2c-1.3 1.6-1.2 1.7.4.4.9-.7 1.7-1.5 1.7-1.7 0-.8-.8-.3-2.1 1.3m-1119.1 14c1.2.2 3 .2 4 0 .9-.3-.1-.5-2.3-.4-2.2 0-3 .2-1.7.4m202.4 2.3c0 1.9.2 2.7.5 1.7.2-.9.2-2.5 0-3.5-.3-.9-.5-.1-.5 1.8m36.2 5 .1 6.5 8.8.1h8.7l-8.5-.3-8.4-.4-.4-6.2-.3-6.2zm36.9-1.5c0 2.2.2 3 .4 1.7.2-1.2.2-3 0-4-.3-.9-.5.1-.4 2.3"/><path d="M424.3 509.7c4.8.2 12.6.2 17.5 0 4.8-.1.8-.3-8.8-.3s-13.6.2-8.7.3m313.4 0 16.2.3.3 14.8.3 14.7 7.5.1h7.5l-7.2-.3-7.2-.4-.3-14.7-.3-14.7H738l-16.5-.1zm336.6 0c4.8.2 12.6.2 17.5 0 4.8-.1.8-.3-8.8-.3s-13.6.2-8.7.3m68 0c4.8.2 12.6.2 17.5 0 4.8-.1.8-.3-8.8-.3s-13.6.2-8.7.3m185.5 0c4.5.2 11.9.2 16.5 0 4.5-.1.8-.3-8.3-.3s-12.8.2-8.2.3m61.5 4c.9.2 2.5.2 3.5 0 .9-.3.1-.5-1.8-.5s-2.7.2-1.7.5M881.2 519c0 1.9.2 2.7.5 1.7.2-.9.2-2.5 0-3.5-.3-.9-.5-.1-.5 1.8m-54.7-1c-.3.6.1.7.9.4 1.8-.7 2.1-1.4.7-1.4-.6 0-1.3.4-1.6 1m-237.7 8.7c.6.2 1.8.2 2.5 0 .6-.3.1-.5-1.3-.5s-1.9.2-1.2.5m-212.5 13c.9.2 2.3.2 3 0 .6-.3-.1-.5-1.8-.5-1.6 0-2.2.2-1.2.5m152.5 0c.6.2 1.8.2 2.5 0 .6-.3.1-.5-1.3-.5s-1.9.2-1.2.5m314 2c.7.3 1.6.2 1.9-.1.4-.3-.2-.6-1.3-.5-1.1 0-1.4.3-.6.6m9 0c.7.3 1.6.2 1.9-.1.4-.3-.2-.6-1.3-.5-1.1 0-1.4.3-.6.6"/></g><path fill="#FFF" fill-opacity=".2" d="M614.5 63.1c-.4.6-.4 1.3-.1 1.6.3.4.6.1.6-.5s.8-1.3 1.8-1.5c1.5-.4 1.5-.5 0-.6-.9 0-2 .4-2.3 1m-21.9 2.2c.3 1 .9 1.5 1.2 1.2s0-1.1-.7-1.8c-1-.9-1.1-.8-.5.6M502 67.4c0 .2.9.6 2 .9s1.8.1 1.4-.4c-.5-.9-3.4-1.3-3.4-.5M203.5 109c0 22.8.1 32.2.2 20.8.2-11.5.2-30.1 0-41.6-.1-11.4-.2-2-.2 20.8m284.9-27c0 6.9.1 9.7.3 6.2.2-3.4.2-9 0-12.5-.2-3.4-.3-.6-.3 6.3m17.8-3c0 1.4.2 1.9.5 1.2.2-.6.2-1.8 0-2.5-.3-.6-.5-.1-.5 1.3m130.9 4.6c0 1.1.3 1.4.6.6.3-.7.2-1.6-.1-1.9-.3-.4-.6.2-.5 1.3m-286.6 3c7.2.8 15.3.8 14.8.1-.2-.4-4.3-.6-9.1-.5-4.8 0-7.3.3-5.7.4m236.9 17.9c0 9.3.2 13.3.3 8.8.2-4.5.2-12.2 0-17-.1-4.8-.3-1.2-.3 8.2M507.3 93c.3 1.2 2.7 1.5 13.8 1.5l13.4.1-13-.3c-8.7-.3-13.2-.8-13.8-1.6-.6-.9-.7-.8-.4.3m-36.5 2.7c.6.2 1.8.2 2.5 0 .6-.3.1-.5-1.3-.5s-1.9.2-1.2.5m147.3.9c0 1.1.3 1.4.6.6.3-.7.2-1.6-.1-1.9-.3-.4-.6.2-.5 1.3m-165.6.5c-.4.6-.4 1.3-.1 1.6.3.4.6.1.6-.5s.8-1.3 1.8-1.5c1.5-.4 1.5-.5 0-.6-.9 0-2 .4-2.3 1m-125.6 4.1c.4 2.8.6 2.9.9.9.2-1.3 0-2.7-.5-3.2-.6-.6-.7.3-.4 2.3m239.2 1.4c0 1.1.3 1.4.6.6.3-.7.2-1.6-.1-1.9-.3-.4-.6.2-.5 1.3m-89.3 10.1c.6.2 1.8.2 2.5 0 .6-.3.1-.5-1.3-.5s-1.9.2-1.2.5m13.6 9.3c0 5.8.1 8.1.3 5.2.2-2.8.2-7.6 0-10.5-.2-2.8-.3-.5-.3 5.3m18.8 3.7c-.1 7.8.1 14.4.6 14.6.4.3.6-3.8.4-9.1-.5-17.9-.8-19.8-1-5.5m-51.4-12c.6.2 1.8.2 2.5 0 .6-.3.1-.5-1.3-.5s-1.9.2-1.2.5m-33.6 4.3c0 1.4.2 1.9.5 1.2.2-.6.2-1.8 0-2.5-.3-.6-.5-.1-.5 1.3m19 5c0 1.4.2 1.9.5 1.2.2-.6.2-1.8 0-2.5-.3-.6-.5-.1-.5 1.3m-67 10.5c0 1.6.2 2.2.5 1.2.2-.9.2-2.3 0-3-.3-.6-.5.1-.5 1.8m67 8.5c0 1.4.2 1.9.5 1.2.2-.6.2-1.8 0-2.5-.3-.6-.5-.1-.5 1.3m140.1.7c.9.2 2.3.2 3 0 .6-.3-.1-.5-1.8-.5-1.6 0-2.2.2-1.2.5m18.1 12.5-1.9 2.3 2.3-1.9c1.2-1.1 2.2-2.1 2.2-2.3 0-.8-.8-.2-2.6 1.9m-217 2-1.9 2.3 2.3-1.9c2.1-1.8 2.7-2.6 1.9-2.6-.2 0-1.2 1-2.3 2.2m-169.1-.5c.9.2 2.3.2 3 0 .6-.3-.1-.5-1.8-.5-1.6 0-2.2.2-1.2.5m4.5 19c.7.3 1.6.2 1.9-.1.4-.3-.2-.6-1.3-.5-1.1 0-1.4.3-.6.6m-4.1 45c18.9.2 49.7.2 68.6 0 18.8-.1 3.4-.2-34.3-.2s-53.1.1-34.3.2m128.6 0c.9.2 2.3.2 3 0 .6-.3-.1-.5-1.8-.5-1.6 0-2.2.2-1.2.5m131 0c.9.2 2.3.2 3 0 .6-.3-.1-.5-1.8-.5-1.6 0-2.2.2-1.2.5m236.5 0c1.2.2 3 .2 4 0 .9-.3-.1-.5-2.3-.4-2.2 0-3 .2-1.7.4m56 0c.6.2 1.8.2 2.5 0 .6-.3.1-.5-1.3-.5s-1.9.2-1.2.5m163.5 0c.9.2 2.3.2 3 0 .6-.3-.1-.5-1.8-.5-1.6 0-2.2.2-1.2.5m33.5 0c.6.2 1.8.2 2.5 0 .6-.3.1-.5-1.3-.5s-1.9.2-1.2.5m262 0c.7.3 1.6.2 1.9-.1.4-.3-.2-.6-1.3-.5-1.1 0-1.4.3-.6.6m92 0c8.3.2 22.1.2 30.5 0 8.3-.1 1.5-.3-15.3-.3s-23.6.2-15.2.3m-810.1 2c-.5.7 47.3.7 106.8 0 12.7-.1-6.1-.3-41.7-.5-35.6-.1-64.9.1-65.1.5M323.2 227c0 1.9.2 2.7.5 1.7.2-.9.2-2.5 0-3.5-.3-.9-.5-.1-.5 1.8m316.2 20c0 12.9.2 18.2.3 11.7.2-6.4.2-17 0-23.5-.1-6.4-.3-1.1-.3 11.8m-245.9 14v35.5h17l17 .1-16.7-.3-16.8-.3-.3-35.3-.2-35.2zm871.9-8c0 15.1.2 21.3.3 13.7.2-7.5.2-19.9 0-27.5-.1-7.5-.3-1.3-.3 13.8m265.4-16.3c.6.2 1.8.2 2.5 0 .6-.3.1-.5-1.3-.5s-1.9.2-1.2.5m8 0c.6.2 1.8.2 2.5 0 .6-.3.1-.5-1.3-.5s-1.9.2-1.2.5m-1216.7 4.9c0 1.1.3 1.4.6.6.3-.7.2-1.6-.1-1.9-.3-.4-.6.2-.5 1.3m1180.8 7.1c-1.3 1.6-1.2 1.7.4.4.9-.7 1.7-1.5 1.7-1.7 0-.8-.8-.3-2.1 1.3m-73.7 21.8c0 1.6.2 2.2.5 1.2.2-.9.2-2.3 0-3-.3-.6-.5.1-.5 1.8m-289.9 1.2c.9.2 2.3.2 3 0 .6-.3-.1-.5-1.8-.5-1.6 0-2.2.2-1.2.5m-375.5 2c.6.2 1.8.2 2.5 0 .6-.3.1-.5-1.3-.5s-1.9.2-1.2.5M279.5 342c0 37.7.1 53.1.2 34.2.2-18.8.2-49.6 0-68.5-.1-18.8-.2-3.4-.2 34.3m287.9-58.5.1 9h64l-31.7-.2-31.7-.3-.4-8.8-.3-8.7zm186.1 3.7c0 11.1.3 13.3 1.5 13.4.8 0 1-.1.3-.3-.9-.3-1.3-4.3-1.6-13.4l-.3-12.9zm736.8-5.2c0 2.5.2 3.5.4 2.2.2-1.2.2-3.2 0-4.5-.2-1.2-.4-.2-.4 2.3m-647.2-1.4c0 1.1.3 1.4.6.6.3-.7.2-1.6-.1-1.9-.3-.4-.6.2-.5 1.3m-60.9 6.4c0 1.9.2 2.7.5 1.7.2-.9.2-2.5 0-3.5-.3-.9-.5-.1-.5 1.8m60.9 2.6c0 1.1.3 1.4.6.6.3-.7.2-1.6-.1-1.9-.3-.4-.6.2-.5 1.3m-352.7 20.9c0 8.2.2 11.5.3 7.2.2-4.3.2-11 0-15-.1-4-.3-.5-.3 7.8m-159 2c0 8.2.2 11.5.3 7.2.2-4.3.2-11 0-15-.1-4-.3-.5-.3 7.8m435.4-11.8c.7.3 1.6.2 1.9-.1.4-.3-.2-.6-1.3-.5-1.1 0-1.4.3-.6.6m268.3 7.9c0 1.1.3 1.4.6.6.3-.7.2-1.6-.1-1.9-.3-.4-.6.2-.5 1.3m-404 9c0 1.1.3 1.4.6.6.3-.7.2-1.6-.1-1.9-.3-.4-.6.2-.5 1.3m404 11c0 1.1.3 1.4.6.6.3-.7.2-1.6-.1-1.9-.3-.4-.6.2-.5 1.3m410.7-.9c.6.2 1.8.2 2.5 0 .6-.3.1-.5-1.3-.5s-1.9.2-1.2.5m6 0c.6.2 1.8.2 2.5 0 .6-.3.1-.5-1.3-.5s-1.9.2-1.2.5m82 0c1.2.2 3.2.2 4.5 0 1.2-.2.2-.4-2.3-.4s-3.5.2-2.2.4m-966.3 23.8v11h73l-36.2-.2-36.2-.3-.4-10.8-.3-10.7zm372.8-10.8c3.7.2 9.7.2 13.5 0 3.7-.2.6-.3-6.8-.3s-10.5.1-6.7.3m-186.9 35.8c0 17.6.2 24.7.3 15.7.2-9 .2-23.4 0-32-.1-8.6-.3-1.3-.3 16.3m-360 1.5c0 16.8.2 23.6.3 15.2.2-8.3.2-22.1 0-30.5-.1-8.3-.3-1.5-.3 15.3m872 0c0 16.8.2 23.6.3 15.2.2-8.3.2-22.1 0-30.5-.1-8.3-.3-1.5-.3 15.3m-126.1-14.3c.9.2 2.3.2 3 0 .6-.3-.1-.5-1.8-.5-1.6 0-2.2.2-1.2.5M641.4 387c0 12.9.2 18.2.3 11.7.2-6.4.2-17 0-23.5-.1-6.4-.3-1.1-.3 11.8m292.4-4.3c1.2.2 3.2.2 4.5 0 1.2-.2.2-.4-2.3-.4s-3.5.2-2.2.4m31 1c1.2.2 3 .2 4 0 .9-.3-.1-.5-2.3-.4-2.2 0-3 .2-1.7.4m-105.5 30c4.8.2 12.5.2 17 0 4.5-.1.6-.3-8.8-.3-9.3 0-13 .2-8.2.3m-610.6 51c-.3.5 8.1.7 18.6.5 35.8-.4 39.3-.8 10.5-1-15.8-.1-28.9.1-29.1.5m88.6 0c.9.2 2.3.2 3 0 .6-.3-.1-.5-1.8-.5-1.6 0-2.2.2-1.2.5m61.4 0c-.3.5 7 .7 16.1.5 30.8-.4 33.9-.8 9-1-13.6-.1-24.9.1-25.1.5m564 0c-.3.5 2 .7 5.1.5 9.8-.5 11-.9 3-1.1-4.2 0-7.9.2-8.1.6m50 0c-.3.5 2 .7 5.1.5 9.8-.5 11-.9 3-1.1-4.2 0-7.9.2-8.1.6m36 0c-.3.5 7.2.7 16.6.5 32.1-.4 35.3-.8 9.5-1-14.1-.1-25.9.1-26.1.5m68 0c-.3.5 7.2.7 16.6.5 32.1-.4 35.3-.8 9.5-1-14.1-.1-25.9.1-26.1.5m102 0c-.3.5 4.3.7 10.1.5 19-.4 21.1-.8 5.5-1-8.3-.1-15.4.1-15.6.5m84 0c-.3.5 7 .7 16.1.5 30.8-.4 33.9-.8 9-1-13.6-.1-24.9.1-25.1.5m84.6 0c.9.2 2.3.2 3 0 .6-.3-.1-.5-1.8-.5-1.6 0-2.2.2-1.2.5m-740.5 1c7.8.2 20.6.2 28.5 0 7.8-.1 1.4-.3-14.3-.3s-22.1.2-14.2.3m291 0c1.7.2 4.7.2 6.5 0 1.7-.2.3-.4-3.3-.4s-5 .2-3.2.4m600.7 0c25 .7 47.3.7 46.8 0-.2-.4-13.1-.6-28.6-.5s-23.7.3-18.2.5M533 502.7c-.3 20.5-.2 36.9.3 36.4.4-.4.6-17.1.5-37.2l-.3-36.4zm188.5-22.2v14h33l.1-4 .1-4-.4 3.7-.4 3.8h-31.8l-.4-13.8-.3-13.7zm49.5 22.2c-.3 20.5-.2 36.9.3 36.4.4-.4.6-17.1.5-37.2l-.3-36.4zM889.5 467c-.3.6.1.7.9.4 1.8-.7 2.1-1.4.7-1.4-.6 0-1.3.4-1.6 1m89.9 23c0 13.5.2 19 .3 12.2.2-6.7.2-17.7 0-24.5-.1-6.7-.3-1.2-.3 12.3m50 4.5c0 15.9.2 22.3.3 14.2.2-8.2.2-21.2 0-29-.1-7.8-.3-1.2-.3 14.8m71.6-20.8c-.3 4.5-.1 7.8.3 7.4s.7-4.1.5-8.2l-.3-7.4zm68 0c-.3 4.5-.1 7.8.3 7.4s.7-4.1.5-8.2l-.3-7.4zm-718 2.5c-.3 3.1-.1 5.3.3 4.9.5-.5.7-3 .5-5.7l-.3-4.9zm904 0c-.3 3.1-.1 5.3.3 4.9.5-.5.7-3 .5-5.7l-.3-4.9zm-79 .3c1.3 1.4 2.6 2.5 2.8 2.5.3 0-.5-1.1-1.8-2.5s-2.6-2.5-2.8-2.5c-.3 0 .5 1.1 1.8 2.5m175.4-.3-1.9 2.3 2.3-1.9c2.1-1.8 2.7-2.6 1.9-2.6-.2 0-1.2 1-2.3 2.2M888.2 479c0 1.4.2 1.9.5 1.2.2-.6.2-1.8 0-2.5-.3-.6-.5-.1-.5 1.3m-197.6 1.7c-.6 1.4-.5 1.5.5.6.7-.7 1-1.5.7-1.8s-.9.2-1.2 1.2m258 0c-.6 1.4-.5 1.5.5.6.7-.7 1-1.5.7-1.8s-.9.2-1.2 1.2m577.4-.8c0 .6.4 1.3 1 1.6s.7-.1.4-.9c-.7-1.8-1.4-2.1-1.4-.7m-1233.7 1.8c.9.2 2.5.2 3.5 0 .9-.3.1-.5-1.8-.5s-2.7.2-1.7.5m47.1.6c-.3.8-.3 4.7-.1 8.8l.3 7.4.2-8.2c.1-5.4.6-8.3 1.5-8.6.9-.4.9-.6-.1-.6-.7-.1-1.5.5-1.8 1.2m898.4-.6c.6.2 1.8.2 2.5 0 .6-.3.1-.5-1.3-.5s-1.9.2-1.2.5m10 0c.7.3 1.6.2 1.9-.1.4-.3-.2-.6-1.3-.5-1.1 0-1.4.3-.6.6m320 0c.7.3 1.6.2 1.9-.1.4-.3-.2-.6-1.3-.5-1.1 0-1.4.3-.6.6M287 510.7c-.3 16.1-.2 28.9.3 28.4.4-.4.6-13.5.5-29.2l-.3-28.4zm128.4-22.2.1 6h17.3l17.2.1-17-.3-16.9-.3-.4-5.8-.3-5.7zM669 510.7c-.3 16.1-.2 28.9.3 28.4.4-.4.6-13.5.5-29.2l-.3-28.4zm258 0c-.3 16.1-.2 28.9.3 28.4.4-.4.6-13.5.5-29.2l-.3-28.4zm138.4-22.2.1 6h17.3l17.2.1-17-.3-16.9-.3-.4-5.8-.3-5.7zm68 0 .1 6h17.3l17.2.1-17-.3-16.9-.3-.4-5.8-.3-5.7zm102 14.5c0 11.8.2 16.7.3 10.7.2-5.9.2-15.5 0-21.5-.1-5.9-.3-1-.3 10.8m84-14.5.1 6h16.3l16.2.1-16-.3-15.9-.3-.4-5.8-.3-5.7zm68 2c.1 6.3.4 8 1.6 8.1.8 0 1-.1.3-.3-.8-.3-1.4-3.3-1.6-8.1l-.3-7.7zm177.6 20.2c-.3 16.1-.2 28.9.3 28.4.4-.4.6-13.5.5-29.2l-.3-28.4zM180.3 488.5c0 2.2.2 3 .4 1.7.2-1.2.2-3 0-4-.3-.9-.5.1-.4 2.3m1231.8-1.9c0 1.1.3 1.4.6.6.3-.7.2-1.6-.1-1.9-.3-.4-.6.2-.5 1.3m19.2 2.9c0 2.2.2 3 .4 1.7.2-1.2.2-3 0-4-.3-.9-.5.1-.4 2.3m-825.5-.8c.7.3 1.6.2 1.9-.1.4-.3-.2-.6-1.3-.5-1.1 0-1.4.3-.6.6M483 517.2c-.3 12.5-.2 22.4.3 21.9.4-.4.6-10.6.5-22.7l-.3-21.9zm-32-14.5c-.3 4-.1 6.8.3 6.4s.7-3.7.5-7.2l-.3-6.4zm650 0c-.3 4-.1 6.8.3 6.4s.7-3.7.5-7.2l-.3-6.4zm68 0c-.3 4-.1 6.8.3 6.4s.7-3.7.5-7.2l-.3-6.4zm184 0c-.3 4-.1 6.8.3 6.4s.7-3.7.5-7.2l-.3-6.4zm-768.3-4c-.3.5 5 .7 11.6.5 22.1-.4 24.4-.8 6.5-1-9.7-.1-17.9.1-18.1.5m855.5 4.3c0 1.9.2 2.7.5 1.7.2-.9.2-2.5 0-3.5-.3-.9-.5-.1-.5 1.8m-566.2-.6c0 .2.8 1 1.8 1.7 1.5 1.3 1.6 1.2.3-.4s-2.1-2.1-2.1-1.3m-458.6 15.1.1 7h17.3l17.2.1-17-.3-16.9-.3-.4-6.8-.3-6.7zm305.6 7.2c-.3 8.4-.1 14.9.3 14.4.4-.4.6-7.2.5-15.2l-.3-14.4zm344 0c-.3 8.4-.1 14.9.3 14.4.4-.4.6-7.2.5-15.2l-.3-14.4zm68 0c-.3 8.4-.1 14.9.3 14.4.4-.4.6-7.2.5-15.2l-.3-14.4zm186.4-7.2.1 7h17.3l17.2.1-17-.3-16.9-.3-.4-6.8-.3-6.7zm-980.1 4c0 4.4.2 6.1.4 3.7.2-2.3.2-5.9 0-8-.2-2-.4-.1-.4 4.3m1048.1 3c0 6 .1 8.4.3 5.2s.2-8.1 0-11-.3-.3-.3 5.8m-124.5-5.8c-1.3 1.6-1.2 1.7.4.4s2.1-2.1 1.3-2.1c-.2 0-1 .8-1.7 1.7m230.5 2.5-1.9 2.3 2.3-1.9c2.1-1.8 2.7-2.6 1.9-2.6-.2 0-1.2 1-2.3 2.2m-1282.1 5.5c.9.2 2.3.2 3 0 .6-.3-.1-.5-1.8-.5-1.6 0-2.2.2-1.2.5m239.7 6c-.3 4-.1 6.8.3 6.4s.7-3.7.5-7.2l-.3-6.4zm543.8-6c.6.2 1.8.2 2.5 0 .6-.3.1-.5-1.3-.5s-1.9.2-1.2.5m360.2 6c-.3 4-.1 6.8.3 6.4s.7-3.7.5-7.2l-.3-6.4zm123.3-6c.9.2 2.3.2 3 0 .6-.3-.1-.5-1.8-.5-1.6 0-2.2.2-1.2.5m-202.4 3-2.4 2.8 2.8-2.4c1.5-1.4 2.7-2.6 2.7-2.8 0-.8-.8-.1-3.1 2.4m-1043 5c-1.3 1.6-1.2 1.7.4.4s2.1-2.1 1.3-2.1c-.2 0-1 .8-1.7 1.7"/><path fill="#FFF" fill-opacity=".4" d="M382 107.4c0 .2.8 1 1.8 1.7 1.5 1.3 1.6 1.2.3-.4s-2.1-2.1-2.1-1.3m-47.6 30.8-2.9 3.3 3.3-2.9c1.7-1.7 3.2-3.1 3.2-3.3 0-.8-.8-.1-3.6 2.9m125.5 1.5c-1.3 1.6-1.2 1.7.4.4s2.1-2.1 1.3-2.1c-.2 0-1 .8-1.7 1.7m156 29-2.4 2.8 2.8-2.4c1.5-1.4 2.7-2.6 2.7-2.8 0-.8-.8-.1-3.1 2.4m-18.9 9.7c0 .2.8 1 1.8 1.7 1.5 1.3 1.6 1.2.3-.4s-2.1-2.1-2.1-1.3m699.9 47.3c-1.3 1.6-1.2 1.7.4.4s2.1-2.1 1.3-2.1c-.2 0-1 .8-1.7 1.7m-233 20-3.4 3.8 3.8-3.4c3.4-3.3 4.2-4.1 3.4-4.1-.2 0-1.9 1.7-3.8 3.7m465 23c-1.3 1.6-1.2 1.7.4.4s2.1-2.1 1.3-2.1c-.2 0-1 .8-1.7 1.7m-92.4 21.3c1 1.1 2 2 2.3 2s-.3-.9-1.3-2-2-2-2.3-2 .3.9 1.3 2m-657.6 6.7c-1.3 1.6-1.2 1.7.4.4s2.1-2.1 1.3-2.1c-.2 0-1 .8-1.7 1.7m724.1 17.8c1.3 1.4 2.6 2.5 2.8 2.5.3 0-.5-1.1-1.8-2.5s-2.6-2.5-2.8-2.5c-.3 0 .5 1.1 1.8 2.5m-677.1 11.2c-1.3 1.6-1.2 1.7.4.4.9-.7 1.7-1.5 1.7-1.7 0-.8-.8-.3-2.1 1.3m281.1 24.7c0 .2.8 1 1.8 1.7 1.5 1.3 1.6 1.2.3-.4s-2.1-2.1-2.1-1.3m-43 38.1c1.9 1.9 3.6 3.5 3.9 3.5s-1-1.6-2.9-3.5-3.6-3.5-3.9-3.5 1 1.6 2.9 3.5m-878.1 85.2c-1.3 1.6-1.2 1.7.4.4.9-.7 1.7-1.5 1.7-1.7 0-.8-.8-.3-2.1 1.3M1493 484.4c0 .2.8 1 1.8 1.7 1.5 1.3 1.6 1.2.3-.4s-2.1-2.1-2.1-1.3m-512 35c0 .2.8 1 1.8 1.7 1.5 1.3 1.6 1.2.3-.4s-2.1-2.1-2.1-1.3m28.9 1.3c-1.3 1.6-1.2 1.7.4.4s2.1-2.1 1.3-2.1c-.2 0-1 .8-1.7 1.7M559 529.4c0 .2.8 1 1.8 1.7 1.5 1.3 1.6 1.2.3-.4s-2.1-2.1-2.1-1.3m408 0c0 .2.8 1 1.8 1.7 1.5 1.3 1.6 1.2.3-.4s-2.1-2.1-2.1-1.3m56.9 1.3c-1.3 1.6-1.2 1.7.4.4s2.1-2.1 1.3-2.1c-.2 0-1 .8-1.7 1.7m483.5.5-1.9 2.3 2.3-1.9c2.1-1.8 2.7-2.6 1.9-2.6-.2 0-1.2 1-2.3 2.2M513 534.4c0 .2.8 1 1.8 1.7 1.5 1.3 1.6 1.2.3-.4s-2.1-2.1-2.1-1.3"/><path fill="#FFF" fill-opacity=".5" d="M496.8 68.7c.7.3 1.6.2 1.9-.1.4-.3-.2-.6-1.3-.5-1.1 0-1.4.3-.6.6m8.3 3.9c0 1.1.3 1.4.6.6.3-.7.2-1.6-.1-1.9-.3-.4-.6.2-.5 1.3m1.1 14.4c0 1.4.2 1.9.5 1.2.2-.6.2-1.8 0-2.5-.3-.6-.5-.1-.5 1.3m111.9 2.6c0 1.1.3 1.4.6.6.3-.7.2-1.6-.1-1.9-.3-.4-.6.2-.5 1.3m19.1 2.9c0 1.6.2 2.2.5 1.2.2-.9.2-2.3 0-3-.3-.6-.5.1-.5 1.8m-290.1.1c0 1.1.3 1.4.6.6.3-.7.2-1.6-.1-1.9-.3-.4-.6.2-.5 1.3m133.7 3.1c.6.2 1.8.2 2.5 0 .6-.3.1-.5-1.3-.5s-1.9.2-1.2.5m-18 1c.6.2 1.8.2 2.5 0 .6-.3.1-.5-1.3-.5s-1.9.2-1.2.5m-151 1c.7.3 1.6.2 1.9-.1.4-.3-.2-.6-1.3-.5-1.1 0-1.4.3-.6.6m307.4 8.8c0 1.6.2 2.2.5 1.2.2-.9.2-2.3 0-3-.3-.6-.5.1-.5 1.8m-293 3.5c0 1.4.2 1.9.5 1.2.2-.6.2-1.8 0-2.5-.3-.6-.5-.1-.5 1.3m159.1 1.7c.9.2 2.3.2 3 0 .6-.3-.1-.5-1.8-.5-1.6 0-2.2.2-1.2.5m-19 1c.9.2 2.3.2 3 0 .6-.3-.1-.5-1.8-.5-1.6 0-2.2.2-1.2.5m170.9 2.3c0 1.4.2 1.9.5 1.2.2-.6.2-1.8 0-2.5-.3-.6-.5-.1-.5 1.3m-212.8 18.5c0 4.9.1 7.1.3 4.8s.2-6.4 0-9-.3-.8-.3 4.2m-119.3-2.9c0 1.1.3 1.4.6.6.3-.7.2-1.6-.1-1.9-.3-.4-.6.2-.5 1.3m296.3 2.6-2.9 3.3 3.3-2.9c1.7-1.7 3.2-3.1 3.2-3.3 0-.8-.8-.1-3.6 2.9m-120.6-.5c1.2.2 3 .2 4 0 .9-.3-.1-.5-2.3-.4-2.2 0-3 .2-1.7.4m-142.2 1.1c-.2.4.4.8 1.4.8s1.6-.4 1.4-.8c-.3-.4-.9-.8-1.4-.8s-1.1.4-1.4.8m-85.2 3.4-1.9 2.3 2.3-1.9c2.1-1.8 2.7-2.6 1.9-2.6-.2 0-1.2 1-2.3 2.2m109.7 7.4c0 1.1.3 1.4.6.6.3-.7.2-1.6-.1-1.9-.3-.4-.6.2-.5 1.3m-58 1c0 1.1.3 1.4.6.6.3-.7.2-1.6-.1-1.9-.3-.4-.6.2-.5 1.3m138 4c0 1.1.3 1.4.6.6.3-.7.2-1.6-.1-1.9-.3-.4-.6.2-.5 1.3m11.1 5.4c0 1.9.2 2.7.5 1.7.2-.9.2-2.5 0-3.5-.3-.9-.5-.1-.5 1.8m-131 1c0 1.9.2 2.7.5 1.7.2-.9.2-2.5 0-3.5-.3-.9-.5-.1-.5 1.8m1122.6 59.7c.6.2 1.8.2 2.5 0 .6-.3.1-.5-1.3-.5s-1.9.2-1.2.5m6 0c.6.2 1.8.2 2.5 0 .6-.3.1-.5-1.3-.5s-1.9.2-1.2.5m-311 3c.7.3 1.6.2 1.9-.1.4-.3-.2-.6-1.3-.5-1.1 0-1.4.3-.6.6m-777.5 2c2.6.2 6.8.2 9.5 0 2.6-.2.4-.3-4.8-.3s-7.4.1-4.7.3m86 0c2.6.2 6.8.2 9.5 0 2.6-.2.4-.3-4.8-.3s-7.4.1-4.7.3m287 0c3.1.2 8.3.2 11.5 0 3.1-.2.5-.3-5.8-.3s-8.9.1-5.7.3m209.5 0c1.7.2 4.7.2 6.5 0 1.7-.2.3-.4-3.3-.4s-5 .2-3.2.4m289.5 0c.9.2 2.3.2 3 0 .6-.3-.1-.5-1.8-.5-1.6 0-2.2.2-1.2.5m15.5 0c.6.2 1.8.2 2.5 0 .6-.3.1-.5-1.3-.5s-1.9.2-1.2.5m-547 1c.7.3 1.6.2 1.9-.1.4-.3-.2-.6-1.3-.5-1.1 0-1.4.3-.6.6m517 0c.7.3 1.6.2 1.9-.1.4-.3-.2-.6-1.3-.5-1.1 0-1.4.3-.6.6m41.7 2.3c1 1.1 2 2 2.3 2s-.3-.9-1.3-2-2-2-2.3-2 .3.9 1.3 2m-940.4 10.6c0 1.1.3 1.4.6.6.3-.7.2-1.6-.1-1.9-.3-.4-.6.2-.5 1.3m168.3 16.9c0 8.2.2 11.5.3 7.2.2-4.3.2-11 0-15-.1-4-.3-.5-.3 7.8m-159 1c0 8.2.2 11.5.3 7.2.2-4.3.2-11 0-15-.1-4-.3-.5-.3 7.8M1395.2 267c0 1.4.2 1.9.5 1.2.2-.6.2-1.8 0-2.5-.3-.6-.5-.1-.5 1.3m140.1-1.3c.9.2 2.3.2 3 0 .6-.3-.1-.5-1.8-.5-1.6 0-2.2.2-1.2.5m-140.1 7.3c0 1.4.2 1.9.5 1.2.2-.6.2-1.8 0-2.5-.3-.6-.5-.1-.5 1.3m186.1 9.5c0 2.7.2 3.8.4 2.2.2-1.5.2-3.7 0-5-.2-1.2-.4 0-.4 2.8m-57.1-.5c0 1.9.2 2.7.5 1.7.2-.9.2-2.5 0-3.5-.3-.9-.5-.1-.5 1.8m-416.3 1.7-2.4 2.8 2.8-2.4c1.5-1.4 2.7-2.6 2.7-2.8 0-.8-.8-.1-3.1 2.4m-475.8 15.9c0 1.1.3 1.4.6.6.3-.7.2-1.6-.1-1.9-.3-.4-.6.2-.5 1.3m902.7-.9c.6.2 1.8.2 2.5 0 .6-.3.1-.5-1.3-.5s-1.9.2-1.2.5m35.1 15c-1.3 1.6-1.2 1.7.4.4s2.1-2.1 1.3-2.1c-.2 0-1 .8-1.7 1.7m-534.6 4.8c0 2.2.2 3 .4 1.7.2-1.2.2-3 0-4-.3-.9-.5.1-.4 2.3m-405.2 4.1c0 1.1.3 1.4.6.6.3-.7.2-1.6-.1-1.9-.3-.4-.6.2-.5 1.3m-140.7 45.9c0 8.2.2 11.5.3 7.2.2-4.3.2-11 0-15-.1-4-.3-.5-.3 7.8m-157 1c0 8.2.2 11.5.3 7.2.2-4.3.2-11 0-15-.1-4-.3-.5-.3 7.8m590.4 12.2c.7.3 1.6.2 1.9-.1.4-.3-.2-.6-1.3-.5-1.1 0-1.4.3-.6.6m27 1c1.2.2 3.2.2 4.5 0 1.2-.2.2-.4-2.3-.4s-3.5.2-2.2.4m-152.5 30c3.7.2 9.7.2 13.5 0 3.7-.2.6-.3-6.8-.3s-10.5.1-6.7.3m330.5 5c.6.2 1.8.2 2.5 0 .6-.3.1-.5-1.3-.5s-1.9.2-1.2.5m11 0c.6.2 1.8.2 2.5 0 .6-.3.1-.5-1.3-.5s-1.9.2-1.2.5m-790.5 47c.9.2 2.3.2 3 0 .6-.3-.1-.5-1.8-.5-1.6 0-2.2.2-1.2.5m126.5 1c.7.3 1.6.2 1.9-.1.4-.3-.2-.6-1.3-.5-1.1 0-1.4.3-.6.6m111 0c1.2.2 3.2.2 4.5 0 1.2-.2.2-.4-2.3-.4s-3.5.2-2.2.4m264.5 0c.9.2 2.5.2 3.5 0 .9-.3.1-.5-1.8-.5s-2.7.2-1.7.5m521.6 1c-1.3 1.6-1.2 1.7.4.4s2.1-2.1 1.3-2.1c-.2 0-1 .8-1.7 1.7m-460.6 0c2 .2 5.4.2 7.5 0 2-.2.3-.4-3.8-.4s-5.8.2-3.7.4m673.8 3.9c0 1.1.3 1.4.6.6.3-.7.2-1.6-.1-1.9-.3-.4-.6.2-.5 1.3m-696 1c0 1.1.3 1.4.6.6.3-.7.2-1.6-.1-1.9-.3-.4-.6.2-.5 1.3m-133.8 3.9c0 2.2.2 3 .4 1.7.2-1.2.2-3 0-4-.3-.9-.5.1-.4 2.3m667.7-3.1c0 .2.8 1 1.8 1.7 1.5 1.3 1.6 1.2.3-.4s-2.1-2.1-2.1-1.3m-792.9 2.2c0 1.1.3 1.4.6.6.3-.7.2-1.6-.1-1.9-.3-.4-.6.2-.5 1.3m-45.3 5.1c.7.3 1.6.2 1.9-.1.4-.3-.2-.6-1.3-.5-1.1 0-1.4.3-.6.6m893 0c1.2.2 3.2.2 4.5 0 1.2-.2.2-.4-2.3-.4s-3.5.2-2.2.4m-1175 1c.6.2 1.8.2 2.5 0 .6-.3.1-.5-1.3-.5s-1.9.2-1.2.5m43 0c1.2.2 3 .2 4 0 .9-.3-.1-.5-2.3-.4-2.2 0-3 .2-1.7.4m1227 0c.7.3 1.6.2 1.9-.1.4-.3-.2-.6-1.3-.5-1.1 0-1.4.3-.6.6m-934 1c.7.3 1.6.2 1.9-.1.4-.3-.2-.6-1.3-.5-1.1 0-1.4.3-.6.6m6.5 0c.9.2 2.5.2 3.5 0 .9-.3.1-.5-1.8-.5s-2.7.2-1.7.5m174.9 5.3c0 1.4.2 1.9.5 1.2.2-.6.2-1.8 0-2.5-.3-.6-.5-.1-.5 1.3m-254.1 13.6c0 1.1.3 1.4.6.6.3-.7.2-1.6-.1-1.9-.3-.4-.6.2-.5 1.3m832.7-.9c.7.3 1.6.2 1.9-.1.4-.3-.2-.6-1.3-.5-1.1 0-1.4.3-.6.6m-573.8.7c0 .2.8 1 1.8 1.7 1.5 1.3 1.6 1.2.3-.4s-2.1-2.1-2.1-1.3m-449.6 5.8-1.9 2.3 2.3-1.9c2.1-1.8 2.7-2.6 1.9-2.6-.2 0-1.2 1-2.3 2.2m245.9 8.3c0 2.2.2 3 .4 1.7.2-1.2.2-3 0-4-.3-.9-.5.1-.4 2.3m-279.5-1.8c.7.3 1.6.2 1.9-.1.4-.3-.2-.6-1.3-.5-1.1 0-1.4.3-.6.6m1057 1c1.8.2 4.5.2 6 0s0-.4-3.3-.4-4.5.2-2.7.4M239.2 518c0 1.4.2 1.9.5 1.2.2-.6.2-1.8 0-2.5-.3-.6-.5-.1-.5 1.3m1002.1 7.7c.9.2 2.3.2 3 0 .6-.3-.1-.5-1.8-.5-1.6 0-2.2.2-1.2.5M821 531.4c0 .2.8 1 1.8 1.7 1.5 1.3 1.6 1.2.3-.4s-2.1-2.1-2.1-1.3m-452.7 8.3c.9.2 2.5.2 3.5 0 .9-.3.1-.5-1.8-.5s-2.7.2-1.7.5m154 0c.9.2 2.5.2 3.5 0 .9-.3.1-.5-1.8-.5s-2.7.2-1.7.5m-315.5 2c.6.2 1.8.2 2.5 0 .6-.3.1-.5-1.3-.5s-1.9.2-1.2.5m6 0c.7.3 1.6.2 1.9-.1.4-.3-.2-.6-1.3-.5-1.1 0-1.4.3-.6.6m372 0c.7.3 1.6.2 1.9-.1.4-.3-.2-.6-1.3-.5-1.1 0-1.4.3-.6.6m4 0c.6.2 1.8.2 2.5 0 .6-.3.1-.5-1.3-.5s-1.9.2-1.2.5m258 0c.6.2 1.8.2 2.5 0 .6-.3.1-.5-1.3-.5s-1.9.2-1.2.5m633 0c.6.2 1.8.2 2.5 0 .6-.3.1-.5-1.3-.5s-1.9.2-1.2.5"/><path fill="#FFF" fill-opacity=".6" d="M499.8 68.7c.7.3 1.6.2 1.9-.1.4-.3-.2-.6-1.3-.5-1.1 0-1.4.3-.6.6m5.3 6.9c0 1.1.3 1.4.6.6.3-.7.2-1.6-.1-1.9-.3-.4-.6.2-.5 1.3m131 5c0 1.1.3 1.4.6.6.3-.7.2-1.6-.1-1.9-.3-.4-.6.2-.5 1.3m-130 10c0 1.1.3 1.4.6.6.3-.7.2-1.6-.1-1.9-.3-.4-.6.2-.5 1.3m-21.3 5.1c.6.2 1.8.2 2.5 0 .6-.3.1-.5-1.3-.5s-1.9.2-1.2.5m152.6 8.3c0 5.2.1 7.4.3 4.7.2-2.6.2-6.8 0-9.5-.2-2.6-.3-.4-.3 4.8m-170.6-7.3c.6.2 1.8.2 2.5 0 .6-.3.1-.5-1.3-.5s-1.9.2-1.2.5m152.4 4.3c0 1.9.2 2.7.5 1.7.2-.9.2-2.5 0-3.5-.3-.9-.5-.1-.5 1.8m-293 5c0 1.4.2 1.9.5 1.2.2-.6.2-1.8 0-2.5-.3-.6-.5-.1-.5 1.3m293 6c0 1.9.2 2.7.5 1.7.2-.9.2-2.5 0-3.5-.3-.9-.5-.1-.5 1.8m-138.4-.3c.6.2 1.8.2 2.5 0 .6-.3.1-.5-1.3-.5s-1.9.2-1.2.5m-19 1c.6.2 1.8.2 2.5 0 .6-.3.1-.5-1.3-.5s-1.9.2-1.2.5M349.3 129c0 2.5.2 3.5.4 2.2.2-1.2.2-3.2 0-4.5-.2-1.2-.4-.2-.4 2.3m93 3.5c0 4.4.2 6.1.4 3.7.2-2.3.2-5.9 0-8-.2-2-.4-.1-.4 4.3m-78.2-.9c0 1.1.3 1.4.6.6.3-.7.2-1.6-.1-1.9-.3-.4-.6.2-.5 1.3m-58.8 6.4c0 3.6.2 5 .4 3.2.2-1.7.2-4.7 0-6.5-.2-1.7-.4-.3-.4 3.3m174.5 11.7c.7.3 1.6.2 1.9-.1.4-.3-.2-.6-1.3-.5-1.1 0-1.4.3-.6.6m-217.9 4c-1.3 1.6-1.2 1.7.4.4.9-.7 1.7-1.5 1.7-1.7 0-.8-.8-.3-2.1 1.3m121.5 3.5-1.9 2.3 2.3-1.9c2.1-1.8 2.7-2.6 1.9-2.6-.2 0-1.2 1-2.3 2.2m93.9 2.5c.9.2 2.3.2 3 0 .6-.3-.1-.5-1.8-.5-1.6 0-2.2.2-1.2.5m652 59c2 .2 5.4.2 7.5 0 2-.2.3-.4-3.8-.4s-5.8.2-3.7.4m112.5 2c1.8.2 4.5.2 6 0s0-.4-3.3-.4-4.5.2-2.7.4m-901 1c.7.3 1.6.2 1.9-.1.4-.3-.2-.6-1.3-.5-1.1 0-1.4.3-.6.6m139 0c.7.3 1.6.2 1.9-.1.4-.3-.2-.6-1.3-.5-1.1 0-1.4.3-.6.6m227 0c.6.2 1.8.2 2.5 0 .6-.3.1-.5-1.3-.5s-1.9.2-1.2.5m221 0c.7.3 1.6.2 1.9-.1.4-.3-.2-.6-1.3-.5-1.1 0-1.4.3-.6.6m296 0c.7.3 1.6.2 1.9-.1.4-.3-.2-.6-1.3-.5-1.1 0-1.4.3-.6.6m-892.5 10.8c0 3.3.2 4.5.4 2.7s.2-4.5 0-6-.4 0-.4 3.3m159-.5c0 3 .2 4.3.4 2.7.2-1.5.2-3.9 0-5.5-.2-1.5-.4-.2-.4 2.8m-168.2-.4c0 1.1.3 1.4.6.6.3-.7.2-1.6-.1-1.9-.3-.4-.6.2-.5 1.3m1181.3 17.6-1.9 2.3 2.3-1.9c2.1-1.8 2.7-2.6 1.9-2.6-.2 0-1.2 1-2.3 2.2m-68 3-1.9 2.3 2.3-1.9c2.1-1.8 2.7-2.6 1.9-2.6-.2 0-1.2 1-2.3 2.2m17.4 45.5c.6.2 1.8.2 2.5 0 .6-.3.1-.5-1.3-.5s-1.9.2-1.2.5m-693.5 4c1.5.2 3.7.2 5 0 1.2-.2 0-.4-2.8-.4-2.7 0-3.8.2-2.2.4m-128.2 6.9c0 1.1.3 1.4.6.6.3-.7.2-1.6-.1-1.9-.3-.4-.6.2-.5 1.3m724.1 3.4c0 1.4.2 1.9.5 1.2.2-.6.2-1.8 0-2.5-.3-.6-.5-.1-.5 1.3m-865.8 27.5c0 8.2.2 11.5.3 7.2.2-4.3.2-11 0-15-.1-4-.3-.5-.3 7.8m-157 1.5c0 8 .2 11.2.3 7.2.2-3.9.2-10.5 0-14.5-.1-3.9-.3-.7-.3 7.3m296.7-9.4c0 1.1.3 1.4.6.6.3-.7.2-1.6-.1-1.9-.3-.4-.6.2-.5 1.3m297.7 50.1c1.2.2 3 .2 4 0 .9-.3-.1-.5-2.3-.4-2.2 0-3 .2-1.7.4m31 1c1.2.2 3 .2 4 0 .9-.3-.1-.5-2.3-.4-2.2 0-3 .2-1.7.4M221 410.4c0 .2.8 1 1.8 1.7 1.5 1.3 1.6 1.2.3-.4s-2.1-2.1-2.1-1.3m474 0c0 .2.8 1 1.8 1.7 1.5 1.3 1.6 1.2.3-.4s-2.1-2.1-2.1-1.3m512 0c0 .2.8 1 1.8 1.7 1.5 1.3 1.6 1.2.3-.4s-2.1-2.1-2.1-1.3m-381.7 2.3c4.8.2 12.6.2 17.5 0 4.8-.1.8-.3-8.8-.3s-13.6.2-8.7.3m307.5 5c1.2.2 3 .2 4 0 .9-.3-.1-.5-2.3-.4-2.2 0-3 .2-1.7.4m-924 48c1.2.2 3 .2 4 0 .9-.3-.1-.5-2.3-.4-2.2 0-3 .2-1.7.4m116.9 0c1.8.2 5 .2 7 0 2.1-.2.7-.4-3.2-.4-3.8 0-5.5.2-3.8.4m197.6 0c1.5.2 3.7.2 5 0 1.2-.2 0-.4-2.8-.4-2.7 0-3.8.2-2.2.4m188 0c1.5.2 3.7.2 5 0 1.2-.2 0-.4-2.8-.4-2.7 0-3.8.2-2.2.4m666.5 0c1.8.2 4.5.2 6 0s0-.4-3.3-.4-4.5.2-2.7.4m-453.1 1c1.8.2 5 .2 7 0 2.1-.2.7-.4-3.2-.4-3.8 0-5.5.2-3.8.4M374 472.4c0 .2.8 1 1.8 1.7 1.5 1.3 1.6 1.2.3-.4s-2.1-2.1-2.1-1.3m515.2 2.6c0 1.4.2 1.9.5 1.2.2-.6.2-1.8 0-2.5-.3-.6-.5-.1-.5 1.3m562.7 1.7-2.4 2.8 2.8-2.4c2.5-2.3 3.2-3.1 2.4-3.1-.2 0-1.4 1.2-2.8 2.7M755.3 483c0 2.5.2 3.5.4 2.2.2-1.2.2-3.2 0-4.5-.2-1.2-.4-.2-.4 2.3m-457-2.3c.9.2 2.3.2 3 0 .6-.3-.1-.5-1.8-.5-1.6 0-2.2.2-1.2.5m944 0c.9.2 2.5.2 3.5 0 .9-.3.1-.5-1.8-.5s-2.7.2-1.7.5m-600.5 1c.7.3 1.6.2 1.9-.1.4-.3-.2-.6-1.3-.5-1.1 0-1.4.3-.6.6m750 0c.7.3 1.6.2 1.9-.1.4-.3-.2-.6-1.3-.5-1.1 0-1.4.3-.6.6m11 1c.7.3 1.6.2 1.9-.1.4-.3-.2-.6-1.3-.5-1.1 0-1.4.3-.6.6M382.2 490c0 1.4.2 1.9.5 1.2.2-.6.2-1.8 0-2.5-.3-.6-.5-.1-.5 1.3m1010.6 9.7c1.2.2 3 .2 4 0 .9-.3-.1-.5-2.3-.4-2.2 0-3 .2-1.7.4m9 0c.7.3 1.6.2 1.9-.1.4-.3-.2-.6-1.3-.5-1.1 0-1.4.3-.6.6m56.5 2.8c0 2.2.2 3 .4 1.7.2-1.2.2-3 0-4-.3-.9-.5.1-.4 2.3m60 .5c0 2.5.2 3.5.4 2.2.2-1.2.2-3.2 0-4.5-.2-1.2-.4-.2-.4 2.3m-249.1-.5c0 1.6.2 2.2.5 1.2.2-.9.2-2.3 0-3-.3-.6-.5.1-.5 1.8m17 .5c0 1.9.2 2.7.5 1.7.2-.9.2-2.5 0-3.5-.3-.9-.5-.1-.5 1.8m215 .5c0 1.6.2 2.2.5 1.2.2-.9.2-2.3 0-3-.3-.6-.5.1-.5 1.8m-627.2-.1c0 .2.8 1 1.8 1.7 1.5 1.3 1.6 1.2.3-.4s-2.1-2.1-2.1-1.3m-270.9 13.2c0 1.1.3 1.4.6.6.3-.7.2-1.6-.1-1.9-.3-.4-.6.2-.5 1.3m890.8 5.1c-1.3 1.6-1.2 1.7.4.4s2.1-2.1 1.3-2.1c-.2 0-1 .8-1.7 1.7m-257.1 4c.6.2 1.8.2 2.5 0 .6-.3.1-.5-1.3-.5s-1.9.2-1.2.5m9 0c.6.2 1.8.2 2.5 0 .6-.3.1-.5-1.3-.5s-1.9.2-1.2.5m-395.5 1c.9.2 2.3.2 3 0 .6-.3-.1-.5-1.8-.5-1.6 0-2.2.2-1.2.5m425.6 2-2.4 2.8 2.8-2.4c1.5-1.4 2.7-2.6 2.7-2.8 0-.8-.8-.1-3.1 2.4m-1043 5c-1.3 1.6-1.2 1.7.4.4s2.1-2.1 1.3-2.1c-.2 0-1 .8-1.7 1.7"/><path fill="#FFF" fill-opacity=".7" d="M627.8 61.7c.6.2 1.8.2 2.5 0 .6-.3.1-.5-1.3-.5s-1.9.2-1.2.5M615.5 64c-.3.6.1.7.9.4 1.8-.7 2.1-1.4.7-1.4-.6 0-1.3.4-1.6 1m-413 45c0 22.8.1 32.2.2 20.8.2-11.5.2-30.1 0-41.6-.1-11.4-.2-2-.2 20.8m286.9-38.7c-.2.7-.3 6.5-.2 12.8l.3 11.4.5-12.8c.3-7 .4-12.7.2-12.7-.1 0-.5.6-.8 1.3m15.8 8.7c0 1.4.2 1.9.5 1.2.2-.6.2-1.8 0-2.5-.3-.6-.5-.1-.5 1.3m130.9 4.6c0 1.1.3 1.4.6.6.3-.7.2-1.6-.1-1.9-.3-.4-.6.2-.5 1.3m-288.4 4.1c-.4.3-.7 1.1-.7 1.7 0 .7.3.6.8-.1s4-1.3 8.7-1.6l8-.3-8.1-.2c-4.4-.1-8.4.1-8.7.5m238.7 16.8c0 9.3.2 13.3.3 8.8.2-4.5.2-12.2 0-17-.1-4.8-.3-1.2-.3 8.2M512 95.7c10.8.7 22.8.7 22.3 0-.2-.4-6.4-.6-13.6-.5-7.3.1-11.2.3-8.7.5m107.1.9c0 1.1.3 1.4.6.6.3-.7.2-1.6-.1-1.9-.3-.4-.6.2-.5 1.3m-148.3.1c.6.2 1.8.2 2.5 0 .6-.3.1-.5-1.3-.5s-1.9.2-1.2.5M453.5 98c-.3.6.1.7.9.4 1.8-.7 2.1-1.4.7-1.4-.6 0-1.3.4-1.6 1m-127.3 4c0 1.4.2 1.9.5 1.2.2-.6.2-1.8 0-2.5-.3-.6-.5-.1-.5 1.3m240.9.6c0 1.1.3 1.4.6.6.3-.7.2-1.6-.1-1.9-.3-.4-.6.2-.5 1.3m-90.3 9.1c.6.2 1.8.2 2.5 0 .6-.3.1-.5-1.3-.5s-1.9.2-1.2.5m-19 1c.6.2 1.8.2 2.5 0 .6-.3.1-.5-1.3-.5s-1.9.2-1.2.5m33.6 9.3c0 5.8.1 8.1.3 5.2.2-2.8.2-7.6 0-10.5-.2-2.8-.3-.5-.3 5.3m17 4c0 8 .2 11.2.3 7.2.2-3.9.2-10.5 0-14.5-.1-3.9-.3-.7-.3 7.3m-83.2-8c0 1.4.2 1.9.5 1.2.2-.6.2-1.8 0-2.5-.3-.6-.5-.1-.5 1.3m-59.7.1c-.4.6-.5 1.2-.2 1.5.2.3.7-.2 1-1.1.7-1.7.1-2-.8-.4m6 2.9c1 1.1 2 2 2.3 2s-.3-.9-1.3-2-2-2-2.3-2 .3.9 1.3 2m70.7 2c0 1.4.2 1.9.5 1.2.2-.6.2-1.8 0-2.5-.3-.6-.5-.1-.5 1.3m-106.3 4.7-2.4 2.8 2.8-2.4c2.5-2.3 3.2-3.1 2.4-3.1-.2 0-1.4 1.2-2.8 2.7m41.3 5.8c0 1.6.2 2.2.5 1.2.2-.9.2-2.3 0-3-.3-.6-.5.1-.5 1.8m195.8 2.9c0 .2.8 1 1.8 1.7 1.5 1.3 1.6 1.2.3-.4s-2.1-2.1-2.1-1.3M442.2 142c0 1.4.2 1.9.5 1.2.2-.6.2-1.8 0-2.5-.3-.6-.5-.1-.5 1.3m141.1-.3c.9.2 2.3.2 3 0 .6-.3-.1-.5-1.8-.5-1.6 0-2.2.2-1.2.5m16.6 16c-1.3 1.6-1.2 1.7.4.4s2.1-2.1 1.3-2.1c-.2 0-1 .8-1.7 1.7m-384.6 0c.9.2 2.3.2 3 0 .6-.3-.1-.5-1.8-.5-1.6 0-2.2.2-1.2.5m4.5 17c.7.3 1.6.2 1.9-.1.4-.3-.2-.6-1.3-.5-1.1 0-1.4.3-.6.6m-4.1 47c18.9.2 49.7.2 68.6 0 18.8-.1 3.4-.2-34.3-.2s-53.1.1-34.3.2m128.6 0c.9.2 2.3.2 3 0 .6-.3-.1-.5-1.8-.5-1.6 0-2.2.2-1.2.5m131 0c.9.2 2.3.2 3 0 .6-.3-.1-.5-1.8-.5-1.6 0-2.2.2-1.2.5m236.5 0c1.2.2 3 .2 4 0 .9-.3-.1-.5-2.3-.4-2.2 0-3 .2-1.7.4m56 0c.6.2 1.8.2 2.5 0 .6-.3.1-.5-1.3-.5s-1.9.2-1.2.5m163.5 0c.9.2 2.3.2 3 0 .6-.3-.1-.5-1.8-.5-1.6 0-2.2.2-1.2.5m33.5 0c.6.2 1.8.2 2.5 0 .6-.3.1-.5-1.3-.5s-1.9.2-1.2.5m262 0c.7.3 1.6.2 1.9-.1.4-.3-.2-.6-1.3-.5-1.1 0-1.4.3-.6.6m92 0c8.3.2 22.1.2 30.5 0 8.3-.1 1.5-.3-15.3-.3s-23.6.2-15.2.3m-745.1 2 64.3.3.3 23.3.3 23.2-.1-23.5v-23.5h-129zm-397.5 23c-.1 12.7.1 23.4.6 23.6.4.3.6-6.5.4-15.1-.4-28.9-.8-31.9-1-8.5m146-19.7c0 1.9.2 2.7.5 1.7.2-.9.2-2.5 0-3.5-.3-.9-.5-.1-.5 1.8m70.3 34c0 19.5.1 27.5.2 17.8.2-9.8.2-25.8 0-35.5-.1-9.8-.2-1.8-.2 17.7m871.9-7c0 15.7.2 22.1.3 14.2.2-7.8.2-20.6 0-28.5-.1-7.8-.3-1.4-.3 14.3m266.4-16.3c.6.2 1.8.2 2.5 0 .6-.3.1-.5-1.3-.5s-1.9.2-1.2.5m8 0c.6.2 1.8.2 2.5 0 .6-.3.1-.5-1.3-.5s-1.9.2-1.2.5M823 239.3c0 .2 1.5 1.6 3.3 3.3l3.2 2.9-2.9-3.3c-2.8-3-3.6-3.7-3.6-2.9m-501.9 2.3c0 1.1.3 1.4.6.6.3-.7.2-1.6-.1-1.9-.3-.4-.6.2-.5 1.3m1244.9 5.7c0 .2 1.5 1.6 3.3 3.3l3.2 2.9-2.9-3.3c-2.8-3-3.6-3.7-3.6-2.9m-137.8 23.2c0 1.6.2 2.2.5 1.2.2-.9.2-2.3 0-3-.3-.6-.5.1-.5 1.8m-288.9.2c.9.2 2.3.2 3 0 .6-.3-.1-.5-1.8-.5-1.6 0-2.2.2-1.2.5m-375.5 2c.6.2 1.8.2 2.5 0 .6-.3.1-.5-1.3-.5s-1.9.2-1.2.5M278.5 342c0 37.7.1 53.1.2 34.2.2-18.8.2-49.6 0-68.5-.1-18.8-.2-3.4-.2 34.3m287.9-59c0 5.2.1 7.4.3 4.7.2-2.6.2-6.8 0-9.5-.2-2.6-.3-.4-.3 4.8m186 4c0 7.4.1 10.5.3 6.7.2-3.7.2-9.7 0-13.5-.2-3.7-.3-.6-.3 6.8m738.9-5c0 2.5.2 3.5.4 2.2.2-1.2.2-3.2 0-4.5-.2-1.2-.4-.2-.4 2.3m-649.2-1.4c0 1.1.3 1.4.6.6.3-.7.2-1.6-.1-1.9-.3-.4-.6.2-.5 1.3m-58.9 6.4c0 1.9.2 2.7.5 1.7.2-.9.2-2.5 0-3.5-.3-.9-.5-.1-.5 1.8m58.9 2.6c0 1.1.3 1.4.6.6.3-.7.2-1.6-.1-1.9-.3-.4-.6.2-.5 1.3m-242.7 4.1c24 .3 32.2.6 32.9 1.6.6.9.7.8.4-.3-.3-1.3-4.8-1.5-32.8-1.5h-32.4zm-110 16.8c0 8.2.2 11.5.3 7.2.2-4.3.2-11 0-15-.1-4-.3-.5-.3 7.8m-87.1-12.8c4.8.2 12.6.2 17.5 0 4.8-.1.8-.3-8.8-.3s-13.6.2-8.7.3m-69.9 14.8c0 8.2.2 11.5.3 7.2.2-4.3.2-11 0-15-.1-4-.3-.5-.3 7.8m422.4-10.8c.7.3 1.6.2 1.9-.1.4-.3-.2-.6-1.3-.5-1.1 0-1.4.3-.6.6m12 0c.7.3 1.6.2 1.9-.1.4-.3-.2-.6-1.3-.5-1.1 0-1.4.3-.6.6m269.3 6.9c0 1.1.3 1.4.6.6.3-.7.2-1.6-.1-1.9-.3-.4-.6.2-.5 1.3m376.9 3.8c0 .2.8 1 1.8 1.7 1.5 1.3 1.6 1.2.3-.4s-2.1-2.1-2.1-1.3m-782.9 5.2c0 1.1.3 1.4.6.6.3-.7.2-1.6-.1-1.9-.3-.4-.6.2-.5 1.3m815.7 9.1c.6.2 1.8.2 2.5 0 .6-.3.1-.5-1.3-.5s-1.9.2-1.2.5m6 0c.6.2 1.8.2 2.5 0 .6-.3.1-.5-1.3-.5s-1.9.2-1.2.5m82 0c1.2.2 3.2.2 4.5 0 1.2-.2.2-.4-2.3-.4s-3.5.2-2.2.4m-497.7 1.9c0 1.1.3 1.4.6.6.3-.7.2-1.6-.1-1.9-.3-.4-.6.2-.5 1.3M566.4 351c0 6.3.1 8.9.3 5.7.2-3.1.2-8.3 0-11.5-.2-3.1-.3-.5-.3 5.8m373.9-9.3c3.7.2 9.7.2 13.5 0 3.7-.2.6-.3-6.8-.3s-10.5.1-6.7.3M752.4 376c0 17.9.2 25.2.3 16.2.2-8.9.2-23.5 0-32.5-.1-8.9-.3-1.6-.3 16.3m512.1-28.7c-.3.7-.4 14.7-.2 31.2l.2 30 .3-30.8c.1-23 .5-30.6 1.4-30.1.7.4.8.3.4-.4-.9-1.5-1.5-1.5-2.1.1M392.4 378c0 16.8.2 23.6.3 15.2.2-8.3.2-22.1 0-30.5-.1-8.3-.3-1.5-.3 15.3M604 363.7l36 .3.3 23 .3 23-.1-23.2v-23.3H568zm535.3 1c.9.2 2.3.2 3 0 .6-.3-.1-.5-1.8-.5-1.6 0-2.2.2-1.2.5m-205.5 17c1.2.2 3.2.2 4.5 0 1.2-.2.2-.4-2.3-.4s-3.5.2-2.2.4m31 1c1.2.2 3 .2 4 0 .9-.3-.1-.5-2.3-.4-2.2 0-3 .2-1.7.4m-105.5 30c4.8.2 12.5.2 17 0 4.5-.1.6-.3-8.8-.3-9.3 0-13 .2-8.2.3m-595.5 53c7.8.2 20.6.2 28.5 0 7.8-.1 1.4-.3-14.3-.3s-22.1.2-14.2.3m73.5 0c.9.2 2.3.2 3 0 .6-.3-.1-.5-1.8-.5-1.6 0-2.2.2-1.2.5m74.5 0c6.7.2 17.7.2 24.5 0 6.7-.1 1.2-.3-12.3-.3s-19 .2-12.2.3m118.9 0c1 .7 1.3 9.7 1.6 36.9l.2 35.9v-36.4c0-31.5-.2-36.5-1.5-36.8-1.1-.3-1.2-.2-.3.4m188 0c.9.6 1.3 5.3 1.6 14.8l.3 14-.1-14.4c0-12-.3-14.5-1.5-14.8-1.1-.3-1.2-.2-.3.4m252 0 7.3.4.3 23.7.3 23.7-.1-24v-24l-7.5-.1-7.5-.1zm50 0 7.3.4.3 28.2.2 28.2v-57l-7.5-.1-7.5-.1zm54 0 25.2.3.4 6.8.3 6.7v-7l-.1-7H1075l-25.5-.1zm68 0 25.2.3.4 6.8.3 6.7v-7l-.1-7H1143l-25.5-.1zm84.6 0c4.3.2 11 .2 15 0 4-.1.5-.3-7.8-.3-8.2 0-11.5.2-7.2.3m88.5 0c6.7.2 17.7.2 24.5 0 6.7-.1 1.2-.3-12.3-.3s-19 .2-12.2.3m71.5 0c.9.2 2.3.2 3 0 .6-.3-.1-.5-1.8-.5-1.6 0-2.2.2-1.2.5m-754.6 1c-.3.5 7.9.7 18.1.5 34.5-.4 37.9-.8 10-1-15.2-.1-27.9.1-28.1.5M770.5 502c0 20.1.1 28.3.2 18.3.2-10.1.2-26.5 0-36.5-.1-10.1-.2-1.9-.2 18.2m167.3-35.3c1.8.2 4.5.2 6 0s0-.4-3.3-.4-4.5.2-2.7.4m605 0c7.9.2 20.5.2 28 0 7.5-.1 1.1-.3-14.3-.3s-21.6.2-13.7.3M488 472.5c1.3 1.4 2.6 2.5 2.8 2.5.3 0-.5-1.1-1.8-2.5s-2.6-2.5-2.8-2.5c-.3 0 .5 1.1 1.8 2.5m-37.7 3c0 2.7.2 3.8.4 2.2.2-1.5.2-3.7 0-5-.2-1.2-.4 0-.4 2.8m904 0c0 2.7.2 3.8.4 2.2.2-1.5.2-3.7 0-5-.2-1.2-.4 0-.4 2.8m-528.9-.3-1.9 2.3 2.3-1.9c2.1-1.8 2.7-2.6 1.9-2.6-.2 0-1.2 1-2.3 2.2m681.6.3c1.3 1.4 2.6 2.5 2.8 2.5.3 0-.5-1.1-1.8-2.5s-2.6-2.5-2.8-2.5c-.3 0 .5 1.1 1.8 2.5m78.2.5c0 1.4.2 1.9.5 1.2.2-.6.2-1.8 0-2.5-.3-.6-.5-.1-.5 1.3m-1026.3.7c-1.3 1.6-1.2 1.7.4.4.9-.7 1.7-1.5 1.7-1.7 0-.8-.8-.3-2.1 1.3m330.2 1.9c0 1.1.3 1.4.6.6.3-.7.2-1.6-.1-1.9-.3-.4-.6.2-.5 1.3m-596.8 2.1c.9.2 2.5.2 3.5 0 .9-.3.1-.5-1.8-.5s-2.7.2-1.7.5m945.5 0c.6.2 1.8.2 2.5 0 .6-.3.1-.5-1.3-.5s-1.9.2-1.2.5m10 0c.7.3 1.6.2 1.9-.1.4-.3-.2-.6-1.3-.5-1.1 0-1.4.3-.6.6m320 0c.7.3 1.6.2 1.9-.1.4-.3-.2-.6-1.3-.5-1.1 0-1.4.3-.6.6M286.4 510c0 15.7.2 22.1.3 14.2.2-7.8.2-20.6 0-28.5-.1-7.8-.3-1.4-.3 14.3m51.9-20c0 4.7.2 6.6.4 4.2.2-2.3.2-6.1 0-8.5-.2-2.3-.4-.4-.4 4.3m76-2c0 3.6.2 5 .4 3.2.2-1.7.2-4.7 0-6.5-.2-1.7-.4-.3-.4 3.3m254.1 22c0 15.7.2 22.1.3 14.2.2-7.8.2-20.6 0-28.5-.1-7.8-.3-1.4-.3 14.3m258 0c0 15.7.2 22.1.3 14.2.2-7.8.2-20.6 0-28.5-.1-7.8-.3-1.4-.3 14.3m137.9-22c0 3.6.2 5 .4 3.2.2-1.7.2-4.7 0-6.5-.2-1.7-.4-.3-.4 3.3m68 0c0 3.6.2 5 .4 3.2.2-1.7.2-4.7 0-6.5-.2-1.7-.4-.3-.4 3.3m102.1 15c0 11.8.2 16.7.3 10.7.2-5.9.2-15.5 0-21.5-.1-5.9-.3-1-.3 10.8m83.9-15c0 3.6.2 5 .4 3.2.2-1.7.2-4.7 0-6.5-.2-1.7-.4-.3-.4 3.3m68 2c0 4.7.2 6.6.4 4.2.2-2.3.2-6.1 0-8.5-.2-2.3-.4-.4-.4 4.3m178.1 20c0 15.7.2 22.1.3 14.2.2-7.8.2-20.6 0-28.5-.1-7.8-.3-1.4-.3 14.3M181.3 488.5c0 2.2.2 3 .4 1.7.2-1.2.2-3 0-4-.3-.9-.5.1-.4 2.3m1231.8-1.9c0 1.1.3 1.4.6.6.3-.7.2-1.6-.1-1.9-.3-.4-.6.2-.5 1.3m17.2 2.9c0 2.2.2 3 .4 1.7.2-1.2.2-3 0-4-.3-.9-.5.1-.4 2.3m-824.5-1.8c.7.3 1.6.2 1.9-.1.4-.3-.2-.6-1.3-.5-1.1 0-1.4.3-.6.6m149.5 2.8c0 2.2.2 3 .4 1.7.2-1.2.2-3 0-4-.3-.9-.5.1-.4 2.3M482.4 516c0 12.4.2 17.4.3 11.2.2-6.1.2-16.3 0-22.5-.1-6.1-.3-1.1-.3 11.3m-49.7-20.3 17.2.3.4 6.3.4 6.2-.1-6.5-.1-6.5H433l-17.5-.1zm297.1 0c4.5.2 11.9.2 16.5 0 4.5-.1.8-.3-8.3-.3s-12.8.2-8.2.3m352.9 0 17.2.3.4 6.3.4 6.2-.1-6.5-.1-6.5H1083l-17.5-.1zm68 0 17.2.3.4 6.3.4 6.2-.1-6.5-.1-6.5H1151l-17.5-.1zm185 0 16.2.3.4 5.8.3 5.7v-6l-.1-6H1336l-16.5-.1zm-733.2 4c11.9.3 17.2.7 17.8 1.6s.7.8.4-.3c-.3-1.3-3.2-1.5-17.8-1.5l-17.4-.1zm786.3 0c.7.3 1.6.2 1.9-.1.4-.3-.2-.6-1.3-.5-1.1 0-1.4.3-.6.6m52.4 3.3c0 1.9.2 2.7.5 1.7.2-.9.2-2.5 0-3.5-.3-.9-.5-.1-.5 1.8m-928.7 3c1 1.1 2 2 2.3 2s-.3-.9-1.3-2-2-2-2.3-2 .3.9 1.3 2m-98.2 11c0 4.1.2 5.8.4 3.7.2-2 .2-5.4 0-7.5-.2-2-.4-.3-.4 3.8m306.1 7c0 8 .2 11.2.3 7.2.2-3.9.2-10.5 0-14.5-.1-3.9-.3-.7-.3 7.3m344 0c0 8 .2 11.2.3 7.2.2-3.9.2-10.5 0-14.5-.1-3.9-.3-.7-.3 7.3m68 0c0 8 .2 11.2.3 7.2.2-3.9.2-10.5 0-14.5-.1-3.9-.3-.7-.3 7.3m185.9-7c0 4.1.2 5.8.4 3.7.2-2 .2-5.4 0-7.5-.2-2-.4-.3-.4 3.8m-980 4.5c0 4.4.2 6.1.4 3.7.2-2.3.2-5.9 0-8-.2-2-.4-.1-.4 4.3m1048.1 3c0 6 .1 8.4.3 5.2s.2-8.1 0-11-.3-.3-.3 5.8m-953.7 1.2 17.2.3.4 6.3.4 6.2-.1-6.5-.1-6.5H433l-17.5-.1zm904 0 17.2.3.4 6.3.4 6.2-.1-6.5-.1-6.5H1337l-17.5-.1zm-1125.4 2c.9.2 2.3.2 3 0 .6-.3-.1-.5-1.8-.5-1.6 0-2.2.2-1.2.5m783.5 0c.6.2 1.8.2 2.5 0 .6-.3.1-.5-1.3-.5s-1.9.2-1.2.5m483.5 0c.9.2 2.3.2 3 0 .6-.3-.1-.5-1.8-.5-1.6 0-2.2.2-1.2.5m-603.4 4c-1.3 1.6-1.2 1.7.4.4s2.1-2.1 1.3-2.1c-.2 0-1 .8-1.7 1.7"/><path fill="#FFF" fill-opacity=".9" d="M598.5 109c-.3.6.1.7.9.4 1.8-.7 2.1-1.4.7-1.4-.6 0-1.3.4-1.6 1m-108.7 1.7c.7.3 1.6.2 1.9-.1.4-.3-.2-.6-1.3-.5-1.1 0-1.4.3-.6.6m120.8 5.6c.3 1 .9 1.5 1.2 1.2s0-1.1-.7-1.8c-1-.9-1.1-.8-.5.6M325 117c0 .5.5 1 1.1 1 .5 0 .7-.5.4-1-.3-.6-.8-1-1.1-1-.2 0-.4.4-.4 1m47.5 4c1 1.1 2 2 2.3 2s-.3-.9-1.3-2-2-2-2.3-2 .3.9 1.3 2m-26.7-.3c.7.3 1.6.2 1.9-.1.4-.3-.2-.6-1.3-.5-1.1 0-1.4.3-.6.6m240.9 1.4c.7.7 1.5 1 1.8.7s-.2-.9-1.2-1.2c-1.4-.6-1.5-.5-.6.5m-251.8 5.6-2.4 2.8 2.8-2.4c2.5-2.3 3.2-3.1 2.4-3.1-.2 0-1.4 1.2-2.8 2.7m266 5-2.4 2.8 2.8-2.4c1.5-1.4 2.7-2.6 2.7-2.8 0-.8-.8-.1-3.1 2.4m-26.9 3.8c1.3 1.4 2.6 2.5 2.8 2.5.3 0-.5-1.1-1.8-2.5s-2.6-2.5-2.8-2.5c-.3 0 .5 1.1 1.8 2.5m-322.1 3.2-3.4 3.8 3.8-3.4c3.4-3.3 4.2-4.1 3.4-4.1-.2 0-1.9 1.7-3.8 3.7m256.1.7c0 .2.8 1 1.8 1.7 1.5 1.3 1.6 1.2.3-.4s-2.1-2.1-2.1-1.3m-135.1 4.3-2.4 2.8 2.8-2.4c2.5-2.3 3.2-3.1 2.4-3.1-.2 0-1.4 1.2-2.8 2.7m-38.9 4.8c1.3 1.4 2.6 2.5 2.8 2.5.3 0-.5-1.1-1.8-2.5s-2.6-2.5-2.8-2.5c-.3 0 .5 1.1 1.8 2.5m-72.6 3.7-2.9 3.3 3.3-2.9c1.7-1.7 3.2-3.1 3.2-3.3 0-.8-.8-.1-3.6 2.9m209.5-1.5c-1.3 1.6-1.2 1.7.4.4s2.1-2.1 1.3-2.1c-.2 0-1 .8-1.7 1.7m132 4-3.4 3.8 3.8-3.4c3.4-3.3 4.2-4.1 3.4-4.1-.2 0-1.9 1.7-3.8 3.7m-263.4.3c1 1.1 2 2 2.3 2s-.3-.9-1.3-2-2-2-2.3-2 .3.9 1.3 2m43.4.7-2.4 2.8 2.8-2.4c2.5-2.3 3.2-3.1 2.4-3.1-.2 0-1.4 1.2-2.8 2.7m237 6c-1.3 1.6-1.2 1.7.4.4.9-.7 1.7-1.5 1.7-1.7 0-.8-.8-.3-2.1 1.3M194 166.5c1.3 1.4 2.6 2.5 2.8 2.5.3 0-.5-1.1-1.8-2.5s-2.6-2.5-2.8-2.5c-.3 0 .5 1.1 1.8 2.5m162.9.2c-1.3 1.6-1.2 1.7.4.4s2.1-2.1 1.3-2.1c-.2 0-1 .8-1.7 1.7m143 1c-1.3 1.6-1.2 1.7.4.4.9-.7 1.7-1.5 1.7-1.7 0-.8-.8-.3-2.1 1.3m-39.9 1.8c1.3 1.4 2.6 2.5 2.8 2.5.3 0-.5-1.1-1.8-2.5s-2.6-2.5-2.8-2.5c-.3 0 .5 1.1 1.8 2.5m-124 .9c0 .2.8 1 1.8 1.7 1.5 1.3 1.6 1.2.3-.4s-2.1-2.1-2.1-1.3m256 .9c0 .2 1.5 1.6 3.3 3.3l3.2 2.9-2.9-3.3c-2.8-3-3.6-3.7-3.6-2.9m17.9 1.4c-1.3 1.6-1.2 1.7.4.4.9-.7 1.7-1.5 1.7-1.7 0-.8-.8-.3-2.1 1.3M342.5 176c1 1.1 2 2 2.3 2s-.3-.9-1.3-2-2-2-2.3-2 .3.9 1.3 2m-9.6 48.7c-1.3 1.6-1.2 1.7.4.4s2.1-2.1 1.3-2.1c-.2 0-1 .8-1.7 1.7m154.1-1.3c0 .2.8 1 1.8 1.7 1.5 1.3 1.6 1.2.3-.4s-2.1-2.1-2.1-1.3m774 0c0 .2.8 1 1.8 1.7 1.5 1.3 1.6 1.2.3-.4s-2.1-2.1-2.1-1.3m153.4 5.8-1.9 2.3 2.3-1.9c2.1-1.8 2.7-2.6 1.9-2.6-.2 0-1.2 1-2.3 2.2m-6 6-1.9 2.3 2.3-1.9c2.1-1.8 2.7-2.6 1.9-2.6-.2 0-1.2 1-2.3 2.2m-583.4 7c2.4 2.7 4.5 4.8 4.7 4.8.8 0 0-.9-4.4-5l-4.8-4.5zm245.9-1.5c-1.3 1.6-1.2 1.7.4.4.9-.7 1.7-1.5 1.7-1.7 0-.8-.8-.3-2.1 1.3m496.6 9.3c2.1 2.2 4.1 4 4.4 4s-1.3-1.8-3.4-4-4.1-4-4.4-4 1.3 1.8 3.4 4m-63.6-.3-2.4 2.8 2.8-2.4c2.5-2.3 3.2-3.1 2.4-3.1-.2 0-1.4 1.2-2.8 2.7m-68.5 1.5-2.9 3.3 3.3-2.9c3-2.8 3.7-3.6 2.9-3.6-.2 0-1.6 1.5-3.3 3.2m-376 1-1.9 2.3 2.3-1.9c2.1-1.8 2.7-2.6 1.9-2.6-.2 0-1.2 1-2.3 2.2M220.5 273c.3.5.8 1 1.1 1 .2 0 .4-.5.4-1 0-.6-.5-1-1.1-1-.5 0-.7.4-.4 1m558.5 2.4c0 .2.8 1 1.8 1.7 1.5 1.3 1.6 1.2.3-.4s-2.1-2.1-2.1-1.3m328.5 7.8-5 5.3 5.3-5c2.8-2.7 5.2-5.1 5.2-5.2 0-.8-.9.1-5.5 4.9m269.5 20.2c0 .2.8 1 1.8 1.7 1.5 1.3 1.6 1.2.3-.4s-2.1-2.1-2.1-1.3m32.5 4.6c1 1.1 2 2 2.3 2s-.3-.9-1.3-2-2-2-2.3-2 .3.9 1.3 2m6 6c1 1.1 2 2 2.3 2s-.3-.9-1.3-2-2-2-2.3-2 .3.9 1.3 2m91.5 2.4c0 .2.8 1 1.8 1.7 1.5 1.3 1.6 1.2.3-.4s-2.1-2.1-2.1-1.3m-678.6 4.8-1.9 2.3 2.3-1.9c1.2-1.1 2.2-2.1 2.2-2.3 0-.8-.8-.2-2.6 1.9m-7 7-1.9 2.3 2.3-1.9c1.2-1.1 2.2-2.1 2.2-2.3 0-.8-.8-.2-2.6 1.9m139.7 12.4c0 1.1.3 1.4.6.6.3-.7.2-1.6-.1-1.9-.3-.4-.6.2-.5 1.3m302.9 4.8c0 .2.7.7 1.6 1 .8.3 1.2.2.9-.4-.6-1-2.5-1.4-2.5-.6M428.5 347c.3.5.8 1 1.1 1 .2 0 .4-.5.4-1 0-.6-.5-1-1.1-1-.5 0-.7.4-.4 1m674.5.4c0 .2.8 1 1.8 1.7 1.5 1.3 1.6 1.2.3-.4s-2.1-2.1-2.1-1.3m7 7c0 .2.8 1 1.8 1.7 1.5 1.3 1.6 1.2.3-.4s-2.1-2.1-2.1-1.3m-50.5 27.6c1 1.1 2 2 2.3 2s-.3-.9-1.3-2-2-2-2.3-2 .3.9 1.3 2m11 11c1 1.1 2 2 2.3 2s-.3-.9-1.3-2-2-2-2.3-2 .3.9 1.3 2m-583 80c2.1 2.2 4.1 4 4.4 4s-1.3-1.8-3.4-4-4.1-4-4.4-4 1.3 1.8 3.4 4m-113 1c1 1.1 2 2 2.3 2s-.3-.9-1.3-2-2-2-2.3-2 .3.9 1.3 2m1132 2c2.1 2.2 4.1 4 4.4 4s-1.3-1.8-3.4-4-4.1-4-4.4-4 1.3 1.8 3.4 4m-680.6-.3-2.4 2.8 2.8-2.4c1.5-1.4 2.7-2.6 2.7-2.8 0-.8-.8-.1-3.1 2.4m-266.5 1.5-2.9 3.3 3.3-2.9c1.7-1.7 3.2-3.1 3.2-3.3 0-.8-.8-.1-3.6 2.9m712.6-2.9c0 .2 1.5 1.6 3.3 3.3l3.2 2.9-2.9-3.3c-2.8-3-3.6-3.7-3.6-2.9m180.4 2.9-2.9 3.3 3.3-2.9c3-2.8 3.7-3.6 2.9-3.6-.2 0-1.6 1.5-3.3 3.2M270.5 481c.3.5.8 1 1.1 1 .2 0 .4-.5.4-1 0-.6-.5-1-1.1-1-.5 0-.7.4-.4 1m382 0c.3.5.8 1 1.1 1 .2 0 .4-.5.4-1 0-.6-.5-1-1.1-1-.5 0-.7.4-.4 1m220.4.7c-1.3 1.6-1.2 1.7.4.4.9-.7 1.7-1.5 1.7-1.7 0-.8-.8-.3-2.1 1.3m37.6-.7c.3.5.8 1 1.1 1 .2 0 .4-.5.4-1 0-.6-.5-1-1.1-1-.5 0-.7.4-.4 1m476.3-.3c.7.3 1.6.2 1.9-.1.4-.3-.2-.6-1.3-.5-1.1 0-1.4.3-.6.6m161.7.3c.3.5.8 1 1.1 1 .2 0 .4-.5.4-1 0-.6-.5-1-1.1-1-.5 0-.7.4-.4 1m-976.1 4.2-2.9 3.3 3.3-2.9c1.7-1.7 3.2-3.1 3.2-3.3 0-.8-.8-.1-3.6 2.9m29.6-.7c1.3 1.4 2.6 2.5 2.8 2.5.3 0-.5-1.1-1.8-2.5s-2.6-2.5-2.8-2.5c-.3 0 .5 1.1 1.8 2.5m861.9.2c-1.3 1.6-1.2 1.7.4.4.9-.7 1.7-1.5 1.7-1.7 0-.8-.8-.3-2.1 1.3M838 488.4c0 .2.8 1 1.8 1.7 1.5 1.3 1.6 1.2.3-.4s-2.1-2.1-2.1-1.3m-471.9 2.2c0 1.1.3 1.4.6.6.3-.7.2-1.6-.1-1.9-.3-.4-.6.2-.5 1.3m119.9 4.9c1.3 1.4 2.6 2.5 2.8 2.5.3 0-.5-1.1-1.8-2.5s-2.6-2.5-2.8-2.5c-.3 0 .5 1.1 1.8 2.5m924.4 1.7-1.9 2.3 2.3-1.9c2.1-1.8 2.7-2.6 1.9-2.6-.2 0-1.2 1-2.3 2.2M186 500.5c1.3 1.4 2.6 2.5 2.8 2.5.3 0-.5-1.1-1.8-2.5s-2.6-2.5-2.8-2.5c-.3 0 .5 1.1 1.8 2.5m321-.1c0 .2.8 1 1.8 1.7 1.5 1.3 1.6 1.2.3-.4s-2.1-2.1-2.1-1.3m367.5 4.6c1 1.1 2 2 2.3 2s-.3-.9-1.3-2-2-2-2.3-2 .3.9 1.3 2m550.4-.3c-1.3 1.6-1.2 1.7.4.4s2.1-2.1 1.3-2.1c-.2 0-1 .8-1.7 1.7m-1050 1c-1.3 1.6-1.2 1.7.4.4.9-.7 1.7-1.5 1.7-1.7 0-.8-.8-.3-2.1 1.3m137.6 1.3c1 1.1 2 2 2.3 2s-.3-.9-1.3-2-2-2-2.3-2 .3.9 1.3 2m4 2c-.3.5-.1 1 .4 1 .6 0 1.1-.5 1.1-1 0-.6-.2-1-.4-1-.3 0-.8.4-1.1 1m238 0c.3.5.8 1 1.1 1 .2 0 .4-.5.4-1 0-.6-.5-1-1.1-1-.5 0-.7.4-.4 1m-388.4 3.6c0 1.1.3 1.4.6.6.3-.7.2-1.6-.1-1.9-.3-.4-.6.2-.5 1.3m897.3 7.6-1.9 2.3 2.3-1.9c2.1-1.8 2.7-2.6 1.9-2.6-.2 0-1.2 1-2.3 2.2m-438 1-1.9 2.3 2.2-1.9c2-1.6 2.5-1.7 4-.5 1.6 1.3 1.7 1.2.4-.4-1.8-2.2-2.4-2.2-4.7.5m669 1-2.9 3.3 3.3-2.9c3-2.8 3.7-3.6 2.9-3.6-.2 0-1.6 1.5-3.3 3.2m-29.9-.2c1 1.1 2 2 2.3 2s-.3-.9-1.3-2-2-2-2.3-2 .3.9 1.3 2m-1281.1 1.2-1.9 2.3 2.3-1.9c1.2-1.1 2.2-2.1 2.2-2.3 0-.8-.8-.2-2.6 1.9m417 1-1.9 2.3 2.3-1.9c1.2-1.1 2.2-2.1 2.2-2.3 0-.8-.8-.2-2.6 1.9m262.5-.5c-1.3 1.6-1.2 1.7.4.4.9-.7 1.7-1.5 1.7-1.7 0-.8-.8-.3-2.1 1.3m-643 2c-1.3 1.6-1.2 1.7.4.4.9-.7 1.7-1.5 1.7-1.7 0-.8-.8-.3-2.1 1.3m337.1-.3c0 .2.8 1 1.8 1.7 1.5 1.3 1.6 1.2.3-.4s-2.1-2.1-2.1-1.3m264 1.1c-.7.9-1.1 1.7-.9 2 .3.2 1-.5 1.7-1.5 1.4-2.4 1-2.6-.8-.5m454.4 1.7-2.9 3.3 3.3-2.9c3-2.8 3.7-3.6 2.9-3.6-.2 0-1.6 1.5-3.3 3.2m234.5-1.5c-1.3 1.6-1.2 1.7.4.4.9-.7 1.7-1.5 1.7-1.7 0-.8-.8-.3-2.1 1.3m-635.5 4.5-2.9 3.3 3.3-2.9c1.7-1.7 3.2-3.1 3.2-3.3 0-.8-.8-.1-3.6 2.9m-363.4-.8c0 .2.8 1 1.8 1.7 1.5 1.3 1.6 1.2.3-.4s-2.1-2.1-2.1-1.3m-278.6 2.8-1.9 2.3 2.3-1.9c2.1-1.8 2.7-2.6 1.9-2.6-.2 0-1.2 1-2.3 2.2m330.6-1.8c0 .2.8 1 1.8 1.7 1.5 1.3 1.6 1.2.3-.4s-2.1-2.1-2.1-1.3m-202 4c0 .2.8 1 1.8 1.7 1.5 1.3 1.6 1.2.3-.4s-2.1-2.1-2.1-1.3"/><g fill="#FFF" stroke-width="0"><path d="M573.5 64.4c-.6 3.1-3.3 20-4.5 28.6-1.7 11.6-1.4 27 .5 33.5 4.5 15.7 17.4 18.7 30.3 7 4.4-3.9 11.2-13.5 11.2-15.7 0-1.5-9.2-8.8-11-8.8-.6 0-2.9 2.9-5.1 6.4-3.9 6.3-6.1 8.2-8 7-.5-.3-.9-8.3-.9-17.8 0-16.2.2-18 3-27.7 1.6-5.6 2.8-10.5 2.5-10.7-.2-.3-4.3-1.2-9-2.2l-8.5-1.7z"/><path d="M620.7 63.2c-4.5 1-4.8 1.2-4.3 3.7 1.7 8.2 3.6 29.2 3.6 40.1-.1 26.5-7.1 42.7-23.8 54.7l-7.3 5.2 5.3 5.8c2.8 3.2 5.7 5.9 6.2 6.1 1.9.4 14.5-9.8 19.3-15.6 12.9-15.9 18.2-36.8 16.9-67.7-.7-18.5-2.1-30.2-3.7-32.1-1.3-1.6-5.2-1.6-12.2-.2m-434.9 3.9c-1.7.9-1.8 4-1.8 41.3v40.3l3.5 7c6.4 12.7 15.2 18.3 29 18.3 14.6 0 33.5-9.1 46.3-22.2l4.2-4.4-4.6-6.3-4.5-6.3-4.7 4.4c-7.1 6.5-14.2 11.4-21.8 15-5.7 2.7-8.1 3.3-14 3.3-6.2 0-7.6-.4-11.2-2.9l-4.2-2.9v-41.8c0-40.3-.1-41.9-1.9-42.9-2.5-1.3-12.1-1.3-14.3.1m307.5 2.6-3.3.4v25.7l-10.2.6c-5.7.4-13.8.9-18.1 1.2l-7.8.6.6 4.7c.3 2.5.8 5.7 1.1 6.9l.5 2.4 15.2-.7c8.4-.3 16.4-.9 18-1.1l2.7-.6v23.9h-8.7c-18.2.1-27.8 7.6-27.7 21.8.1 7.1 1.9 11.1 6.9 15.3 12.4 10.2 35.7 5.3 40.7-8.5.7-1.8 1.7-3.3 2.3-3.3.5 0 5.3 2.9 10.6 6.4l9.6 6.5 4.5-6.3 4.5-6.2-13.4-9.3-13.3-9.2V110h12c13.5 0 12.2.9 13.5-9.3l.6-4.7h-27.9l-.7-11.8c-.3-6.4-.9-12.5-1.1-13.5-.5-1.7-3.2-2-11.1-1m-5.5 79.9c3.8 1.1 2.7 6.6-1.9 8.9-3.5 1.8-11.9 1.9-14.3.2-2.6-1.9-1.8-6.8 1.4-8.4 2.6-1.3 10.9-1.7 14.8-.7m-53.6-72.3c-3 7.9-7.1 29.2-8.3 43.5-.9 9.4-.9 15.8 0 25.4 1 10.9 4.1 27.2 5.5 28.6.4.3 14.6-1.8 14.6-2.2 0-.1-.7-3.9-1.6-8.6-.8-4.7-1.8-16.4-2.1-26-.4-15.3-.2-18.7 1.6-27 7.4-34.1 7.5-35.1 1.9-36.9-1.8-.5-4.7-1.2-6.5-1.6-3-.6-3.2-.5-5.1 4.8m-85.6 18.5.7 7.9-10.4 6.6c-15 9.5-14 9.6-13.3-1.1l.7-9.1-3.4-.5c-11.4-1.7-10.8-1.8-11.8 2.2-5.2 19.6-6.1 44.5-2.3 58.6 1.2 4.4 2.4 8.1 2.7 8.4.2.2 3.4-.1 7-.8 5.6-1.1 6.5-1.5 5.8-2.9-.4-.9-.8-5.4-.8-10.1 0-7.7.3-9.2 3.4-15.4 5.5-11.3 17.7-21.8 21.6-18.6 1.8 1.5 2.1 13.3.5 17.4-1.3 3.5-4.5 3.3-6.7-.4-.9-1.7-2-3-2.4-3-.8 0-8.9 8.7-8.9 9.5 0 .3 2.7 3.7 6 7.6 3.3 3.8 6 7.4 6 8s-1.4 3.1-3.2 5.6l-3.1 4.6 4.4 3.9c7.6 6.7 7.3 6.7 12-1.3 4.3-7.2 6.6-8.9 11.8-8.9 9.4 0 19.1-6.3 23.9-15.4 2.4-4.5 2.7-6.2 2.7-15.1 0-9.5-.2-10.3-3.5-16.4-4.7-8.7-13.3-14.8-21.2-15-2.8-.1-2.8-.1-2.8-7.1v-7h-16zm22.6 23.4c5.9 4.1 8.4 14.1 5.4 21.2-1.7 4-7.1 8.3-11.5 9.2l-3.2.7.6-4.9c.8-7 2.5-25.3 2.5-27 0-2 2.8-1.7 6.2.8M1439 217.5c-21.7 4.9-37.3 21.1-41.7 43.4-1.6 7.8-1.6 9.2-.1 18 4.7 27.1 24.2 45.5 49.8 46.8 10.1.6 19.3-1.3 28-5.7 5.4-2.7 5.9-3.2 5.1-5.3-.5-1.2-2.3-6-4.1-10.7s-3.6-8.9-4-9.4c-.5-.5-3.8.1-7.6 1.3-12.6 3.9-20.3 2.5-28-5.3-16-15.9-7.9-43.8 13.4-46.3 3.1-.3 7.5.2 12.9 1.6 4.5 1.2 8.4 2.1 8.6 2.1 1.2 0 9.8-19.2 9.5-21.2-1-6.9-26.9-12.7-41.8-9.3m-320.2 2.5c-22.9 3.7-44.3 15.2-57.7 31.1-17.5 20.9-26.8 50.4-24.1 76.4 3.6 34.4 24.2 63.8 55.5 79 15.7 7.6 25.6 9.9 42.5 9.8 17 0 28.6-2.9 44-10.5 13.9-7 13.8-6.4 3.1-28.6-4.5-9.2-8.1-17.3-8.1-18 0-2-5.5-1.4-11.7 1.4-12.5 5.5-30.8 5.5-43-.1-6.2-2.8-14.5-10.3-17.9-16-11.7-20-8.5-47.6 7.1-62.4 13-12.3 31.2-15.1 52-8.1 4.9 1.6 9.7 3 10.7 3 1.5 0 4-4.3 11-18.6 10.3-21.1 10.3-21.2 2.1-26.4-5.9-3.8-13.1-6.5-25.3-9.7-10.7-2.7-30.3-3.9-40.2-2.3m-770.9 1.9c-9.5.5-12.1 1-13.8 2.5-2.1 1.9-2.1 2-1.6 66.5.3 35.5.8 77.3 1.1 92.8l.6 28.3h27.6c25 0 27.6-.2 28.8-1.8 1-1.3 1.3-8.5 1.4-33V346h38v31.2c.1 24.5.4 31.7 1.4 33 1.2 1.6 3.8 1.8 28.8 1.8h27.6l.6-29.3c.3-16 .8-57.8 1.1-92.8.5-63.1.4-63.6-1.6-65.5-1.7-1.5-4.6-2-17.2-2.6-20.5-1.2-34.9-.3-38.2 2.4l-2.5 1.9V298h-38l-.2-36.1-.3-36.2-2.5-1.8c-2.1-1.6-4.8-2-16-2.3-7.4-.2-18.7-.1-25.1.3m367.6.1c-8.8.4-16.8.8-17.7.9-1.7.1-1.8 5.3-1.8 93.4 0 71.2.3 93.6 1.2 94.5s8.2 1.2 26.6 1.2c23.1 0 25.6-.2 26.8-1.8 1-1.3 1.3-8.8 1.4-34.5 0-22.9.3-32.7 1.1-32.7 1.8 0 8.7 5.3 9.7 7.5.5 1.1 6.2 14.6 12.7 30 6.9 16.3 12.7 28.7 13.9 29.7 1.9 1.6 6.7 1.8 60.8 1.8h58.7l2-2.2c2.2-2.3 4.9-10 7.6-21.6l1.7-7.2h7.2c3.9 0 16.1.3 27.2.7l20.1.6 4.9 14.9 4.8 14.8h29.3c16.1 0 29.3-.3 29.3-.8.1-1.7-63.4-185.8-64.5-187-2.9-3.2-53-3.4-62-.2-2.9 1-3.7 3-34.1 89.8-19.7 56.2-31.6 88.8-32.5 88.9-1.8.3-36.9-62.3-36.9-65.8 0-1.6 1.1-3.2 3.6-4.9 7.3-4.9 15.4-14.2 19.3-22.1 5.1-10.2 6.5-17 5.8-28.9-1.9-32.4-23.6-52.7-62.2-57.9-10.1-1.4-45.4-2-64-1.1m62.3 52.4c4.4 2.3 6.5 7.4 6 14.3-.8 9.8-6.7 13.3-22.7 13.3H752v-30.2l11.3.4c8.2.3 12.1.9 14.5 2.2m172.1 20.3c.5 2.1 3.5 13.4 6.5 25.2 3.1 11.7 5.6 21.5 5.6 21.7s-6.8.4-15.1.4c-13.8 0-15-.1-14.5-1.8 2-6.9 12.9-43.3 13.7-46 1.4-4.2 2.6-4.1 3.8.5m274.6-72.7c-5.5.5-11.5 1.2-13.2 1.5l-3.3.6v92.7c0 70.9.3 93.1 1.2 94s8.2 1.2 26.6 1.2c23.1 0 25.6-.2 26.8-1.8 1-1.3 1.3-8.6 1.4-33.5 0-24.2.3-31.8 1.2-31.5.6.2 9.3 15.4 19.2 33.6l18.1 33.2h66.7l-1.4-2.2c-.8-1.3-13.7-23.3-28.7-49.1l-27.3-46.7 26.6-44.4c16.8-28.1 26.4-45 26-46-.5-1.4-4.3-1.6-30.6-1.6h-29.9l-3.4 2.6c-2.5 1.9-7.4 9.9-18.7 30.4-8.4 15.4-15.9 27.9-16.5 28-1 0-1.3-6.7-1.5-28.6l-.3-28.7-2.8-2c-2.3-1.8-4.4-2.1-14.5-2.3-6.4-.1-16.2.2-21.7.6m-1044.2 1.2c-2.3 1.1-2.3 1.2-2.3 23.9 0 21.5.1 22.9 1.9 23.9 1.2.6 10.1 1 22 1H222v68.8c0 52.2.3 69.1 1.2 70 1.7 1.7 51.9 1.7 53.6 0 .9-.9 1.2-17.8 1.2-70V272h18.3c18-.1 18.2-.1 19.9-2.4 1.9-2.5 4.1-17.4 5.4-34.9.6-8.9.5-9.9-1.2-11.2-1.6-1.2-12.4-1.4-69.9-1.4-46.8 0-68.7.4-70.2 1.1m329.7 93c.1 75.2.3 92.6 1.4 94 1.2 1.7 5.5 1.8 63.8 1.8 47.2 0 62.7-.3 63.6-1.2s1.2-7.6 1.2-24V364h-74v-26h61.9l.5-3.3c.5-2.8 3.6-37.9 3.6-40 0-.4-14.8-.7-33-.7h-33v-22h34.8c25.7 0 35.1-.3 36-1.2s1.2-7.6 1.2-24V224H510zm1013-76.8c-11.6 3.2-20.1 10.1-25.4 20.6-8.1 16.2-7.2 33.8 2.6 48.4 11.7 17.8 40.2 23 60.5 11 11.3-6.7 17.3-15.9 19.4-29.5 3.5-23.8-9.5-44.6-31.6-50.5-6.2-1.7-19.5-1.7-25.5 0m20.6 27.4c3.8 3 5.8 8.2 5.8 15.2 0 7.2-1.8 11.6-6 14.9-3.2 2.5-10.4 2.8-13.9.5-3.3-2.1-5.5-8.4-5.5-15.4 0-6.9 1.2-10.5 4.8-14.3 2.1-2.3 3.4-2.7 7.6-2.7 3.3 0 5.9.7 7.2 1.8"/><path d="M1363.5 302.5c-2.2.8-4.1 1.5-4.2 1.5-.8 0-3.3 6.3-3.3 8.1 0 3.7 3.8 10.3 6.9 12.2 5.9 3.5 14.7 1.4 17.6-4.3 3.5-6.9.8-14.7-6.1-17.6-4.1-1.7-5.8-1.7-10.9.1M335.8 465.7l-11.8.4V538h14v-26h4.8c6.3 0 9.1 2.9 15.2 15.3 5.3 10.9 7.2 12.2 15.5 11.2l5.5-.7-6.7-13.1c-4.3-8.3-6.4-13.2-5.6-13.4 3.4-1.2 9.5-6.8 12-11 6.5-11.2 1.6-24.7-11.4-31.2-3.7-1.8-16.1-4.4-18.8-3.9-.5.1-6.3.4-12.7.5m25.9 16.9c12 8.9-.2 20.4-18.8 17.9l-4.9-.7v-20l10.5.4c8.6.3 10.9.7 13.2 2.4M200 467.5c-10.8 3.1-16.9 9.4-17.8 18.5-.6 6.6 1.2 11.4 6.1 15.5 4.1 3.5 6.2 4.3 27.5 10.5l7.2 2.1v4.3c0 6.2-2.3 8.7-8.7 9.3-6.2.6-17.1-2.4-22.7-6.2l-3.8-2.6-3.4 3.8c-5.7 6.4-4.2 9.3 7.1 14 25.8 10.9 51.3-2 46.5-23.4-2.1-9.3-7.5-13.1-25-17.8-11.9-3.1-14.4-4.9-14.8-10.3-.4-5.2 1.8-6.6 10.5-6.5 5 0 7.7.8 13.9 3.7 4.2 2 7.8 3.5 7.9 3.4.1-.2 1.3-2.9 2.6-6.1 2.3-5.8 2.3-5.9.4-7.3-7-5.2-23.8-7.6-33.5-4.9m50 5.5v7h22v58h14v-57.9l10.2-.3c10-.3 10.3-.4 11.5-3 1.1-2.1 1.1-3.3.1-6.5l-1.3-3.8-28.3-.3-28.2-.2zm150 29v36h50v-12h-36v-18h36v-12h-36v-16h36v-5.1c0-9.3 1.3-8.9-26-8.9h-24zm71.3-34.8-3.3 1.1V538h14v-22.5c0-25.3.2-25.8 6.3-18.3 1.9 2.4 7 9.5 11.3 15.8 16.4 24.2 19 26.6 27.5 25.5l4.9-.7V466h-5.1c-9.3 0-8.9-.9-8.9 23 0 15-.3 21-1.1 21-2.1 0-8.1-7.3-15.7-18.9-8.7-13.4-15.2-20.7-20.7-23.2-4.5-2.1-4.7-2.1-9.2-.7m108.4-.2c-11 1.9-22.3 10.6-27 20.8-1.8 3.8-2.2 6.6-2.2 14.2 0 8.8.3 10.1 3.3 16.2 5.8 11.8 15.2 19.2 27.6 21.8 6.6 1.3 12.3.8 20.9-2.1 15-5 19.3-12 18-29.7l-.6-8.2H586v12h18v4.4c0 8.1-6.9 12.6-16.9 11.1-13.7-2-21.4-10.5-21.4-23.5 0-10.9 5.9-21 14.2-24.2 7.1-2.7 18.7-.3 23.5 5.1 1.1 1.2 2.5 2.1 3.3 2.1 2.4 0 11.3-5 11.3-6.3 0-2.4-6-7.8-11.4-10.3-8.6-3.9-17.2-5-26.9-3.4m128.1.1c-1.7.9-1.8 3.7-1.8 35.9v35h14v-30h36v30h14v-72l-4.2.6c-8.2 1-8.5 1.2-9.2 4.5-.3 1.7-.6 8-.6 14V496h-36v-30h-5.2c-2.9 0-6.1.5-7 1.1m137.1-.1c-10.9 1.9-21 9-23 16.2-2 7.6 2.9 17.2 10.9 21.2 2.6 1.3 10.1 3.8 16.7 5.5 13.3 3.4 15.8 5.2 15.3 10.5-.5 5-5.2 6.8-16.1 6.3-7.3-.4-9.8-1-15-3.6l-6.2-3.1-3.3 3.7c-1.8 2-3.1 4.4-3 5.2.5 2.6 8.7 8 14.6 9.7 20.3 6 44.2-4.5 44.2-19.3 0-5-2.1-10.7-5.3-14.1-3.2-3.5-10-6.6-21.5-10-12.6-3.7-15.2-5.3-15.2-9.2 0-7.8 11-9.3 25.5-3.5l6.8 2.8 1.9-2.4c4.8-6 5.1-6.8 3.7-8.6-2-2.4-10.7-6-17.4-7.2-6.5-1.2-6.9-1.2-13.6-.1M964 493.8v27.8l2.9 4.5c3 4.8 9.9 9.9 17.1 12.5 13 4.6 35.7-1.9 42-12 1.9-3.2 2-4.9 2-32V466h-14v51.9l-3 3.5c-3.2 3.6-10.2 6.6-15.4 6.6-4.6-.1-10.7-3.2-14.4-7.4l-3.2-3.7V466h-14zm86 8.2v36h14v-30h36v-12h-36v-16h36v-14h-50zm68 0v36h14v-30h36v-12h-36v-16h36v-14h-50zm102 0v36h41.2l5.8-3.5c7.2-4.4 12.5-10.2 15.8-17.4 2.2-4.6 2.6-7 2.6-13.6-.1-9.9-2.7-17.3-8.5-23.9-8.8-10-20.1-13.6-42.6-13.6H1220zm36.7-20.5c9.6 2.9 13.8 10.5 13.1 23.6-.4 6.3-1 8.6-3.1 11.8-4.3 6.4-9.2 8.4-21.9 8.9l-10.8.4V480h8.8c5 0 11.1.7 13.9 1.5M1304 502v36h50v-12h-36v-18h34v-12h-34v-16h36v-5.1c0-9.3 1.3-8.9-26-8.9h-24zm69.2-34.8c-.9.9-1.2 10.3-1.2 36V538h14v-25.8l13.3.1c14.7.2 19.8-1.3 25-6.9 7.8-8.4 7.4-22.7-.9-31-6.9-7-12.5-8.4-32.2-8.4-11.7 0-17.2.4-18 1.2m26.8 14.3c14.4 1 14 .8 14 7 0 4.3-.5 6-2.4 8.2-2.4 2.7-2.7 2.8-14 3.1l-11.6.4v-20.4l2.8.6c1.5.3 6.5.8 11.2 1.1m69.3-14c-10.3 3.2-19.4 11.3-24.1 21.3-2.3 4.8-2.7 7.1-2.7 14.2 0 7.5.4 9.3 3.2 15.2 9.2 19.5 31.8 27.6 51.8 18.4 7.1-3.2 13-9.4 16.8-17.4 2.9-6 3.2-7.6 3.1-15.7-.1-12.4-2.7-18.9-10.9-27.2-5.2-5.1-7.2-6.4-12.9-8.2-7.8-2.4-17.9-2.7-24.3-.6m20.6 13c4.3 2.2 9.7 9 11.1 14.1.7 2.5 1.1 7.3.8 11.2-1.1 15.1-10.4 23.3-24.7 21.9-6.8-.7-12.2-4.2-15.8-10.4-2.5-4.4-2.8-5.7-2.8-14.4 0-8.9.2-9.9 3-14.4 4.2-6.7 9.6-9.5 18.7-9.5 4.1 0 8 .6 9.7 1.5M632.1 471c-.8 2.8-.9 4.6-.1 5.9 1.5 3 7.4 4.4 15.2 3.8l6.8-.6V538h14v-58h22.1l-.6-5.3c-.4-2.8-.8-5.8-1-6.5-.3-.9-6.8-1.2-27.8-1.2h-27.4zm267.9-3.3c-5.1.3-8.7.9-9.2 1.6-.4.7-.8 3.3-.8 5.9v4.8h22v58h14v-58h22.1l-.6-5.3c-.4-2.8-.8-5.8-1-6.5-.4-1.2-22.6-1.4-46.5-.5m629.5.5c-.2.7-.6 3.7-1 6.5l-.6 5.3h22.1v58h14v-57.8l10.5-.7 10.5-.7v-4.3c0-8 2-7.5-28.1-7.5-20.7 0-27.1.3-27.4 1.2"/></g><g fill="#FFF" fill-opacity=".8" stroke-opacity=".8" stroke-width="0"><path d="M190.8 65.7c1.2.2 3 .2 4 0 .9-.3-.1-.5-2.3-.4-2.2 0-3 .2-1.7.4m-7.3 41.8c0 22 .1 30.9.2 19.7.2-11.2.2-29.2 0-40-.1-10.8-.2-1.7-.2 20.3m308.3-37.8c.7.3 1.6.2 1.9-.1.4-.3-.2-.6-1.3-.5-1.1 0-1.4.3-.6.6M450.2 79c0 1.4.2 1.9.5 1.2.2-.6.2-1.8 0-2.5-.3-.6-.5-.1-.5 1.3m54.9 3.6c0 1.1.3 1.4.6.6.3-.7.2-1.6-.1-1.9-.3-.4-.6.2-.5 1.3m131 4c0 1.1.3 1.4.6.6.3-.7.2-1.6-.1-1.9-.3-.4-.6.2-.5 1.3M364.3 94c0 3.6.2 5 .4 3.2.2-1.7.2-4.7 0-6.5-.2-1.7-.4-.3-.4 3.3m254.8-.4c0 1.1.3 1.4.6.6.3-.7.2-1.6-.1-1.9-.3-.4-.6.2-.5 1.3m-144.3 3.1c.6.2 1.8.2 2.5 0 .6-.3.1-.5-1.3-.5s-1.9.2-1.2.5m-18 1c.6.2 1.8.2 2.5 0 .6-.3.1-.5-1.3-.5s-1.9.2-1.2.5m110.4 8.8c0 1.6.2 2.2.5 1.2.2-.9.2-2.3 0-3-.3-.6-.5.1-.5 1.8M382 108.4c0 .2.8 1 1.8 1.7 1.5 1.3 1.6 1.2.3-.4s-2.1-2.1-2.1-1.3m139 1.6-11.5.6 11.2.2c6.6.1 11.4-.2 11.8-.8.3-.6.5-.9.3-.8s-5.5.5-11.8.8m-48.7 1.7c.9.2 2.3.2 3 0 .6-.3-.1-.5-1.8-.5-1.6 0-2.2.2-1.2.5m-147.2 2.9c0 1.1.3 1.4.6.6.3-.7.2-1.6-.1-1.9-.3-.4-.6.2-.5 1.3m242.1 1.9c0 1.6.2 2.2.5 1.2.2-.9.2-2.3 0-3-.3-.6-.5.1-.5 1.8m-142.1 5.1c0 1.1.3 1.4.6.6.3-.7.2-1.6-.1-1.9-.3-.4-.6.2-.5 1.3M392.3 134c0 2.5.2 3.5.4 2.2.2-1.2.2-3.2 0-4.5-.2-1.2-.4-.2-.4 2.3m97.2-1c-1.6.7-1.7.9-.3.9.9.1 2-.4 2.3-.9.7-1.1.7-1.1-2 0m-154.6 5.7-3.4 3.8 3.8-3.4c2-1.9 3.7-3.6 3.7-3.8 0-.8-.8 0-4.1 3.4m28.2-1.1c0 1.1.3 1.4.6.6.3-.7.2-1.6-.1-1.9-.3-.4-.6.2-.5 1.3m96.8 3.1c-1.3 1.6-1.2 1.7.4.4s2.1-2.1 1.3-2.1c-.2 0-1 .8-1.7 1.7m-34.7 4.3c0 1.4.2 1.9.5 1.2.2-.6.2-1.8 0-2.5-.3-.6-.5-.1-.5 1.3m16.9.6c0 1.1.3 1.4.6.6.3-.7.2-1.6-.1-1.9-.3-.4-.6.2-.5 1.3m173.3 22.6-2.9 3.3 3.3-2.9c1.7-1.7 3.2-3.1 3.2-3.3 0-.8-.8-.1-3.6 2.9m-26.4.2c0 .2.8 1 1.8 1.7 1.5 1.3 1.6 1.2.3-.4s-2.1-2.1-2.1-1.3m-374.7 6.3c.9.2 2.5.2 3.5 0 .9-.3.1-.5-1.8-.5s-2.7.2-1.7.5m382.7 2.7c0 .2.8 1 1.8 1.7 1.5 1.3 1.6 1.2.3-.4s-2.1-2.1-2.1-1.3m-246.7 44.3c1.5.2 3.9.2 5.5 0 1.5-.2.2-.4-2.8-.4s-4.3.2-2.7.4m29 0c.9.2 2.5.2 3.5 0 .9-.3.1-.5-1.8-.5s-2.7.2-1.7.5m60 0c.9.2 2.5.2 3.5 0 .9-.3.1-.5-1.8-.5s-2.7.2-1.7.5m27 0c1.5.2 3.9.2 5.5 0 1.5-.2.2-.4-2.8-.4s-4.3.2-2.7.4m253.4 0c1.8.2 5 .2 7 0 2.1-.2.7-.4-3.2-.4-3.8 0-5.5.2-3.8.4m37 0c1.8.2 5 .2 7 0 2.1-.2.7-.4-3.2-.4-3.8 0-5.5.2-3.8.4m180.1 0c1.2.2 3 .2 4 0 .9-.3-.1-.5-2.3-.4-2.2 0-3 .2-1.7.4m22 0c1.2.2 3 .2 4 0 .9-.3-.1-.5-2.3-.4-2.2 0-3 .2-1.7.4m271 0c.7.3 1.6.2 1.9-.1.4-.3-.2-.6-1.3-.5-1.1 0-1.4.3-.6.6m-534.3 94.8c0 51.7.1 72.7.2 46.7.2-26.1.2-68.4 0-94-.1-25.7-.2-4.4-.2 47.3m512-92.3c-.3.7-.4 42.9-.3 93.8l.3 92.5.3-93.2c.1-73.4.5-93.2 1.5-93.6.9-.4.9-.6-.1-.6-.7-.1-1.5.5-1.7 1.1M177.4 247c0 12.9.2 18.2.3 11.7.2-6.4.2-17 0-23.5-.1-6.4-.3-1.1-.3 11.8m332.1 69c0 50.9.1 71.7.2 46.2.2-25.4.2-67 0-92.5-.1-25.4-.2-4.6-.2 46.3m787.9-89.8-1.9 2.3 2.3-1.9c2.1-1.8 2.7-2.6 1.9-2.6-.2 0-1.2 1-2.3 2.2M429.5 261c0 19.5.1 27.5.2 17.8.2-9.8.2-25.8 0-35.5-.1-9.8-.2-1.8-.2 17.7m981.4-29.3c-1.3 1.6-1.2 1.7.4.4s2.1-2.1 1.3-2.1c-.2 0-1 .8-1.7 1.7m123.9 6c.6.2 1.8.2 2.5 0 .6-.3.1-.5-1.3-.5s-1.9.2-1.2.5m-470.3 8.5-4 4.3 4.3-4c2.3-2.1 4.2-4 4.2-4.2 0-.8-.9 0-4.5 3.9m463.9 22-1.9 2.3 2.3-1.9c2.1-1.8 2.7-2.6 1.9-2.6-.2 0-1.2 1-2.3 2.2m-1039 13.3c0 8.2.2 11.5.3 7.2.2-4.3.2-11 0-15-.1-4-.3-.5-.3 7.8m-157 2c0 8.2.2 11.5.3 7.2.2-4.3.2-11 0-15-.1-4-.3-.5-.3 7.8m803.4-12.8c.7.3 1.6.2 1.9-.1.4-.3-.2-.6-1.3-.5-1.1 0-1.4.3-.6.6m8 0c.7.3 1.6.2 1.9-.1.4-.3-.2-.6-1.3-.5-1.1 0-1.4.3-.6.6m-952.5 2c5.3.2 14.1.2 19.5 0 5.3-.1.9-.3-9.8-.3s-15.1.2-9.7.3m97 0c4.8.2 12.6.2 17.5 0 4.8-.1.8-.3-8.8-.3s-13.6.2-8.7.3m296.5 0c9.4.2 25 .2 34.5 0 9.4-.1 1.7-.3-17.3-.3s-26.7.2-17.2.3m171.5 0c1.5.2 3.7.2 5 0 1.2-.2 0-.4-2.8-.4-2.7 0-3.8.2-2.2.4m11.5 0c.7.3 1.6.2 1.9-.1.4-.3-.2-.6-1.3-.5-1.1 0-1.4.3-.6.6M221.5 342c0 37.7.1 53.1.2 34.2.2-18.8.2-49.6 0-68.5-.1-18.8-.2-3.4-.2 34.3M1265 282c-.9.6-1 1-.3 1 .6 0 1.5-.5 1.8-1 .8-1.2.4-1.2-1.5 0m-422.8 3c0 1.9.2 2.7.5 1.7.2-.9.2-2.5 0-3.5-.3-.9-.5-.1-.5 1.8m593.8 5.5c1.3 1.4 2.6 2.5 2.8 2.5.3 0-.5-1.1-1.8-2.5s-2.6-2.5-2.8-2.5c-.3 0 .5 1.1 1.8 2.5m107.9 5.2c-1.3 1.6-1.2 1.7.4.4.9-.7 1.7-1.5 1.7-1.7 0-.8-.8-.3-2.1 1.3m-764.5 1.5-1.9 2.3 2.3-1.9c1.2-1.1 2.2-2.1 2.2-2.3 0-.8-.8-.2-2.6 1.9m-148.3 6.4c0 1.1.3 1.4.6.6.3-.7.2-1.6-.1-1.9-.3-.4-.6.2-.5 1.3m405 8c0 1.1.3 1.4.6.6.3-.7.2-1.6-.1-1.9-.3-.4-.6.2-.5 1.3m346.1 2.4c0 1.9.2 2.7.5 1.7.2-.9.2-2.5 0-3.5-.3-.9-.5-.1-.5 1.8m121.8.5c1.3 1.4 2.6 2.5 2.8 2.5.3 0-.5-1.1-1.8-2.5s-2.6-2.5-2.8-2.5c-.3 0 .5 1.1 1.8 2.5m-409.7 3c0 2.2.2 3 .4 1.7.2-1.2.2-3 0-4-.3-.9-.5.1-.4 2.3m284.1 5.7-1.9 2.3 2.3-1.9c2.1-1.8 2.7-2.6 1.9-2.6-.2 0-1.2 1-2.3 2.2m-553 2-1.9 2.3 2.3-1.9c1.2-1.1 2.2-2.1 2.2-2.3 0-.8-.8-.2-2.6 1.9m210.7.4c0 1.1.3 1.4.6.6.3-.7.2-1.6-.1-1.9-.3-.4-.6.2-.5 1.3m-407 1c0 1.1.3 1.4.6.6.3-.7.2-1.6-.1-1.9-.3-.4-.6.2-.5 1.3m739.2.1c.9.2 2.3.2 3 0 .6-.3-.1-.5-1.8-.5-1.6 0-2.2.2-1.2.5M598 338l-30.5.5 30.2.3c19.3.1 30.4-.2 30.8-.8.3-.6.5-.9.3-.8-.2.2-14 .5-30.8.8m-195.7 8.7c4.8.2 12.6.2 17.5 0 4.8-.1.8-.3-8.8-.3s-13.6.2-8.7.3m27.1 31.3c0 16.8.2 23.6.3 15.2.2-8.3.2-22.1 0-30.5-.1-8.3-.3-1.5-.3 15.3m678.1-26c1 1.1 2 2 2.3 2s-.3-.9-1.3-2-2-2-2.3-2 .3.9 1.3 2m63.3 5.7c.7.3 1.6.2 1.9-.1.4-.3-.2-.6-1.3-.5-1.1 0-1.4.3-.6.6m-35 7c.7.3 1.6.2 1.9-.1.4-.3-.2-.6-1.3-.5-1.1 0-1.4.3-.6.6m8 0c.7.3 1.6.2 1.9-.1.4-.3-.2-.6-1.3-.5-1.1 0-1.4.3-.6.6m-202 17c1.2.2 3 .2 4 0 .9-.3-.1-.5-2.3-.4-2.2 0-3 .2-1.7.4m29 1c.7.3 1.6.2 1.9-.1.4-.3-.2-.6-1.3-.5-1.1 0-1.4.3-.6.6m-482.6 15.1-.2 14.3-28.4-.3c-15.6-.2-28.2 0-27.9.4.2.5 13 .8 28.4.8 22 0 28.1-.3 28.5-1.3.2-.7.3-7.4.1-14.8l-.3-13.4zm576.3-9.8c2.1 2.2 4.1 4 4.4 4s-1.3-1.8-3.4-4-4.1-4-4.4-4 1.3 1.8 3.4 4m-731 11.2v13.3l27.9.3c15.4.1 28.3-.1 28.7-.5.5-.5-12-.7-27.6-.5l-28.4.3-.4-13.1-.3-13zm178.4 13.1c.4.4 29 .6 63.7.5l62.9-.3-63.7-.5c-35-.3-63.4-.2-62.9.3M724 412l-26.5.6 26.2.2c16.6.1 26.4-.2 26.8-.8.3-.6.5-.9.3-.8s-12.2.5-26.8.8m512 0-26.5.6 26.2.2c16.6.1 26.4-.2 26.8-.8.3-.6.5-.9.3-.8s-12.2.5-26.8.8m65.7.2c.2.5 15.7.8 34.4.8 18.6 0 33.9-.3 33.9-.8 0-.4-15.5-.7-34.4-.7s-34.2.3-33.9.7m-1064.9.5c7.2.2 19.2.2 26.5 0 7.2-.1 1.3-.3-13.3-.3s-20.5.2-13.2.3m653.5 0c3.7.2 9.6.2 13 0s.4-.3-6.8-.3c-7.1 0-9.9.1-6.2.3m108.5 0c8.3.2 22.1.2 30.5 0 8.3-.1 1.5-.3-15.3-.3s-23.6.2-15.2.3m-656.5 53c.9.2 2.3.2 3 0 .6-.3-.1-.5-1.8-.5-1.6 0-2.2.2-1.2.5m12.5 0c.7.3 1.6.2 1.9-.1.4-.3-.2-.6-1.3-.5-1.1 0-1.4.3-.6.6m1039.5 0c2 .2 5.4.2 7.5 0 2-.2.3-.4-3.8-.4s-5.8.2-3.7.4m84.5 0c1.2.2 3 .2 4 0 .9-.3-.1-.5-2.3-.4-2.2 0-3 .2-1.7.4m-1229.4 7.8.1 7 10.5.1h10.5l-10.2-.3-10.2-.4-.4-6.7-.3-6.7zm74.1 28.7v36.3h15l.1-4.8.1-4.7-.4 4.5-.4 4.5H324l-.3-36-.2-36zm76 0v36.3h25.3l25.2.1-25-.3-25-.3-.3-36-.2-36zm563.9-9.7c0 14.8.2 21.1.3 13.8.2-7.2.2-19.4 0-27-.1-7.6-.3-1.7-.3 13.2m50-1c0 14.3.2 20 .3 12.7.2-7.3.2-19 0-26-.1-7-.3-1-.3 13.3m36.1 10.7v36.3l7 .1h7l-6.7-.3-6.8-.4-.3-35.9-.2-36zm68 0v36.3l7 .1h7l-6.7-.3-6.8-.4-.3-35.9-.2-36zm102 0v36.3h20.5l20.5.1-20.2-.3-20.3-.3-.3-36-.2-36zm84 0v36.3h25.3l25.2.1-25-.3-25-.3-.3-36-.2-36zm-786.1-33.9c-.2.7-.3 10-.2 20.7l.3 19.5.5-20.8c.3-11.4.4-20.7.2-20.7-.1 0-.5.6-.8 1.3m188.1 0c-.3.6-.4 16.7-.3 35.7l.3 34.5 7.5.1 7.5.1-7.3-.4-7.2-.4.2-35.4c.2-19.5.2-35.5 0-35.5-.1 0-.5.6-.7 1.3m51-.2c-.4.6-.5 1.2-.2 1.5.2.3.7-.2 1-1.1.7-1.7.1-2-.8-.4m138.8-.4c2 .2 5.4.2 7.5 0 2-.2.3-.4-3.8-.4s-5.8.2-3.7.4m476.2 35.3v35.5h7.5c6.7 0 7.5-.2 7.7-2 .1-1.6.1-1.6-.3-.3-.5 1.5-1.7 1.8-7.5 1.8h-6.9l-.3-35.3-.2-35.2zm-904 1v34.5l7.5.1 7.5.1-7.2-.4-7.3-.4-.3-34.2-.2-34.2zm-281.1-29.8-1.9 2.3 2.3-1.9c2.1-1.8 2.7-2.6 1.9-2.6-.2 0-1.2 1-2.3 2.2m1390.4 5.5c.7.3 1.6.2 1.9-.1.4-.3-.2-.6-1.3-.5-1.1 0-1.4.3-.6.6m-1288 1c.7.3 1.6.2 1.9-.1.4-.3-.2-.6-1.3-.5-1.1 0-1.4.3-.6.6m135.5 0c4.8.2 12.6.2 17.5 0 4.8-.1.8-.3-8.8-.3s-13.6.2-8.7.3m250.5 0c2.8.2 7.6.2 10.5 0 2.8-.2.5-.3-5.3-.3s-8.1.1-5.2.3m220 0c2.8.2 7.6.2 10.5 0 2.8-.2.5-.3-5.3-.3s-8.1.1-5.2.3m38 0c2.8.2 7.6.2 10.5 0 2.8-.2.5-.3-5.3-.3s-8.1.1-5.2.3m141.5 0c4.8.2 12.6.2 17.5 0 4.8-.1.8-.3-8.8-.3s-13.6.2-8.7.3m68 0c4.8.2 12.6.2 17.5 0 4.8-.1.8-.3-8.8-.3s-13.6.2-8.7.3m186 0c4.8.2 12.6.2 17.5 0 4.8-.1.8-.3-8.8-.3s-13.6.2-8.7.3m204.5 0c2.8.2 7.6.2 10.5 0 2.8-.2.5-.3-5.3-.3s-8.1.1-5.2.3M271.5 510.5v28l7.5.1 7.5.1-7.2-.4-7.3-.4-.3-27.7-.2-27.7zm382 0v28l7.5.1 7.5.1-7.2-.4-7.3-.4-.3-27.7-.2-27.7zm258 0v28l7.5.1 7.5.1-7.2-.4-7.3-.4-.3-27.7-.2-27.7zm496.3-27.8c.7.3 1.6.2 1.9-.1.4-.3-.2-.6-1.3-.5-1.1 0-1.4.3-.6.6m141.7 27.8v28l7.5.1 7.5.1-7.2-.4-7.3-.4-.3-27.7-.2-27.7zm-55-25.5c1 1.1 2 2 2.3 2s-.3-.9-1.3-2-2-2-2.3-2 .3.9 1.3 2m-945.3 17c0 1.9.2 2.7.5 1.7.2-.9.2-2.5 0-3.5-.3-.9-.5-.1-.5 1.8m-203.4-1.3c1.2.2 3 .2 4 0 .9-.3-.1-.5-2.3-.4-2.2 0-3 .2-1.7.4m239.6 5.8.1 6 8 .1h8l-7.7-.3-7.7-.4-.4-5.7-.3-5.7zm34.9-1c0 2.2.2 3 .4 1.7.2-1.2.2-3 0-4-.3-.9-.5.1-.4 2.3M233 503.4c0 .2.8 1 1.8 1.7 1.5 1.3 1.6 1.2.3-.4s-2.1-2.1-2.1-1.3"/><path d="M424.3 508.7c4.8.2 12.6.2 17.5 0 4.8-.1.8-.3-8.8-.3s-13.6.2-8.7.3m305.5 0c4.5.2 11.9.2 16.5 0 4.5-.1.8-.3-8.3-.3s-12.8.2-8.2.3m344.5 0c4.8.2 12.6.2 17.5 0 4.8-.1.8-.3-8.8-.3s-13.6.2-8.7.3m68 0c4.8.2 12.6.2 17.5 0 4.8-.1.8-.3-8.8-.3s-13.6.2-8.7.3m185.5 0c4.5.2 11.9.2 16.5 0 4.5-.1.8-.3-8.3-.3s-12.8.2-8.2.3m-572.3 15.8v14l7 .1h7l-6.7-.3-6.7-.4-.4-13.7-.3-13.7zm633.8-11.8c.9.2 2.5.2 3.5 0 .9-.3.1-.5-1.8-.5s-2.7.2-1.7.5M349 514.4c0 .2.8 1 1.8 1.7 1.5 1.3 1.6 1.2.3-.4s-2.1-2.1-2.1-1.3m531.2 4.6c0 1.9.2 2.7.5 1.7.2-.9.2-2.5 0-3.5-.3-.9-.5-.1-.5 1.8m-694.3.7c-1.3 1.6-1.2 1.7.3.5.9-.8 2.3-1 2.9-.6.8.4.9.3.5-.4-1-1.7-2.1-1.5-3.7.5m385.1-.3c0 .2.8 1 1.8 1.7 1.5 1.3 1.6 1.2.3-.4s-2.1-2.1-2.1-1.3m410.5 1.6c1 1.1 2 2 2.3 2s-.3-.9-1.3-2-2-2-2.3-2 .3.9 1.3 2m28.9.2-1.9 2.3 2.3-1.9c1.2-1.1 2.2-2.1 2.2-2.3 0-.8-.8-.2-2.6 1.9m-421.6 6.5c.6.2 1.8.2 2.5 0 .6-.3.1-.5-1.3-.5s-1.9.2-1.2.5m379.7 2.3c1 1.1 2 2 2.3 2s-.3-.9-1.3-2-2-2-2.3-2 .3.9 1.3 2m54.9.2-1.9 2.3 2.3-1.9c2.1-1.8 2.7-2.6 1.9-2.6-.2 0-1.2 1-2.3 2.2m483.5.5-2.4 2.8 2.8-2.4c1.5-1.4 2.7-2.6 2.7-2.8 0-.8-.8-.1-3.1 2.4M560 529.4c0 .2.8 1 1.8 1.7 1.5 1.3 1.6 1.2.3-.4s-2.1-2.1-2.1-1.3m54.9 2.3c-1.3 1.6-1.2 1.7.4.4s2.1-2.1 1.3-2.1c-.2 0-1 .8-1.7 1.7M514.5 535c1 1.1 2 2 2.3 2s-.3-.9-1.3-2-2-2-2.3-2 .3.9 1.3 2M377 538l-2.5.8 2.8.1c1.5.1 2.7-.4 2.7-.9 0-.6-.1-1-.2-.9-.2.1-1.4.5-2.8.9m151.8.7c.6.2 1.8.2 2.5 0 .6-.3.1-.5-1.3-.5s-1.9.2-1.2.5m314 2c.7.3 1.6.2 1.9-.1.4-.3-.2-.6-1.3-.5-1.1 0-1.4.3-.6.6m9 0c.7.3 1.6.2 1.9-.1.4-.3-.2-.6-1.3-.5-1.1 0-1.4.3-.6.6"/></g></svg>